<?xml version="1.0" standalone="no"?>
<!DOCTYPE svg PUBLIC "-//W3C//DTD SVG 1.1//EN" "http://www.w3.org/Graphics/SVG/1.1/DTD/svg11.dtd" >
<svg xmlns="http://www.w3.org/2000/svg" xmlns:xlink="http://www.w3.org/1999/xlink" version="1.1">
<metadata>
Created by FontForge 20190801 at Mon Apr 24 17:38:16 2023
 By www-data
Copyright 2023 I Wayan Sukanta All Right Reserved
</metadata>
<defs>
<font id="BaliJayantika" horiz-adv-x="0" >
  <font-face 
    font-family="Bali Jayantika"
    font-weight="400"
    font-stretch="normal"
    units-per-em="1000"
    panose-1="2 2 5 2 6 5 5 2 2 4"
    ascent="800"
    descent="-200"
    x-height="47"
    cap-height="960"
    bbox="-1456 -897 1450 1385"
    underline-thickness="50"
    underline-position="-125"
    unicode-range="U+001D-E016"
  />
<missing-glyph horiz-adv-x="1" 
 />
    <glyph glyph-name="GS_R" unicode="&#x160;&#xc9;" horiz-adv-x="723" 
d="M225 0q-136 0 -220 100q-5 7 -5 25q0 10 19 12q118 -83 202 -83q130 0 183 125q0 17 4 33q0 72 -122 196l-14 37q14 46 75 46h14q160 0 221 -158q9 -31 9 -60q0 -162 -145 -265h-10q0 4 -4 4q94 144 94 246q-18 146 -118 146q-10 0 -18 -5q70 -110 70 -129q5 -8 9 -45
q0 -171 -187 -221q-34 -4 -57 -4zM-343 -703q-52 0 -98 16q-73 30 -73 56q0 33 80 39q43 6 95 40q41 32 58 54q48 55 88 150q45 115 45 206q2 36 4 109q0 94 11 107q5 3 11 3q12 0 25 -6q-6 -172 -9 -199l1 -1q1 20 7.5 24t17.5 7q4 -19 4 -87q0 -205 -52 -344
q-33 -76 -83 -124q-63 -50 -132 -50zM-326 -655q194 0 216 423l3 72l-1 1v-2q-5 -99 -43 -209q-83 -214 -261 -269q40 -14 68 -16h18zM306 -559h-17q-247 0 -325 232q-17 66 -17 142q0 126 56 189l18 1q4 0 15 -18l1 -4q-29 -95 -29 -135q0 -168 109 -267q91 -55 191 -55
q276 0 340 374q15 95 15 177q0 301 -168 521l-1 11q6 4 9 4q61 -20 133 -170q87 -196 87 -416q0 -269 -132 -459q-94 -122 -285 -127z" />
    <glyph glyph-name="nyu" unicode="Zu" horiz-adv-x="1003" 
d="M770 9l-5 4q2 -2 3 -2.5t2 -1.5zM1057 708q205 0 308 -220q28 -85 28 -156v-16q0 -244 -184 -328q-36 -8 -52 -8q-131 0 -160 104v32q0 44 48 72h20q14 -2 48 -100q32 -24 52 -24q114 0 152 176q4 38 4 72q0 227 -184 308q-56 16 -100 16h-16q-130 0 -176 -116l-4 -20
q0 -37 72 -256l8 -64q0 -140 -132 -164q-108 -16 -124 -16l-4 8q68 101 68 192q0 154 -128 200q-16 8 -44 8h-8q-77 0 -104 -80l-4 -40v-80q0 -8 -8 -8h-12q-90 100 -108 100h-16q-40 0 -40 -48v-4q0 -56 116 -128q24 -26 24 -44q0 -48 -100 -64q-124 0 -172 132
q-12 91 -12 96h-8q-12 -4 -12 -24l12 -40l-8 -4h-12q-35 0 -40 52v12q14 104 76 104h16q44 -7 44 -44v-80q10 -124 76 -124h24q8 0 8 8q-64 69 -64 72q-28 44 -28 96q9 96 80 96h32q25 0 60 -28q19 144 144 144h40q172 0 236 -216v-60q0 -69 -40 -136v-4q96 27 96 104v16
q0 68 -76 232q-8 43 -8 76q0 87 108 168q74 48 188 48zM1328 13v-1q-5 -139 -6 -161v-6q-1 -12 -3 -31v0l1 -1q1 20 8 25q6 3 17 6q4 -19 4 -87q0 -37 -1 -64l-2 -27q-7 -141 -49 -253q-21 -48 -43 -79q-11 -17 -40 -45q-44 -35 -81 -42q-32 -10 -61 -8l-17 1q-32 1 -71 15
q-75 31 -73 57v4q1 28 80 34q43 6 95 40q41 32 58 54q26 30 45 64q21 34 43 86q40 102 45 194v12q2 36 4 109q0 45 3 71q2 29 8 36q6 4 14.5 3.5t21.5 -6.5zM1317 -207v-2q-5 -99 -43 -209q-22 -57 -48 -100q-82 -129 -213 -169v-1q40 -13 68 -15h9q91 -5 150 89
q63 107 75 334q1 20 3 70v2z" />
    <glyph glyph-name="Ny_U" unicode="ZU" horiz-adv-x="1003" 
d="M770 9l-5 4q2 -2 3 -2.5t2 -1.5zM1057 708q205 0 308 -220q28 -85 28 -156v-16q0 -244 -184 -328q-36 -8 -52 -8q-131 0 -160 104v32q0 44 48 72h20q14 -2 48 -100q32 -24 52 -24q114 0 152 176q4 38 4 72q0 227 -184 308q-56 16 -100 16h-16q-130 0 -176 -116l-4 -20
q0 -37 72 -256l8 -64q0 -140 -132 -164q-108 -16 -124 -16l-4 8q68 101 68 192q0 154 -128 200q-16 8 -44 8h-8q-77 0 -104 -80l-4 -40v-80q0 -8 -8 -8h-12q-90 100 -108 100h-16q-40 0 -40 -48v-4q0 -56 116 -128q24 -26 24 -44q0 -48 -100 -64q-124 0 -172 132
q-12 91 -12 96h-8q-12 -4 -12 -24l12 -40l-8 -4h-12q-35 0 -40 52v12q14 104 76 104h16q44 -7 44 -44v-80q10 -124 76 -124h24q8 0 8 8q-64 69 -64 72q-28 44 -28 96q9 96 80 96h32q25 0 60 -28q19 144 144 144h40q172 0 236 -216v-60q0 -69 -40 -136v-4q96 27 96 104v16
q0 68 -76 232q-8 43 -8 76q0 87 108 168q74 48 188 48zM1318 41q8 -2 8 -10v-16q-96 -128 -96 -158q-4 -8 -4 -26v-15l4 -25q13 0 100 46q4 0 32 5q78 0 88 -128v-41q0 -185 -100 -409h-8q0 50 48 266q7 41 12 97q-9 112 -56 112h-4q-15 0 -128 -35q-40 18 -40 71v31
q0 133 136 235h8z" />
    <glyph glyph-name="Ny_ing" unicode="Z&#x26;" horiz-adv-x="998" 
d="M770 9l-5 4q2 -2 3 -2.5t2 -1.5zM1057 671q205 0 308 -208q28 -79 28 -147v-15q0 -230 -184 -309q-36 -8 -52 -8q-131 0 -160 98v30q0 42 48 68h20q14 -2 48 -94q32 -22 52 -23q114 0 152 166q4 36 4 68q0 215 -184 291q-56 15 -100 15h-16q-130 0 -176 -109l-4 -19
q0 -35 72 -242l8 -60q0 -133 -132 -155q-108 -15 -124 -15l-4 7q68 96 68 182q0 145 -128 188q-16 8 -44 8h-8q-77 0 -104 -76l-4 -37v-76q0 -7 -8 -7h-12q-90 94 -108 94h-16q-40 0 -40 -45v-4q0 -53 116 -121q24 -25 24 -41q0 -46 -100 -61q-124 0 -172 125q-12 85 -12 90
h-8q-12 -3 -12 -22l12 -38l-8 -4h-12q-35 0 -40 49v12q14 98 76 98h16q44 -6 44 -42v-75q10 -117 76 -117h24q8 0 8 7q-64 65 -64 68q-28 42 -28 91q9 90 80 90h32q25 0 60 -26q19 136 144 136h40q172 0 236 -204v-57q0 -65 -40 -128v-4q96 26 96 98v16q0 64 -76 218
q-8 41 -8 72q0 83 108 159q74 45 188 45zM299 930h27q123 0 184 -100q20 -42 20 -80v-7q0 -146 -140 -204h-4q-6 0 -6 7q100 80 100 190v7q0 92 -94 123q-47 10 -66 10q-119 0 -161 -100l-3 -33q0 -90 140 -124q20 -21 20 -23v-17q-15 -43 -63 -43h-10q-76 0 -137 77v20
q0 5 10 10q9 0 60 -30h3v3q-73 40 -73 127v3q0 69 57 127q67 57 136 57zM654 544l-4 8q26 77 26 148q0 139 -79 156q-25 -17 -25 -39v-3q-6 -3 -12 -3q-31 14 -34 37l-1 11q5 58 50 65l18 1q96 -13 116 -131q6 -53 6 -85q0 -121 -61 -165z" />
    <glyph glyph-name="Ny_Ing" unicode="Z&#x23;" horiz-adv-x="998" 
d="M770 9l-5 4q2 -2 3 -2.5t2 -1.5zM1057 671q205 0 308 -208q28 -79 28 -147v-15q0 -230 -184 -309q-36 -8 -52 -8q-131 0 -160 98v30q0 42 48 68h20q14 -2 48 -94q32 -22 52 -23q114 0 152 166q4 36 4 68q0 215 -184 291q-56 15 -100 15h-16q-130 0 -176 -109l-4 -19
q0 -35 72 -242l8 -60q0 -133 -132 -155q-108 -15 -124 -15l-4 7q68 96 68 182q0 145 -128 188q-16 8 -44 8h-8q-77 0 -104 -76l-4 -37v-76q0 -7 -8 -7h-12q-90 94 -108 94h-16q-40 0 -40 -45v-4q0 -53 116 -121q24 -25 24 -41q0 -46 -100 -61q-124 0 -172 125q-12 85 -12 90
h-8q-12 -3 -12 -22l12 -38l-8 -4h-12q-35 0 -40 49v12q14 98 76 98h16q44 -6 44 -42v-75q10 -117 76 -117h24q8 0 8 7q-64 65 -64 68q-28 42 -28 91q9 90 80 90h32q25 0 60 -26q19 136 144 136h40q172 0 236 -204v-57q0 -65 -40 -128v-4q96 26 96 98v16q0 64 -76 218
q-8 41 -8 72q0 83 108 159q74 45 188 45zM299 930h27q123 0 184 -100q20 -42 20 -80v-7q0 -146 -140 -204h-4q-6 0 -6 7q100 80 100 190v7q0 92 -94 123q-47 10 -66 10q-119 0 -161 -100l-3 -33q0 -90 140 -124q20 -21 20 -23v-17q-15 -43 -63 -43h-10q-76 0 -137 77v20
q0 5 10 10q9 0 60 -30h3v3q-73 40 -73 127v3q0 69 57 127q67 57 136 57zM389 601q-4 4 -4 6q0 69 -27 124q-21 50 -62 58l-4 1q-6 0 -12 -2t-8 -37q-50 5 -50 47q0 16 29 34q16 6 32 6q67 0 101 -80q28 -66 28 -113q0 -36 -23 -44zM654 544l-4 8q26 77 26 148q0 139 -79 156
q-25 -17 -25 -39v-3q-6 -3 -12 -3q-31 14 -34 37l-1 11q5 58 50 65l18 1q96 -13 116 -131q6 -53 6 -85q0 -121 -61 -165z" />
    <glyph glyph-name="Ny_eng" unicode="Z&#x25;" horiz-adv-x="1003" 
d="M1057 671q205 0 308 -208q28 -79 28 -147v-15q0 -230 -184 -309q-36 -8 -52 -8q-131 0 -160 98v30q0 42 48 68h20q14 -2 48 -94q32 -22 52 -23q114 0 152 166q4 36 4 68q0 215 -184 291q-56 15 -100 15h-16q-130 0 -176 -109l-4 -19q0 -35 72 -242l8 -60
q0 -133 -132 -155q-108 -15 -124 -15l-4 7q68 96 68 182q0 145 -128 188q-16 8 -44 8h-8q-77 0 -104 -76l-4 -37v-76q0 -7 -8 -7h-12q-90 94 -108 94h-16q-40 0 -40 -45v-4q0 -53 116 -121q24 -25 24 -41q0 -46 -100 -61q-124 0 -172 125q-12 85 -12 90h-8q-12 -3 -12 -22
l12 -38l-8 -4h-12q-35 0 -40 49v12q14 98 76 98h16q44 -6 44 -42v-75q10 -117 76 -117h24q8 0 8 7q-64 65 -64 68q-28 42 -28 91q9 90 80 90h32q25 0 60 -26q19 136 144 136h40q172 0 236 -204v-57q0 -65 -40 -128v-4q96 26 96 98v16q0 64 -76 218q-8 41 -8 72q0 83 108 159
q74 45 188 45zM363 931v-4q-24 -54 -24 -88v-12h44q221 0 264 -144v-24q0 -79 -120 -96h-4q-171 0 -244 188q-108 -50 -108 -116v-12q0 -57 112 -72q21 4 40 4h24q8 -1 8 -8v-12q-30 -40 -104 -40h-12q-104 0 -172 104q-4 7 -4 16v16q0 6 12 12q4 0 44 -36q-8 28 -8 48
q0 92 172 164q0 83 80 112zM339 759q0 -66 88 -128q44 -24 100 -24q64 0 64 52q0 47 -84 84q-52 16 -100 16h-68zM702 534l-4 8q26 77 26 148q0 139 -79 156q-25 -17 -25 -39v-3q-6 -3 -12 -3q-31 14 -34 37l-1 11q5 58 50 65l18 1q96 -13 116 -131q6 -53 6 -85
q0 -121 -61 -165z" />
    <glyph glyph-name="Ny_er" unicode="Z&#x24;" horiz-adv-x="998" 
d="M770 9l-5 4q2 -2 3 -2.5t2 -1.5zM1057 671q205 0 308 -208q28 -79 28 -147v-15q0 -230 -184 -309q-36 -8 -52 -8q-131 0 -160 98v30q0 42 48 68h20q14 -2 48 -94q32 -22 52 -23q114 0 152 166q4 36 4 68q0 215 -184 291q-56 15 -100 15h-16q-130 0 -176 -109l-4 -19
q0 -35 72 -242l8 -60q0 -133 -132 -155q-108 -15 -124 -15l-4 7q68 96 68 182q0 145 -128 188q-16 8 -44 8h-8q-77 0 -104 -76l-4 -37v-76q0 -7 -8 -7h-12q-90 94 -108 94h-16q-40 0 -40 -45v-4q0 -53 116 -121q24 -25 24 -41q0 -46 -100 -61q-124 0 -172 125q-12 85 -12 90
h-8q-12 -3 -12 -22l12 -38l-8 -4h-12q-35 0 -40 49v12q14 98 76 98h16q44 -6 44 -42v-75q10 -117 76 -117h24q8 0 8 7q-64 65 -64 68q-28 42 -28 91q9 90 80 90h32q25 0 60 -26q19 136 144 136h40q172 0 236 -204v-57q0 -65 -40 -128v-4q96 26 96 98v16q0 64 -76 218
q-8 41 -8 72q0 83 108 159q74 45 188 45zM564 891q9 0 14 -26q5 -43 8 -64q7 -47 17 -81q8 -25 23 -59q17 -36 25 -45q37 -55 79 -71q37 -16 44 -20q1 -1 1 -2v0q0 -4 -27 -6h-9q-44 0 -93 41q-13 11 -30 34q-9 15 -24 44q-16 38 -21 60q-7 22 -12 54q-10 61 -10 103
q0 28 10 35q4 3 5 3zM323 931v-4q-24 -54 -24 -88v-12h44q221 0 264 -144v-24q0 -79 -120 -96h-4q-171 0 -244 188q-108 -50 -108 -116v-12q0 -57 112 -72q21 4 40 4h24q8 -1 8 -8v-12q-30 -40 -104 -40h-12q-104 0 -172 104q-4 7 -4 16v16q0 6 12 12q4 0 44 -36
q-8 28 -8 48q0 92 172 164q0 83 80 112zM299 759q0 -66 88 -128q44 -24 100 -24q64 0 64 52q0 47 -84 84q-52 16 -100 16h-68z" />
    <glyph glyph-name="Ny_ir" unicode="Z&#xa8;" horiz-adv-x="998" 
d="M770 9l-5 4q2 -2 3 -2.5t2 -1.5zM1057 671q205 0 308 -208q28 -79 28 -147v-15q0 -230 -184 -309q-36 -8 -52 -8q-131 0 -160 98v30q0 42 48 68h20q14 -2 48 -94q32 -22 52 -23q114 0 152 166q4 36 4 68q0 215 -184 291q-56 15 -100 15h-16q-130 0 -176 -109l-4 -19
q0 -35 72 -242l8 -60q0 -133 -132 -155q-108 -15 -124 -15l-4 7q68 96 68 182q0 145 -128 188q-16 8 -44 8h-8q-77 0 -104 -76l-4 -37v-76q0 -7 -8 -7h-12q-90 94 -108 94h-16q-40 0 -40 -45v-4q0 -53 116 -121q24 -25 24 -41q0 -46 -100 -61q-124 0 -172 125q-12 85 -12 90
h-8q-12 -3 -12 -22l12 -38l-8 -4h-12q-35 0 -40 49v12q14 98 76 98h16q44 -6 44 -42v-75q10 -117 76 -117h24q8 0 8 7q-64 65 -64 68q-28 42 -28 91q9 90 80 90h32q25 0 60 -26q19 136 144 136h40q172 0 236 -204v-57q0 -65 -40 -128v-4q96 26 96 98v16q0 64 -76 218
q-8 41 -8 72q0 83 108 159q74 45 188 45zM564 891q9 0 14 -26q5 -43 8 -64q7 -47 17 -81q8 -25 23 -59q17 -36 25 -45q37 -55 79 -71q37 -16 44 -20q1 -1 1 -2v0q0 -4 -27 -6h-9q-44 0 -93 41q-13 11 -30 34q-9 15 -24 44q-16 38 -21 60q-7 22 -12 54q-10 61 -10 103
q0 28 10 35q4 3 5 3zM299 930h27q123 0 184 -100q20 -42 20 -80v-7q0 -146 -140 -204h-4q-6 0 -6 7q100 80 100 190v7q0 92 -94 123q-47 10 -66 10q-119 0 -161 -100l-3 -33q0 -90 140 -124q20 -21 20 -23v-17q-15 -43 -63 -43h-10q-76 0 -137 77v20q0 5 10 10q9 0 60 -30h3
v3q-73 40 -73 127v3q0 69 57 127q67 57 136 57z" />
    <glyph glyph-name="Ny_Ir" unicode="Z&#x21;" horiz-adv-x="982" 
d="M770 9l-5 4q2 -2 3 -2.5t2 -1.5zM1057 671q205 0 308 -208q28 -79 28 -147v-15q0 -230 -184 -309q-36 -8 -52 -8q-131 0 -160 98v30q0 42 48 68h20q14 -2 48 -94q32 -22 52 -23q114 0 152 166q4 36 4 68q0 215 -184 291q-56 15 -100 15h-16q-130 0 -176 -109l-4 -19
q0 -35 72 -242l8 -60q0 -133 -132 -155q-108 -15 -124 -15l-4 7q68 96 68 182q0 145 -128 188q-16 8 -44 8h-8q-77 0 -104 -76l-4 -37v-76q0 -7 -8 -7h-12q-90 94 -108 94h-16q-40 0 -40 -45v-4q0 -53 116 -121q24 -25 24 -41q0 -46 -100 -61q-124 0 -172 125q-12 85 -12 90
h-8q-12 -3 -12 -22l12 -38l-8 -4h-12q-35 0 -40 49v12q14 98 76 98h16q44 -6 44 -42v-75q10 -117 76 -117h24q8 0 8 7q-64 65 -64 68q-28 42 -28 91q9 90 80 90h32q25 0 60 -26q19 136 144 136h40q172 0 236 -204v-57q0 -65 -40 -128v-4q96 26 96 98v16q0 64 -76 218
q-8 41 -8 72q0 83 108 159q74 45 188 45zM557 896q9 0 13 -26q6 -43 9 -64q7 -47 17 -81q8 -25 23 -59q17 -36 26 -45q37 -55 79 -71q38 -16 45 -20q1 -1 1 -2v0q0 -4 -27 -6h-10q-44 0 -94 41q-12 11 -30 34q-9 15 -24 44q-16 38 -21 60q-7 22 -12 54q-10 61 -10 103
q0 28 10 35q3 3 5 3zM268 541h-10q-76 0 -137 77v20q0 5 10 10q9 0 60 -30q3 0 3 3q-73 40 -73 129q0 70 57 128q67 57 136 57h27q123 0 184 -100q20 -42 20 -80q0 -153 -140 -211q-10 0 -10 7q100 80 100 190q0 99 -94 130q-47 10 -66 10q-119 0 -161 -100l-3 -33
q0 -90 140 -124q20 -21 20 -23v-17q-15 -43 -63 -43zM389 601q-4 4 -4 6q0 69 -27 124q-21 50 -62 58l-4 1q-6 0 -12 -2t-8 -37q-50 5 -50 47q0 16 29 34q16 6 32 6q67 0 101 -80q28 -66 28 -113q0 -36 -23 -44z" />
    <glyph glyph-name="Ny_ur" unicode="Z&#xc7;&#xcb;&#xb1;" horiz-adv-x="1088" 
d="M770 9l-5 4q2 -2 3 -2.5t2 -1.5zM1057 671q205 0 308 -208q28 -79 28 -147v-15q0 -230 -184 -309q-36 -8 -52 -8q-131 0 -160 98v30q0 42 48 68h20q14 -2 48 -94q32 -22 52 -23q114 0 152 166q4 36 4 68q0 215 -184 291q-56 15 -100 15h-16q-130 0 -176 -109l-4 -19
q0 -35 72 -242l8 -60q0 -133 -132 -155q-108 -15 -124 -15l-4 7q68 96 68 182q0 145 -128 188q-16 8 -44 8h-8q-77 0 -104 -76l-4 -37v-76q0 -7 -8 -7h-12q-90 94 -108 94h-16q-40 0 -40 -45v-4q0 -53 116 -121q24 -25 24 -41q0 -46 -100 -61q-124 0 -172 125q-12 85 -12 90
h-8q-12 -3 -12 -22l12 -38l-8 -4h-12q-35 0 -40 49v12q14 98 76 98h16q44 -6 44 -42v-75q10 -117 76 -117h24q8 0 8 7q-64 65 -64 68q-28 42 -28 91q9 90 80 90h32q25 0 60 -26q19 136 144 136h40q172 0 236 -204v-57q0 -65 -40 -128v-4q96 26 96 98v16q0 64 -76 218
q-8 41 -8 72q0 83 108 159q74 45 188 45zM972 -15h5q194 -70 194 -250v-53q0 -247 -253 -368q-155 -53 -252 -53h-59q-325 0 -491 192q-58 91 -58 176v53q0 171 194 291h10q10 -2 10 -8v-5q-151 -145 -151 -294v-12q0 -220 272 -299q169 -29 244 -29q161 0 330 82
q146 125 146 299q0 152 -141 270v8zM1107 -692h-10l-1 3q0 20 74 146q17 53 17 97q0 57 -28 100q-32 32 -47 54l9 10q33 -2 60 -34l22 -31q29 -44 29 -99q0 -76 -54 -174l2 -3l26 17q64 48 64 119q0 27 -10 58q-7 19 -30 54q-16 25 -16 27q0 4 3 6q24 0 46 -26
q52 -75 52 -136q0 -51 -34 -99q-23 -25 -39 -37l-33 -20q-55 -32 -102 -32zM714 -82h8q149 0 232 -164q17 -40 17 -80v-8q-12 -194 -116 -240l-4 8q62 134 62 208q0 149 -149 204q-48 4 -54 8q-104 -8 -104 -92q4 -28 4 -32h4q23 48 71 48h4q107 0 153 -108q9 -15 9 -32v-36
q0 -126 -158 -180q-33 -8 -70 -8h-13q-165 0 -212 112q-8 18 -8 52v4q0 34 17 116q-8 -6 -67 -152q-57 -76 -112 -76h-8q-8 0 -8 8v4q112 89 112 136q49 147 74 172l29 4h5q33 0 33 -32v-8q-21 -117 -21 -144q0 -85 71 -116q38 -16 70 -16h33q175 0 175 152q-21 92 -92 92
h-8q-41 -7 -41 -32q0 -3 20 -52v-4q0 -12 -16 -12q-116 39 -116 140v12q0 99 103 132q34 12 71 12z" />
    <glyph glyph-name="Ny_r" unicode="Z&#xc9;" horiz-adv-x="1003" 
d="M770 9l-5 4q2 -2 3 -2.5t2 -1.5zM1057 671q205 0 308 -208q28 -79 28 -147v-15q0 -230 -184 -309q-36 -8 -52 -8q-131 0 -160 98v30q0 42 48 68h20q14 -2 48 -94q32 -22 52 -23q114 0 152 166q4 36 4 68q0 215 -184 291q-56 15 -100 15h-16q-130 0 -176 -109l-4 -19
q0 -35 72 -242l8 -60q0 -133 -132 -155q-108 -15 -124 -15l-4 7q68 96 68 182q0 145 -128 188q-16 8 -44 8h-8q-77 0 -104 -76l-4 -37v-76q0 -7 -8 -7h-12q-90 94 -108 94h-16q-40 0 -40 -45v-4q0 -53 116 -121q24 -25 24 -41q0 -46 -100 -61q-124 0 -172 125q-12 85 -12 90
h-8q-12 -3 -12 -22l12 -38l-8 -4h-12q-35 0 -40 49v12q14 98 76 98h16q44 -6 44 -42v-75q10 -117 76 -117h24q8 0 8 7q-64 65 -64 68q-28 42 -28 91q9 90 80 90h32q25 0 60 -26q19 136 144 136h40q172 0 236 -204v-57q0 -65 -40 -128v-4q96 26 96 98v16q0 64 -76 218
q-8 41 -8 72q0 83 108 159q74 45 188 45zM929 -15h5q185 -70 185 -250v-53q0 -247 -241 -368q-148 -53 -241 -53h-55q-311 0 -468 192q-56 91 -56 176v53q0 171 185 291h10q9 -2 9 -8v-5q-144 -145 -144 -294v-12q0 -220 260 -299q160 -29 231 -29q154 0 315 82
q139 125 139 299q0 152 -134 270v8z" />
    <glyph glyph-name="Ny_ru" unicode="Z&#xc9;&#xb1;" horiz-adv-x="1003" 
d="M770 9l-5 4q2 -2 3 -2.5t2 -1.5zM1057 671q205 0 308 -208q28 -79 28 -147v-15q0 -230 -184 -309q-36 -8 -52 -8q-131 0 -160 98v30q0 42 48 68h20q14 -2 48 -94q32 -22 52 -23q114 0 152 166q4 36 4 68q0 215 -184 291q-56 15 -100 15h-16q-130 0 -176 -109l-4 -19
q0 -35 72 -242l8 -60q0 -133 -132 -155q-108 -15 -124 -15l-4 7q68 96 68 182q0 145 -128 188q-16 8 -44 8h-8q-77 0 -104 -76l-4 -37v-76q0 -7 -8 -7h-12q-90 94 -108 94h-16q-40 0 -40 -45v-4q0 -53 116 -121q24 -25 24 -41q0 -46 -100 -61q-124 0 -172 125q-12 85 -12 90
h-8q-12 -3 -12 -22l12 -38l-8 -4h-12q-35 0 -40 49v12q14 98 76 98h16q44 -6 44 -42v-75q10 -117 76 -117h24q8 0 8 7q-64 65 -64 68q-28 42 -28 91q9 90 80 90h32q25 0 60 -26q19 136 144 136h40q172 0 236 -204v-57q0 -65 -40 -128v-4q96 26 96 98v16q0 64 -76 218
q-8 41 -8 72q0 83 108 159q74 45 188 45zM929 -15h5q185 -70 185 -250v-53q0 -247 -241 -368q-148 -53 -241 -53h-55q-311 0 -468 192q-56 91 -56 176v53q0 171 185 291h10q9 -2 9 -8v-5q-144 -145 -144 -294v-12q0 -220 260 -299q160 -29 231 -29q154 0 315 82
q139 125 139 299q0 152 -134 270v8zM1058 -692h-10v3q0 20 70 146q16 53 16 97q0 57 -27 100q-30 32 -44 54l8 10q32 -2 57 -34l21 -31q27 -44 27 -99q0 -76 -51 -174l2 -3l25 17q61 48 61 119q0 27 -9 58q-7 19 -29 54q-15 25 -15 27q0 4 3 6q22 0 43 -26q50 -75 50 -136
q0 -51 -32 -99q-22 -25 -38 -37l-31 -20q-52 -32 -97 -32z" />
    <glyph glyph-name="Ny_rU" unicode="Z&#xc9;&#xb2;" horiz-adv-x="845" 
d="M1195 -294q37 0 44 -52v-8q0 -40 -64 -92q80 -21 80 -80v-8q-8 -39 -8 -44q11 0 20 -20v-4q0 -8 -8 -8q-13 8 -24 8q-42 -84 -92 -84h-20q-32 0 -32 32v12q0 53 88 76q32 0 32 28v12q0 44 -104 52l-4 8q88 80 88 108v16q0 6 -16 12q-40 0 -100 -68h-4v4q0 69 96 100h28z
M1123 -642q0 -6 16 -12q56 31 56 64q-72 -6 -72 -52zM1057 671q205 0 308 -208q28 -79 28 -147v-15q0 -230 -184 -309q-36 -8 -52 -8q-131 0 -160 98v30q0 42 48 68h20q14 -2 48 -94q32 -22 52 -23q114 0 152 166q4 36 4 68q0 215 -184 291q-56 15 -100 15h-16
q-130 0 -176 -109l-4 -19q0 -35 72 -242l8 -60q0 -133 -132 -155q-108 -15 -124 -15l-4 7q68 96 68 182q0 145 -128 188q-16 8 -44 8h-8q-77 0 -104 -76l-4 -37v-76q0 -7 -8 -7h-12q-90 94 -108 94h-16q-40 0 -40 -45v-4q0 -53 116 -121q24 -25 24 -41q0 -46 -100 -61
q-124 0 -172 125q-12 85 -12 90h-8q-12 -3 -12 -22l12 -38l-8 -4h-12q-35 0 -40 49v12q14 98 76 98h16q44 -6 44 -42v-75q10 -117 76 -117h24q8 0 8 7q-64 65 -64 68q-28 42 -28 91q9 90 80 90h32q25 0 60 -26q19 136 144 136h40q172 0 236 -204v-57q0 -65 -40 -128v-4
q96 26 96 98v16q0 64 -76 218q-8 41 -8 72q0 83 108 159q74 45 188 45zM929 -15h5q185 -70 185 -250v-53q0 -247 -241 -368q-148 -53 -241 -53h-55q-311 0 -468 192q-56 91 -56 176v53q0 171 185 291h10q9 -2 9 -8v-5q-144 -145 -144 -294v-12q0 -220 260 -299
q160 -29 231 -29q154 0 315 82q139 125 139 299q0 152 -134 270v8z" />
    <glyph glyph-name="Ny_rg" unicode="&#xf1;&#xcd;" horiz-adv-x="164" 
d="M-172 -100h6q122 0 172 -151q6 -33 6 -60v-10q0 -138 -95 -184q-13 -7 -35 -7q-83 10 -83 67v7q4 43 32 43h7q8 0 22 -53q17 -14 28 -14h10q73 22 73 114l3 17q0 125 -86 174q-31 17 -73 17q-95 -12 -95 -91q38 -144 38 -157v-20q0 -84 -124 -101h-15v4q50 86 50 164
q0 129 -98 167l-32 7q-52 0 -76 -57q-6 -32 -6 -50v-64q0 -7 -10 -7t-63 74q-22 13 -32 13q-28 0 -32 -43q0 -48 96 -117q9 -23 9 -30q-19 -51 -63 -51h-16q-88 0 -124 111q-3 80 -13 80h-3q0 -16 -6 -16q9 -32 9 -37q0 -7 -6 -7h-6q-28 0 -32 44v13q10 87 63 87
q39 0 39 -74v-43q8 -94 63 -94l16 3q-5 13 -48 64q-22 44 -22 80q0 68 57 84h19q22 0 51 -23h3v3q12 117 111 117h19q85 0 149 -97q35 104 143 104zM-293 -340v-3q0 -34 -27 -98h3q31 18 31 47v54h-7zM-106 556q103 -32 197 -256q77 -196 66 -393q-25 -503 -342 -653
q-112 -47 -274 -39l-20 1q-341 16 -448 342q-9 65 -7 98l1 28q8 150 94 214h16q6 -1 16 -17q-60 -126 -65 -208v-4q-6 -117 82 -244q139 -116 340 -125q318 -16 449 246q73 149 85 373l1 24q17 331 -192 593l-7 17z" />
    <glyph glyph-name=".notdef" horiz-adv-x="1" 
 />
    <glyph glyph-name="five" unicode="5" horiz-adv-x="623" 
d="M301 520h20q162 0 232 -168q12 -42 12 -84v-40q0 -66 -68 -624v-60q1 -118 52 -132q8 -4 12 -4q47 0 52 80q0 36 12 36q31 0 36 -40v-12q-16 -116 -96 -116h-8q-112 0 -124 136q-4 47 -4 68q0 89 68 652v40q0 156 -116 200q-26 12 -64 12h-24q-131 0 -180 -136
q-12 -58 -12 -92v-16q15 -176 108 -176q4 -4 32 -4h4q85 0 108 112q0 44 -132 44h-16q-6 0 -12 12v12q3 10 88 64q40 38 40 60v4q0 8 -8 8h-20q-51 0 -92 -76q-8 -4 -12 -4l-12 16v20q0 83 120 100q88 -7 88 -56v-20q0 -27 -72 -96q96 -28 96 -76v-28q-37 -156 -184 -156
q-117 0 -168 140q-12 48 -12 88v28q0 202 180 272q51 12 76 12z" />
    <glyph glyph-name="six" unicode="6" horiz-adv-x="677" 
d="M470 -37h-2q-8 0 -9 8q106 118 106 187q0 113 -81 144q-39 10 -60 10l-48 -6q-82 -25 -82 -72l3 -26q7 -54 111 -106l11 -12l1 -9q-6 -65 -116 -80q-18 -2 -35 -2q-133 0 -210 136q-13 39 -13 84q0 167 186 262q74 25 149 25q85 0 125 -40l1 -9l-5 -1q-125 -6 -154 -10
q-218 -56 -218 -206q0 -15 2 -30v-5q16 -120 148 -128q5 1 11.5 1.5t6.5 7.5l-1 7q-65 57 -71 101l-2 23q0 100 120 154q41 14 87 14q129 0 194 -125q14 -46 14 -80q0 -118 -141 -209z" />
    <glyph glyph-name="seven" unicode="7" horiz-adv-x="845" 
d="M661 612h4q37 0 76 -100q23 11 60 44h4q8 -1 8 -8v-4q0 -32 -60 -68q56 -140 56 -260v-36q-19 -180 -180 -180h-20q-107 0 -152 96q-8 28 -8 48v8q12 148 12 160q0 84 -92 84q-88 0 -108 -132q0 -111 136 -160v-12q0 -61 -108 -72q-140 0 -140 160q0 72 -16 72h-12
l-4 -16q8 -36 8 -52v-4q0 -6 -16 -16h-4q-48 0 -60 92q16 80 80 80h16q60 0 60 -172q18 -80 76 -80q8 4 12 4v12q-76 83 -76 168q24 172 164 172h32q120 0 120 -140l-16 -160q0 -80 96 -80q90 0 132 68q20 39 20 96q0 82 -48 224q-26 -8 -36 -8q-68 0 -68 76q0 85 52 96z
M661 544q-4 -21 -4 -24q4 -36 16 -36h12l8 4q-21 56 -32 56z" />
    <glyph glyph-name="nine" unicode="9" horiz-adv-x="797" 
d="M625 636h4q37 0 76 -100q23 11 60 44h4q8 -1 8 -8v-4q0 -32 -60 -68q52 -127 52 -244v-20q0 -166 -140 -232l-48 -4h-4q-83 0 -164 108h-4q-51 -96 -148 -96h-28q-152 18 -152 132q0 29 64 160v20h-16q-26 -7 -36 -116l-12 -8h-4q-32 17 -32 80v8q0 67 88 104h24
q51 0 56 -60q0 -32 -68 -152v-24q0 -64 108 -76q128 26 128 120v36q-8 129 -8 140q0 22 24 36h12q33 0 48 -228q32 -100 124 -100q136 0 136 176v28q0 79 -44 184q-15 -8 -32 -8q-68 6 -68 68v4q0 90 52 100zM625 568l-4 -20v-4q0 -31 16 -36h12l8 4q-21 56 -32 56z" />
    <glyph glyph-name="colon" unicode=":" horiz-adv-x="345" 
d="M214 203q-9 0 -57 89q-32 29 -70 36v13q0 75 11 76q123 -42 128 -145l2 -39q0 -25 -14 -30zM208 14q-13 0 -48 78q-24 26 -68 52q2 84 16 85q112 -61 114 -184q0 -25 -14 -31z" />
    <glyph glyph-name="semicolon" unicode=";" horiz-adv-x="443" 
d="M220 493q153 -18 153 -150v-18q0 -27 -39 -100h5q81 -52 81 -240q0 -96 -77 -526v-41q0 -108 43 -136h21q13 0 17 64l13 9q55 0 68 -77v-9q0 -59 -81 -82h-13q-111 0 -128 195v18q0 78 77 549v41q0 134 -81 186q-35 18 -64 18q-76 -12 -76 -64v-13q0 -41 85 -55l13 -27
q0 -33 -69 -45q-96 0 -110 127v4q0 88 85 123q37 13 85 13q9 0 47 -4q13 21 21 72q0 82 -85 82h-13q-64 0 -72 -123l-13 -9h-13q-47 0 -55 86q0 109 153 132h22z" />
    <glyph glyph-name="less" unicode="&#x3c;" horiz-adv-x="861" 
d="M556 602h8q192 0 192 -279q0 -111 -43 -751v-35q0 -56 35 -74h13q74 35 78 35h14q21 -12 21 -35q0 -90 -126 -105h-5q-87 14 -87 105v17q52 658 52 790q0 199 -96 245q-16 8 -34 8h-27q-62 0 -70 -69q0 -41 97 -192q30 -63 30 -105q-19 -105 -100 -105q-112 0 -157 227
q-24 48 -53 48h-13q-35 -3 -35 -44l57 -170v-22q-15 -56 -57 -56h-22q-74 0 -100 148q-13 17 -18 17h-8q-7 0 -13 -13v-13q0 -10 4 -17q-6 -22 -13 -22q-35 0 -35 39v22q0 68 65 87q48 0 83 -161q18 -26 40 -26t22 26v9q-62 130 -62 174v26q0 56 83 70h13q92 0 140 -201
q32 -60 52 -65h22q31 0 31 31v4q0 68 -118 240q-9 28 -9 39v26q26 127 149 127z" />
    <glyph glyph-name="equal" unicode="=" horiz-adv-x="800" 
d="M141 377h455q70 0 91 -28v-12q0 -16 -118 -20h-358q-145 0 -145 24v16q0 17 75 20zM137 193h455q70 0 91 -28v-12q0 -16 -118 -20h-358q-145 0 -145 24v16q0 17 75 20z" />
    <glyph glyph-name="greater" unicode="&#x3e;" horiz-adv-x="1103" 
d="M529 506h16q168 0 240 -196l8 -68q0 -159 -128 -220l4 -8q0 -13 -84 -16q-72 -15 -124 -68q-36 -43 -36 -96v-8q19 -136 128 -136h24q104 20 104 96q0 48 -48 48q-24 0 -64 -76q-14 -4 -16 -4q-26 0 -36 64q0 122 136 160q9 0 44 4q110 -8 164 -28q4 66 4 100v12
q0 338 -64 412q0 13 44 16q188 0 188 -328q0 -78 -12 -296q50 -18 152 -136q40 -60 40 -80l-8 -4q-155 168 -188 180v-4q-16 -258 -16 -392v-56q0 -165 100 -232v-4q-109 0 -152 124q-8 30 -8 56v52q0 93 24 496q-7 0 -44 20q0 -567 -140 -696q-59 -32 -100 -32
q-72 11 -72 72q-4 0 -4 24v40q0 84 108 308q-192 -60 -324 -60h-56q-232 0 -232 172q0 169 172 248q19 0 40 4v-4q-152 -90 -152 -228v-12q0 -132 224 -132q173 0 412 96q0 -4 4 -4q-144 -329 -144 -432q0 -22 36 -32q97 0 128 172q24 93 40 520q-47 20 -144 28
q-99 0 -144 -80l-4 -16q41 32 76 32q92 -18 92 -88v-24q0 -77 -112 -124q-28 -8 -48 -8h-24q-130 0 -184 144q-8 41 -8 56q0 134 160 192q16 7 72 12q46 -8 68 -8q72 108 72 204v32q0 127 -132 168q-22 4 -36 4q-124 0 -124 -132v-76q0 -8 -12 -8t-92 92q-29 12 -40 12
q-35 0 -40 -52q0 -58 108 -124q32 -25 32 -48v-12q-29 -52 -96 -52h-12q-126 0 -168 144q-2 84 -16 84q-9 0 -12 -28q12 -26 12 -36l-12 -8q-48 2 -48 48v16q16 108 80 108q56 -3 56 -52v-72q0 -110 80 -128h12q16 0 16 8q-84 91 -84 120q-8 19 -8 48q0 100 100 100h4
q31 0 64 -28q7 0 20 64q42 80 144 80zM889 426q32 -91 32 -324v-172q9 0 48 -24v4q8 128 8 224q0 235 -84 292h-4z" />
    <glyph glyph-name="at" unicode="@" horiz-adv-x="702" 
d="M380 340q-25 0 -48.5 -16.5t-45.5 -47.5q-40 -53 -40 -91q0 -31 34 -31q29 0 53.5 15.5t47.5 44.5q19 26 28.5 49t9.5 44q0 33 -39 33zM349 -4q-68 0 -124.5 16t-96.5 45.5t-61.5 72t-21.5 94.5q0 57 24 103t67.5 79.5t104.5 51t135 17.5q58 0 104 -12.5t78.5 -35.5
t50 -55.5t17.5 -74.5q0 -35 -15.5 -67.5t-41.5 -58t-61.5 -41t-77.5 -15.5q-56 0 -56 61q-80 -61 -125 -61q-14 0 -26 5.5t-21 13.5t-14.5 19.5t-5.5 24.5q0 55 59 115q63 65 135 65q31 0 54 -19q17 11 78 18q-74 -195 -74 -200q0 -17 22 -17q58 0 102 61q38 52 38 102
q0 35 -16 62.5t-44 47.5t-68.5 31t-89.5 11q-65 0 -118.5 -18t-92 -50t-59.5 -75.5t-21 -94.5q0 -89 70 -144v0q71 -54 194 -54q189 0 274 140h28q-11 -24 -27 -45.5t-34 -39.5q-45 -37 -105.5 -57.5t-137.5 -20.5z" />
    <glyph glyph-name="A" unicode="A" horiz-adv-x="898" 
d="M1031 554q181 0 249 -208q8 -57 8 -80v-8q0 -203 -144 -264q-27 -4 -43 -4q-113 11 -113 100v4q9 56 43 56h12q9 -2 35 -76q20 -16 35 -16h7q96 0 113 172v16q0 205 -175 248q-21 4 -31 4q-142 0 -191 -164q-32 -144 -43 -144q-12 0 -27 136q-41 116 -109 116h-4
q0 -15 54 -76q32 -65 32 -128q0 -161 -117 -216q-27 -8 -47 -8h-16q-140 23 -140 144q4 60 4 84q-4 8 -4 12h-12q-18 -184 -46 -184q-46 -48 -125 -48q-90 0 -144 76q-12 31 -12 52q0 38 62 168v20h-15q-24 0 -35 -116l-12 -8h-8q-27 15 -27 84q0 76 90 108h23q43 0 51 -60
q0 -34 -67 -152v-20q0 -69 98 -80h8q113 15 113 112v4q-4 54 -4 92q18 52 54 52h8q44 0 51 -76v-20q0 -25 -4 -60q0 -100 105 -100q88 0 117 108v68q0 102 -105 144q-35 20 -35 40q0 52 70 52q120 0 175 -128q37 71 82 120q69 52 156 52z" />
    <glyph glyph-name="C" unicode="C" horiz-adv-x="808" 
d="M909 572q194 0 260 -212q8 -48 8 -76v-8q0 -203 -148 -264q-27 -4 -44 -4q-116 10 -116 104q10 56 44 56h12q9 -2 36 -76q21 -16 36 -16h8q98 0 116 172v16q0 203 -180 248q-21 4 -48 4q-101 0 -204 -176h-8q-35 112 -128 112q-88 -11 -88 -48q36 20 56 20q93 0 132 -152
q4 -50 4 -56q-23 -176 -132 -176q0 -4 -16 -4q-117 0 -232 148q-22 20 -48 20h-20q-60 -13 -60 -72q0 -32 92 -108v-12q-4 -12 -24 -12q-56 0 -124 84q-8 40 -12 40q5 52 12 52q-48 62 -48 128v4q0 78 108 92q112 0 128 -132v-12q28 0 144 -128q40 -20 72 -20h8q85 0 96 108
v24q0 115 -88 140h-4q-27 0 -88 -68h-8q-8 13 -8 24v32q0 80 108 132q28 8 48 8h12q70 0 120 -64q66 128 216 128zM101 280v-64h8q37 56 92 56h16v4q0 68 -64 68q-44 0 -52 -64z" />
    <glyph glyph-name="D" unicode="D" horiz-adv-x="866" 
d="M965 564q190 0 262 -208q8 -57 8 -80v-8q0 -203 -151 -264q-28 -4 -45 -4q-119 11 -119 100q8 60 45 60h12q10 -2 37 -76q22 -16 37 -16h8q100 0 119 172v16q0 206 -184 248q-23 4 -33 4q-182 0 -245 -280h-13q0 64 -65 140q-67 60 -160 60q-124 0 -171 -112
q-8 -30 -8 -56q0 -45 16 -96q64 36 118 44q135 -24 135 -120v-4q0 -68 -98 -80h-16q-50 0 -131 76q-77 -68 -135 -68q-42 0 -49 52l37 144q-8 40 -41 40q-25 -10 -25 -28l21 -80l-12 -8h-4q-70 45 -70 96v8q13 88 86 88q0 4 24 4q66 -18 66 -76v-32l-29 -132v-4h12
q24 0 78 52q-41 84 -41 132v28q0 122 168 188q46 8 74 8q155 0 216 -132v-4l62 112q77 96 204 96zM345 122q60 -72 108 -72q55 0 60 44v4q-14 52 -88 52q-44 -11 -80 -28z" />
    <glyph glyph-name="E" unicode="E" horiz-adv-x="500" 
d="M359 777q7 0 10 -6v-2q0 -17 -54 -35t-61 -32q-4 -6 -4 -12q0 -16 41 -23q40 -7 52 -15q24 -16 24 -49q0 -32 -28 -58q-42 -31 -122 -31q-43 0 -43 10v0q0 9 17 17q15 5 65 15q30 10 46 21q20 15 20 24v1q0 18 -61 26q-24 5 -37 12q-26 16 -26 46q0 27 20 49q9 8 26 16
q19 10 49 17q43 9 66 9zM254 493h5q209 -22 209 -200v-28q-64 -732 -64 -841q7 -146 41 -146h14q23 0 64 59h36q28 -16 28 -41v-4q-24 -105 -101 -105h-4q-141 0 -141 173v23q0 92 50 787v82q-14 150 -132 150h-23q-103 0 -123 -146v-13q0 -94 87 -119q59 0 59 -59
q-3 -13 -37 -13q-104 0 -136 54q-41 67 -41 164v5q0 147 150 209q21 9 59 9z" />
    <glyph glyph-name="F" unicode="F" horiz-adv-x="908" 
d="M1049 557q179 0 247 -201q8 -55 8 -77v-8q0 -196 -143 -256q-27 -3 -43 -3q-112 11 -112 96q8 58 43 58h11q13 -9 35 -73q21 -16 35 -16h8q94 0 112 167v15q0 199 -174 240q-22 4 -31 4q-144 0 -194 -170q-26 -124 -38 -124q-14 20 -66 162q-28 43 -51 43v-4
q51 -136 51 -193v-31q0 -144 -105 -182q-20 -4 -38 -4h-8q-100 0 -159 124h-4q-27 -105 -104 -105h-4q-70 0 -97 78l-4 46v8q0 71 31 178v12h-7q-58 0 -82 -140v-42q0 -28 27 -89q-11 -27 -38 -27h-23q-72 0 -89 96v39l3 27h-19q-27 19 -27 43v19q0 70 93 89q39 -5 39 -35
q-39 -94 -39 -158q4 -56 31 -62v3q-16 35 -16 74v12q0 129 109 193q44 12 50 12q50 0 50 -43q-38 -123 -38 -197q0 -70 46 -70q58 0 89 236l12 8h15q22 0 27 -139q44 -128 116 -128h24q73 0 85 120q0 118 -89 271v7q0 31 46 39q87 0 155 -124q85 155 131 155q42 27 113 27z
M52 260v-16h4q0 19 24 64h-4q-24 -14 -24 -48z" />
    <glyph glyph-name="G" unicode="G" horiz-adv-x="829" 
d="M919 570q210 0 281 -221q8 -45 8 -71v-8q0 -198 -150 -262q-29 -8 -53 -8q-110 0 -127 90v15q9 56 45 56h15q8 0 33 -71q23 -22 49 -22h4q124 23 124 180v11q0 174 -150 240q-43 11 -90 15q-150 -15 -150 -105q0 -19 48 -221q0 -27 4 -30q-15 -128 -105 -128
q-29 -7 -120 -15l-4 8v3q68 82 68 195q0 138 -116 184q-40 11 -60 11h-49q-154 -23 -154 -142v-8q0 -95 131 -183l4 -8v-7q-28 -38 -90 -38q-146 0 -172 135q0 83 -19 83q-10 -2 -19 -19q0 -11 23 -75v-4q0 -7 -8 -7h-19q-56 16 -56 75v15q20 90 75 90h11q57 0 68 -105
q0 -101 67 -113h15v8q-75 98 -75 165v26q0 120 150 180q45 11 72 11h26q181 0 244 -184q7 -42 7 -67q0 -108 -56 -173h4q97 0 97 98v15q0 21 -45 180q-4 19 -4 37q0 147 203 169h15z" />
    <glyph glyph-name="H" unicode="H" horiz-adv-x="792" 
d="M874 581h8q215 0 287 -226q7 -46 7 -72v-8q0 -202 -152 -267q-29 -8 -54 -8q-112 0 -130 92v15q10 57 46 57h15q9 0 35 -72q23 -23 49 -23h4q126 24 126 183v12q0 178 -153 244q-43 12 -91 16q-153 -14 -153 -111l49 -226q0 -22 4 -26q-15 -130 -107 -130
q-29 -8 -122 -16l-4 8q69 109 69 218q0 125 -134 187q-54 8 -61 8q-80 0 -80 -69q0 -41 111 -153q19 -34 19 -57q0 -101 -111 -142l-77 -11q-164 19 -164 164l-4 38h-7l-4 -19v-46q0 -6 -16 -15q-34 21 -34 73v4q8 88 57 88h8q53 0 53 -142q18 -44 58 -65q29 -8 53 -8h8
q84 0 96 65v8q0 39 -92 122q-31 37 -31 69v27q0 93 111 130q25 0 50 4q156 0 233 -165q11 -63 11 -84q0 -80 -49 -179h4q95 0 95 99v15q0 22 -46 184q-4 21 -4 42q0 109 142 160q46 8 72 8z" />
    <glyph glyph-name="I" unicode="I" 
d="M-519 532h-11q-83 0 -149 83v22q0 5 11 11q9 0 65 -33q4 0 4 4q-80 43 -80 140q0 76 62 139q72 62 148 62h29q133 0 200 -109q22 -45 22 -94q0 -158 -153 -221q-11 0 -11 7q109 86 109 214q0 100 -101 134q-52 11 -73 11q-129 0 -174 -109l-4 -36q0 -98 153 -134
q22 -24 22 -26v-18q-17 -47 -69 -47zM-354 603q-5 4 -6 7q-17 83 -58 142q-35 57 -82 57q-5 0 -8.5 -1t-7.5 -3t-4 -17q0 -11 3 -29l-10 -2q-31 0 -39 15q-17 25 -17 35q0 20 24 45l13 7q21 8 41 8q59 0 108 -76l17 -26q43 -83 43 -125q0 -26 -17 -37z" />
    <glyph glyph-name="K" unicode="K" horiz-adv-x="776" 
d="M885 584q200 0 268 -212q8 -48 8 -76v-8q0 -206 -156 -264q-23 -4 -38 -4q-123 13 -123 96v8q10 56 45 56h13q9 -2 37 -76q22 -16 37 -16h8q104 0 119 180v8q0 203 -185 248q-21 4 -49 4q-145 -15 -145 -104q-4 0 -4 -4q0 -15 62 -212v-40q-14 -116 -90 -116
q-31 -8 -112 -16l-4 8q46 87 46 164q0 164 -161 224l-49 4h-13q-148 -13 -148 -100v-32q0 -8 8 -40q62 4 66 8q133 0 185 -124q9 -40 9 -48q-13 -68 -25 -68q-6 0 -33 80q-44 80 -128 80h-20q-91 0 -107 -72v-4q0 -16 90 -36q13 -15 13 -28v-8q0 -33 -50 -44h-4
q-119 14 -119 116l-9 -4h-12q-51 0 -70 92v8q8 96 82 96q74 -15 74 -40h5v4q-13 37 -13 68v8q0 104 124 144q43 12 82 12q199 0 268 -212q4 -40 4 -60v-36q0 -53 -29 -108h4q61 0 78 84q0 50 -65 200v40q0 142 214 172h12zM105 224v-16q0 -12 28 -48h8q6 26 36 60
q-11 24 -48 24q-16 -5 -24 -20z" />
    <glyph glyph-name="L" unicode="L" horiz-adv-x="802" 
d="M917 572q184 0 256 -196q12 -58 12 -92v-20q0 -185 -144 -252q-43 -4 -52 -8q-112 21 -112 96v8q9 60 48 60h8q9 0 32 -72q0 -12 48 -24q84 26 84 60q32 36 32 132q0 184 -152 240q-32 12 -68 12h-4q-122 0 -148 -108q48 -196 48 -236q0 -121 -120 -164q-32 -8 -68 -8h-8
q-112 0 -156 104q-4 43 -8 52q16 113 16 156q-8 84 -80 84h-4q-72 0 -100 -68q-12 -25 -16 -68q0 -101 136 -160v-8q0 -61 -108 -72q-140 0 -140 160q0 72 -16 72h-12l-4 -16q8 -36 8 -52v-4q-6 -16 -28 -16q-52 28 -52 92q16 80 80 80h16q60 0 60 -172q19 -80 72 -80
q7 4 16 4v12q-76 82 -76 172q0 110 112 160q27 8 76 12q128 -17 128 -120v-16l-16 -172q0 -76 92 -76q115 0 136 84q4 7 4 20v20q0 37 -40 196v24q0 142 200 168h12z" />
    <glyph glyph-name="M" unicode="M" horiz-adv-x="612" 
d="M694 570h7q205 0 278 -210q11 -45 11 -82v-8q0 -198 -150 -262q-28 -8 -52 -8q-111 0 -128 90v15q8 56 45 56h15q9 0 34 -71q22 -22 49 -22h3q124 23 124 180v11q0 174 -150 240q-42 11 -90 15q-146 -14 -146 -98q0 -11 -4 -11q34 -184 34 -206q0 -133 -131 -188
q-44 -11 -90 -11h-4q-179 0 -236 131q-8 30 -8 49q0 45 45 94q-34 37 -34 41v19l4 26q-37 -18 -37 -49l11 -63l-8 -4h-7q-34 25 -34 60v7q0 90 116 124q30 8 64 8h15q94 0 109 -49v-4q0 -24 -19 -34h-7q-17 0 -83 8q-56 0 -56 -38q0 -30 94 -30q26 -10 26 -18v-12
q-5 -37 -38 -37h-18q-79 0 -79 -41v-19q0 -72 109 -94q27 -7 75 -11q117 0 157 79q11 25 15 67q-41 158 -41 184v11q0 108 139 158q45 7 71 7z" />
    <glyph glyph-name="N" unicode="N" horiz-adv-x="765" 
d="M885 536q206 0 268 -212q8 -30 8 -56v-20q0 -176 -144 -240q-30 -8 -56 -8h-4q-120 12 -120 88v8q8 56 44 56h16q5 0 36 -72q21 -16 44 -16q81 0 116 104q8 32 8 68q0 196 -172 240q-21 4 -40 4h-24q-166 0 -236 -248l-12 -12q-47 133 -116 172q-59 32 -116 32h-12
q-140 -13 -140 -140v-12q20 8 76 12q196 -33 196 -172q-14 -72 -60 -72h-12q-62 0 -220 156q-28 -43 -28 -68q0 -39 92 -72l4 -8v-4q0 -16 -52 -24q-85 0 -112 104q-72 19 -72 96v8q0 53 84 72q15 0 68 -24v20q0 140 100 180q61 20 96 20q136 0 232 -136q70 176 260 176z
M109 208v-8q0 -13 12 -44h4q0 41 36 84h-8q-44 0 -44 -32zM261 212q116 -124 176 -124l8 12v16q-32 100 -136 100h-28z" />
    <glyph glyph-name="O" unicode="O" horiz-adv-x="847" 
d="M529 501h16q179 0 244 -212q4 -35 4 -60v-8q0 -211 -164 -284q-275 -73 -372 -132q-108 -85 -108 -240v-16q0 -112 72 -180h12v4l-16 144v32q0 132 116 220q63 36 124 36h40q170 0 236 -164q16 -31 16 -100q0 -130 -100 -292l-28 -20h-4q-8 0 -8 8v8q4 24 76 196
q12 43 12 72v12q0 122 -124 168q-52 16 -100 16h-4q-196 0 -196 -192l28 -212v-12q-14 -24 -40 -24q-126 0 -164 224q-4 35 -4 60v32q0 276 288 352q292 63 292 104q56 51 56 164v28q0 140 -132 188l-44 8q-112 0 -112 -148v-56q0 -8 -12 -8q-11 0 -92 92q-29 12 -40 12
q-35 0 -40 -52q0 -58 108 -124q32 -24 32 -48q-15 -64 -96 -64h-20q-78 0 -140 88q-20 31 -28 136l-8 4q-9 0 -12 -28q12 -26 12 -36l-12 -8q-48 2 -48 48v16q14 108 84 108q52 -5 52 -52v-72q0 -109 80 -128h8q20 0 20 8q-82 89 -88 128q0 5 -4 40q0 100 104 100
q29 0 68 -28q0 71 72 124q41 20 88 20z" />
    <glyph glyph-name="P" unicode="P" horiz-adv-x="586" 
d="M664 564q205 0 274 -208q12 -29 12 -80v-16q0 -191 -158 -256q-29 -4 -50 -4q-124 15 -124 96q9 64 50 64h12q10 -2 38 -76q22 -16 37 -16h12q96 0 121 152v44q0 196 -191 240q-22 4 -50 4q-154 -16 -154 -108v-4q38 -158 38 -176v-24q0 -120 -104 -164q-39 -16 -96 -16
h-20q-166 20 -166 120q-5 0 -5 12q9 73 9 96q-8 18 -17 20h-12q-13 -4 -13 -24v-4q0 -9 13 -56l-13 -8h-8q-47 0 -54 80q0 87 87 104q67 -11 67 -72q-5 -108 -5 -128q0 -80 150 -80q141 14 141 88v12q0 45 -50 192v16q0 123 137 168q50 12 92 12z" />
    <glyph glyph-name="Q" unicode="Q" horiz-adv-x="755" 
d="M898 517q178 0 245 -191q8 -52 8 -73v-7q0 -186 -142 -242q-26 -4 -42 -4q-112 10 -112 92v3q9 52 43 52h11q9 -2 35 -70q20 -15 34 -15h8q94 0 111 158v15q0 187 -173 227q-21 4 -30 4q-161 0 -231 -242l-7 -4h-4q-56 216 -215 216q-100 -10 -100 -77v-14l4 -26h4
q0 26 65 48q161 -25 161 -143v-30q0 -117 -150 -168q-29 -8 -53 -8h-31q-158 0 -208 114q-4 34 -7 44q11 73 15 73q-4 7 -4 15h-15q-10 0 -19 -33l4 -22q-3 -33 -12 -33q-46 0 -46 70q0 74 84 102h20q53 -5 53 -44q0 -12 -19 -128q0 -75 131 -99h27q116 0 153 66
q20 32 20 66v11q0 67 -73 92h-16q-42 0 -42 -30v-7q0 -7 19 -44q-6 -15 -11 -15q-66 0 -112 92q-7 38 -7 59q0 88 107 121q23 11 73 11q121 0 211 -136v-7h4q64 161 231 161zM513 -98h-4q-66 202 -89 204q-4 28 -80 44q3 -4 5 -9q3 -23 13 -73l-7 -4q-51 16 -67 123
q16 13 59 13q88 0 152 -125q25 -75 25 -137q0 -36 -7 -36z" />
    <glyph glyph-name="R" unicode="R" horiz-adv-x="744" 
d="M863 544q177 0 243 -193q12 -46 12 -73v-27q0 -180 -139 -243q-38 -8 -43 -8q-116 12 -116 100q9 58 47 58h4q13 0 34 -69q17 -23 51 -23q108 26 108 177q0 197 -166 243q-5 0 -39 4q-145 0 -201 -177q-25 -119 -38 -128q-8 0 -27 108q-21 69 -77 104q-53 35 -120 35
q-108 -6 -108 -54v-23q0 -20 62 -147q11 -41 11 -61v-43q0 -68 -88 -100q-15 -4 -31 -4h-4q-87 0 -120 93v15q0 6 16 15h11l35 -27q19 16 19 51q-12 73 -58 73h-15q-27 0 -39 -31q5 -5 8 -54q-15 -12 -23 -12q-23 0 -27 58v16q0 65 89 77q97 0 112 -120v-15q0 -13 -24 -70
l20 -3q69 9 69 84q0 70 -73 170q-16 33 -16 58q23 127 166 127h20q123 0 223 -127q67 166 232 166z" />
    <glyph glyph-name="S" unicode="S" horiz-adv-x="689" 
d="M762 564q210 0 282 -212q9 -48 9 -76v-8q0 -203 -161 -264q-29 -4 -48 -4q-126 14 -126 92v16q12 52 48 52h13q11 0 35 -72q25 -20 43 -20h9q108 0 126 176v12q0 203 -195 248q-23 4 -52 4h-5q-148 -18 -148 -104q-4 0 -4 -4l48 -196v-40q-27 -140 -152 -140
q-106 0 -209 148q-27 28 -61 28h-13q-49 0 -60 -64v-8q0 -29 82 -104v-12q0 -9 -22 -12q-126 49 -126 116v32q0 8 9 40q-39 39 -39 120q0 76 104 88q112 0 126 -132v-16q23 0 135 -128q37 -26 78 -28q87 14 87 76q4 0 4 24v8q0 61 -43 176q-4 15 -4 36q37 152 230 152z
M93 276v-28q0 -4 -4 -4q4 -4 4 -32h4q0 40 92 56h8q0 72 -56 72q-39 0 -48 -64z" />
    <glyph glyph-name="T" unicode="T" horiz-adv-x="797" 
d="M900 570q205 0 278 -210q11 -45 11 -82v-8q0 -198 -150 -262q-28 -8 -53 -8q-127 12 -127 90v15q8 56 45 56h4q26 0 41 -67q25 -26 52 -26h4q79 0 116 116q8 37 8 75q0 174 -150 240q-42 11 -90 15q-94 0 -135 -60q-11 -17 -15 -53q0 -15 49 -213v-38q0 -102 -98 -120
q-38 -7 -124 -15l-7 11q60 128 60 207q0 138 -143 195q-25 3 -41 3h-15q-90 -8 -90 -75v-3l4 -38h4q25 45 63 45h12q100 0 142 -112q4 -20 8 -53q-33 -187 -210 -187h-23q-154 0 -202 116q-5 35 -8 45q11 75 15 75q-4 15 -15 15q-15 0 -22 -34l3 -22v-4q0 -28 -11 -30
q-45 0 -45 71v8q0 83 109 97q45 -11 45 -45q0 -20 -19 -131q0 -78 128 -101h22q121 0 158 71q15 38 15 52v34q0 63 -87 83q-41 -9 -41 -23v-15q0 -8 19 -45q-6 -15 -11 -15q-64 0 -109 94q-8 39 -8 60q0 112 165 135q151 0 229 -169q11 -40 11 -60v-41q0 -77 -48 -158h7
q101 0 101 102v3q0 32 -48 199v30q0 137 195 165h22z" />
    <glyph glyph-name="V" unicode="V" horiz-adv-x="781" 
d="M896 536q205 0 268 -212q8 -30 8 -56v-20q0 -176 -144 -240q-30 -8 -56 -8h-4q-120 12 -120 88v16q11 48 44 48h12q13 -6 40 -72q21 -16 44 -16q81 0 116 104q8 32 8 68q0 168 -132 228q-40 16 -80 16h-32q-166 0 -240 -284l-16 -12q-7 9 -16 92q-24 88 -100 132
q-43 20 -104 28q-127 0 -176 -108q-8 -28 -8 -48v-28q0 -40 16 -80q73 40 116 40h4q128 -21 128 -116q0 -71 -88 -84h-20q-61 0 -132 76q-79 -68 -120 -68h-8q-56 0 -56 56v8q0 77 40 112h4q9 0 12 -20q0 -27 -8 -72q6 -16 12 -16q35 0 80 60q-40 85 -40 144q0 135 172 200
l64 4q182 0 248 -136h4q69 176 260 176zM60 304q44 0 84 -80q16 -33 16 -64q0 -8 -8 -8h-4q-6 0 -64 88l-20 4h-12l-40 -32h-4q-8 0 -8 8v12q13 72 60 72zM260 120v-4q59 -68 100 -68h12q56 0 56 44q0 39 -72 52h-8q-32 0 -88 -24z" />
    <glyph glyph-name="W" unicode="W" horiz-adv-x="776" 
d="M914 517q181 0 250 -191q8 -52 8 -73v-7q0 -186 -145 -242q-27 -4 -43 -4q-113 10 -113 92v3q9 52 43 52h11q10 -2 36 -70q21 -15 35 -15h8q95 0 113 158v15q0 187 -176 227q-21 4 -31 4q-164 0 -235 -242l-8 -4h-4q-57 216 -219 216q-102 -10 -102 -77v-14l4 -26h4
q0 26 67 48q164 -25 164 -143v-30q0 -117 -153 -168q-29 -8 -54 -8h-32q-160 0 -211 114q-5 34 -8 44q12 73 16 73q-4 7 -4 15h-16q-10 0 -19 -33l4 -22q-3 -33 -12 -33q-47 0 -47 70q0 74 86 102h20q54 -5 54 -44q0 -12 -19 -128q0 -75 133 -99h27q119 0 157 66
q19 32 19 66v11q0 67 -74 92h-16q-43 0 -43 -30v-7q0 -7 20 -44q-6 -15 -12 -15q-66 0 -113 92q-8 38 -8 59q0 88 109 121q24 11 75 11q123 0 215 -136v-7h4q65 161 235 161zM513 -98h-4q-66 202 -89 204q-4 28 -80 44q3 -4 5 -9q3 -23 13 -73l-7 -4q-51 16 -67 123
q16 13 59 13q88 0 152 -125q25 -75 25 -137q0 -36 -7 -36z" />
    <glyph glyph-name="X" unicode="X" horiz-adv-x="829" 
d="M929 564h20q171 0 248 -196q12 -56 12 -92v-8q0 -203 -148 -264q-27 -4 -44 -4q-116 14 -116 92v16q10 52 44 52h12q11 0 28 -64q18 -28 48 -28h4q98 0 116 172v16q0 164 -128 232q-45 20 -104 20q-140 -20 -140 -112q0 -14 56 -196q4 -15 4 -36v-16q0 -128 -172 -128
q0 -4 -40 -4q0 4 -4 4q68 105 68 200q0 165 -152 208h-52q-70 0 -100 -128q0 -28 -44 -36q-96 48 -104 48q-48 0 -48 -120q0 -27 -56 -36q-79 0 -92 100v12q0 68 36 68q17 0 36 -108l12 -8h12l4 20v44q10 96 80 96h8q31 0 96 -44q19 0 36 92q42 76 120 76h28q108 0 192 -116
q44 -83 44 -148v-20q0 -87 -48 -156h4q80 17 80 100q0 35 -56 200v36q0 108 140 156q38 8 60 8z" />
    <glyph glyph-name="Y" unicode="Y" horiz-adv-x="792" 
d="M869 608h8q224 0 300 -236q8 -48 8 -76v-8q0 -209 -160 -280q-30 -8 -56 -8q-117 0 -136 96v16q9 60 48 60h16q9 0 36 -76q24 -24 52 -24q89 0 128 124q8 40 8 80q0 186 -160 256q-62 16 -96 16q-160 -14 -160 -116q44 -210 44 -228v-28q0 -126 -132 -172q-15 -4 -32 -4
h-8q-89 0 -160 108h-8q-52 -96 -148 -96h-28q-127 0 -152 120v4q0 45 64 164v24h-16q-27 -7 -36 -116q-10 -8 -16 -8q-32 11 -32 84q0 76 92 108h24q44 0 52 -60q0 -32 -68 -152v-20q0 -64 84 -76q13 0 20 -4q132 22 132 124v12q0 17 -8 160q0 22 24 36h12q31 0 48 -232
q32 -96 128 -96q112 9 112 112q0 25 -48 188q-4 28 -4 48q0 115 148 168q48 8 76 8z" />
    <glyph glyph-name="Z" unicode="Z" horiz-adv-x="995" 
d="M815 9l-5 4q2 -2 3 -2.5t2 -1.5zM1057 671q205 0 308 -208q28 -79 28 -147v-15q0 -230 -184 -309q-36 -8 -52 -8q-131 0 -160 98v30q0 42 48 68h20q14 -2 48 -94q32 -22 52 -23q114 0 152 166q4 36 4 68q0 215 -184 291q-56 15 -100 15h-16q-130 0 -176 -109l-4 -19
q0 -35 72 -242l8 -60q0 -133 -132 -155q-108 -15 -124 -15l-4 7q68 96 68 182q0 145 -128 188q-16 8 -44 8h-8q-77 0 -104 -76l-4 -37v-76q0 -7 -8 -7h-12q-90 94 -108 94h-16q-40 0 -40 -45v-4q0 -53 116 -121q24 -25 24 -41q0 -46 -100 -61q-124 0 -172 125q-12 85 -12 90
h-8q-12 -3 -12 -22l12 -38l-8 -4h-12q-35 0 -40 49v12q14 98 76 98h16q44 -6 44 -42v-75q10 -117 76 -117h24q8 0 8 7q-64 65 -64 68q-28 42 -28 91q9 90 80 90h32q25 0 60 -26q19 136 144 136h40q172 0 236 -204v-57q0 -65 -40 -128v-4q96 26 96 98v16q0 64 -76 218
q-8 41 -8 72q0 83 108 159q74 45 188 45z" />
    <glyph glyph-name="backslash" unicode="\" horiz-adv-x="834" 
d="M533 480q185 0 252 -200q4 -40 4 -60q0 -170 -124 -220l-4 8q68 102 68 192q0 163 -148 204q-10 0 -32 4q-67 0 -100 -68q-8 -36 -8 -52v-80q0 -6 -12 -12q-8 0 -96 92q-15 12 -36 12q-32 0 -40 -44v-16q0 -46 128 -132q12 -27 12 -36q-27 -60 -96 -60q-125 0 -172 120
q-7 13 -16 104l-8 4q-9 0 -12 -28q12 -26 12 -36l-12 -8h-4q-38 0 -44 56v4q11 112 84 112q52 -5 52 -44v-88q13 -120 84 -120h4q20 0 20 8q-84 91 -84 120q-8 16 -8 44q0 104 96 104h8q31 0 64 -28h4q25 144 144 144h20z" />
    <glyph glyph-name="bracketright" unicode="]" horiz-adv-x="903" 
d="M694 480h22q61 0 113 -89q29 -55 29 -135v-12q0 -140 -102 -266l-14 -8l-4 8l55 177q7 39 7 78q-19 177 -80 177h-4q-7 -1 -7 -7q47 -109 47 -182q0 -151 -127 -224q-33 -12 -55 -12q-7 0 -7 8q65 85 65 178v19q0 4 4 4q0 131 -110 186q-42 15 -87 15h-11
q-112 0 -153 -97q-11 -25 -11 -61q0 -93 127 -186l4 -8v-11q-26 -35 -87 -35q-122 0 -161 104q-7 120 -25 120q-10 -1 -19 -19q4 -27 22 -77v-4q0 -6 -14 -12q-53 0 -66 81v4q9 104 88 104q62 -14 62 -115q16 -109 54 -109h26v8q-73 102 -73 170v23q0 124 146 190
q60 11 98 11q143 0 215 -139q26 -49 26 -116v-8q0 -74 -29 -143q51 56 51 140v30q0 64 -66 178v27q21 35 51 35zM553 42q-6 4 -7 7q-17 89 -61 152q-38 61 -88 61q-6 0 -9.5 -1t-7.5 -3.5t-4 -18.5q0 -11 3 -31l-11 -1q-33 0 -42 16q-18 27 -18 37q0 22 26 47l14 9
q22 8 43 8q64 0 116 -81l18 -27q46 -89 46 -134q0 -28 -18 -40z" />
    <glyph glyph-name="asciicircum" unicode="^" 
d="M-497 981q9 0 14 -26q5 -43 8 -64q7 -47 17 -81q8 -25 23 -59q17 -36 25 -45q37 -55 79 -71q37 -16 44 -20q1 -1 1 -2v0q0 -4 -27 -6h-9q-44 0 -93 41q-13 11 -30 34q-9 15 -24 44q-16 38 -21 60q-7 22 -12 54q-10 61 -10 103q0 28 10 35q4 3 5 3zM-762 1020h27
q123 0 184 -100q20 -42 20 -80v-7q0 -146 -140 -204h-4q-6 0 -6 7q100 80 100 190v7q0 92 -94 123q-47 10 -66 10q-119 0 -161 -100l-3 -33q0 -90 140 -124q20 -21 20 -23v-17q-15 -43 -63 -43h-10q-76 0 -137 77v20q0 5 10 10q9 0 60 -30h3v3q-73 40 -73 127v3q0 69 57 127
q67 57 136 57z" />
    <glyph glyph-name="underscore" unicode="_" horiz-adv-x="395" 
d="M190 190q-56 0 -56 56q0 55 56 55q62 0 62 -55q0 -56 -62 -56z" />
    <glyph glyph-name="grave" unicode="`" horiz-adv-x="842" 
d="M613 495h24q140 0 160 -180v-36q0 -130 -128 -284q-21 -20 -36 -20l-8 12q0 10 88 164q32 98 32 140v24q0 85 -80 116l-28 4h-16q-93 0 -128 -152q-18 -44 -24 -44h-12l-48 84q-32 28 -52 28h-12q-56 0 -64 -100v-24q0 -6 -12 -12h-4q-17 0 -20 68v12q20 124 100 124h24
q59 0 92 -76h4q47 152 148 152zM177 455q72 0 72 -44v-4q0 -17 -100 -144q-40 -65 -40 -112v-12q9 -60 88 -60h24q29 0 36 60q44 84 100 84h8q72 0 72 -52q0 -62 -100 -124q-32 -12 -40 -12q0 -219 228 -300v-4l-24 -16h-20q-117 0 -212 148q-32 60 -32 140v24l-40 -4h-36
q-116 16 -116 92v24q0 102 124 248h-24q-38 0 -56 -92q-13 -8 -20 -8q-20 22 -20 48v12q0 91 128 108zM293 83h4q94 20 94 77q-2 8 -20 15q-64 0 -78 -92z" />
    <glyph glyph-name="a" unicode="a" horiz-adv-x="889" 
d="M621 496h16q135 0 188 -160q8 -40 8 -72v-16q0 -152 -96 -244h-8q-8 0 -8 8q68 150 68 236q0 134 -92 176q-7 4 -16 4h-12v-8q88 -88 88 -188q0 -174 -124 -224q-28 -8 -48 -8h-8q-148 22 -148 144q4 63 4 92l-8 4h-8q-15 -157 -40 -172q-42 -56 -116 -56h-28
q-126 0 -152 120v4q0 46 64 164v24h-16q-27 -7 -36 -116l-12 -8h-4q-32 17 -32 80v8q24 104 100 104q0 4 4 4q64 -13 64 -56t-64 -152q-4 -7 -4 -20v-8q13 -80 104 -80q120 16 120 112q-4 56 -4 96q0 32 52 52h12q52 0 52 -76v-8q0 -34 -4 -72q0 -78 76 -96q20 0 20 -4
q132 12 132 132v40q0 113 -128 160q-15 18 -16 36q0 33 60 44z" />
    <glyph glyph-name="b" unicode="b" horiz-adv-x="937" 
d="M481 487h7q142 0 216 -182q11 -42 11 -82v-8q0 -94 -43 -158v-4h4q67 67 67 162v19q0 75 -67 178l-4 20q11 35 64 35q93 0 145 -130q11 -50 11 -87v-12q0 -171 -121 -268q-3 8 -3 12q67 143 67 248v4q-11 139 -71 158h-14v-4q39 -94 39 -161q-17 -178 -117 -218
q0 -7 -35 -7h-29l-7 4q60 101 60 189v24q0 132 -116 189l-36 4q-110 0 -110 -146q0 -22 4 -55q-7 -24 -14 -24q-9 0 -75 95q-26 16 -46 16q-29 0 -39 -48v-16q0 -53 121 -138q14 -20 14 -23q-19 -67 -89 -67q-113 0 -156 126q-7 31 -14 98l-7 4h-3q0 -6 -7 -23
q10 -31 10 -40q0 -8 -7 -8h-7q-39 0 -39 67q11 103 71 103q46 0 46 -75q0 -177 92 -177q6 3 14 3v4q-85 99 -85 142v40q0 91 78 91h14q26 0 57 -28h4q0 137 145 154z" />
    <glyph glyph-name="c" unicode="c" horiz-adv-x="802" 
d="M557 504h4q127 0 188 -168q8 -32 8 -68v-16q0 -143 -88 -236q-4 8 -4 12q44 159 44 208q0 153 -120 208q-16 8 -44 8h-4q-100 -13 -100 -80q47 52 80 52q102 0 136 -164v-20q-14 -200 -132 -200q0 -4 -16 -4q-119 0 -236 152q-24 16 -44 16h-20q-60 -13 -60 -72
q0 -32 92 -108v-12q-4 -12 -24 -12q-136 43 -136 128q6 48 12 48q-48 64 -48 120v12q16 92 112 92q107 0 128 -148q25 0 144 -128q36 -16 64 -16h12q88 0 100 124v8q-14 136 -88 136h-8q-31 0 -68 -68l-8 -4h-12q-13 0 -24 44q0 113 120 152q21 4 40 4zM101 272v-56h8
q33 56 104 56h4v4q-6 68 -68 68q-48 0 -48 -72z" />
    <glyph glyph-name="d" unicode="d" horiz-adv-x="786" 
d="M465 492q213 0 264 -156q12 -32 12 -60v-16q0 -137 -116 -260h-4l-4 8q0 12 52 144q16 63 16 76q0 144 -148 196q-26 8 -36 8h-36q-132 0 -168 -128q-4 -21 -4 -40q0 -63 20 -92q72 40 120 40q124 -24 124 -116v-8q-13 -80 -104 -80q-53 0 -140 80q-69 -72 -120 -72
q-56 9 -56 48q0 14 32 132q0 16 4 16q-11 40 -24 40h-20q-14 -7 -20 -24l20 -84l-12 -8q-72 44 -72 96q0 100 96 100h16q50 0 64 -92l-32 -148v-4h8q22 0 80 52q-40 89 -40 132v28q0 115 144 180q42 12 84 12zM345 112q63 -64 104 -64h20q44 8 44 40v16q-27 40 -84 40
q-38 0 -84 -32z" />
    <glyph glyph-name="e" unicode="e" horiz-adv-x="512" 
d="M254 493h5q209 -22 209 -200v-28q-64 -732 -64 -841q7 -146 41 -146h14q23 0 64 59h36q28 -16 28 -41v-4q-24 -105 -101 -105h-4q-141 0 -141 173v23q0 92 50 787v82q-14 150 -132 150h-23q-103 0 -123 -146v-13q0 -94 87 -119q59 0 59 -59q-3 -13 -37 -13
q-104 0 -136 54q-41 67 -41 164v5q0 147 150 209q21 9 59 9z" />
    <glyph glyph-name="f" unicode="f" horiz-adv-x="954" 
d="M701 512h7q122 0 182 -188q8 -40 8 -72v-8q0 -170 -71 -236l-4 8q24 134 24 204q0 123 -71 200l-12 8h-8v-4q55 -149 55 -232q-20 -192 -142 -192h-20q-97 0 -158 128h-4q-31 -108 -98 -108h-8q-107 0 -107 128v8q0 67 32 188v8h-8q-58 0 -83 -144v-44q0 -28 27 -92
q0 -20 -51 -32q-103 20 -103 104v40l4 28h-4l-7 -4q-36 15 -36 52v16q0 69 95 92q29 -8 39 -28v-4q-39 -117 -39 -152v-16q4 -58 31 -64v4q-15 36 -15 76q0 163 126 216l24 4h23q40 -5 40 -40q-40 -133 -40 -204q0 -72 48 -72q61 0 87 232q7 20 27 20h4q23 0 28 -144
q43 -136 134 -136q95 19 95 120v16q0 113 -83 252q-8 16 -8 28q12 36 40 36zM97 256v-16h4q0 15 20 64h-4q-16 0 -20 -48z" />
    <glyph glyph-name="g" unicode="g" horiz-adv-x="903" 
d="M694 480h22q61 0 113 -89q29 -55 29 -135v-12q0 -140 -102 -266l-14 -8l-4 8l55 177q7 39 7 78q-19 177 -80 177h-4q-7 -1 -7 -7q47 -109 47 -182q0 -151 -127 -224q-33 -12 -55 -12q-7 0 -7 8q65 85 65 178v19q0 4 4 4q0 131 -110 186q-42 15 -87 15h-11
q-112 0 -153 -97q-11 -25 -11 -61q0 -93 127 -186l4 -8v-11q-26 -35 -87 -35q-122 0 -161 104q-7 120 -25 120q-10 -1 -19 -19q4 -27 22 -77v-4q0 -6 -14 -12q-53 0 -66 81v4q9 104 88 104q62 -14 62 -115q16 -109 54 -109h26v8q-73 102 -73 170v23q0 124 146 190
q60 11 98 11q143 0 215 -139q26 -49 26 -116v-8q0 -74 -29 -143q51 56 51 140v30q0 64 -66 178v27q21 35 51 35z" />
    <glyph glyph-name="h" unicode="h" horiz-adv-x="872" 
d="M404 496h11q170 0 233 -168q11 -31 11 -65v-26q0 -65 -46 -161q69 67 69 168q0 64 -65 195v11q0 34 50 38h11q84 0 138 -133q11 -37 11 -69v-23q0 -138 -103 -255q-12 -8 -19 -8l-4 8q69 157 69 248q0 102 -61 152l-19 4q-4 -7 -4 -11q38 -91 38 -134v-34
q0 -108 -111 -199q-38 -19 -72 -19v4q61 127 61 157q4 53 4 68q0 109 -118 176q-36 11 -65 11h-23q-62 0 -69 -72q0 -31 111 -145q19 -33 19 -58q0 -99 -107 -141q-30 -7 -80 -11q-164 17 -164 164q0 5 -4 38h-8l-3 -19v-19q0 -9 3 -15q-9 -27 -15 -27h-4q-34 23 -34 61v8
q0 79 57 95q61 0 61 -141q28 -73 103 -73h31q80 14 80 61v19q0 28 -107 130q-15 39 -15 54v22q0 118 149 134z" />
    <glyph glyph-name="i" unicode="i" 
d="M-439 960h29q133 0 200 -109q22 -45 22 -87v-7q0 -158 -153 -221h-3q-8 0 -8 7q109 86 109 207v7q0 100 -101 134q-52 11 -73 11q-129 0 -174 -109l-4 -36q0 -98 153 -134q22 -24 22 -26v-18q-17 -47 -69 -47h-11q-83 0 -149 83v22q0 5 11 11q9 0 65 -33h4v4
q-80 43 -80 138v4q0 74 62 137q72 62 148 62z" />
    <glyph glyph-name="j" unicode="j" horiz-adv-x="796" 
d="M438 502h7q148 0 204 -128q4 -34 4 -42q0 -41 -53 -109q151 -23 151 -114v-15q-10 -94 -61 -94l-7 15q11 46 11 79q0 56 -90 65h-38q-31 0 -72 -4q-26 9 -26 15q0 21 71 75q34 49 34 91q0 88 -120 102h-27q-120 0 -166 -132v-19q0 -61 132 -185l8 -27v-7q0 -38 -76 -38
q-168 0 -204 185q-3 12 -3 45v53h-15q-12 -29 -12 -53q0 -15 12 -64v-4q0 -7 -8 -7q-49 29 -49 91v3q13 106 79 106h15q31 -11 31 -68q0 -164 71 -200q35 -15 49 -15h4q0 10 -79 121q-15 45 -15 75v12q0 136 166 184q45 8 72 8z" />
    <glyph glyph-name="k" unicode="k" horiz-adv-x="884" 
d="M675 508q133 0 164 -212v-32q0 -152 -100 -260l-8 -4l-8 4q60 171 60 244q0 120 -76 172h-24v-16q52 -82 52 -148v-16q0 -146 -116 -216q-42 -16 -68 -16v4q60 89 60 180v4q0 167 -168 216q-27 4 -44 4h-12q-106 0 -136 -92q-8 -30 -8 -56q60 8 84 8q188 -34 188 -172
q-11 -72 -68 -72q-62 0 -224 156q-24 -32 -24 -56v-20q0 -27 88 -64l4 -8v-4q0 -14 -44 -20h-20q-92 20 -92 92q-45 25 -68 48q-12 36 -12 48v12q0 64 92 76q35 -8 56 -24h4v16q0 130 76 172q67 32 124 32q188 0 260 -224q0 -44 4 -44q0 -73 -48 -152v-4h4q60 82 60 168
q0 78 -80 208q-4 7 -4 16v8q0 44 72 44zM119 200v-8q0 -13 12 -44h4q0 45 36 84h-12q-40 0 -40 -32zM271 200q122 -116 168 -116h8q8 0 8 8v20q-32 96 -128 96h-48q-8 -1 -8 -8z" />
    <glyph glyph-name="l" unicode="l" horiz-adv-x="938" 
d="M693 516h8q124 0 180 -160q12 -40 12 -92v-20q0 -97 -64 -240l-8 -4l-8 20q28 179 28 212q0 102 -64 180q-25 20 -48 20q-24 -8 -24 -16v-8q0 -28 80 -132q16 -48 20 -92q0 -140 -160 -172h-32q-120 0 -160 108q-4 8 -8 44l16 148q0 96 -92 96q-88 0 -108 -132
q0 -108 132 -160q0 -8 4 -8q0 -60 -88 -72h-28q-132 0 -132 156q0 72 -16 72h-12l-4 -16q8 -36 8 -52v-4q-2 -8 -20 -16q-60 19 -60 92q16 80 80 80h16q60 0 60 -172q19 -76 64 -76h24v12q-76 83 -76 168q0 116 112 164q30 8 56 8h28q79 0 112 -76q4 -36 8 -44l-16 -172v-16
q0 -68 84 -68h20q128 0 128 124q0 56 -100 184q-24 37 -24 72v16q25 44 72 44z" />
    <glyph glyph-name="m" unicode="m" horiz-adv-x="743" 
d="M507 480h7q139 0 196 -177q8 -17 8 -50v-11q0 -160 -123 -242h-8l-4 8q77 119 77 215q0 117 -84 153q-8 -4 -12 -4q46 -92 46 -145v-20q0 -141 -134 -195q-46 -12 -85 -12h-19q-187 0 -242 146l-4 34q0 49 47 100q-35 39 -35 43v23l4 19h-4q-35 -18 -35 -46l12 -66l-8 -3
h-7q-35 24 -35 61v15q29 127 184 127q127 -7 127 -54v-3q0 -30 -27 -35q-54 8 -77 8h-19q-46 0 -46 -35q0 -31 92 -31q31 -11 31 -19v-15q0 -39 -61 -39h-4q-9 0 -16 4q-57 0 -57 -42v-8q0 -119 196 -119q126 0 169 100q7 28 7 58q0 79 -100 188q-7 29 -7 31q8 38 50 38z
" />
    <glyph glyph-name="n" unicode="n" horiz-adv-x="747" 
d="M410 491h17q188 0 266 -205q9 -31 9 -57v-8q0 -138 -125 -221h-13v4q73 100 73 181v40q0 143 -193 194q-5 0 -43 4q-141 0 -141 -141h4q18 0 47 4q147 0 215 -133q4 -22 4 -36q0 -85 -73 -85q-77 0 -232 169q-34 -30 -34 -72q0 -35 82 -61q17 -17 17 -20q-7 -20 -56 -20
q-86 0 -112 85v24q-58 0 -77 84v20q0 54 90 69q33 0 77 -36v8q0 143 108 193q53 16 90 16zM109 233v-20q0 -13 13 -44h5q0 34 42 81h-30q-23 0 -30 -17zM290 217v-8q100 -124 163 -124h4q7 0 13 20q0 62 -99 104q-34 8 -43 8h-38z" />
    <glyph glyph-name="o" unicode="o" horiz-adv-x="599" 
d="M240 546h19q182 0 277 -182q18 -44 18 -89v-26q0 -181 -189 -245q-25 -4 -46 -4h-14q-107 0 -176 93l-4 22v14q0 11 18 13q120 -80 176 -80q134 0 157 178v27q0 151 -185 204q-20 9 -65 9q-175 -33 -175 -160q6 -45 23 -71l-14 -9q-60 17 -60 84v18q0 147 194 200
q24 4 46 4z" />
    <glyph glyph-name="p" unicode="p" horiz-adv-x="780" 
d="M553 491q129 0 177 -192q5 -16 5 -49v-9q0 -147 -111 -228h-15q75 141 75 215q-29 178 -100 178q-10 -4 -16 -4v-9q66 -133 66 -174v-36q-28 -179 -196 -179q0 -4 -46 -4h-20q-142 0 -201 103l-10 44q10 64 10 103q0 27 -30 27q-21 -5 -21 -27v-4q0 -11 16 -63l-16 -9
q-75 0 -75 89q0 97 106 116q69 0 80 -75l-5 -152q0 -81 166 -81h36q151 12 151 94v27q0 82 -101 237q-5 7 -5 17q16 45 80 45z" />
    <glyph glyph-name="q" unicode="q" horiz-adv-x="776" 
d="M468 507h8q164 0 247 -187q8 -39 8 -70q0 -166 -115 -241h-4l-4 8q61 135 61 190v24q0 151 -152 202q-30 8 -61 8q-83 0 -99 -78v-23l4 -20q38 47 82 47q165 -30 165 -152v-27q0 -132 -173 -187q-42 -4 -66 -4q-172 0 -230 109q-8 28 -12 59q12 77 17 77q-5 7 -5 16h-16
q-10 0 -21 -31q5 -21 5 -35q-4 -27 -21 -27q-41 15 -41 74v11q24 97 103 97h12q53 -6 53 -46q0 -11 -20 -136q0 -75 123 -102q28 -3 45 -3q138 0 177 93q8 35 8 51v7q0 71 -78 98h-25q-37 0 -37 -32v-7q21 -45 21 -51l-17 -12q-42 0 -102 70q-21 40 -21 86q0 95 107 132
q44 12 74 12zM513 -98h-4q-66 202 -89 204q-4 28 -80 44q3 -4 5 -9q3 -23 13 -73l-7 -4q-51 16 -67 123q16 13 59 13q88 0 152 -125q25 -75 25 -137q0 -36 -7 -36z" />
    <glyph glyph-name="r" unicode="r" horiz-adv-x="763" 
d="M448 496q270 -36 270 -231v-23q0 -136 -129 -262q-8 0 -8 8v7q0 12 60 144q17 60 17 99q0 131 -155 178q-44 8 -68 8q-120 0 -120 -61v-15q0 -21 68 -144q13 -42 13 -61v-49q0 -54 -90 -91q-19 -8 -43 -8q-108 0 -137 99v11q0 6 13 12h9q13 0 51 -27q13 22 17 49
q-10 76 -72 76h-5q-31 0 -47 -34q6 -5 9 -53q-14 -8 -26 -8h-9q-15 0 -21 57v15q0 60 86 73h13q88 0 119 -80q5 -21 5 -34v-8q0 -39 -30 -76l21 -4h17q49 0 60 65v34q0 57 -68 137q-26 40 -26 72q25 125 184 125h22z" />
    <glyph glyph-name="s" unicode="s" horiz-adv-x="784" 
d="M570 496h9q105 0 156 -168q4 -31 4 -68q0 -167 -95 -256l-9 -4l-4 8q60 139 60 236q0 147 -99 176q-11 0 -13 -16q56 -153 56 -184v-36q0 -128 -152 -148q-107 0 -212 156q-32 20 -48 20h-26q-41 0 -57 -56v-8q0 -40 70 -96l13 -16v-8l-13 -16q-67 0 -126 92q-9 15 -9 32
v24q0 10 9 36q-39 57 -39 116q11 100 104 100q107 0 126 -128q0 -27 43 -48q95 -128 156 -128h22q71 0 83 84v40q0 55 -61 172q-5 16 -5 32q13 60 57 60zM97 280v-52q48 56 113 56v4q-6 64 -48 64h-17q-48 0 -48 -72z" />
    <glyph glyph-name="t" unicode="t" horiz-adv-x="872" 
d="M380 496h8q176 0 246 -162q12 -41 12 -69v-23q0 -92 -70 -200v-4q104 66 104 188q0 65 -65 197v23q21 31 54 31q83 0 138 -116q20 -43 20 -100v-8q0 -148 -104 -265q-13 -8 -20 -8l-3 8q69 165 69 242q0 120 -66 166h-19v-4l39 -123v-58q0 -108 -120 -200
q-34 -12 -46 -12h-19q-8 0 -8 8v12q73 151 73 200v15q0 94 -84 162q-53 35 -120 35q-116 0 -146 -104l-4 -39q0 -50 35 -50q42 69 88 69h16q111 -19 111 -142v-4q0 -111 -131 -162q-20 -4 -34 -4h-19q-141 0 -189 131q0 6 -16 108h-3q-8 -29 -8 -35l11 -53v-12
q-6 -15 -26 -15q-39 15 -39 77v19q12 108 85 108h7q27 0 27 -135q27 -131 131 -131h27q116 15 116 108v19q0 50 -73 62q-32 0 -35 -43l4 -27q-5 -19 -31 -19q-71 0 -104 89q-8 19 -12 57q0 132 135 185q36 8 58 8z" />
    <glyph glyph-name="u" unicode="u" 
d="M-127 47h10q12 0 15 -46q-5 -101 -5 -137v-5h5q0 15 11 15q10 -1 10 -10v-51q0 -558 -269 -558h-11q-162 10 -162 76v10q14 14 142 56q129 67 193 254q41 141 41 381zM-112 -146v-46h5v46h-5zM-117 -197q0 -164 -112 -340q-98 -108 -187 -137v-5l61 -10q151 0 213 198
q30 168 30 264v30h-5z" />
    <glyph glyph-name="v" unicode="v" horiz-adv-x="746" 
d="M429 492q194 0 256 -148q16 -41 16 -72v-12q0 -135 -112 -256q-8 -4 -12 -4v8q0 10 60 168q5 41 8 48q0 157 -168 204q-6 0 -48 4q-120 0 -168 -108q-8 -28 -8 -48v-16q4 -88 20 -88q67 35 112 40q132 -24 132 -120q0 -76 -108 -84q-52 0 -136 80q-72 -72 -120 -72
q-60 0 -60 64q7 112 48 112q8 -10 8 -16q0 -32 -8 -76q4 -8 4 -12h12q35 0 76 60q-40 83 -40 144q0 102 120 176q44 24 116 24zM91 330q71 0 104 -132v-12q0 -8 -8 -8q-11 6 -72 92l-20 4h-4q-4 0 -40 -32h-8q-8 0 -8 8v8q15 72 56 72zM305 112q64 -64 96 -64h28q44 8 44 40
v4q0 42 -84 52q-36 0 -84 -32z" />
    <glyph glyph-name="w" unicode="w" horiz-adv-x="811" 
d="M447 506h9q226 0 305 -198q5 -41 5 -62q0 -148 -125 -264h-9l-9 5q0 8 74 148q14 44 14 66v37q0 114 -130 178q-55 20 -115 20q-132 0 -171 -111l-5 -41q0 -40 32 -54q6 0 74 66q18 8 51 8h9q118 0 134 -157q0 -110 -143 -169q-35 -8 -65 -8h-23q-156 0 -217 140
q0 6 -18 116q-12 0 -14 -41q14 -44 14 -54v-12q-8 -17 -33 -17q-38 0 -46 91v12q14 116 102 116q37 0 37 -75q0 -210 180 -210h14q123 0 138 128q0 64 -87 74q-42 0 -42 -45l5 -25q-10 -25 -37 -25q-139 25 -139 157q0 157 185 202q24 4 46 4z" />
    <glyph glyph-name="x" unicode="x" horiz-adv-x="994" 
d="M493 514h8q155 0 236 -180q12 -43 12 -84v-28q0 -75 -52 -152h4q80 70 80 160v24q0 84 -76 184v16q0 40 68 40q105 0 164 -132q12 -50 12 -88v-12q0 -175 -136 -272q-4 8 -4 12q76 145 76 244v4q-9 153 -84 168h-4q-8 0 -8 -12q44 -75 44 -156q0 -135 -120 -220
q-36 -8 -52 -8h-36q60 125 60 140q5 59 8 64q0 142 -124 204q-36 8 -52 8q-82 0 -112 -68q-21 -96 -44 -96h-16q-8 0 -104 48q-44 0 -44 -108q0 -43 -56 -48h-12q-73 0 -84 104v16q0 39 28 56h8q21 0 32 -100l12 -12h12q8 0 8 8v56q9 96 92 96q15 0 92 -44h4q13 0 32 92
q41 76 128 76z" />
    <glyph glyph-name="y" unicode="y" horiz-adv-x="837" 
d="M591 496h15q129 0 178 -160q8 -40 8 -72v-16q0 -152 -91 -244h-8q-7 0 -7 8q64 150 64 236q0 134 -87 176q-7 4 -15 4h-11v-8q83 -88 83 -188q0 -174 -118 -224q-26 -8 -45 -8h-8q-83 0 -151 108h-8q-49 -96 -140 -96h-27q-119 0 -144 120v4q0 46 61 164v24h-15
q-26 -7 -34 -116l-12 -8h-4q-30 17 -30 80v8q23 104 95 104q0 4 4 4q60 -13 60 -56t-60 -152q-4 -7 -4 -20v-8q12 -80 98 -80q85 0 126 100v40q-8 148 -8 156q0 36 30 36h4q30 0 46 -232q19 -59 56 -80l54 -16q125 12 125 132v40q0 113 -122 160q-14 18 -15 36q0 33 57 44z
" />
    <glyph glyph-name="z" unicode="z" horiz-adv-x="1438" 
d="M770 9l-5 4q2 -2 3 -2.5t2 -1.5zM1057 671q205 0 308 -208q28 -79 28 -147v-15q0 -230 -184 -309q-36 -8 -52 -8q-131 0 -160 98v30q0 42 48 68h20q14 -2 48 -94q32 -22 52 -23q114 0 152 166q4 36 4 68q0 215 -184 291q-56 15 -100 15h-16q-130 0 -176 -109l-4 -19
q0 -35 72 -242l8 -60q0 -133 -132 -155q-108 -15 -124 -15l-4 7q68 96 68 182q0 145 -128 188q-16 8 -44 8h-8q-77 0 -104 -76l-4 -37v-76q0 -7 -8 -7h-12q-90 94 -108 94h-16q-40 0 -40 -45v-4q0 -53 116 -121q24 -25 24 -41q0 -46 -100 -61q-124 0 -172 125q-12 85 -12 90
h-8q-12 -3 -12 -22l12 -38l-8 -4h-12q-35 0 -40 49v12q14 98 76 98h16q44 -6 44 -42v-75q10 -117 76 -117h24q8 0 8 7q-64 65 -64 68q-28 42 -28 91q9 90 80 90h32q25 0 60 -26q19 136 144 136h40q172 0 236 -204v-57q0 -65 -40 -128v-4q96 26 96 98v16q0 64 -76 218
q-8 41 -8 72q0 83 108 159q74 45 188 45z" />
    <glyph glyph-name="braceleft" unicode="{" horiz-adv-x="628" 
d="M696 564q217 0 289 -208q13 -29 13 -80v-16q0 -191 -166 -256q-31 -4 -53 -4q-131 15 -131 96q10 64 53 64h13q10 -2 39 -76q24 -16 40 -16h13q101 0 126 152v44q0 196 -201 240q-22 4 -52 4q-162 -16 -162 -108v-4q39 -158 39 -176v-24q0 -120 -109 -164
q-41 -16 -100 -16h-22q-175 20 -175 120q-4 0 -4 12q8 73 8 96q-8 18 -17 20h-13q-13 -4 -13 -24v-4q0 -9 13 -56l-13 -8h-9q-50 0 -57 80q0 87 92 104q70 -11 70 -72q-5 -108 -5 -128q0 -80 158 -80q148 14 148 88v12q0 45 -52 192v16q0 123 144 168q53 12 96 12zM538 -78
h-4q-66 202 -89 204q-4 28 -80 44q3 -4 5 -9q3 -23 13 -73l-7 -4q-51 16 -67 123q16 13 59 13q88 0 152 -125q25 -75 25 -137q0 -36 -7 -36z" />
    <glyph glyph-name="bar" unicode="|" horiz-adv-x="612" 
d="M364 -3q-28 0 -57 4q-117 11 -167 114l-5 50q17 68 21 106q-7 24 -22 24q-24 0 -24 -34q0 -15 7 -58l-15 -7l-9 1q-49 5 -49 85v9q9 96 107 106q65 -18 65 -76v-7q-21 -144 -21 -155q0 -76 142 -90l39 -3q121 0 130 71q9 0 23 92q2 23 2 49q0 91 -32 190q-15 -5 -30 -5
q-77 3 -77 75v6q9 105 71 112q46 0 79 -120q29 10 74 41q12 0 12 -7q0 -41 -76 -75q34 -111 34 -215q0 -14 -5 -83q-21 -200 -217 -200zM466 512q18 0 20 8q-22 60 -31 61q-7 -23 -7 -26q0 -42 18 -43z" />
    <glyph glyph-name="braceright" unicode="}" horiz-adv-x="898" 
d="M977 575q224 0 300 -227q8 -46 8 -73v-8q0 -203 -160 -269q-30 -8 -56 -8q-118 0 -136 92v16q10 57 48 57h16q9 0 36 -73q24 -23 52 -23h4q132 24 132 185v12q0 179 -160 246q-45 11 -96 15q-160 -15 -160 -107q0 -12 44 -212v-46q0 -122 -164 -139q-7 0 -64 -8l-4 8v4
q72 84 72 200q0 141 -124 189q-42 11 -64 11h-52q-164 -23 -164 -146v-8q0 -97 140 -188l4 -8v-8q-30 -38 -96 -38q-155 0 -184 138q0 85 -20 85q-11 -1 -20 -19q0 -12 24 -77v-4q0 -8 -8 -8h-20q-60 17 -60 77v16q22 92 80 92h12q61 0 72 -108q0 -102 72 -115h16v7
q-80 102 -80 170v27q0 123 160 184q48 12 76 12h28q194 0 260 -189q8 -43 8 -69q0 -110 -60 -177h4q104 0 104 116q0 22 -48 184q-4 21 -4 39q0 150 216 173h16zM587 50q-7 3 -8 7q-19 96 -66 164q-41 66 -95 66q-6 0 -10.5 -1.5t-8.5 -3.5t-4 -19q0 -13 3 -34l-12 -1
q-35 0 -45 16q-19 30 -19 41q0 23 28 51l15 9q24 9 47 9q69 0 125 -88l19 -29q50 -96 50 -145q0 -30 -19 -42z" />
    <glyph glyph-name="asciitilde" unicode="~" horiz-adv-x="491" 
d="M602 499h17q121 0 215 -116q48 -76 48 -148v-24q0 -127 -127 -204q-9 0 -9 8q75 110 75 200q0 147 -136 204q-44 8 -57 8q-104 0 -131 -104q-18 -68 -40 -68t-118 48q-13 0 -13 4q-48 0 -48 -88l-13 -12h-9q-35 23 -35 48v20q0 100 105 100q29 0 114 -48q14 88 39 120
q41 52 123 52zM173 435q72 -7 72 -48l-100 -140q-41 -65 -44 -116q0 -72 88 -72h32q26 0 32 52q41 92 100 92h16q60 -6 60 -44v-4q0 -70 -108 -128q-16 -4 -28 -4v-28q0 -196 220 -276v-4q-6 -16 -28 -16h-8q-123 0 -220 168q-20 55 -20 108v36q-47 -4 -68 -4
q-124 11 -124 92v28q4 100 124 244l-8 4h-8q-58 0 -68 -104q0 -8 -8 -8h-8q-24 13 -24 52q0 102 128 120zM289 63h4q90 24 90 84q0 5 -11 11h-12q-71 -13 -71 -95z" />
    <glyph glyph-name="exclamdown" unicode="&#xa1;" 
d="M-289 -808l-37 3q-68 7 -104 41q3 14 147 74q104 72 113 162q-2 23 -2 42q0 15 1 27l8 3h4q24 -21 24 -62q0 -8 -3 -37q-13 -122 -187 -200v-4l30 -1q108 0 150 106q6 20 8 34l5 53q2 7 8 7h1q17 -13 17 -47l-1 -18q-14 -140 -130 -178q-33 -5 -52 -5z" />
    <glyph glyph-name="cent" unicode="&#xa2;" 
d="M-126 -491h8q8 -1 8 -9q0 -9 -60 -53q-16 -20 -16 -40q4 -13 8 -13q61 22 72 22h20q56 0 56 -62v-22q0 -102 -76 -199h-4q0 11 40 164v26q0 40 -36 40q-13 0 -88 -13h-8q-20 11 -20 35v22q0 66 96 102z" />
    <glyph glyph-name="yen" unicode="&#xa5;" 
d="M-268 -86h7q105 0 157 -170q7 -36 7 -65v-7q0 -155 -62 -214l-3 7q20 122 20 185q0 111 -61 181l-10 7h-7v-4q48 -134 48 -209q-18 -174 -124 -174h-17q-84 0 -137 116h-3q-27 -98 -86 -98h-7q-92 0 -92 116v7q0 61 27 170v7h-7q-50 0 -72 -130v-40q0 -25 24 -83
q0 -18 -44 -29q-89 18 -89 94v36l3 26h-3l-7 -4q-31 14 -31 47v15q0 62 82 83q26 -7 34 -26v-3q-34 -106 -34 -138v-14q4 -52 28 -58v4q-14 32 -14 68q0 148 110 196l20 3h21q34 -5 34 -36q-34 -120 -34 -184q0 -65 41 -65q53 0 75 209q6 18 24 18h4q19 0 24 -130
q37 -123 116 -123q82 18 82 109v14q0 103 -72 228q-7 15 -7 25q11 33 35 33zM-752 -323v-16h4q0 15 17 64h-4q-13 0 -17 -48z" />
    <glyph glyph-name="copyright" unicode="&#xa9;" horiz-adv-x="589" 
d="M97 -223l302 740q46 113 85 133l11 -7q14 -8 -61 -202l-238 -582q-96 -236 -117 -223l-15 9q-15 9 33 132z" />
    <glyph glyph-name="logicalnot" unicode="&#xac;" 
d="M-6 696q-44 0 -44 59q0 58 44 58q43 0 43 -58q0 -59 -43 -59zM-33 75l-1 422q0 65 28 84h12q16 0 20 -109l1 -332q0 -135 -24 -135h-16q-17 0 -20 70z" />
    <glyph glyph-name="registered" unicode="&#xae;" 
d="M-412 -85h6q118 0 180 -154q9 -36 9 -70v-7q0 -79 -36 -133v-4h3q57 57 57 137v17q0 63 -57 151l-3 16q9 30 54 30q77 0 121 -110q9 -42 9 -73v-10q0 -146 -101 -228q-3 7 -3 10q56 122 56 211v3q-9 118 -59 134h-12v-4q33 -79 33 -137q-14 -149 -98 -183q0 -7 -29 -7
h-24l-6 3q51 86 51 161v20q0 112 -98 160l-30 4q-91 0 -91 -124q0 -18 3 -47q-6 -20 -12 -20q-7 0 -62 80q-22 14 -39 14q-24 0 -32 -40v-14q0 -45 100 -117q12 -17 12 -20q-16 -57 -74 -57q-94 0 -130 107q-6 27 -12 84l-6 3h-3q0 -6 -6 -20q9 -26 9 -33t-6 -7h-6
q-32 0 -32 57q9 87 59 87q39 0 39 -64q0 -150 76 -150q6 3 12 3v4q-71 83 -71 120v33q0 77 65 77h12q22 0 48 -23h2q0 116 122 130z" />
    <glyph glyph-name="macron" unicode="&#xaf;" 
d="M-247 -69h7q109 0 158 -147q11 -37 11 -84v-19q0 -89 -56 -220l-7 -4l-7 18q24 165 24 195q0 94 -56 165q-22 19 -42 19q-21 -8 -21 -15v-7q0 -26 70 -121q14 -45 18 -85q0 -128 -141 -158h-28q-106 0 -141 99q-4 8 -7 41l14 136q0 88 -81 88q-78 0 -95 -121
q0 -99 116 -147q0 -8 4 -8q0 -55 -78 -66h-24q-116 0 -116 143q0 67 -15 67h-10l-4 -15q7 -33 7 -48v-4q-1 -7 -17 -14q-53 18 -53 84q14 74 70 74h14q53 0 53 -158q17 -70 57 -70h21v11q-67 76 -67 154q0 106 98 151q27 7 50 7h24q69 0 99 -70q3 -32 7 -40l-14 -158v-15
q0 -62 74 -62h17q113 0 113 114q0 52 -88 169q-21 33 -21 66v15q22 40 63 40z" />
    <glyph glyph-name="plusminus" unicode="&#xb1;" horiz-adv-x="74" 
d="M-103 -554q-13 0 -13 6q0 13 93 147q31 78 33 123q-10 98 -47 99q-17 -58 -27 -60q-12 5 -14 17q0 4 0.5 38.5t45.5 44.5q81 -34 81 -144q0 -84 -71 -206q109 65 109 147q0 41 -41 135v4l7 4q40 -2 71 -132q4 -2 4 -33q0 -145 -206 -187z" />
    <glyph glyph-name="twosuperior" unicode="&#xb2;" horiz-adv-x="75" 
d="M58 -192q39 0 47 -55v-8q0 -43 -68 -97q84 -22 84 -84v-8q-8 -41 -8 -46q11 0 21 -22v-4q0 -8 -8 -8q-14 8 -26 8q-44 -88 -96 -88h-21q-34 0 -34 34v12q0 56 93 80q33 0 33 30v12q0 46 -109 55l-4 8q92 85 92 114v17q0 6 -17 12q-42 0 -105 -71h-4v4q0 73 101 105h29z
M-20 -560q0 -6 16 -12q56 31 56 64q-72 -6 -72 -52z" />
    <glyph glyph-name="mu" unicode="&#xb5;" 
d="M-417 824h22q105 0 157 -77q17 -32 17 -61v-5q0 -112 -120 -156h-2q-6 0 -6 5q85 61 85 145v6q0 70 -79 94q-41 8 -57 8q-101 0 -137 -77l-2 -25q0 -69 119 -95q17 -17 17 -18v-13q-13 -33 -54 -33h-9q-64 0 -116 59v15q0 4 8 8q8 0 52 -23h2v2q-62 31 -62 98v2
q0 53 48 97q57 44 117 44zM-400 1146h5v-5q0 -46 37 -146l3 -16q-3 0 -3 -2q-27 10 -48 10q-10 0 -39 -5v3q25 17 25 102zM-479 1041q-64 -58 -64 -100q0 -58 64 -77q32 -8 70 -10q147 0 147 102q0 47 -51 82v3h3q81 -23 81 -97v-3q0 -104 -160 -123h-28q-132 0 -163 90
q-3 13 -3 25q0 76 96 108h8zM-411 974q78 -8 78 -53v-6q0 -41 -62 -46h-25q-62 11 -62 46v6q0 41 71 53zM-448 921q7 -29 42 -29h9q18 0 28 18v11q0 23 -42 23h-3q-34 -5 -34 -23z" />
    <glyph glyph-name="cedilla" unicode="&#xb8;" 
d="M-376 1099h9v-9q0 -77 61 -244l5 -26q-5 0 -5 -4q-46 17 -80 17q-17 0 -66 -8v4q43 29 43 171zM-508 923q-108 -96 -108 -167q0 -98 108 -129q53 -14 118 -17q244 0 244 172q0 77 -85 137v4h5q136 -38 136 -163v-4q0 -174 -268 -206h-47q-220 0 -272 150q-5 23 -5 43
q0 127 160 180h14zM-395 812q131 -15 131 -90v-9q0 -70 -103 -77h-42q-104 18 -104 77v9q0 68 118 90zM-456 722q12 -48 70 -48h14q31 0 47 30v18q0 38 -70 38h-5q-56 -7 -56 -38z" />
    <glyph glyph-name="ordmasculine" unicode="&#xba;" 
d="M-387 1084h9v-9q0 -77 61 -244l5 -26q-5 0 -5 -4q-46 17 -80 17q-17 0 -66 -8v4q43 29 43 171zM-519 908q-108 -96 -108 -167q0 -98 108 -129q53 -14 118 -17q244 0 244 172q0 77 -85 137v4h5q136 -38 136 -163v-4q0 -174 -268 -206h-47q-220 0 -272 150q-5 23 -5 43
q0 127 160 180h14zM-406 797q131 -15 131 -90v-9q0 -70 -103 -77h-42q-104 18 -104 77v9q0 68 118 90zM-467 707q12 -48 70 -48h14q31 0 47 30v18q0 38 -70 38h-5q-56 -7 -56 -38z" />
    <glyph glyph-name="guillemotright" unicode="&#xbb;" horiz-adv-x="569" 
d="M308 491h12q142 0 196 -158q8 -31 8 -58v-5q0 -159 -129 -262h-8q0 4 -4 4q83 144 83 242v4q-16 146 -104 146h-8l-9 -5q63 -110 63 -129q4 -8 8 -45q0 -171 -166 -221q-30 -4 -50 -4q-121 0 -196 100q-4 7 -4 17v8q0 10 17 12q105 -83 179 -83q115 0 162 125q0 17 4 33
q0 72 -108 196l-13 37q13 46 67 46zM211 -78q17 -5 17 -18l-30 -44v-8q0 -6 113 -62q31 -34 31 -74q-8 -105 -105 -105h-22q-53 0 -105 53q-39 46 -39 131v4q3 98 26 101h4q0 -7 9 -18v-78q14 -140 101 -140h9q56 5 56 43v18q0 47 -109 79q-22 28 -22 43v9q10 53 66 66z" />
    <glyph glyph-name="onequarter" unicode="&#xbc;" horiz-adv-x="422" 
d="M395 496h8q192 0 267 -212q4 -40 4 -60v-16q0 -52 -53 -148h16q18 0 95 60h29q66 0 115 -92v-4q0 -8 -8 -8h-4q-58 56 -107 56q-8 0 -91 -60q-21 -12 -41 -12h-33q-8 0 -41 8v12q66 84 66 192q0 163 -189 212q-41 0 -42 4q-116 0 -144 -112v-40q42 8 75 8q141 0 197 -136
q0 -18 4 -24q-6 -84 -74 -84q-66 0 -226 156q-29 -37 -29 -64q0 -43 90 -72l9 -12v-4q0 -14 -46 -20h-20q-70 0 -103 100q-74 27 -74 92v12q0 59 86 76q24 0 70 -28l-4 28q0 127 111 176q51 16 87 16zM107 212v-8q0 -17 16 -48h4q0 49 37 84v4h-24q-33 0 -33 -32zM275 212
q86 -106 165 -120h4q6 0 12 12v8q0 70 -107 100q-5 4 -28 4h-17z" />
    <glyph glyph-name="onehalf" unicode="&#xbd;" horiz-adv-x="763" 
d="M525 500h8q144 0 204 -184q8 -18 8 -52v-12q0 -167 -128 -252h-8l-4 8q80 125 80 224q0 122 -88 160q-8 -4 -12 -4q48 -96 48 -152v-20q0 -147 -140 -204q-48 -12 -88 -12h-20q-195 0 -252 152l-4 36q0 50 48 104q-36 40 -36 44v24l4 20h-4q-36 -19 -36 -48l12 -68l-8 -4
h-8q-36 26 -36 64v16q30 132 192 132q132 -7 132 -56v-4q0 -31 -28 -36q-57 8 -80 8h-20q-48 0 -48 -36q0 -32 96 -32q32 -11 32 -20v-16q0 -40 -64 -40h-4q-9 0 -16 4q-60 0 -60 -44v-8q0 -124 204 -124q132 0 176 104q8 29 8 60q0 83 -104 196q-8 30 -8 32q9 40 52 40z
M427 1083h9v-9q0 -77 61 -244l5 -26q-5 0 -5 -4q-46 17 -80 17q-17 0 -66 -8v4q43 29 43 171zM295 907q-108 -96 -108 -167q0 -98 108 -129q53 -14 118 -17q244 0 244 172q0 77 -85 137v4h5q136 -38 136 -163v-4q0 -174 -268 -206h-47q-220 0 -272 150q-5 23 -5 43
q0 127 160 180h14zM408 796q131 -15 131 -90v-9q0 -70 -103 -77h-42q-104 18 -104 77v9q0 68 118 90zM347 706q12 -48 70 -48h14q31 0 47 30v18q0 38 -70 38h-5q-56 -7 -56 -38z" />
    <glyph glyph-name="threequarters" unicode="&#xbe;" 
 />
    <glyph glyph-name="questiondown" unicode="&#xbf;" horiz-adv-x="148" 
 />
    <glyph glyph-name="Agrave" unicode="&#xc0;" 
d="M-441 -558l-23 1q-163 5 -163 195v14h-7l-5 -27l3 -27q-6 -26 -20 -26q-28 1 -33 70v4q12 87 56 87h13q49 -2 49 -122v-19q24 -77 113 -80h11q80 0 91 66v16q0 28 -103 133q-14 40 -14 55l1 23q4 118 155 129h11q173 -6 233 -185q5 -31 5 -51l-1 -37q-4 -122 -103 -209
q-13 -7 -23 -7v4l54 106q19 68 19 123q0 115 -117 177q-29 14 -78 14q-78 0 -78 -68q0 -39 84 -125q40 -46 40 -88q0 -130 -170 -146z" />
    <glyph glyph-name="Aacute" unicode="&#xc1;" horiz-adv-x="990" 
d="M749 514q150 0 196 -188v-36q0 -151 -124 -256h-8v8q68 142 72 184q4 21 4 48v12q-15 144 -108 144l-4 -8v-4q0 -8 52 -100q12 -50 12 -76q0 -59 -44 -144q8 -48 8 -76v-44q-3 -84 -16 -84q-14 0 -36 168q-60 -36 -116 -36q-124 0 -200 112q-14 -54 -84 -104
q-66 -36 -116 -36q-139 0 -188 156q-4 21 -4 40v36q0 88 56 148h8q12 0 12 -16q-20 -131 -20 -164q0 -111 100 -136l24 -4q164 25 164 148q0 52 -184 52l-4 8v12q4 11 120 88q32 42 32 60v4q0 11 -32 16q-72 -14 -72 -40q40 -13 40 -24v-16q-6 -16 -28 -16h-4q-52 0 -64 52
v8q0 60 124 88h16q78 0 92 -68v-8q0 -39 -92 -120q120 -25 120 -100l-4 -40q16 0 84 -52q46 -28 88 -28h16q49 0 96 36q-48 88 -100 88q4 -15 8 -100l-8 -4q-56 30 -56 144v8q4 12 24 12h20q78 0 152 -100q16 56 16 72q0 75 -104 192q0 4 -8 32v20q19 32 72 32z" />
    <glyph glyph-name="Acircumflex" unicode="&#xc2;" 
d="M-97 132h4q23 -14 23 -46q0 -63 -42 -190q65 -57 65 -141v-8q0 -75 -57 -160h-8v4q15 107 15 125v23q0 46 -34 99l-76 -141q-44 -88 -95 -156q61 -37 61 -99v-8q0 -76 -103 -95h-12q-95 9 -95 73q0 35 53 95q-278 79 -278 221v11q0 125 156 210q79 38 164 38
q109 0 198 -53l50 190zM-607 -261q0 -102 263 -175q88 123 156 278q0 7 11 35q-61 42 -152 42h-50q-142 0 -221 -138q-4 -36 -7 -42zM-344 -516q-38 -49 -38 -69v-11l15 -4q46 11 46 46q0 19 -23 38z" />
    <glyph glyph-name="Atilde" unicode="&#xc3;" 
d="M-141 51q26 -15 26 -53q0 -36 -23 -99q65 -57 65 -141v-7q0 -75 -57 -160h-8v4q16 107 16 125v16q0 56 -35 106l-76 -141q-44 -88 -95 -156q61 -36 61 -98v-8q0 -76 -102 -95h-12q-95 9 -95 72q0 35 53 95q-277 79 -277 221v11q0 120 148 205q81 42 175 42q103 0 194 -53
q29 108 42 114zM-632 -257q0 -102 263 -175q87 123 155 278q0 7 12 34q-63 42 -152 42h-50q-141 0 -220 -137q-4 -36 -8 -42zM-369 -512q-38 -50 -38 -68v-11l19 -4q31 0 41 45q0 19 -22 38z" />
    <glyph glyph-name="Adieresis" unicode="&#xc4;" 
d="M-116 -496q18 -9 18 -30t-15 -56q43 -32 43 -80v-4q0 -42 -38 -91h-5v2q10 61 10 71v9q0 32 -23 60l-51 -79q-29 -50 -63 -89q40 -21 40 -56v-4q0 -43 -68 -54h-8q-63 5 -63 41q0 20 35 54q-185 44 -185 125v6q0 68 99 117q54 24 117 24q68 0 129 -31q20 61 28 65z
M-443 -671q0 -58 169 -99q57 70 101 158q0 3 7 19q-40 24 -98 24h-32q-91 0 -142 -78q-3 -21 -5 -24zM-268 -815q-26 -29 -26 -39v-6l13 -3q21 0 28 26q0 11 -15 22z" />
    <glyph glyph-name="Aring" unicode="&#xc5;" 
d="M-259 -53q126 0 145 -189q0 -86 -57 -200q72 45 72 167q0 48 -26 152v7q1 7 7 7h4q29 0 65 -133v-44q0 -173 -137 -222q-21 -4 -35 -4h-15q-20 0 -26 15v11q0 7 72 122q23 72 23 130q0 105 -84 129h-15q-69 0 -69 -111q-14 -44 -42 -44q-25 0 -72 70q-32 25 -65 30
q-57 0 -65 -56v-7q0 -42 54 -71l3 -18q-11 -37 -68 -37q-107 13 -107 96v15q9 59 46 59q5 0 11 -11q-7 -26 -7 -44v-15q0 -45 38 -45v4q-23 32 -23 56v14q18 115 99 115h11q69 0 134 -78q0 100 95 130h34z" />
    <glyph glyph-name="AE" unicode="&#xc6;" 
d="M-363 -68h32q97 0 132 -144q4 -14 4 -41v-15q0 -82 -56 -189q72 48 72 145v33q0 40 -24 126v11q0 26 28 26h16q59 0 100 -104q4 -14 4 -29v-52q0 -141 -100 -226h-12q-8 0 -8 7v4q68 144 68 237q-12 96 -36 96h-4q17 -41 24 -107q0 -176 -132 -230q-15 -7 -32 -7h-20
q-22 0 -32 19v7q0 16 64 122q28 74 28 126q0 109 -80 133h-28q-55 0 -64 -92q-7 -63 -44 -63q-18 0 -88 85l-52 15q-56 0 -64 -60q0 -48 52 -70q8 -12 8 -22q-18 -37 -72 -37q-108 14 -108 96v15q12 63 52 63h4q8 -1 8 -8v-3l-16 -56q5 -52 40 -52h4q-28 34 -28 74
q21 115 104 115h20q53 0 128 -78q0 83 60 115q27 15 48 15z" />
    <glyph glyph-name="Ccedilla" unicode="&#xc7;" 
d="M-296 -77h8q132 0 207 -152q15 -37 15 -74v-7q-10 -180 -104 -223l-3 8q55 124 55 192q0 138 -133 189q-43 4 -48 8q-93 -8 -93 -86q4 -26 4 -29h3q21 44 63 44h4q96 0 137 -100q8 -13 8 -29v-34q0 -117 -141 -167q-30 -7 -63 -7h-11q-148 0 -189 104q-8 16 -8 48v4
q0 31 15 107q-7 -5 -59 -141q-52 -70 -100 -70h-8q-7 0 -7 7v4q100 83 100 126q44 136 67 159l25 4h4q30 0 30 -30v-7q-19 -108 -19 -133q0 -79 63 -108q35 -15 63 -15h30q156 0 156 141q-19 85 -82 85h-7q-37 -6 -37 -29q0 -3 18 -48v-4q0 -11 -15 -11q-103 36 -103 129v12
q0 91 92 122q30 11 63 11z" />
    <glyph glyph-name="Egrave" unicode="&#xc8;" 
d="M-245 -72h7q75 -21 144 -159q19 -56 19 -108v-12q-13 -152 -124 -190q-36 -7 -58 -7h-19q-149 0 -190 108q-16 46 -16 116v43q0 77 -69 77q-117 -29 -117 -174q12 -105 62 -105q31 0 31 86q-4 104 -4 124l12 7q43 -20 43 -120q0 -143 -78 -143h-11q-80 0 -105 151v31
q0 74 62 155q60 45 101 46h27q101 0 101 -155q0 -131 61 -170q72 -19 78 -19l8 4h23q94 0 116 89q12 54 12 77q0 89 -128 225v11q0 6 12 12z" />
    <glyph glyph-name="Eacute" unicode="&#xc9;" horiz-adv-x="153" 
d="M-159 635h4q94 -27 206 -264q73 -203 73 -360v-32q0 -242 -138 -448q-145 -156 -359 -156h-4q-314 0 -428 264q-19 48 -19 108v24q16 200 88 200q11 -13 11 -20q-42 -105 -42 -192q0 -144 149 -244q111 -60 241 -60q327 0 413 380q23 106 23 216q0 218 -141 460
q-85 103 -85 120z" />
    <glyph glyph-name="Ecircumflex" unicode="&#xca;" horiz-adv-x="132" 
d="M17 -656l-8 1q-67 261 -102 269q-2 35 -117 70q4 -5 7 -11q0 -30 8 -92l-12 -4q-76 30 -82 165q15 7 43 7q21 0 49 -4q136 -19 214 -185q18 -69 18 -127q0 -24 -3 -47q-6 -42 -15 -42zM-159 635h4q94 -27 206 -264q73 -203 73 -360v-32q0 -242 -138 -448
q-145 -156 -359 -156h-4q-314 0 -428 264q-19 48 -19 108v24q16 200 88 200q11 -13 11 -20q-42 -105 -42 -192q0 -144 149 -244q111 -60 241 -60q327 0 413 380q23 106 23 216q0 218 -141 460q-85 103 -85 120z" />
    <glyph glyph-name="Edieresis" unicode="&#xcb;" horiz-adv-x="153" 
d="M-124 614q97 -28 193 -247q79 -190 76 -385q-8 -498 -301 -655q-104 -51 -256 -48h-20q-320 5 -432 323q-10 63 -10 96v28q3 148 81 215l16 -1q6 0 15 -16q-52 -126 -54 -207v-4q-1 -115 86 -237q134 -110 323 -113q300 -5 414 257q65 150 68 371v24q6 328 -199 579
l-8 16z" />
    <glyph glyph-name="Igrave" unicode="&#xcc;" horiz-adv-x="105" 
d="M-140 586q78 -25 171 -197q107 -214 107 -452q0 -315 -184 -531q-127 -134 -376 -134h-4q-345 0 -446 272q-20 70 -20 142v9q0 149 78 221h24q6 0 21 -20v-5q-41 -110 -41 -154q0 -190 139 -302q126 -67 265 -67q352 0 442 410q24 113 24 210q0 334 -212 581v13q7 4 12 4
zM6 -767l-8 1q-67 261 -102 269q-2 35 -117 70q4 -5 7 -11q0 -30 8 -92l-12 -4q-76 30 -82 165q15 7 43 7q21 0 49 -4q136 -19 214 -185q18 -69 18 -127q0 -24 -3 -47q-6 -42 -15 -42z" />
    <glyph glyph-name="Iacute" unicode="&#xcd;" horiz-adv-x="200" 
d="M-145 614q101 -28 201 -247q82 -190 79 -385q-9 -498 -313 -655q-108 -51 -266 -48h-20q-334 5 -449 323q-11 63 -11 96v28q3 148 84 215l17 -1q6 0 15 -16q-54 -126 -55 -207v-4q-2 -115 88 -237q140 -110 336 -113q312 -5 431 257q67 150 70 371l1 24q5 328 -208 579
l-8 16z" />
    <glyph glyph-name="Icircumflex" unicode="&#xce;" horiz-adv-x="7" 
d="M-161 58q93 0 119 -283v-64q0 -239 -226 -330q-78 -22 -142 -22h-62q-200 0 -327 170q-23 54 -23 91v54q0 189 193 278h11v-7q-147 -132 -147 -281q0 -160 181 -214q85 -27 141 -27h28q229 0 293 214q18 105 18 148q0 88 -62 273h5z" />
    <glyph glyph-name="Idieresis" unicode="&#xcf;" horiz-adv-x="689" 
d="M487 491q108 0 153 -184q4 -22 4 -52v-9q0 -157 -105 -228l-4 9q66 127 66 206q-24 170 -83 170h-18v-8q57 -128 57 -180v-26q-25 -175 -166 -175q0 -4 -40 -4h-26q-175 22 -175 131q0 5 -4 13q8 61 8 105q-8 20 -17 22q-26 0 -26 -26v-5q0 -10 13 -61l-13 -9h-9
q-50 0 -57 88q0 93 92 114q59 0 70 -75q0 -27 -4 -144q0 -88 157 -88q149 12 149 97v26q0 84 -88 227l-4 22q14 44 70 44zM369 -25q17 -5 17 -18l-30 -44v-8q0 -6 113 -62q31 -34 31 -74q-8 -105 -105 -105h-22q-53 0 -105 53q-39 46 -39 131v4q3 98 26 101h4q0 -7 9 -18
v-78q14 -140 101 -140h9q56 5 56 43v18q0 47 -109 79q-22 28 -22 43v9q10 53 66 66z" />
    <glyph glyph-name="Udieresis" unicode="&#xdc;" horiz-adv-x="137" 
d="M268 552q194 0 267 -242q8 -55 8 -87v-18q0 -202 -135 -279q-34 -18 -59 -18q-131 15 -131 105v13q10 69 50 69q22 0 43 -87q25 -23 55 -23q118 32 118 211q0 204 -148 278q-57 14 -76 14q-185 0 -211 -247q-5 0 -5 -50v-169q0 -576 -181 -699q-81 -41 -140 -41h-8
q-181 0 -254 187q-8 37 -8 78v9q0 164 165 256q42 18 84 18h9q55 0 72 -32q0 -15 -127 -27q-140 -74 -140 -211v-13q0 -155 199 -192q165 0 228 201q51 149 51 461q-4 95 -4 179q0 356 278 356z" />
    <glyph glyph-name="Thorn" unicode="&#xde;" 
d="M-195 -58h4q78 -24 129 -266v-19q0 -116 -114 -155q-30 -8 -64 -8h-8q-122 0 -152 121v19q0 28 12 149q0 87 -87 87q-79 0 -103 -118v-7q0 -104 125 -152l4 -8v-4q0 -57 -102 -68q-133 0 -133 152q0 68 -15 68h-12l-4 -15q8 -36 8 -57l-15 -11h-4q-45 0 -57 87
q15 76 76 76h8q60 0 60 -118q0 -121 76 -121q8 4 12 4v11q-73 79 -73 159q20 164 164 164h19q117 0 117 -129l-15 -160q0 -72 91 -72q129 0 129 106v12q0 86 -87 254v4q6 15 11 15z" />
    <glyph glyph-name="germandbls" unicode="&#xdf;" 
d="M-487 -88h15q168 -26 168 -157q-22 -133 -125 -133h-14q-135 19 -135 109v19q10 19 24 19q18 0 91 -66q16 -10 29 -10h5q45 0 53 57q0 78 -101 95h-48q-83 0 -120 -104q-5 -43 -5 -53q0 -151 236 -181q151 0 230 153q10 11 19 114q-9 52 -9 95l9 5q53 -35 53 -148v-14
q0 -142 -168 -247q-62 -29 -134 -29h-20q-185 0 -273 186q-10 35 -10 66v19q0 143 168 195q22 10 62 10z" />
    <glyph glyph-name="agrave" unicode="&#xe0;" 
d="M-365 -59h11q193 -16 193 -144q5 0 5 -5q0 -103 -139 -130h-5q-166 17 -166 126q8 18 16 18h11q20 0 107 -68l32 -9q52 0 64 59q-20 94 -112 94h-43q-103 0 -145 -112q-5 -31 -5 -50q36 -157 209 -157q115 0 256 144q28 22 49 22h10q11 0 11 -13q-57 -179 -155 -275h-11
q-11 0 -11 14q6 30 43 117q-108 -72 -192 -72h-33q-175 0 -251 193v36q32 212 251 212z" />
    <glyph glyph-name="aacute" unicode="&#xe1;" 
d="M-330 -90h7q164 0 222 -152q10 -35 10 -70v-7q0 -144 -109 -199l-3 7q61 73 61 155v33q0 121 -130 159q-29 3 -47 3h-17q-93 0 -134 -71q-17 -28 -17 -67q0 -81 120 -162l3 -6v-11q-22 -30 -82 -30q-113 0 -150 91q-8 105 -21 105h-3q-9 -1 -17 -17q3 -24 20 -68v-3
q0 -5 -13 -10q-50 0 -62 71v3q11 91 75 91q57 0 65 -91q0 -91 58 -104h17v6q-68 89 -68 149v30q0 72 96 138q58 27 119 27z" />
    <glyph glyph-name="acircumflex" unicode="&#xe2;" 
d="M-235 -94q60 0 120 -188q16 -55 16 -112v-4q0 -140 -96 -188q-28 -8 -48 -8h-12q-110 0 -164 128l-44 -80q-34 -28 -64 -28h-16q-100 17 -100 124v20q0 61 36 184l-8 4h-4q-63 0 -84 -156v-28q0 -34 28 -92v-4q0 -20 -52 -32q-57 0 -96 64q-8 18 -8 52v28l4 28h-20
q-28 20 -28 44v20q20 92 100 92q36 -7 36 -36v-4q-40 -95 -40 -160q8 -64 32 -64v8q-16 31 -16 80q0 149 124 208q22 4 36 4h20q36 -5 36 -36v-8q-40 -134 -40 -200q0 -72 48 -72q64 0 92 240l16 12h16q24 0 24 -136q44 -140 124 -140h20q58 0 84 76q8 23 8 52
q0 110 -88 264q-4 7 -4 20q3 24 12 24zM-823 -338v-16h4q0 24 24 68h-4q-24 -12 -24 -52z" />
    <glyph glyph-name="atilde" unicode="&#xe3;" 
d="M-351 -84h7q131 0 208 -142q18 -54 18 -81q0 -85 -46 -149v-3q78 61 78 165v41q0 5 11 10h7q17 0 21 -61v-3q0 -118 -106 -186q-27 -7 -50 -7h-21q-7 0 -7 7q60 84 60 169q0 145 -145 176h-14q-72 0 -96 -64q-7 -26 -7 -48v-71q0 -5 -11 -10q-11 0 -70 78q-27 17 -50 17
q-25 0 -42 -41q0 -61 106 -118q28 -23 28 -27v-10q0 -43 -88 -54q-110 0 -153 108q-6 22 -14 84l-7 4q-8 0 -11 -24q11 -22 11 -30q0 -7 -7 -7h-7q-39 0 -39 57q11 88 71 88q46 0 46 -64q0 -124 49 -142q21 -10 43 -10q7 3 11 3v7q-75 76 -75 95q-7 15 -10 50q0 74 70 85h25
q25 0 57 -24h3q0 119 146 132z" />
    <glyph glyph-name="adieresis" unicode="&#xe4;" 
d="M-349 -47h4q189 0 256 -144q16 -50 16 -76v-12q0 -140 -116 -260h-4l-4 8q0 12 52 144q12 39 16 76q0 146 -152 196q-50 8 -60 8q-129 0 -172 -116q-8 -32 -8 -52q0 -36 16 -96q78 44 116 44q132 -22 132 -116q0 -66 -68 -84l-36 -4q-51 0 -136 76h-8q-53 -59 -112 -68
q-64 0 -64 76v12q21 156 80 156q8 -13 8 -24q-40 -106 -40 -140l12 -8h4q25 0 80 52q-40 88 -40 140v12q0 131 160 192q32 8 68 8zM-469 -423q58 -68 104 -68h20q24 0 44 28v28q-28 40 -84 40q-20 0 -84 -28z" />
    <glyph glyph-name="aring" unicode="&#xe5;" 
d="M-302 -71q177 0 242 -192q4 -39 4 -58q0 -163 -119 -211l-4 7q65 99 65 185q0 157 -142 196q-10 0 -31 4q-64 0 -96 -66q-7 -34 -7 -50v-76q0 -6 -12 -12q-8 0 -92 88q-15 12 -35 12q-31 0 -38 -42v-16q0 -44 123 -126q11 -26 11 -35q-26 -58 -92 -58q-120 0 -165 116
q-7 12 -16 100l-7 3q-9 0 -12 -27q12 -25 12 -34l-12 -8h-4q-36 0 -42 54v4q11 107 81 107q50 -4 50 -42v-84q13 -116 80 -116h4q19 0 19 8q-80 87 -80 115q-8 15 -8 43q0 100 92 100h8q30 0 62 -27h3q24 138 139 138h19z" />
    <glyph glyph-name="egrave" unicode="&#xe8;" horiz-adv-x="591" 
d="M354 600h12q45 0 84 -112h4l84 32q8 -1 8 -8v-8q-29 -39 -84 -56q36 -106 36 -200q0 -177 -128 -228q-45 -20 -104 -20h-4q-201 6 -252 144v20q0 6 16 16h8q8 -2 48 -64q79 -60 152 -60h12q192 0 192 192v28q0 64 -32 152h-32q-88 0 -88 68q17 104 68 104zM346 508v-12
q3 -24 12 -24h32q-15 47 -32 60q-12 -4 -12 -24z" />
    <glyph glyph-name="eacute" unicode="&#xe9;" 
d="M-366 -100h16q108 -6 108 -33l-13 -8h-41q-169 0 -232 -133q-12 -27 -12 -70q24 -157 157 -157q111 0 141 103v4q0 54 -50 54h-20q-19 -2 -54 -70l-17 -13h-4q-33 0 -45 54q0 142 132 190l50 9q194 -30 194 -178v-17q0 -124 -108 -231q-17 -17 -33 -17q-4 8 -4 12
q81 134 87 216q0 105 -87 144q-16 9 -45 9h-9q-84 0 -115 -83v-4q48 33 78 33q112 -20 112 -99v-17q0 -123 -166 -161h-53q-107 0 -187 120q-24 46 -24 99v21q0 144 182 215q39 8 62 8z" />
    <glyph glyph-name="ecircumflex" unicode="&#xea;" horiz-adv-x="216" 
d="M-289 -721q-203 -3 -283 190q-8 32 -8 68v18q3 143 154 235q56 29 101 30l58 -1q49 -12 49 -27l1 -5q0 -12 -140 -25q-151 -73 -153 -195v-30q2 -143 209 -186h12q217 4 278 297q39 196 36 414q-5 249 -89 398v13l25 19l22 -1q124 -3 186 -207q13 -87 14 -172v-49
q-4 -420 -130 -719l-14 -13h-6q0 5 64 391q24 255 21 398q-2 175 -44 239l-19 8v-22q23 -149 25 -290q1 -33 0 -66q-12 -558 -224 -677q-74 -32 -145 -33z" />
    <glyph glyph-name="edieresis" unicode="&#xeb;" horiz-adv-x="216" 
d="M-261 -752h-10q-196 -4 -272 193q-7 32 -7 69v19q2 173 189 265q37 8 61 9q2 0 41 -0.5t57 -33.5q-8 -10 -151 -29q-128 -84 -130 -198l-1 -31q3 -146 200 -189h8q179 3 247 223q47 166 51 443v66q-5 257 -82 398l1 23q7 17 28 17l12 1q108 -1 169 -178q23 -89 26 -236
q2 -110 -5 -185l8 4q88 -46 90 -172q2 -89 -68 -231q114 71 112 167q-1 46 -51 161l9 5q43 -1 86 -159v-37q-2 -166 -233 -218h-18q-11 -1 -13 18q136 183 133 311q-1 62 -38 95h-4q-21 -21 -42 -74l-9 -4q-23 0 -25 98q4 244 3 272q-4 204 -61 237v-18q22 -145 25 -292v-74
q-11 -729 -336 -735z" />
    <glyph glyph-name="igrave" unicode="&#xec;" horiz-adv-x="223" 
d="M-292 -743h-14q-191 0 -270 193q-8 29 -9 62l1 26q2 172 196 264q41 9 76 9q11 0 40.5 -1t48.5 -33q-8 -12 -156 -30q-134 -83 -137 -197v-33q5 -144 209 -186h15q211 7 274 313q28 210 28 376q0 283 -85 437l1 25q0 7 18 16h23q111 -1 176 -178q28 -129 28 -253
q0 -100 -17 -223q26 22 69 22q51 0 64 -61q-1 -46 -76 -114q60 -1 81 -66q4 -21 5 -32q0 -11 -10 -46q12 -1 23 -23q0 -14 -10 -15q-14 10 -27 10q-43 -94 -112 -94q-28 0 -45 27v28q34 82 102 82q33 1 33 41q0 50 -118 62v9q98 90 99 123v9q-1 6 -14 14l-11 1
q-51 -2 -105 -82h-9q15 218 15 346q0 251 -70 287v-18q27 -186 27 -331v-25q-10 -588 -213 -703q-68 -36 -144 -38zM165 -534q37 1 71 67l-13 1q-47 -2 -69 -40l-1 -5l4 -23h8z" />
    <glyph glyph-name="iacute" unicode="&#xed;" horiz-adv-x="174" 
d="M20 496h5q84 0 120 -231q13 -116 13 -224v-54q0 -543 -129 -678q0 4 -4 4q86 285 86 661v42q0 261 -39 345h-13v-8q22 -223 22 -362v-72q0 -732 -288 -732h-9q-115 0 -155 93q-4 22 -4 37v13q0 117 150 135h31q55 -3 55 -17q-13 -11 -133 -34q-56 -25 -56 -80
q0 -92 108 -92h4q170 0 219 303q30 219 30 429q0 185 -34 488q0 22 21 34z" />
    <glyph glyph-name="icircumflex" unicode="&#xee;" horiz-adv-x="206" 
d="M25 515h8q69 0 104 -193q20 -132 20 -308v-22q0 -147 -16 -236q69 0 88 -167q0 -78 -64 -206q104 72 104 159q0 38 -48 150l8 4q37 0 76 -133q4 -16 4 -34v-13q0 -158 -216 -205h-8q-10 0 -12 17q116 165 116 283q0 62 -36 94h-4l-36 -52q-12 5 -12 26l12 317
q-7 386 -48 386q0 -18 -4 -34q24 -169 24 -403q0 -519 -132 -699q-70 -64 -140 -64h-8q-106 0 -144 94q-4 23 -4 39v13q0 92 92 128q30 9 56 9h24q48 0 48 -17q-12 -12 -124 -35q-52 -25 -52 -81q0 -94 100 -94h16q106 0 160 167q60 201 60 527v82q0 157 -28 467v4
q0 23 16 30z" />
    <glyph glyph-name="idieresis" unicode="&#xef;" horiz-adv-x="201" 
d="M23 515h4q120 0 137 -438v-77q0 -122 -17 -234h4q29 22 55 22h13q55 -5 55 -56v-8q0 -40 -68 -102q68 0 85 -90q0 -5 -8 -46q5 0 21 -22v-13h-4l-30 9q-45 -94 -111 -94q-42 6 -42 39q0 61 85 93q42 0 42 26v17q0 46 -106 51q-4 8 -4 13q0 9 59 59q30 33 30 51v22
q0 8 -8 8h-17q-36 0 -98 -72h-4q17 139 17 263v137q0 223 -39 306h-12q21 -226 21 -340v-149q0 -411 -119 -613q-77 -85 -166 -85h-9q-114 0 -153 94q-4 23 -4 38v17q0 116 153 132h26q55 -3 55 -17q-19 -12 -145 -39q-42 -30 -42 -68v-12q0 -67 80 -90h30q195 0 230 409
q17 148 17 319v4q0 226 -34 502q0 22 21 34zM151 -574q5 -21 13 -21q30 0 68 64h-17q-43 0 -64 -43z" />
    <glyph glyph-name="eth" unicode="&#xf0;" horiz-adv-x="211" 
d="M-574 -724q-102 0 -167 54q-120 99 -120 313q0 101 37 381l10 -3q-24 -268 -24 -324q0 -215 115 -293q58 -39 147 -39q103 0 249 53l-4 -87q-140 -55 -243 -55zM20 496h5q84 0 120 -231q13 -116 13 -224v-54q0 -543 -129 -678q0 4 -4 4q86 285 86 661v42q0 261 -39 345
h-13v-8q22 -223 22 -362v-72q0 -732 -288 -732h-9q-115 0 -155 93q-4 22 -4 37v13q0 117 150 135h31q55 -3 55 -17q-13 -11 -133 -34q-56 -25 -56 -80q0 -92 108 -92h4q170 0 219 303q30 219 30 429q0 185 -34 488q0 22 21 34z" />
    <glyph glyph-name="ograve" unicode="&#xf2;" horiz-adv-x="866" 
d="M569 500q195 0 264 -243q8 -63 8 -85q0 -128 -48 -302q68 -65 68 -166v-9q0 -96 -64 -194l-4 9q16 127 16 149v27q0 54 -36 117l-88 -185q-36 -80 -88 -162q60 -59 60 -108v-27q-18 -108 -120 -108q-82 0 -96 77v22q0 24 52 99q-288 96 -288 257v22q0 131 144 234
q91 54 188 54h4q114 0 204 -63q32 122 32 221q0 189 -116 256q-29 18 -64 18h-32q-100 0 -100 -202q4 -24 4 -27q-5 -23 -12 -23h-12q-5 1 -92 117q-26 9 -36 9q-48 -4 -48 -49v-23q0 -54 132 -153q16 -24 16 -40q0 -64 -104 -77h-8q-115 0 -168 131q-11 31 -20 135l-8 4
q-12 -4 -12 -27v-4q12 -41 12 -45q0 -9 -8 -9h-12q-38 0 -44 63v9q0 94 68 130h32q44 -7 44 -49v-104q12 -148 80 -148h16l20 4v9q-68 80 -68 86q-28 52 -28 99v27q0 100 80 121q53 0 100 -49h4v4q19 167 140 167q0 4 36 4zM277 -323q0 -112 276 -198q121 207 172 364v5
q-72 54 -176 54q-184 0 -260 -158q-12 -30 -12 -67zM549 -616q-40 -64 -40 -85q0 -7 12 -14q52 8 52 50q0 35 -24 49z" />
    <glyph glyph-name="divide" unicode="&#xf7;" horiz-adv-x="834" 
d="M533 480q185 0 252 -200q4 -40 4 -60q0 -170 -124 -220l-4 8q68 102 68 192q0 163 -148 204q-10 0 -32 4q-67 0 -100 -68q-8 -36 -8 -52v-80q0 -6 -12 -12q-8 0 -96 92q-15 12 -36 12q-32 0 -40 -44v-16q0 -46 128 -132q12 -27 12 -36q-27 -60 -96 -60q-125 0 -172 120
q-7 13 -16 104l-8 4q-9 0 -12 -28q12 -26 12 -36l-12 -8h-4q-38 0 -44 56v4q11 112 84 112q52 -5 52 -44v-88q13 -120 84 -120h4q20 0 20 8q-84 91 -84 120q-8 16 -8 44q0 104 96 104h8q31 0 64 -28h4q25 144 144 144h20zM520 -56q17 -5 17 -18l-30 -44v-8q0 -6 113 -62
q31 -34 31 -74q-8 -105 -105 -105h-22q-53 0 -105 53q-39 46 -39 131v4q3 98 26 101h4q0 -7 9 -18v-78q14 -140 101 -140h9q56 5 56 43v18q0 47 -109 79q-22 28 -22 43v9q10 53 66 66z" />
    <glyph glyph-name="oslash" unicode="&#xf8;" 
d="M-559 960h29q133 0 200 -109q22 -45 22 -87v-7q0 -158 -153 -221h-3q-8 0 -8 7q109 86 109 207v7q0 100 -101 134q-52 11 -73 11q-129 0 -174 -109l-4 -36q0 -98 153 -134q22 -24 22 -26v-18q-17 -47 -69 -47h-11q-83 0 -149 83v22q0 5 11 11q9 0 65 -33h4v4
q-80 43 -80 138v4q0 74 62 137q72 62 148 62z" />
    <glyph glyph-name="ugrave" unicode="&#xf9;" 
d="M-579 532h-11q-83 0 -149 83v22q0 5 11 11q9 0 65 -33q4 0 4 4q-80 43 -80 140q0 76 62 139q72 62 148 62h29q133 0 200 -109q22 -45 22 -94q0 -158 -153 -221q-11 0 -11 7q109 86 109 214q0 100 -101 134q-52 11 -73 11q-129 0 -174 -109l-4 -36q0 -98 153 -134
q22 -24 22 -26v-18q-17 -47 -69 -47zM-428 587q-4 4 -5 8q-2 84 -32 150q-26 62 -72 70l-5 1q-7 0 -11 -2q-9 -4 -9 -46l-11 1q-46 8 -46 56q0 19 31 42q19 7 39 7q71 0 111 -95q34 -80 34 -140q0 -42 -24 -52z" />
    <glyph glyph-name="uacute" unicode="&#xfa;" horiz-adv-x="727" 
d="M381 493q218 0 288 -241q9 -32 9 -60v-13q0 -274 -318 -383q-276 -125 -276 -266q18 -108 99 -108q-13 28 -17 82q0 165 176 232q43 17 86 17h43q149 0 202 -150q9 -17 9 -47v-39q0 -141 -189 -314h-9q-8 0 -8 9v8q142 188 142 301v9q0 134 -177 150q-143 0 -198 -116
q-9 -16 -12 -64q0 -41 51 -121v-8q-21 -22 -60 -22q-167 0 -202 172v43q0 211 404 340q112 53 163 150q26 83 26 112v35q-29 219 -206 219h-17q-114 0 -138 -120q0 -13 -4 -13q0 -97 116 -151q34 -23 34 -43q0 -60 -133 -82h-22q-131 0 -180 134q-4 23 -4 38v26
q0 141 111 228h18q-69 -159 -69 -219q0 -112 99 -142h25q56 3 56 17q-129 90 -129 198q0 154 181 202h30z" />
    <glyph glyph-name="udieresis" unicode="&#xfc;" horiz-adv-x="1151" 
d="M941 586h8q67 0 88 -250h4q19 0 76 73h4q6 0 12 -12v-12q0 -60 -88 -121q12 -185 12 -315v-12q0 -568 -268 -689q-47 -24 -108 -24h-4q-56 7 -56 44q15 58 60 174q12 26 16 84q0 164 -204 190h-32q-184 -19 -184 -149q-4 -1 -4 -41q0 -24 28 -225q0 -22 -44 -29
q-139 0 -164 278v41q0 254 240 338q269 69 312 93q84 64 84 205q0 157 -132 206q-22 4 -36 4h-32q-62 0 -88 -101v-97q0 -5 -12 -12h-4q-7 1 -96 97l-20 4h-16q-36 0 -36 -48v-4q0 -54 116 -129q24 -23 24 -49q-25 -56 -92 -56h-16q-118 0 -164 129l-12 97h-8
q-12 -4 -12 -25q12 -29 12 -36q0 -8 -8 -8h-12q-35 0 -40 53v12q14 104 72 104h24q36 0 40 -48v-77q0 -113 84 -124h4l20 4v4q-92 98 -92 141v32q0 97 100 97q33 0 72 -33q20 145 140 145q0 4 36 4q161 0 236 -189q8 -41 12 -89q0 -211 -164 -290q-282 -76 -372 -133
q-108 -87 -108 -233v-37q0 -99 72 -169h12l-16 145v40q0 132 124 226q69 28 128 28h24q188 0 248 -193q8 -42 8 -65q0 -72 -56 -257v-4q4 -8 4 -13h8q156 0 252 291q36 183 36 326q-4 126 -20 334l-20 -4h-8q-102 0 -120 113v20q21 226 116 226zM885 368v-4q7 -60 48 -60h36
q8 0 8 8q-18 185 -48 185q-33 0 -44 -129z" />
    <glyph glyph-name="yacute" unicode="&#xfd;" horiz-adv-x="838" 
d="M529 501h16q179 0 244 -212q4 -35 4 -60v-8q0 -211 -164 -284q-275 -73 -372 -132q-108 -85 -108 -240v-16q0 -112 72 -180h12v4l-16 144v32q0 132 116 220q63 36 124 36h40q170 0 236 -164q16 -31 16 -100q0 -130 -100 -292l-28 -20h-4q-8 0 -8 8v8q4 24 76 196
q12 43 12 72v12q0 122 -124 168q-52 16 -100 16h-4q-196 0 -196 -192l28 -212v-12q-14 -24 -40 -24q-126 0 -164 224q-4 35 -4 60v32q0 276 288 352q292 63 292 104q56 51 56 164v28q0 140 -132 188l-44 8q-112 0 -112 -148v-56q0 -8 -12 -8q-11 0 -92 92q-29 12 -40 12
q-35 0 -40 -52q0 -58 108 -124q32 -24 32 -48q-15 -64 -96 -64h-20q-78 0 -140 88q-20 31 -28 136l-8 4q-9 0 -12 -28q12 -26 12 -36l-12 -8q-48 2 -48 48v16q14 108 84 108q52 -5 52 -52v-72q0 -109 80 -128h8q20 0 20 8q-82 89 -88 128q0 5 -4 40q0 100 104 100
q29 0 68 -28q0 71 72 124q41 20 88 20zM437 1083h9v-9q0 -77 61 -244l5 -26q-5 0 -5 -4q-46 17 -80 17q-17 0 -66 -8v4q43 29 43 171zM305 907q-108 -96 -108 -167q0 -98 108 -129q53 -14 118 -17q244 0 244 172q0 77 -85 137v4h5q136 -38 136 -163v-4q0 -174 -268 -206h-47
q-220 0 -272 150q-5 23 -5 43q0 127 160 180h14zM418 796q131 -15 131 -90v-9q0 -70 -103 -77h-42q-104 18 -104 77v9q0 68 118 90zM357 706q12 -48 70 -48h14q31 0 47 30v18q0 38 -70 38h-5q-56 -7 -56 -38z" />
    <glyph glyph-name="thorn" unicode="&#xfe;" horiz-adv-x="1333" 
d="M1018 559q190 0 262 -208q8 -57 8 -80v-8q0 -206 -155 -264q-22 -4 -37 -4q-123 13 -123 96v8q12 60 49 60q21 0 41 -76q24 -20 41 -20h8q101 0 119 176v12q0 206 -184 248q-23 4 -33 4q-158 0 -217 -200v-12l13 -88q0 -195 -143 -280q-79 -32 -279 -84
q-159 -61 -196 -132q-41 -85 -41 -160v-24q0 -115 74 -180h12l-16 144v40q0 144 139 228q60 24 106 24h37q193 0 253 -192q5 -27 5 -44v-32q0 -143 -111 -300l-28 -8l-5 8q0 18 82 208q8 38 12 80q0 157 -208 184h-33q-121 0 -171 -88q-21 -41 -21 -88v-4q0 -35 29 -232
q-11 -28 -41 -28q-131 0 -168 224q-4 26 -4 52v40q0 255 245 336q252 66 311 88q94 63 94 208q0 152 -131 204q-42 5 -49 8q-114 0 -114 -128v-72q0 -6 -12 -12h-5q-6 0 -90 88q-18 16 -40 16q-33 0 -41 -44v-16q0 -46 118 -124q25 -23 25 -44q0 -46 -98 -60h-13
q-125 0 -171 140q0 88 -17 88q-9 0 -12 -28q12 -26 12 -36l-12 -8q-49 2 -49 48v16q16 108 82 108q57 -3 57 -52v-76q0 -105 82 -124h12q16 0 16 8q-85 91 -85 120q-9 16 -9 44q0 104 99 104h8q32 0 69 -32q22 148 151 148h17q131 0 217 -108h4q72 192 253 192zM487 1083h9
v-9q0 -77 61 -244l5 -26q-5 0 -5 -4q-46 17 -80 17q-17 0 -66 -8v4q43 29 43 171zM355 907q-108 -96 -108 -167q0 -98 108 -129q53 -14 118 -17q244 0 244 172q0 77 -85 137v4h5q136 -38 136 -163v-4q0 -174 -268 -206h-47q-220 0 -272 150q-5 23 -5 43q0 127 160 180h14z
M468 796q131 -15 131 -90v-9q0 -70 -103 -77h-42q-104 18 -104 77v9q0 68 118 90zM407 706q12 -48 70 -48h14q31 0 47 30v18q0 38 -70 38h-5q-56 -7 -56 -38z" />
    <glyph glyph-name="scaron" unicode="&#x161;" 
d="M-699 1091q3 1 9 5q2 -2 4 -2t4 -2zM-445 814q67 0 106 -57q16 -28 16 -51v-5q0 -35 -27 -67q-31 -30 -51 -30h-5q-6 0 -6 5t25 21q35 27 35 59q0 30 -29 49q-23 15 -55 15h-8q-50 0 -78 -36q-8 -14 -8 -28q0 -35 46 -66q15 -10 15 -16v0q-2 -3 -7 -3q-23 0 -59 31
q-27 30 -27 63v4q0 45 45 86q33 26 72 26zM-437 972q190 0 252 -142l9 -56v-14q0 -127 -142 -221h-10q-9 0 -9 14q90 123 90 193v10q0 112 -161 131h-38q-185 0 -185 -146q0 -76 105 -173l5 -20l-15 -4q-175 74 -175 216v14q0 136 166 184q43 14 108 14z" />
    <glyph glyph-name="fhook" unicode="&#x192;" horiz-adv-x="746" 
d="M130 281h445q70 0 90 -29v-11q0 -16 -115 -20h-352q-142 0 -142 25v15q0 17 74 20z" />
    <glyph glyph-name="quoteleft" unicode="&#x2018;" 
d="M-307 1002q52 0 82 -36q13 -19 13 -33v-4q0 -22 -21 -43q-24 -19 -40 -19h-4q-4 0 -4 4q0 3 19 13q27 17 27 38q0 19 -22 31q-18 10 -43 10h-6q-39 0 -61 -23q-6 -9 -6 -18q0 -22 36 -42q11 -7 11 -11v0q-1 -2 -5 -2q-18 0 -46 20q-21 19 -21 41v2q0 29 35 55
q26 17 56 17zM-304 1125q160 0 211 -102l8 -41v-10q0 -92 -119 -160h-9q-7 0 -7 10q76 89 76 139v8q0 81 -136 95h-31q-156 0 -156 -106q0 -55 88 -125l4 -14l-12 -4q-147 54 -147 157v10q0 98 139 133q37 10 91 10zM-322 866h27q123 0 185 -88q20 -36 20 -70v-5
q0 -128 -141 -178h-4q-6 0 -6 6q101 69 101 166v6q0 80 -95 107q-47 9 -67 9q-119 0 -161 -87l-4 -29q0 -79 142 -108q20 -19 20 -21v-14q-16 -38 -64 -38h-10q-77 0 -138 67v17q0 5 10 9q9 0 61 -26h3v3q-74 35 -74 111v3q0 60 57 110q68 50 138 50z" />
    <glyph glyph-name="quoteright" unicode="&#x2019;" horiz-adv-x="302" 
d="M194 212q-1 0 -4.5 1.5t-4.5 14.5q-3 22 -5 84q-16 37 -45 59q34 70 44 71h2q54 -53 60 -108q4 -33 -11 -68l-12 -28q-10 -24 -24 -26z" />
    <glyph glyph-name="quotedblleft" unicode="&#x201c;" 
d="M-517 1002q52 0 82 -36q13 -19 13 -33v-4q0 -22 -21 -43q-24 -19 -40 -19h-4q-4 0 -4 4q0 3 19 13q27 17 27 38q0 19 -22 31q-18 10 -43 10h-6q-39 0 -61 -23q-6 -9 -6 -18q0 -22 36 -42q11 -7 11 -11v0q-1 -2 -5 -2q-18 0 -46 20q-21 19 -21 41v2q0 29 35 55
q26 17 56 17zM-514 1125q160 0 211 -102l8 -41v-10q0 -92 -119 -160h-9q-7 0 -7 10q76 89 76 139v8q0 81 -136 95h-31q-156 0 -156 -106q0 -55 88 -125l4 -14l-12 -4q-147 54 -147 157v10q0 98 139 133q37 10 91 10zM-531 866h27q120 0 180 -88q20 -36 20 -70v-5
q0 -128 -138 -178h-3q-7 0 -7 6q99 69 99 166v6q0 80 -92 107q-47 9 -66 9q-117 0 -158 -87l-3 -29q0 -79 138 -108q20 -19 20 -21v-14q-15 -38 -63 -38h-9q-75 0 -135 67v17q0 5 10 9q8 0 59 -26h3v3q-72 35 -72 111v3q0 60 56 110q66 50 134 50z" />
    <glyph glyph-name="dagger" unicode="&#x2020;" horiz-adv-x="196" 
d="M77 -178l-1 650q0 100 28 130h12q16 0 20 -169l1 -511q0 -207 -24 -207l-16 -1q-17 0 -20 108z" />
    <glyph glyph-name="daggerdbl" unicode="&#x2021;" horiz-adv-x="855" 
d="M192 18h503q78 0 101 -21v-8q0 -12 -130 -15h-397q-160 0 -160 18v11q0 13 83 15zM724 343q7 0 14 -12v-40q0 -157 -218 -220q-21 -8 -59 -8h-41q-213 0 -295 164q-14 20 -14 52v52q1 8 9 8h5q15 -8 63 -108q85 -100 255 -100q191 0 272 212h9z" />
    <glyph glyph-name="guilsinglleft" unicode="&#x2039;" horiz-adv-x="798" 
d="M202 79q-34 42 -66 82.5t-65 83.5q17 21 33 42t32 41.5t32.5 41t33.5 42.5h25l-82 -168q20 -40 41.5 -82.5t40.5 -82.5h-25zM115 227v36h625v-36h-625z" />
    <glyph glyph-name="guilsinglright" unicode="&#x203a;" horiz-adv-x="884" 
d="M680 52h-29l93 183l-46 92t-47 93h29q39 -47 76.5 -92t75.5 -93zM57 217v39h712v-39h-712z" />
    <glyph glyph-name="trademark" unicode="&#x2122;" 
d="M-527 1304q6 2 9 5q7 -4 8 -4zM-415 814q67 0 106 -57q16 -28 16 -51v-5q0 -35 -27 -67q-31 -30 -51 -30h-5q-6 0 -6 5t25 21q35 27 35 59q0 30 -29 49q-23 15 -55 15h-8q-50 0 -78 -36q-8 -14 -8 -28q0 -35 46 -66q15 -10 15 -16v0q-2 -3 -7 -3q-23 0 -59 31
q-27 30 -27 63v4q0 45 45 86q33 26 72 26zM-407 972q190 0 252 -142l9 -56v-14q0 -127 -142 -221h-10q-9 0 -9 14q90 123 90 193v10q0 112 -161 131h-38q-185 0 -185 -146q0 -76 105 -173l5 -20l-15 -4q-175 74 -175 216v14q0 136 166 184q43 14 108 14z" />
    <glyph glyph-name="oe" unicode="&#x153;" horiz-adv-x="847" 
d="M564 497q183 0 234 -207q4 -28 4 -57v-9q0 -91 -75 -198l-31 -22h-22q0 11 58 150q8 55 8 88q0 139 -118 194h-5v-5q88 -97 88 -215v-14q-22 -202 -189 -202h-13q-166 0 -207 128q-9 68 -9 118v40q-7 66 -66 66h-13q-71 0 -106 -136q-4 -32 -4 -36q0 -99 57 -110h13
q19 0 27 106q-9 70 -9 106l9 4h8q40 -40 40 -128q0 -140 -79 -140q-89 0 -115 132q-4 22 -4 52q30 212 180 212h14q92 0 105 -124q0 -207 84 -215q0 -9 75 -13q145 0 145 167v4q0 92 -128 229v13q10 22 44 22z" />
    <glyph glyph-name="space" unicode=" " horiz-adv-x="1" 
 />
    <glyph glyph-name="Ydieresis" unicode="&#x178;" horiz-adv-x="838" 
d="M419 1083h9v-9q0 -77 61 -244l5 -26q-5 0 -5 -4q-46 17 -80 17q-17 0 -66 -8v4q43 29 43 171zM287 907q-108 -96 -108 -167q0 -98 108 -129q53 -14 118 -17q244 0 244 172q0 77 -85 137v4h5q136 -38 136 -163v-4q0 -174 -268 -206h-47q-220 0 -272 150q-5 23 -5 43
q0 127 160 180h14zM400 796q131 -15 131 -90v-9q0 -70 -103 -77h-42q-104 18 -104 77v9q0 68 118 90zM339 706q12 -48 70 -48h14q31 0 47 30v18q0 38 -70 38h-5q-56 -7 -56 -38zM529 496h16q179 0 244 -212q4 -35 4 -60v-12q0 -198 -156 -276q-226 -62 -348 -116
q-140 -80 -140 -252v-32q0 -111 80 -172l4 8l-16 140v24q0 177 160 252q63 16 104 16q123 0 204 -80q60 8 80 8q16 -6 16 -12v-4q-37 -32 -68 -32q36 -58 36 -140v-32q0 -104 -88 -244q-73 -76 -140 -76q-81 0 -96 112l4 40q-72 54 -72 132q0 146 204 212q0 12 -68 16h-48
q-118 0 -164 -116q-8 -40 -8 -68q0 -23 28 -220q0 -32 -40 -32h-12q-116 0 -156 244v68q0 268 264 344q250 62 300 92q72 68 72 180v24q0 153 -132 196l-44 8q-112 0 -112 -152v-52q0 -8 -12 -8q-11 0 -92 92q-26 12 -40 12q-35 0 -40 -52q0 -59 120 -132l20 -28v-12
q0 -53 -100 -64q-120 0 -168 120q-15 108 -24 108t-12 -28q12 -26 12 -36l-12 -8h-4q-38 0 -44 56v8q14 108 84 108q52 -5 52 -44v-80q10 -124 76 -124q0 -4 12 -4q20 0 20 8q-88 96 -88 132l-4 36q0 100 96 100h12q27 0 64 -28q0 71 72 124q41 20 88 20zM409 -528
q11 -76 48 -76q38 48 76 48q64 -10 64 -64q0 -61 -76 -72h-4q-5 0 -44 8h-4v-4q6 -68 60 -68q104 0 164 200l4 48v36q0 76 -68 136q-122 -26 -184 -84q-36 -48 -36 -108zM493 -636q15 -12 36 -12h16q6 0 16 16v8q-6 16 -28 16q-21 0 -40 -28z" />
    <glyph glyph-name="dieresis" unicode="&#xa8;" 
d="M-486 946h27q123 0 184 -100q20 -42 20 -80v-7q0 -146 -140 -204h-4q-6 0 -6 7q100 80 100 190v7q0 92 -94 123q-47 10 -66 10q-119 0 -161 -100l-3 -33q0 -90 140 -124q20 -21 20 -23v-17q-15 -43 -63 -43h-10q-76 0 -137 77v20q0 5 10 10q9 0 60 -30h3v3
q-73 40 -73 127v3q0 69 57 127q67 57 136 57zM-196 943h3l5 -4q-24 -48 -24 -90q0 -134 224 -261v-6l-13 -3h-14q-64 0 -191 132q-46 60 -51 113v28q0 63 43 87z" />
    <glyph glyph-name="emdash" unicode="&#x2014;" 
d="M-487 1002q52 0 82 -36q13 -19 13 -33v-4q0 -22 -21 -43q-24 -19 -40 -19h-4q-4 0 -4 4q0 3 19 13q27 17 27 38q0 19 -22 31q-18 10 -43 10h-6q-39 0 -61 -23q-6 -9 -6 -18q0 -22 36 -42q11 -7 11 -11v0q-1 -2 -5 -2q-18 0 -46 20q-21 19 -21 41v2q0 29 35 55
q26 17 56 17zM-484 1125q160 0 211 -102l8 -41v-10q0 -92 -119 -160h-9q-7 0 -7 10q76 89 76 139v8q0 81 -136 95h-31q-156 0 -156 -106q0 -55 88 -125l4 -14l-12 -4q-147 54 -147 157v10q0 98 139 133q37 10 91 10zM-503 866h26q119 0 178 -88q20 -36 20 -70v-5
q0 -128 -137 -178h-3q-6 0 -6 6q97 69 97 166v6q0 80 -91 107q-46 9 -65 9q-116 0 -156 -87l-3 -29q0 -79 136 -108q20 -19 20 -21v-14q-15 -38 -62 -38h-10q-74 0 -133 67v17q0 5 10 9q8 0 58 -26h3v3q-71 35 -71 111v3q0 60 55 110q66 50 134 50z" />
    <glyph glyph-name="periodcentered" unicode="&#xb7;" 
d="M12 902q-73 0 -73 77q0 30 21 50t52 20q28 0 49 -21q21 -22 21 -49q0 -33 -19 -55t-51 -22z" />
    <glyph glyph-name="endash" unicode="&#x2013;" horiz-adv-x="256" 
d="M155 254q-60 0 -60 64q0 25 17 41.5t43 16.5q23 0 40 -18q18 -18 18 -40q0 -28 -16 -46t-42 -18zM155 38q-60 0 -60 63q0 26 17 42t43 16q23 0 40 -17q18 -18 18 -41q0 -27 -16 -45t-42 -18z" />
    <glyph glyph-name="ordfeminine" unicode="&#xaa;" horiz-adv-x="842" 
d="M613 495h24q140 0 160 -180v-36q0 -130 -128 -284q-21 -20 -36 -20l-8 12q0 10 88 164q32 98 32 140v24q0 85 -80 116l-28 4h-16q-93 0 -128 -152q-18 -44 -24 -44h-12l-48 84q-32 28 -52 28h-12q-56 0 -64 -100v-24q0 -6 -12 -12h-4q-17 0 -20 68v12q20 124 100 124h24
q59 0 92 -76h4q47 152 148 152zM177 455q72 0 72 -44v-4q0 -17 -100 -144q-40 -65 -40 -112v-12q9 -60 88 -60h24q29 0 36 60q44 84 100 84h8q72 0 72 -52q0 -62 -100 -124q-32 -12 -40 -12q0 -219 228 -300v-4l-24 -16h-20q-117 0 -212 148q-32 60 -32 140v24l-40 -4h-36
q-116 16 -116 92v24q0 102 124 248h-24q-38 0 -56 -92q-13 -8 -20 -8q-20 22 -20 48v12q0 91 128 108zM293 83h4q94 20 94 77q-2 8 -20 15q-64 0 -78 -92z" />
    <glyph glyph-name="exclam" unicode="!" 
d="M-572 552h-10q-76 0 -137 77v20q0 5 10 10q9 0 60 -30q3 0 3 3q-73 40 -73 129q0 70 57 128q67 57 136 57h27q123 0 184 -100q20 -42 20 -80q0 -153 -140 -211q-10 0 -10 7q100 80 100 190q0 99 -94 130q-47 10 -66 10q-119 0 -161 -100l-3 -33q0 -90 140 -124
q20 -21 20 -23v-17q-15 -43 -63 -43zM-236 933h3l5 -4q-24 -48 -24 -90q0 -134 224 -261v-6l-13 -3h-14q-64 0 -191 132q-46 60 -51 113v28q0 63 43 87zM-448 598q-4 4 -4 7q0 78 -27 139q-22 57 -64 66l-4 1q-6 0 -12 -2.5t-8 -41.5q-51 5 -51 53q0 18 30 38q16 7 33 7
q67 0 102 -90q29 -74 29 -128q-1 -40 -24 -49z" />
    <glyph glyph-name="one" unicode="1" horiz-adv-x="940" 
d="M785 608h4q37 0 68 -108q25 11 64 40h4q8 -1 8 -8q0 -29 -68 -76q24 -120 24 -212v-20q0 -157 -128 -204q-44 -20 -64 -20h-16q-8 0 -8 8v4q68 88 68 188v8q0 148 -128 200q-28 8 -44 8q-124 0 -124 -136v-44l4 -24q-8 -24 -16 -24q-21 7 -68 80q-36 32 -64 32
q-48 -11 -48 -48v-24q0 -44 136 -132l12 -16v-16q0 -47 -100 -60q-124 0 -172 128q-14 104 -24 104l-12 -24q12 -31 12 -40v-8h-16q-44 0 -44 68q0 80 72 104h4q56 0 56 -80q0 -176 100 -176l20 4q0 8 -72 84q-27 54 -28 92q12 104 84 104h24q28 0 64 -28h4q0 110 112 148
q30 8 56 8q160 0 244 -176q16 -48 16 -100q0 -66 -36 -144q76 40 76 192q0 69 -24 172h-32q-49 0 -60 68q0 83 60 104zM781 536l-4 -28v-20q1 -8 8 -8h20l-16 56h-8z" />
    <glyph glyph-name="currency" unicode="&#xa4;" horiz-adv-x="513" 
d="M260 197q22 22 41.5 41t41.5 43l-41.5 41.5t-41.5 43.5q-23 -22 -42.5 -42t-42.5 -43zM79 281l181 184l180 -184l-180 -182z" />
    <glyph glyph-name="threesuperior" unicode="&#xb3;" horiz-adv-x="720" 
d="M514 491q118 0 162 -192q4 -16 4 -49v-9q0 -147 -102 -228h-13q69 141 69 215q-26 178 -93 178q-9 -4 -14 -4v-9q61 -133 61 -174v-36q-26 -179 -181 -179q0 -4 -42 -4h-18q-132 0 -186 103l-9 44q9 64 9 103q0 27 -28 27q-18 -5 -18 -27v-4q0 -11 13 -63l-13 -9
q-70 0 -70 89q0 97 97 116q64 0 75 -75l-5 -152q0 -81 153 -81h33q139 12 139 94v27q0 82 -93 237q-5 7 -5 17q15 45 75 45zM510 -108h-7q-4 8 -13 91q-10 58 -36 107q-38 71 -70 71q-30 0 -31 -52l-10 -3q-13 0 -37 24q-9 19 -9 34q0 24 24 37l11 6q17 9 34 9q36 0 76 -38
q20 -25 36 -55q46 -87 46 -163q0 -34 -9 -65z" />
    <glyph glyph-name="acute" unicode="&#xb4;" horiz-adv-x="903" 
d="M694 480h22q61 0 113 -89q29 -55 29 -135v-12q0 -140 -102 -266l-14 -8l-4 8l55 177q7 39 7 78q-19 177 -80 177h-4q-7 -1 -7 -7q47 -109 47 -182q0 -151 -127 -224q-33 -12 -55 -12q-7 0 -7 8q65 85 65 178v19q0 4 4 4q0 131 -110 186q-42 15 -87 15h-11
q-112 0 -153 -97q-11 -25 -11 -61q0 -93 127 -186l4 -8v-11q-26 -35 -87 -35q-122 0 -161 104q-7 120 -25 120q-10 -1 -19 -19q4 -27 22 -77v-4q0 -6 -14 -12q-53 0 -66 81v4q9 104 88 104q62 -14 62 -115q16 -109 54 -109h26v8q-73 102 -73 170v23q0 124 146 190
q60 11 98 11q143 0 215 -139q26 -49 26 -116v-8q0 -74 -29 -143q51 56 51 140v30q0 64 -66 178v27q21 35 51 35zM529 21q-5 5 -6 9q-2 98 -37 173q-30 72 -83 81l-5 1q-9 0 -14 -3q-10 -4 -10 -52h-12q-54 9 -54 65q0 23 36 48q24 10 44 10q82 0 129 -110q40 -91 40 -160
q0 -50 -28 -62z" />
    <glyph glyph-name="sterling" unicode="&#xa3;" horiz-adv-x="848" 
d="M533 491q185 0 252 -205q4 -40 4 -61q0 -174 -124 -225l-4 8q68 105 68 197q0 167 -148 208q-10 0 -32 4q-67 0 -100 -69q-8 -37 -8 -53v-82q0 -6 -12 -13q-8 0 -96 95q-15 12 -36 12q-32 0 -40 -45v-16q0 -48 128 -136q12 -27 12 -36q-27 -62 -96 -62q-125 0 -172 123
q-7 13 -16 106l-8 5q-9 0 -12 -29q12 -27 12 -37l-12 -8h-4q-38 0 -44 57v4q11 115 84 115q52 -5 52 -45v-90q13 -123 84 -123h4q20 0 20 8q-84 93 -84 123q-8 16 -8 45q0 106 96 106h8q31 0 64 -28h4q25 147 144 147h20z" />
    <glyph glyph-name="guillemotleft" unicode="&#xab;" horiz-adv-x="256" 
d="M-98 797q196 0 264 -216q20 -90 20 -192q-32 -682 -32 -796q0 -231 172 -320l20 -24q0 -14 -44 -20h-12q-138 0 -196 256q-8 83 -8 112l40 848q0 194 -152 268q-28 8 -48 8h-16q-149 0 -196 -156q0 -21 -4 -36q0 -128 128 -176q96 -11 96 -32v-8q0 -36 -52 -36
q-104 0 -200 140q-24 57 -24 116v4q0 205 204 256q21 4 40 4z" />
    <glyph glyph-name="paragraph" unicode="&#xb6;" horiz-adv-x="510" 
d="M383 480v-903h-14v903h-99v-903h-15v540q-38 2 -66 6t-47 12q-97 38 -97 168q0 55 17 88q50 96 171 96h208v-7h-58z" />
    <glyph glyph-name="quotedbl" unicode="&#x22;" horiz-adv-x="514" 
d="M208 194h-2q-7 0 -7 16q0 23 4 84q-11 40 -37 64q39 65 52 66q48 -59 48 -116q0 -33 -17 -65l-15 -26q-12 -22 -26 -23zM323 229q-2 0 -6 2t-4 98q-14 38 -42 61q37 68 49 69q55 -59 55 -118q0 -30 -14 -60l-13 -28q-11 -23 -25 -24z" />
    <glyph glyph-name="numbersign" unicode="#" 
d="M-502 552h-10q-76 0 -137 77v20q0 5 10 10q9 0 60 -30q3 0 3 3q-73 40 -73 129q0 70 57 128q67 57 136 57h27q123 0 184 -100q20 -42 20 -80q0 -153 -140 -211q-10 0 -10 7q100 80 100 190q0 99 -94 130q-47 10 -66 10q-119 0 -161 -100l-3 -33q0 -90 140 -124
q20 -21 20 -23v-17q-15 -43 -63 -43zM-378 598q-4 4 -4 7q0 78 -27 139q-22 57 -64 66l-4 1q-6 0 -12 -2.5t-8 -41.5q-51 5 -51 53q0 18 30 38q16 7 33 7q67 0 102 -90q29 -74 29 -128q-1 -40 -24 -49zM-117 565l-4 8q27 77 27 149q0 138 -78 155q-26 -16 -26 -38v-3
q-6 -4 -11 -4q-31 14 -35 38q0 67 50 75l18 2q97 -15 115 -133q6 -32 6 -81q0 -124 -62 -168z" />
    <glyph glyph-name="zero" unicode="0" horiz-adv-x="469" 
d="M164 52q-119 72 -119 156q0 19 12 57q36 118 214 124q42 -4 73 -14l23 -8q57 -65 57 -114q0 -11 -11 -49q-35 -116 -249 -152zM181 77q158 82 179 152q3 13 3 31q0 35 -10 87l-33 1q-177 0 -212 -116q-4 -13 -4 -26q0 -59 77 -129z" />
    <glyph glyph-name="dollar" unicode="$" 
d="M-1446 1385q1 -1 6 -5l-16 5h10zM-443 972v-4q-24 -54 -24 -88v-12h44q221 0 264 -144v-24q0 -79 -120 -96h-4q-171 0 -244 188q-108 -50 -108 -116v-12q0 -57 112 -72q21 4 40 4h24q8 -1 8 -8v-12q-30 -40 -104 -40h-12q-104 0 -172 104q-4 7 -4 16v16q0 6 12 12
q4 0 44 -36q-8 28 -8 48q0 92 172 164q0 83 80 112zM-467 800q0 -66 88 -128q44 -24 100 -24q64 0 64 52q0 47 -84 84q-52 16 -100 16h-68zM-186 943h3l5 -4q-24 -48 -24 -90q0 -134 224 -261v-6l-13 -3h-14q-64 0 -191 132q-46 60 -51 113v28q0 63 43 87z" />
    <glyph glyph-name="ucircumflex" unicode="&#xfb;" horiz-adv-x="697" 
d="M366 493q210 0 277 -241q8 -32 8 -60v-13q0 -274 -305 -383q-264 -125 -264 -266q16 -108 95 -108q-13 28 -17 82q0 165 169 232q41 17 83 17h41q142 0 194 -150q8 -17 8 -47v-39q0 -141 -181 -314h-9q-8 0 -8 9v8q136 188 136 301v9q0 134 -169 150q-137 0 -190 -116
q-9 -16 -12 -64q0 -41 49 -121v-8q-20 -22 -57 -22q-161 0 -194 172v43q0 211 388 340q107 53 156 150q25 83 25 112v35q-28 219 -198 219h-16q-109 0 -132 -120q0 -13 -5 -13q0 -97 112 -151q33 -23 33 -43q0 -60 -128 -82h-21q-125 0 -173 134q-4 23 -4 38v26
q0 141 107 228h17q-66 -159 -66 -219q0 -112 95 -142h24q54 3 54 17q-124 90 -124 198q0 154 173 202h29zM387 1083h9v-9q0 -77 61 -244l5 -26q-5 0 -5 -4q-46 17 -80 17q-17 0 -66 -8v4q43 29 43 171zM255 907q-108 -96 -108 -167q0 -98 108 -129q53 -14 118 -17
q244 0 244 172q0 77 -85 137v4h5q136 -38 136 -163v-4q0 -174 -268 -206h-47q-220 0 -272 150q-5 23 -5 43q0 127 160 180h14zM368 796q131 -15 131 -90v-9q0 -70 -103 -77h-42q-104 18 -104 77v9q0 68 118 90zM307 706q12 -48 70 -48h14q31 0 47 30v18q0 38 -70 38h-5
q-56 -7 -56 -38z" />
    <glyph glyph-name="comma" unicode="," horiz-adv-x="396" 
d="M70 444h4q110 -32 188 -145q72 -111 72 -243v-8q0 -154 -84 -230h-4l-4 9q36 135 36 191v30q0 176 -144 294h-4q24 -116 24 -162v-17q0 -9 -8 -9h-4q-37 0 -80 209l-4 60q3 21 12 21z" />
    <glyph glyph-name="period" unicode="." horiz-adv-x="602" 
d="M60 394h4q110 -32 188 -145q72 -111 72 -243v-8q0 -154 -84 -230h-4l-4 9q36 135 36 191v30q0 176 -144 294h-4q24 -116 24 -162v-17q0 -9 -8 -9h-4q-37 0 -80 209l-4 60q3 21 12 21zM261 461h4q110 -32 188 -145q72 -111 72 -242v-9q0 -154 -84 -230h-4l-4 9
q36 135 36 191v30q0 176 -144 294h-4q24 -116 24 -162v-17q0 -9 -8 -9h-4q-37 0 -80 209l-4 60q3 21 12 21z" />
    <glyph glyph-name="oacute" unicode="&#xf3;" horiz-adv-x="395" 
d="M194 202q-1 0 -4.5 1.5t-4.5 14.5q-3 22 -5 84q-16 37 -45 59q34 70 44 71h2q54 -53 60 -108q4 -33 -11 -68l-12 -28q-10 -24 -24 -26z" />
    <glyph glyph-name="ocircumflex" unicode="&#xf4;" horiz-adv-x="397" 
d="M198 190q-66 0 -66 69q0 28 19 46t47 18q25 0 44 -19q20 -20 20 -45q0 -29 -17.5 -49t-46.5 -20z" />
    <glyph glyph-name="parenleft" unicode="(" 
d="M-506 928h5l9 -3q-41 -50 -41 -93q0 -136 384 -266v-6l-23 -3h-23q-111 0 -329 135q-79 61 -87 115v28q0 64 73 90z" />
    <glyph glyph-name="parenright" unicode=")" 
d="M-413 972v-4q-24 -54 -24 -88v-12h44q221 0 264 -144v-24q0 -79 -120 -96h-4q-171 0 -244 188q-108 -50 -108 -116v-12q0 -57 112 -72q21 4 40 4h24q8 -1 8 -8v-12q-30 -40 -104 -40h-12q-104 0 -172 104q-4 7 -4 16v16q0 6 12 12q4 0 44 -36q-8 28 -8 48q0 92 172 164
q0 83 80 112zM-437 800q0 -66 88 -128q44 -24 100 -24q64 0 64 52q0 47 -84 84q-52 16 -100 16h-68z" />
    <glyph glyph-name="brokenbar" unicode="&#xa6;" horiz-adv-x="338" 
d="M228 -195q-164 203 -171 409v31q0 267 241 392q7 5 17 5v-4q-179 -179 -179 -404v-22q0 -147 100 -393v-9z" />
    <glyph glyph-name="section" unicode="&#xa7;" horiz-adv-x="354" 
d="M116 -205l-4 9q95 246 99 389v27q0 174 -109 327q-71 74 -71 85h5q254 -125 254 -395q0 -244 -174 -442z" />
    <glyph glyph-name="degree" unicode="&#xb0;" 
 />
    <glyph glyph-name="Scaron" unicode="&#x160;" horiz-adv-x="586" 
d="M308 491h12q142 0 196 -158q8 -31 8 -58v-5q0 -159 -129 -262h-8q0 4 -4 4q83 144 83 242v4q-16 146 -104 146h-8l-9 -5q63 -110 63 -129q4 -8 8 -45q0 -171 -166 -221q-30 -4 -50 -4q-121 0 -196 100q-4 7 -4 17v8q0 10 17 12q105 -83 179 -83q115 0 162 125q0 17 4 33
q0 72 -108 196l-13 37q13 46 67 46zM-127 47h10q12 0 15 -46q-5 -101 -5 -137v-5h5q0 15 11 15q10 -1 10 -10v-51q0 -558 -269 -558h-11q-162 10 -162 76v10q14 14 142 56q129 67 193 254q41 141 41 381zM-112 -146v-46h5v46h-5zM-117 -197q0 -164 -112 -340
q-98 -108 -187 -137v-5l61 -10q151 0 213 198q30 168 30 264v30h-5z" />
    <glyph glyph-name="question" unicode="?" horiz-adv-x="409" 
d="M185 -47q-58 0 -58 53q0 54 58 54q57 0 57 -54q0 -53 -57 -53zM229 90l-29 4q-48 6 -49 87q7 50 118 310l5 43q0 51 -75 67l-20 1q-73 0 -99 -79q1 -64 51 -71h4q16 0 78 12q4 0 9 -0.5t10 -11.5l-1 -7q-6 -45 -112 -49q-82 11 -94 107l4 33q13 96 148 115l56 -8
q80 -11 107 -105l-4 -33q-4 -29 -117 -303l-6 -43l5 -24l4 -1q20 16 34 16q17 -9 18 -16l-1 -10q-13 -34 -44 -34z" />
    <glyph glyph-name="J" unicode="J" horiz-adv-x="600" 
d="M45 251l251 231l248 -231l-248 -231z" />
    <glyph glyph-name="B" unicode="B" horiz-adv-x="700" 
d="M171 146l-110 100l110 100l109 -100zM221 392l110 100l110 -100l-110 -100zM492 346l108 -100l-108 -100l-110 100zM440 100l-109 -100l-110 100l110 99z" />
    <glyph glyph-name="quotedblright" unicode="&#x201d;" horiz-adv-x="468" 
d="M146 198q-8 0 -8 11q0 22 10 96q-8 42 -35 70q47 66 59 66h2q42 -60 42 -115q0 -41 -24 -78l-17 -27q-15 -23 -29 -23zM271 227q-9 0 -9 18q0 24 4 88q-11 42 -39 68q43 69 55 69h2q50 -62 50 -120q0 -36 -20 -71l-16 -28q-13 -24 -27 -24z" />
    <glyph glyph-name="percent" unicode="%" 
d="M-443 962v-4q-24 -54 -24 -88v-12h44q221 0 264 -144v-24q0 -79 -120 -96h-4q-171 0 -244 188q-108 -50 -108 -116v-12q0 -57 112 -72q21 4 40 4h24q8 -1 8 -8v-12q-30 -40 -104 -40h-12q-104 0 -172 104q-4 7 -4 16v16q0 6 12 12q4 0 44 -36q-8 28 -8 48q0 92 172 164
q0 83 80 112zM-467 790q0 -66 88 -128q44 -24 100 -24q64 0 64 52q0 47 -84 84q-52 16 -100 16h-68zM-106 555l-4 8q26 77 26 148q0 139 -79 156q-25 -17 -25 -39v-3q-6 -3 -12 -3q-31 14 -34 37l-1 11q5 58 50 65l18 1q96 -13 116 -131q6 -53 6 -85q0 -121 -61 -165z" />
    <glyph glyph-name="softhyphen" unicode="&#xad;" horiz-adv-x="413" 
d="M249 175h-19l-42 396q-3 26 -3 38q0 31 16 49.5t39 18.5t39 -18.5t16 -54.5q0 -12 -2 -33zM239 94q23 0 38.5 -15.5t15.5 -37.5q0 -23 -15.5 -39t-38.5 -16q-22 0 -38 16t-16 39q0 22 16 37.5t38 15.5z" />
    <glyph glyph-name="ampersand" unicode="&#x26;" 
d="M-509 960h29q133 0 200 -109q22 -45 22 -87v-7q0 -158 -153 -221h-3q-8 0 -8 7q109 86 109 207v7q0 100 -101 134q-52 11 -73 11q-129 0 -174 -109l-4 -36q0 -98 153 -134q22 -24 22 -26v-18q-17 -47 -69 -47h-11q-83 0 -149 83v22q0 5 11 11q9 0 65 -33h4v4
q-80 43 -80 138v4q0 74 62 137q72 62 148 62zM-197 554l-3 8q55 103 55 202q0 85 -58 107q-30 -13 -32 -37q-6 -2 -10 -2h-2q-28 19 -28 43l1 10q15 56 59 56l19 -1q93 -29 93 -148q0 -17 -2 -36q-12 -162 -92 -202z" />
    <glyph glyph-name="quotedblbase" unicode="&#x201e;" horiz-adv-x="356" 
d="M173 464h5q18 0 108 -291q20 -82 20 -98v-13q0 -46 -103 -66h-50q-94 0 -108 57v27q0 72 118 380zM171 368q-61 -236 -61 -269v-22q0 -37 71 -37h5q31 0 56 32v9q0 44 -66 287h-5z" />
    <glyph glyph-name="quotesingle" unicode="'" horiz-adv-x="292" 
d="M194 212q-1 0 -4.5 1.5t-4.5 14.5q-3 22 -5 84q-16 37 -45 59q34 70 44 71h2q54 -53 60 -108q4 -33 -11 -68l-12 -28q-10 -24 -24 -26z" />
    <glyph glyph-name="bullet" unicode="&#x2022;" 
d="M-307 1002q52 0 82 -36q13 -19 13 -33v-4q0 -22 -21 -43q-24 -19 -40 -19h-4q-4 0 -4 4q0 3 19 13q27 17 27 38q0 19 -22 31q-18 10 -43 10h-6q-39 0 -61 -23q-6 -9 -6 -18q0 -22 36 -42q11 -7 11 -11v0q-1 -2 -5 -2q-18 0 -46 20q-21 19 -21 41v2q0 29 35 55
q26 17 56 17zM-304 1125q160 0 211 -102l8 -41v-10q0 -92 -119 -160h-9q-7 0 -7 10q76 89 76 139v8q0 81 -136 95h-31q-156 0 -156 -106q0 -55 88 -125l4 -14l-12 -4q-147 54 -147 157v10q0 98 139 133q37 10 91 10zM-327 866h27q120 0 180 -88q20 -36 20 -70v-5
q0 -128 -138 -178h-3q-7 0 -7 6q99 69 99 166v6q0 80 -92 107q-47 9 -66 9q-117 0 -158 -87l-3 -29q0 -79 138 -108q20 -19 20 -21v-14q-15 -38 -63 -38h-9q-75 0 -135 67v17q0 5 10 9q8 0 59 -26h3v3q-72 35 -72 111v3q0 60 56 110q66 50 134 50z" />
    <glyph glyph-name="hyphenminus" unicode="-" horiz-adv-x="550" 
d="M161 280h302q46 0 60 -25v-10q0 -14 -78 -18h-238q-96 0 -96 21v14q0 15 50 18z" />
    <glyph glyph-name="perthousand" unicode="&#x2030;" 
d="M-401 824h25q115 0 172 -77q19 -32 19 -61v-5q0 -112 -131 -156h-4q-6 0 -6 5q94 61 94 145v6q0 70 -88 94q-44 8 -62 8q-111 0 -150 -77l-3 -25q0 -69 131 -95q19 -17 19 -18v-13q-14 -33 -60 -33h-9q-71 0 -128 59v15q0 4 9 8q8 0 57 -23h3v2q-69 31 -69 98v2
q0 53 53 97q63 44 128 44zM-380 1146h5v-5q0 -46 37 -146l3 -16q-3 0 -3 -2q-27 10 -48 10q-10 0 -39 -5v3q25 17 25 102zM-459 1041q-64 -58 -64 -100q0 -58 64 -77q32 -8 70 -10q147 0 147 102q0 47 -51 82v3h3q81 -23 81 -97v-3q0 -104 -160 -123h-28q-132 0 -163 90
q-3 13 -3 25q0 76 96 108h8zM-391 974q78 -8 78 -53v-6q0 -41 -62 -46h-25q-62 11 -62 46v6q0 41 71 53zM-428 921q7 -29 42 -29h9q18 0 28 18v11q0 23 -42 23h-3q-34 -5 -34 -23z" />
    <glyph glyph-name="quotesinglbase" unicode="&#x201a;" horiz-adv-x="815" 
d="M708 379l46 4q0 -69 -23 -126t-66 -98.5t-104.5 -64t-139.5 -22.5q-76 0 -136.5 22.5t-104 63.5t-67 98t-24.5 127l47 -4q12 -62 40 -103t66 -66t84 -35.5t95 -10.5t95.5 10.5t85 35.5t66.5 66t40 103z" />
    <glyph glyph-name="ntilde" unicode="&#xf1;" 
d="M-164 -85h7q131 0 184 -162q7 -36 7 -65v-11q0 -148 -103 -199q-13 -7 -37 -7q-89 10 -89 72v7q4 47 34 47h7q9 0 24 -57q18 -15 31 -15h10q79 23 79 123l3 18q0 135 -92 188q-35 18 -79 18q-103 -13 -103 -98q41 -155 41 -169v-22q0 -91 -133 -108h-17v3q55 93 55 177
q0 139 -106 181l-35 7q-56 0 -82 -62q-6 -34 -6 -54v-68q0 -8 -11 -8t-68 80q-23 14 -34 14q-30 0 -34 -47q0 -52 102 -126q10 -24 10 -32q-20 -55 -68 -55h-17q-95 0 -133 120q-4 86 -14 86h-4q0 -18 -6 -18q10 -34 10 -40q0 -7 -7 -7h-7q-30 0 -34 47v15q11 93 68 93
q41 0 41 -79v-47q10 -101 69 -101l17 4q-5 13 -51 68q-24 48 -24 87q0 72 61 90h21q24 0 54 -25h4v3q12 127 120 127h20q91 0 161 -105q37 112 154 112zM-291 -367v-3q0 -34 -27 -98h3q31 18 31 47v54h-7z" />
    <glyph glyph-name="ydieresis" unicode="&#xff;" horiz-adv-x="400" 
 />
    <glyph glyph-name="odieresis" unicode="&#xf6;" horiz-adv-x="975" 
d="M437 1083h9v-9q0 -77 61 -244l5 -26q-5 0 -5 -4q-46 17 -80 17q-17 0 -66 -8v4q43 29 43 171zM305 907q-108 -96 -108 -167q0 -98 108 -129q53 -14 118 -17q244 0 244 172q0 77 -85 137v4h5q136 -38 136 -163v-4q0 -174 -268 -206h-47q-220 0 -272 150q-5 23 -5 43
q0 127 160 180h14zM418 796q131 -15 131 -90v-9q0 -70 -103 -77h-42q-104 18 -104 77v9q0 68 118 90zM357 706q12 -48 70 -48h14q31 0 47 30v18q0 38 -70 38h-5q-56 -7 -56 -38zM749 514q150 0 196 -188v-36q0 -151 -124 -256h-8v8q68 142 72 184q4 21 4 48v12
q-15 144 -108 144l-4 -8v-4q0 -8 52 -100q12 -50 12 -76q0 -59 -44 -144q8 -48 8 -76v-44q-3 -84 -16 -84q-14 0 -36 168q-60 -36 -116 -36q-124 0 -200 112q-14 -54 -84 -104q-66 -36 -116 -36q-139 0 -188 156q-4 21 -4 40v36q0 88 56 148h8q12 0 12 -16
q-20 -131 -20 -164q0 -111 100 -136l24 -4q164 25 164 148q0 52 -184 52l-4 8v12q4 11 120 88q32 42 32 60v4q0 11 -32 16q-72 -14 -72 -40q40 -13 40 -24v-16q-6 -16 -28 -16h-4q-52 0 -64 52v8q0 60 124 88h16q78 0 92 -68v-8q0 -39 -92 -120q120 -25 120 -100l-4 -40
q16 0 84 -52q46 -28 88 -28h16q49 0 96 36q-48 88 -100 88q4 -15 8 -100l-8 -4q-56 30 -56 144v8q4 12 24 12h20q78 0 152 -100q16 56 16 72q0 75 -104 192q0 4 -8 32v20q19 32 72 32z" />
    <glyph glyph-name="otilde" unicode="&#xf5;" horiz-adv-x="1299" 
d="M953 626q224 0 300 -236q8 -48 8 -76v-8q0 -209 -160 -280q-30 -8 -56 -8q-117 0 -136 96v16q9 60 48 60h16q9 0 36 -76q24 -24 52 -24q89 0 128 124q8 40 8 80q0 186 -160 256q-62 16 -96 16q-152 -14 -152 -96q-4 -8 -4 -12l52 -184q0 -38 4 -52q0 -69 -48 -124
q4 -73 4 -92q0 -44 -12 -96h-12l-28 148q-40 -20 -116 -28q-92 0 -176 88q-12 18 -12 28h-4q-23 -72 -88 -108q-57 -32 -100 -32h-24q-113 0 -172 136q-8 30 -8 56v40q0 83 56 144h8q6 0 12 -12v-4q-20 -125 -20 -160q0 -100 84 -136l24 -4h28q99 0 148 112q4 22 4 32
q0 48 -120 48h-32q-31 0 -36 16v8q1 6 120 92q32 37 32 56v4q0 11 -32 16q-72 -13 -72 -40q40 -13 40 -24v-4q0 -28 -28 -28h-4q-52 0 -64 52v4q0 69 124 92h12q83 0 96 -68v-4q0 -53 -96 -120v-4q124 -22 124 -104l-8 -40l8 4h8q93 -80 172 -80q38 0 96 32q0 42 -84 100
l-20 4v-4l8 -100h-4q-60 21 -60 136v16q3 12 32 12h8q96 0 156 -116h4q16 47 16 68q0 32 -60 196v24q0 149 212 172h16z" />
    <glyph glyph-name="Eth" unicode="&#xd0;" 
d="M-339 -61h15q191 0 255 -195q8 -39 8 -77v-8q0 -115 -68 -161l-20 -4q0 4 -4 4q40 76 40 150v15q0 150 -143 203q-15 8 -44 8h-16q-4 0 -4 4q-101 0 -143 -73l-4 -23v-23q0 -15 8 -50q67 8 76 8q123 0 171 -134v-35q0 -48 -24 -61q-39 157 -163 157q-112 -13 -112 -77
q0 -15 88 -34q12 -14 12 -27q-6 -50 -48 -50h-4q-115 13 -115 111l-8 -4h-20q-60 38 -60 89v7q0 79 72 92h12q46 0 67 -38h4v4q-11 35 -11 65v11q0 96 123 138q37 8 60 8zM-612 -337q1 -14 31 -54h7q6 25 35 58q-14 23 -35 23h-15q-9 0 -23 -27z" />
    <glyph glyph-name="Ntilde" unicode="&#xd1;" 
d="M-402 -68h5q122 0 164 -55v-8h-4q-108 8 -120 8h-22q-227 -27 -227 -190v-5q0 -112 120 -135h9q9 0 9 8v5q-54 60 -54 101q0 109 129 148q24 5 45 5q150 0 200 -140l4 -26v-25q0 -125 -155 -199l-27 -4q-9 0 -9 8q120 103 120 170v29q0 71 -58 102q-43 17 -62 17h-35
q-85 -15 -85 -64v-17q0 -49 89 -110l9 -12v-9q-14 -59 -116 -59q-148 0 -209 152q-4 23 -4 38q0 185 204 259q45 8 80 8z" />
    <glyph glyph-name="Ograve" unicode="&#xd2;" 
d="M-242 -89h3q122 0 164 -136q10 -34 10 -76v-15q0 -138 -80 -224h-7q-7 0 -7 8q57 138 57 216q0 122 -77 161q-6 4 -13 4h-10v-8q73 -80 73 -172q0 -159 -103 -205q-23 -7 -40 -7h-7q-124 20 -124 132q4 57 4 84l-7 4h-7q-12 -144 -33 -158q-35 -51 -97 -51h-23
q-91 0 -124 88q-4 19 -4 33v3q0 113 94 216l7 4h3q7 -1 7 -7v-8q0 -9 -50 -120q-10 -39 -10 -48v-4q0 -95 90 -95q100 15 100 103q-3 51 -3 87q0 30 43 48h10q44 0 44 -69v-8q0 -31 -4 -66q0 -71 64 -88q17 0 17 -3q110 11 110 121v36q0 100 -90 136q-30 15 -30 47
q16 37 50 37z" />
    <glyph glyph-name="Oacute" unicode="&#xd3;" 
d="M-365 -73h8q196 0 265 -180q4 -38 4 -56q0 -136 -109 -241h-8l-8 4q0 8 65 135q12 40 12 60v34q0 103 -113 161q-48 19 -100 19q-115 0 -149 -101l-4 -38q0 -36 28 -49q5 0 65 61q15 7 44 7h8q102 0 116 -143q0 -100 -124 -153q-31 -8 -57 -8h-20q-136 0 -189 128
q0 5 -16 105q-9 0 -12 -38q12 -40 12 -49v-11q-6 -15 -28 -15q-33 0 -40 83v11q12 105 89 105q32 0 32 -67q0 -192 156 -192h12q108 0 121 116q0 59 -76 68q-37 0 -37 -41l4 -23q-8 -22 -32 -22q-120 22 -120 142q0 143 161 184q21 4 40 4z" />
    <glyph glyph-name="Ocircumflex" unicode="&#xd4;" 
d="M-178 -56h36q56 -3 56 -20q-21 -14 -216 -36q-174 -41 -280 -136q-104 -127 -104 -220q0 -106 116 -148q46 -8 64 -8h12q259 0 316 324q17 168 44 168q24 0 24 -84q-9 -361 -228 -460q-81 -32 -168 -32q-217 0 -256 184q-4 21 -4 48v12q0 129 160 280q158 128 428 128z
M-214 -740h-5q-76 237 -103 239q-5 33 -93 51q3 -4 6 -10q3 -27 15 -85l-8 -5q-60 18 -78 144q18 15 68 15q103 0 177 -146q29 -89 29 -161q0 -42 -8 -42z" />
    <glyph glyph-name="Otilde" unicode="&#xd5;" 
d="M-225 -524q-84 0 -122 88v9q-96 -36 -160 -42q-27 -2 -52 -2q-134 0 -183 82q-18 36 -20 54l-4 58q0 106 107 156l23 2q7 -1 8 -8v-8q-74 -92 -74 -133l3 -39q8 -93 167 -96l24 2q154 21 154 55v1q36 153 138 161q75 -5 75 -70q0 -86 -146 -149h-3q28 -65 73 -65
q3 0 36 3t128 50q5 -9 5 -14q0 -30 -64 -74q-49 -21 -113 -21zM-295 -353q105 43 105 93q0 17 -21 17q-45 0 -82 -89q-6 -12 -6 -19v-2h4z" />
    <glyph glyph-name="Odieresis" unicode="&#xd6;" 
d="M-346 -90h6q162 0 219 -152q10 -35 10 -70v-7q0 -144 -107 -199l-4 7q61 73 61 155v33q0 121 -128 159q-29 3 -47 3h-17q-92 0 -132 -71q-16 -28 -16 -67q0 -81 117 -162l4 -6v-11q-22 -30 -81 -30q-112 0 -148 91q-8 105 -21 105h-3q-9 -1 -17 -17q4 -24 20 -68v-3
q0 -5 -13 -10q-49 0 -61 71v3q11 91 74 91q56 0 64 -91q0 -91 58 -104h17v6q-68 89 -68 149v30q0 72 95 138q57 27 118 27zM-267 -486q-4 4 -5 7q-2 81 -32 143q-26 60 -71 67h-5q-7 0 -12 -2q-8 -3 -8 -43h-11q-46 8 -46 54q0 19 31 40q20 8 38 8q71 0 111 -91
q34 -75 34 -132q0 -41 -24 -51z" />
    <glyph glyph-name="multiply" unicode="&#xd7;" horiz-adv-x="569" 
d="M308 491h12q142 0 196 -158q8 -31 8 -58v-5q0 -159 -129 -262h-8q0 4 -4 4q83 144 83 242v4q-16 146 -104 146h-8l-9 -5q63 -110 63 -129q4 -8 8 -45q0 -171 -166 -221q-30 -4 -50 -4q-121 0 -196 100q-4 7 -4 17v8q0 10 17 12q105 -83 179 -83q115 0 162 125q0 17 4 33
q0 72 -108 196l-13 37q13 46 67 46zM236 -137l-4 8q42 109 30 207q-10 84 -69 100q-29 -17 -28 -41q-5 -3 -9 -3h-2q-31 15 -33 39v10q8 58 52 63l19 1q95 -18 109 -137q2 -16 2 -35q8 -163 -67 -212z" />
    <glyph glyph-name="Oslash" unicode="&#xd8;" horiz-adv-x="417" 
d="M520 564h4q198 0 264 -208q12 -29 12 -80v-16q0 -191 -152 -256q-28 -4 -48 -4q-81 0 -116 68q-4 22 -4 32q0 36 36 60h20q13 0 36 -72q23 -20 40 -20h12q95 0 116 160v28q0 210 -188 248q-15 4 -36 4h-12q-122 0 -148 -108q40 -159 40 -196q0 -121 -96 -172
q-52 -16 -100 -16h-24q-100 0 -164 84q-12 21 -12 40v4q1 8 8 8q21 -7 84 -52q35 -16 120 -24q140 12 140 96l-4 8v16q0 21 -48 184q0 130 144 176q48 8 76 8zM386 -61h-4q-66 202 -89 204q-4 28 -80 44q3 -4 5 -9q3 -23 13 -73l-7 -4q-51 16 -67 123q16 13 59 13
q88 0 152 -125q25 -75 25 -137q0 -36 -7 -36z" />
    <glyph glyph-name="Ugrave" unicode="&#xd9;" 
d="M-178 -56h36q56 -3 56 -20q-21 -14 -216 -36q-174 -41 -280 -136q-104 -127 -104 -220q0 -106 116 -148q46 -8 64 -8h12q259 0 316 324q17 168 44 168q24 0 24 -84q-9 -361 -228 -460q-81 -32 -168 -32q-217 0 -256 184q-4 21 -4 48v12q0 129 160 280q158 128 428 128z
" />
    <glyph glyph-name="Uacute" unicode="&#xda;" 
d="M-165 -56h31q48 -2 48 -16q-18 -12 -186 -30q-150 -33 -242 -110q-90 -104 -90 -180q0 -86 100 -120q40 -7 56 -7h10q223 0 273 264q15 137 38 137q20 0 20 -68q-7 -294 -196 -375q-70 -26 -145 -26q-188 0 -221 150q-4 17 -4 39v10q0 105 138 228q137 104 370 104z" />
    <glyph glyph-name="Ucircumflex" unicode="&#xdb;" 
d="M-187 -560h26q41 -1 41 -10q-15 -7 -156 -19q-126 -21 -203 -69q-75 -65 -75 -113q0 -54 84 -76q33 -4 46 -4h9q187 0 228 166q13 86 32 86q18 0 18 -43q-7 -185 -165 -236q-59 -16 -122 -16q-157 0 -185 94q-3 11 -3 25v6q0 66 116 143q114 66 309 66z" />
    <glyph glyph-name="Yacute" unicode="&#xdd;" horiz-adv-x="137" 
d="M272 528q186 0 256 -210q8 -58 8 -81v-16q0 -196 -152 -259l-40 -4q-116 13 -116 101v4q10 61 48 61q16 0 44 -81q21 -16 44 -16q86 0 112 141q4 22 4 45q0 180 -140 246q-54 12 -72 12q-180 0 -212 -242l-4 -28q8 -211 8 -247q0 -575 -160 -708q-60 -36 -112 -36h-8
q-107 0 -144 89q-4 22 -4 36v25q0 96 140 117h32q48 0 48 -16q-12 -11 -124 -33q-52 -24 -52 -76q0 -89 100 -89h4q182 0 216 380q16 144 16 295v44q0 97 -4 227q0 226 148 295q53 24 116 24z" />
    <glyph glyph-name="ae" unicode="&#xe6;" horiz-adv-x="569" 
d="M308 491h12q142 0 196 -158q8 -31 8 -58v-5q0 -159 -129 -262h-8q0 4 -4 4q83 144 83 242v4q-16 146 -104 146h-8l-9 -5q63 -110 63 -129q4 -8 8 -45q0 -171 -166 -221q-30 -4 -50 -4q-121 0 -196 100q-4 7 -4 17v8q0 10 17 12q105 -83 179 -83q115 0 162 125q0 17 4 33
q0 72 -108 196l-13 37q13 46 67 46z" />
    <glyph glyph-name="ccedilla" unicode="&#xe7;" horiz-adv-x="422" 
d="M520 564h4q198 0 264 -208q12 -29 12 -80v-16q0 -191 -152 -256q-28 -4 -48 -4q-81 0 -116 68q-4 22 -4 32q0 36 36 60h20q13 0 36 -72q23 -20 40 -20h12q95 0 116 160v28q0 210 -188 248q-15 4 -36 4h-12q-122 0 -148 -108q40 -159 40 -196q0 -121 -96 -172
q-52 -16 -100 -16h-24q-100 0 -164 84q-12 21 -12 40v4q1 8 8 8q21 -7 84 -52q35 -16 120 -24q140 12 140 96l-4 8v16q0 21 -48 184q0 130 144 176q48 8 76 8z" />
    <glyph glyph-name="asterisk" unicode="*" 
d="M-264 526q-8 4 -11 7q-31 104 -81 166l-15 19q-52 66 -109 66q-11 0 -23 -3q-3 -2 -6.5 -5t-3.5 -15q0 -16 8 -48l-3 -2q-14 -2 -25 -2q-30 0 -42 15l-15 19q-11 14 -11 30q0 26 27 59l16 12q33 17 66 17q74 0 145 -89l25 -31q76 -116 76 -173q0 -28 -18 -42z" />
    <glyph glyph-name="bracketleft" unicode="[" horiz-adv-x="720" 
d="M514 491q118 0 162 -192q4 -16 4 -49v-9q0 -147 -102 -228h-13q69 141 69 215q-26 178 -93 178q-9 -4 -14 -4v-9q61 -133 61 -174v-36q-26 -179 -181 -179q0 -4 -42 -4h-18q-132 0 -186 103l-9 44q9 64 9 103q0 27 -28 27q-18 -5 -18 -27v-4q0 -11 13 -63l-13 -9
q-70 0 -70 89q0 97 97 116q64 0 75 -75l-5 -152q0 -81 153 -81h33q139 12 139 94v27q0 82 -93 237q-5 7 -5 17q15 45 75 45zM510 -108h-7q-4 8 -13 91q-10 58 -36 107q-38 71 -70 71q-30 0 -31 -52l-10 -3q-13 0 -37 24q-9 19 -9 34q0 24 24 37l11 6q17 9 34 9q36 0 76 -38
q20 -25 36 -55q46 -87 46 -163q0 -34 -9 -65z" />
    <glyph glyph-name="eight" unicode="8" horiz-adv-x="623" 
d="M358 -2q-21 0 -44 2q-117 8 -171 112l-6 51q14 70 17 109q-8 24 -21 24q-23 0 -25 -25v-7q0 -14 9 -63l-14 -8l-9 1q-52 3 -53 95q6 99 104 112q67 -17 67 -78v-9q-15 -144 -15 -153q0 -80 145 -90l32 -2q128 3 134 78q9 0 20 95q1 17 1 35q0 100 -39 210q-14 -6 -29 -6
q-80 0 -80 80v12q7 96 67 105h4q43 -3 79 -120q28 11 72 45q13 0 13 -8q0 -41 -74 -79q42 -122 42 -237l-3 -68q-15 -213 -223 -213zM455 531q19 0 20 8q-24 61 -33 62q-6 -24 -6 -27q2 -43 19 -43z" />
    <glyph glyph-name="U" unicode="U" 
d="M-129 20q8 -2 8 -10v-16q-96 -128 -96 -158q-4 -8 -4 -26v-15l4 -25q13 0 100 46q4 0 32 5q78 0 88 -128v-41q0 -185 -100 -409h-8q0 50 48 266q7 41 12 97q-9 112 -56 112h-4q-15 0 -128 -35q-40 18 -40 71v31q0 133 136 235h8z" />
    <glyph glyph-name="circumflexmod" unicode="&#x2c6;" horiz-adv-x="556" 
d="M269 66q-44 0 -84.5 14t-71.5 38.5t-49.5 58t-18.5 71.5t12.5 73t39.5 62t69.5 42.5t102.5 15.5q59 0 102 -15.5t70.5 -42t40 -61.5t12.5 -74q0 -35 -18 -68.5t-49.5 -58.5t-72 -40t-85.5 -15zM264 139q81 0 121 31t41 87q0 26 -13.5 46t-36.5 33.5t-53 20.5t-61 7
q-32 0 -60.5 -6.5t-50.5 -20t-35.5 -33.5t-15.5 -47q-1 -26 9.5 -47t32 -37t52 -25t70.5 -9z" />
    <glyph glyph-name="OE" unicode="&#x152;" horiz-adv-x="889" 
d="M621 496h16q135 0 188 -160q8 -40 8 -72v-16q0 -152 -96 -244h-8q-8 0 -8 8q68 150 68 236q0 134 -92 176q-7 4 -16 4h-12v-8q88 -88 88 -188q0 -174 -124 -224q-28 -8 -48 -8h-8q-148 22 -148 144q4 63 4 92l-8 4h-8q-15 -157 -40 -172q-42 -56 -116 -56h-28
q-126 0 -152 120v4q0 46 64 164v24h-16q-27 -7 -36 -116l-12 -8h-4q-32 17 -32 80v8q24 104 100 104q0 4 4 4q64 -13 64 -56t-64 -152q-4 -7 -4 -20v-8q13 -80 104 -80q120 16 120 112q-4 56 -4 96q0 32 52 52h12q52 0 52 -76v-8q0 -34 -4 -72q0 -78 76 -96q20 0 20 -4
q132 12 132 132v40q0 113 -128 160q-15 18 -16 36q0 33 60 44z" />
    <glyph glyph-name="plus" unicode="+" horiz-adv-x="550" 
d="M101 242h328q51 0 66 -23v-10q0 -13 -85 -16h-259q-104 0 -104 20v13q0 14 54 16zM296 387l-1 -328q0 -51 -23 -66l-9 1q-14 0 -17 84l1 259q0 105 19 105l13 -1q15 0 17 -54z" />
    <glyph glyph-name="slash" unicode="/" horiz-adv-x="185" 
d="M-254 1137h12q235 0 336 -269q28 -80 28 -211q0 -128 -72 -1071v-62q0 -186 48 -223q26 -11 40 -11q38 0 44 58v31q0 90 28 90h12q52 -39 52 -117v-12q0 -95 -84 -140q-16 -8 -44 -8q-160 0 -160 281v98q0 135 64 1004v35q0 322 -188 422q-50 23 -132 31
q-268 -37 -268 -258v-35q0 -44 56 -145v-11q-5 -16 -36 -16h-4q-88 27 -88 145v27q0 266 252 351q40 16 104 16z" />
    <glyph glyph-name="Zcaron" unicode="&#x17d;" 
d="M-339 -94h8q192 0 267 -212q4 -40 4 -60v-16q0 -52 -53 -148h16q18 0 95 60h29q66 0 115 -92v-4q0 -8 -8 -8h-4q-58 56 -107 56q-8 0 -91 -60q-21 -12 -41 -12h-33q-8 0 -41 8v12q66 84 66 192q0 163 -189 212q-41 0 -42 4q-116 0 -144 -112v-40q42 8 75 8
q141 0 197 -136q0 -18 4 -24q-6 -84 -74 -84q-66 0 -226 156q-29 -37 -29 -64q0 -43 90 -72l9 -12v-4q0 -14 -46 -20h-20q-70 0 -103 100q-74 27 -74 92v12q0 59 86 76q24 0 70 -28l-4 28q0 127 111 176q51 16 87 16zM-627 -378v-8q0 -17 16 -48h4q0 49 37 84v4h-24
q-33 0 -33 -32zM-459 -378q86 -106 165 -120h4q6 0 12 12v8q0 70 -107 100q-5 4 -28 4h-17z" />
    <glyph glyph-name="tildemod" unicode="&#x2dc;" horiz-adv-x="5" 
d="M150 927l-67 -1zM-128 29q31 0 38 -172v-25q0 -438 -177 -567q-76 -41 -134 -41h-27q-182 16 -182 162v10q0 139 193 162h69q8 0 17 -15q0 -12 -151 -46q-69 -39 -69 -81v-10q0 -116 128 -116h6q268 0 268 567q0 48 -5 116q8 56 26 56zM-705 -27l4 -8
q-124 -155 -124 -323q0 -111 76 -138q61 -12 80 -12q68 0 196 66h4q8 0 8 -12q0 -38 -148 -92q-40 -8 -72 -8q-155 0 -196 135q-4 26 -4 42v8q0 209 160 338q7 4 16 4z" />
    <glyph glyph-name="euro" unicode="&#x20ac;" horiz-adv-x="677" 
d="M353 502h5q132 0 178 -60v-9h-5q-117 9 -130 9h-24q-245 -28 -245 -206v-4q0 -122 129 -147h10q10 0 10 10v4q-58 66 -58 110q0 118 139 160q26 5 48 5q163 0 217 -151l5 -28v-27q0 -136 -169 -215l-28 -5q-10 0 -10 9q130 111 130 183v32q0 77 -63 110q-46 19 -67 19
h-39q-91 -16 -91 -69v-18q0 -54 96 -119l10 -14v-9q-15 -64 -125 -64q-160 0 -226 164q-5 25 -5 42q0 199 221 279q48 9 87 9z" />
    <glyph glyph-name="two" unicode="2" horiz-adv-x="918" 
d="M501 -782h-18q-174 8 -229 159q-9 30 -9 55v5q0 27 26 43q29 0 92 -92q30 -30 58 -31l24 -1q84 10 84 74t-200 176q-85 66 -85 160q0 165 190 219l61 5q185 -8 287 -197h4q11 77 21 285l2 51q0 208 -151 278q-36 12 -83 12q-80 0 -85 -92v-20q0 -47 7 -101
q-1 -20 -22 -31l-8 1q-29 1 -71 99q-17 37 -59 39q-36 -4 -37 -34l-1 -14q0 -55 110 -140q18 -26 18 -39v-1q-27 -39 -113 -39q-104 0 -133 94q-15 165 -32 166h-8q-13 -3 -13 -24q0 -10 24 -77q0 -11 -6 -11q-67 0 -82 104l1 23q22 85 69 85l23 -1q49 -32 49 -82v-4
q31 -198 66 -199q15 -9 32 -10h18q6 0 6 7q-106 114 -106 195v6q0 71 56 94q14 6 37 6l19 -1q29 -1 78 -39l4 -1l-3 9q4 88 110 123q14 6 37 6l23 -1q217 -10 288 -274q9 -57 9 -121q0 -122 -41 -390q56 -104 56 -172l-1 -27q-8 -43 -22 -43q-9 8 -53 151h-4
q-12 -247 -150 -377q-78 -44 -164 -44zM529 -716q176 0 221 262q16 87 23 147q-124 225 -278 225q-177 -14 -181 -120l-2 -27q0 -70 157 -172q108 -89 108 -169q0 -76 -85 -100q-40 -14 -41 -22q3 -17 67 -24h11z" />
    <glyph glyph-name="zcaron" unicode="&#x17e;" horiz-adv-x="767" 
d="M437 583h9v-9q0 -77 61 -244l5 -26q-5 0 -5 -4q-46 17 -80 17q-17 0 -66 -8v4q43 29 43 171zM305 407q-108 -96 -108 -167q0 -98 108 -129q53 -14 118 -17q244 0 244 172q0 77 -85 137v4h5q136 -38 136 -163v-4q0 -174 -268 -206h-47q-220 0 -272 150q-5 23 -5 43
q0 127 160 180h14zM418 296q131 -15 131 -90v-9q0 -70 -103 -77h-42q-104 18 -104 77v9q0 68 118 90zM357 206q12 -48 70 -48h14q31 0 47 30v18q0 38 -70 38h-5q-56 -7 -56 -38z" />
    <glyph glyph-name="three" unicode="3" horiz-adv-x="854" 
d="M539 528h17q182 0 249 -216q4 -36 4 -62v-8q0 -216 -168 -290q-280 -75 -379 -135q-111 -86 -111 -245v-16q0 -115 74 -184h12v4l-16 147v33q0 135 118 224q64 37 127 37h41q173 0 241 -167q16 -32 16 -102q0 -133 -102 -299l-29 -20h-4q-8 0 -8 8v8q4 25 78 201
q12 43 12 73v12q0 125 -127 172q-53 16 -102 16h-4q-200 0 -200 -196l28 -216v-13q-14 -24 -40 -24q-129 0 -168 229q-4 35 -4 61v33q0 282 294 359q298 64 298 106q58 52 58 168v28q0 144 -135 192l-45 8q-115 0 -115 -151v-57q0 -8 -12 -8q-11 0 -94 94q-29 12 -41 12
q-35 0 -40 -53q0 -59 110 -127q32 -24 32 -49q-15 -65 -98 -65h-20q-80 0 -143 90q-20 32 -29 139l-8 4q-9 0 -12 -29q12 -27 12 -36l-12 -9q-49 3 -49 49v17q15 110 86 110q53 -5 53 -53v-74q0 -111 82 -130h8q20 0 20 8q-84 91 -90 131q0 5 -4 40q0 103 106 103
q30 0 70 -29q0 72 73 127q42 20 90 20z" />
    <glyph glyph-name="ellipsis" unicode="&#x2026;" horiz-adv-x="546" 
d="M70 -23q-3 0 -17 11q-3 3 -3 8q0 18 33 64l278 360q42 55 77 55l6 -4q6 -5 6 -8q0 -20 -58 -101l-219 -284q-79 -101 -103 -101zM448 -28q-17 0 -83 84l-209 291q-69 96 -69 122q0 6 3 9q15 11 18 11q16 0 55 -50l267 -369q32 -45 32 -75q0 -8 -2 -15q-10 -8 -12 -8z" />
    <glyph glyph-name="four" unicode="4" horiz-adv-x="515" 
d="M340 516h35q62 0 69 -72q0 -42 -100 -128q126 -29 126 -88v-28q0 -123 -160 -192q-31 -8 -52 -8h-35q-91 0 -161 120q-17 40 -17 80v36q0 105 61 160h8q13 0 13 -16q-21 -134 -21 -160v-20q13 -140 130 -140t165 120q4 21 4 40q0 48 -169 48h-13q-6 0 -13 12v16
q160 105 160 152q-6 16 -13 16h-21q-53 0 -126 -68h-13q-9 0 -9 8v12q42 100 152 100z" />
    <glyph glyph-name="onesuperior" unicode="&#xb9;" horiz-adv-x="400" 
 />
    <glyph glyph-name="_.nul" 
 />
    <glyph glyph-name="_.nul" 
 />
    <glyph glyph-name="nonbreakingspace" unicode="&#xa0;" horiz-adv-x="507" 
 />
    <glyph glyph-name="nonmarkingreturn" horiz-adv-x="253" 
 />
    </font>
</defs>
</svg>
