<?xml version="1.0" standalone="no"?>
<!DOCTYPE svg PUBLIC "-//W3C//DTD SVG 1.1//EN" "http://www.w3.org/Graphics/SVG/1.1/DTD/svg11.dtd" >
<svg xmlns="http://www.w3.org/2000/svg" xmlns:xlink="http://www.w3.org/1999/xlink" version="1.1">
<metadata>
Created by FontForge 20190801 at Fri Nov  6 13:55:53 2020
 By www-data
Copyright 2019 I Wayan Sukanta All Right Reserved
</metadata>
<defs>
<font id="Bali_Gerip" horiz-adv-x="0" >
  <font-face 
    font-family="Bali_Gerip"
    font-weight="400"
    font-stretch="normal"
    units-per-em="1000"
    panose-1="2 2 5 2 6 5 5 2 2 4"
    ascent="800"
    descent="-200"
    x-height="86"
    cap-height="950"
    bbox="-1456 -966 1225 1385"
    underline-thickness="50"
    underline-position="-125"
    unicode-range="U+001D-2122"
  />
<missing-glyph horiz-adv-x="1" 
 />
    <glyph glyph-name=".notdef" horiz-adv-x="1" 
 />
    <glyph glyph-name=".notdef" horiz-adv-x="1" 
 />
    <glyph glyph-name="five" unicode="5" horiz-adv-x="562" 
d="M327 472h6q128 0 170 -103q14 -36 14 -87q0 -155 -97 -651q-7 -48 -7 -87q0 -95 67 -180q-2 0 -2 -1q-46 6 -63 20q-64 55 -64 151q0 79 69 424q42 217 42 314q0 106 -84 142q-26 7 -49 7q-81 0 -157 -62q-46 -47 -67 -125q-9 -38 -9 -65v-9q0 -82 52 -165q37 -45 67 -45
q70 0 116 89q8 28 8 52q0 39 -59 51q-9 2 -29 3q-14 -1 -27 -1h-10q-7 0 -11 8v3q0 11 57 55q55 51 55 87q0 19 -22 19q-36 0 -85 -55l-15 -35h-3q-1 13 -1 19v18q0 46 66 79q31 10 57 10q32 0 45 -34q3 -14 3 -24q0 -45 -74 -116q38 0 78 -38q18 -23 18 -52q0 -62 -49 -128
q-52 -52 -105 -52q-100 0 -164 153q-19 55 -19 107v5q0 169 119 252q74 47 163 47z" />
    <glyph glyph-name="six" unicode="6" horiz-adv-x="627" 
d="M334 428h45q34 0 138 -11v-4q0 -18 -183 -23q-103 -18 -183 -92q-41 -56 -41 -88v-23q0 -83 94 -111v4q-4 26 -4 42v12q0 131 175 156q163 0 207 -168v-65q0 -21 -8 -57h-8q-32 167 -86 206q-46 31 -101 31q-106 0 -122 -99v-27q0 -40 16 -103l-12 -8q-216 43 -216 172
v34q0 142 203 211q43 11 86 11z" />
    <glyph glyph-name="seven" unicode="7" horiz-adv-x="832" 
d="M675 560h1q38 0 47 -88q0 -3 2 -27q25 9 37 9q17 0 24 -20q1 -7 1 -11q-5 -60 -5 -70l-2 -1q-20 14 -20 33q-1 11 -1 24v4q0 5 -4 6q-7 -2 -28 -14q1 -12 1 -18v-51q0 -215 -79 -289q-15 -14 -54 -26q-35 -12 -71 -12h-8q-102 0 -138 91q-5 14 -5 28v11q0 30 30 179
q2 13 2 26v8q0 63 -76 63q-69 0 -94 -63q-38 -83 -38 -198v-29q0 -58 21 -125h-1q-46 14 -77 32q-63 43 -63 156q0 82 48 176h-1q-17 -9 -36 -39q-11 -23 -23 -66h-1q-19 12 -19 47v4q0 66 79 110q20 7 33 7q20 0 36 -16q-45 -85 -62 -148q-10 -52 -10 -88q0 -77 36 -100h1
q-3 65 -3 89q0 129 51 231q39 64 135 64q93 0 108 -75q2 -13 2 -24q0 -32 -25 -162q-4 -23 -4 -40v-14q0 -59 59 -79q22 -7 44 -7q50 0 97 36q29 29 43 83q25 93 25 153v67l-12 -1q-29 0 -52 24q-11 13 -11 35q0 44 33 90q16 15 27 15zM656 457v-8q0 -12 17 -12h9l-1 5v2
q0 27 -9 51h-1q-15 -14 -15 -38z" />
    <glyph glyph-name="nine" unicode="9" horiz-adv-x="838" 
d="M643 619q50 0 67 -121h1q32 13 48 13q24 0 32 -23l2 -16q-2 -24 -2 -57v-11h-2q-25 12 -25 26q-2 0 -7 42l-3 1h-2q-5 0 -36 -17q9 -81 9 -138q0 -187 -79 -270q-54 -48 -125 -48q-105 0 -133 81q-7 27 -7 53v1q0 34 8 80v1h-1q-31 -76 -81 -134q-73 -77 -136 -77h-10
q-64 0 -94 45q-13 22 -13 54v5q0 109 109 260l13 20l-6 1q-58 0 -85 -80q-7 -23 -15 -78h-2q-23 36 -23 66q0 92 89 132q34 11 55 11q40 0 54 -28q1 -5 1 -9q0 -24 -49 -86q-35 -46 -62 -105q-27 -68 -27 -104v-4q0 -37 36 -49q11 -2 15 -2h9q41 0 107 61q64 67 141 309
q9 35 13 35l37 -25v-10q0 -14 -16 -219q-1 -6 -1 -37v-23q0 -60 31 -78q19 -8 40 -8q45 0 84 33q37 33 59 125q11 52 11 153q-1 55 -1 75q-16 -2 -22 -2q-40 0 -68 28q-12 14 -12 35v6q0 51 45 97q15 10 29 10zM621 509q0 -1 -1 -1q0 -22 24 -22h5l8 1q-6 53 -19 63
q-10 0 -17 -36v-5z" />
    <glyph glyph-name="colon" unicode=":" horiz-adv-x="345" 
d="M83 382q132 -30 132 -108v-12q0 -64 -14 -64q-40 108 -85 108q-52 14 -52 20q0 56 19 56zM66 235q123 -33 123 -108v-20q-7 -62 -24 -68q0 59 -57 112q-61 23 -61 28q11 56 19 56z" />
    <glyph glyph-name="semicolon" unicode=";" horiz-adv-x="383" 
d="M256 428q66 0 83 -74v-22q0 -56 -124 -104v-9q103 -53 103 -122v-4q0 -36 -103 -318q-46 -170 -46 -278q0 -92 57 -161h-6q-129 33 -129 135v13q0 185 150 583v22q0 75 -119 117v22q152 68 155 91q0 3 5 26q0 31 -56 31q-112 0 -171 -166h-5l-5 9v65q0 86 160 144h51z
" />
    <glyph glyph-name="less" unicode="&#x3c;" horiz-adv-x="714" 
d="M361 662q136 0 192 -172q12 -76 12 -124v-8q0 -48 -28 -392v-36q0 -80 44 -112h20q23 0 56 116h8l4 -28v-32q0 -83 -68 -108h-20q-76 0 -92 192v52q20 326 20 376q0 151 -64 196q-34 28 -88 32q-76 -15 -76 -76v-12q0 -36 124 -192q32 -46 32 -96q0 -88 -104 -100
q-69 0 -100 84q-8 132 -56 132h-20q-44 -5 -44 -60q0 -22 96 -152q8 -34 8 -44q0 -48 -60 -56h-20q-92 21 -92 92v48q0 6 16 16h8v-4q9 -112 68 -112h4q22 0 28 16v4q0 28 -80 128q-19 29 -20 56v24q0 66 92 84h16q63 0 92 -84q13 -120 44 -120q7 -4 20 -4h16q33 0 40 52
q0 46 -144 220q-24 46 -24 68v24q0 76 96 112h44z" />
    <glyph glyph-name="equal" unicode="=" horiz-adv-x="800" 
d="M141 377h455q70 0 91 -28v-12q0 -16 -118 -20h-358q-145 0 -145 24v16q0 17 75 20zM137 193h455q70 0 91 -28v-12q0 -16 -118 -20h-358q-145 0 -145 24v16q0 17 75 20z" />
    <glyph glyph-name="greater" unicode="&#x3e;" horiz-adv-x="1183" 
d="M599 538h39q126 0 162 -182v-25q0 -173 -228 -344h-6v10q13 36 123 187q50 108 50 172q-24 128 -123 128q-111 0 -111 -163q-6 0 -17 -103h-11q-54 163 -123 163q-78 -17 -78 -119v-5q0 -94 95 -191v-5l-84 -10q-167 20 -167 128v29q0 79 78 202h-6q-29 0 -72 -128v-10
h-11q-12 44 -12 59q37 133 112 133h22q28 -15 28 -34l-78 -177q-5 -27 -5 -45v-10q22 -98 94 -98h6q-56 80 -56 148q32 196 134 196q64 0 100 -59h6q27 153 139 153zM842 518h6q212 0 212 -285v-55q-34 -650 -34 -728q0 -184 112 -236v-10h-11q-108 0 -162 123
q-11 52 -11 84q45 719 45 782v35q0 155 -95 221v-5q26 0 39 -359q0 -782 -179 -837q-35 -24 -94 -24q-84 12 -84 103q0 72 134 335h-6q-57 0 -72 -79q-108 -197 -190 -197h-28q-33 17 -33 44v15q0 44 111 163h-5q-54 -10 -179 -15q-273 0 -273 172v30q0 139 184 211l50 5
v-10q-173 -73 -173 -221v-5q0 -128 240 -128q246 0 246 59q34 33 50 108q-12 89 -90 89h-5q-28 0 -67 -10v-5q139 0 139 -74q-50 -118 -184 -118h-44q-166 0 -190 143q0 116 251 187q58 10 61 10v-5l-189 -108q-56 -58 -56 -99v-5q26 -79 145 -79q134 19 134 74v15
q-4 15 -45 15h-5q-39 0 -123 -25l-6 10q0 49 118 103q38 10 66 10h17q103 0 123 -118q-4 -61 -56 -133h17q0 8 39 59h11q-11 -32 -11 -44q14 0 111 34q0 -4 6 -4q-143 -294 -156 -424q11 -22 22 -24h17q142 0 167 379q22 213 22 423v20q0 278 -78 398h6q18 10 33 10z
M452 -540q6 -15 11 -15q106 81 151 187h-6q-30 0 -83 -74q-56 -52 -73 -98z" />
    <glyph glyph-name="at" unicode="@" horiz-adv-x="702" 
d="M380 316q-25 0 -48.5 -15t-45.5 -44q-40 -50 -40 -85q0 -29 34 -29q29 0 53.5 14.5t47.5 41.5q19 24 28.5 45.5t9.5 41.5q0 30 -39 30zM349 -4q-68 0 -124.5 15t-96.5 42.5t-61.5 67t-21.5 87.5q0 53 24 96t67.5 74t104.5 47.5t135 16.5q58 0 104 -11.5t78.5 -33t50 -52
t17.5 -69.5q0 -32 -15.5 -62.5t-41.5 -54t-61.5 -38t-77.5 -14.5q-56 0 -56 57q-80 -57 -125 -57q-14 0 -26 5t-21 12.5t-14.5 18t-5.5 22.5q0 52 59 108q63 60 135 60q31 0 54 -18q17 11 78 17q-74 -181 -74 -186q0 -16 22 -16q58 0 102 57q38 48 38 95q0 32 -16 58
t-44 44.5t-68.5 28.5t-89.5 10q-65 0 -118.5 -16.5t-92 -46.5t-59.5 -70.5t-21 -87.5q0 -83 70 -134v0q71 -51 194 -51q189 0 274 131h28q-11 -23 -27 -43t-34 -36q-45 -35 -105.5 -54t-137.5 -19z" />
    <glyph glyph-name="A" unicode="A" horiz-adv-x="723" 
d="M872 508h27q144 0 196 -168q8 -40 8 -72v-40q0 -119 -106 -204q-44 -24 -82 -24h-24q-63 0 -105 68v4q62 -20 101 -20q110 0 153 132q12 53 12 88q-21 180 -153 180h-23q-127 0 -181 -168q-21 -88 -39 -88q-5 0 -11 12q0 172 -71 172h-12q55 -47 55 -136
q0 -176 -125 -228q-16 -8 -43 -8q-101 0 -114 120q0 10 -8 48q-4 0 -74 -116q-57 -48 -106 -48q-94 10 -94 80v40q0 94 102 252h-8q-57 0 -78 -124v-24h-4q-12 0 -20 52v20q0 89 90 124l24 4h15q39 -5 39 -36v-8q0 -10 -90 -164q-27 -93 -27 -112q5 -52 43 -52h16
q65 0 137 168q22 20 39 20q34 0 63 -160q23 -24 43 -24h19q93 0 110 148v20q-9 112 -59 112h-7q-25 0 -71 -56h-4v4q0 105 75 140q27 8 47 8h27q75 0 102 -76h4q74 140 192 140z" />
    <glyph glyph-name="C" unicode="C" horiz-adv-x="700" 
d="M853 478h26q136 0 186 -158q7 -38 7 -68v-37q0 -112 -100 -192q-42 -23 -78 -23h-22q-61 0 -100 64v4q59 -19 96 -19q103 0 145 124q11 50 11 83q0 130 -126 169h-41q-138 0 -189 -214l-8 -4h-7q-10 0 -26 117q-23 75 -85 75q-7 -4 -11 -4v-4q74 -20 74 -146v-34
q0 -164 -100 -185h-23q-73 0 -166 173q-31 34 -63 34h-19q-36 0 -41 -45q0 -16 49 -101v-23q-11 -23 -45 -23q-73 0 -137 83q-9 12 -15 49q0 104 167 143q27 0 52 45q0 34 -48 34q-97 0 -152 -143l-8 -4q-5 0 -11 12v19q0 70 104 135q39 11 59 11h30q70 -10 70 -67
q-14 -76 -74 -76v-3q109 0 174 -144q41 -60 74 -60q59 0 75 106q3 32 3 56v15q-7 102 -52 102h-11q-31 0 -81 -23q0 4 -4 4q39 113 130 113q92 0 122 -98h8q74 128 181 128zM204 258v-3h8v3h-8zM89 166q23 -78 82 -78h7v4q-37 73 -37 99q0 38 56 60v4h-4q-104 -30 -104 -89z
" />
    <glyph glyph-name="D" unicode="D" horiz-adv-x="800" 
d="M936 472h27q141 0 192 -144q8 -34 8 -61v-34q-33 -199 -200 -199q-67 0 -111 62h4q68 -14 92 -14h4q105 0 150 110q11 52 11 78q0 119 -131 154h-42q-124 0 -177 -144q-26 -92 -38 -92h-4q-11 4 -11 21v6q0 199 -166 199h-26q-90 0 -123 -89q-8 -15 -8 -45q0 -31 15 -95
h50q112 -12 112 -93v-3q0 -55 -58 -55h-8q-89 0 -123 86v7q-29 -6 -126 -100q-36 -27 -66 -27h-34q-92 16 -92 82v31q0 72 126 202l23 27q-6 4 -38 7q-92 -16 -92 -123v-24h-8q-23 15 -23 44v28q0 77 119 112q16 0 31 4q81 -9 81 -45q0 -5 -93 -106q-77 -85 -77 -143v-17
q0 -41 50 -41q49 0 116 82q57 40 84 48q-23 75 -23 126q0 101 112 140q49 14 92 14q143 0 200 -103h7q73 127 192 127zM410 140q43 -75 85 -75h19q5 0 11 10v11q0 41 -69 54h-46z" />
    <glyph glyph-name="E" unicode="E" horiz-adv-x="502" 
d="M275 434h35q106 0 147 -142v-58q0 -94 -111 -404q-51 -161 -51 -289v-40q0 -87 59 -160v-4h-4q-106 0 -127 222v5q0 159 159 532q24 79 24 143v13q0 97 -64 124q-14 9 -32 9h-19q-75 0 -103 -120v-44q0 -46 27 -133q-22 -14 -43 -14q-105 0 -127 160v36q0 61 67 115h4v-4
q-23 -81 -23 -125q0 -60 39 -106h4q-8 13 -12 71q0 136 111 204q32 9 40 9zM275 774h10q6 0 11 -11v-29q-12 -22 -18 -22h-3l3 36v4q-58 -28 -58 -62q3 -7 3 -11q65 18 70 18h18q51 -6 51 -51v-18q0 -84 -69 -164h-4q0 9 37 135v22q-5 33 -33 33h-4q-68 -11 -80 -11h-4
q-18 9 -18 29v18q0 54 88 84z" />
    <glyph glyph-name="F" unicode="F" horiz-adv-x="803" 
d="M952 474h25q136 0 185 -157q7 -37 7 -67v-37q0 -111 -100 -191q-41 -22 -77 -22h-22q-61 0 -100 63v4q59 -18 96 -18q103 0 144 123q11 49 11 82q0 129 -125 168h-41q-110 0 -162 -135q-33 -119 -44 -119h-4q-10 0 -18 149q-17 45 -37 52v-3q26 -56 26 -131v-19
q-9 -169 -100 -201q-6 -5 -37 -8q-84 0 -92 112v56h-3q-63 -164 -140 -164q-71 0 -82 86v37q0 106 74 239l-7 4h-30q-70 0 -96 -153q-3 -42 -3 -75q0 -40 11 -130h-19q-82 0 -95 130v4q0 116 44 220h-4q-46 0 -66 -138h-4q-22 15 -22 45v37q27 112 92 112q17 0 55 -22v-4
q-55 -139 -55 -216v-30q0 -40 19 -79h3v4l-3 60q0 154 66 250q34 37 81 37h18q29 0 78 -33v-12q-96 -144 -96 -261v-4q0 -59 37 -59q53 0 107 119q42 136 48 138l44 -22q-4 -88 -4 -131v-33q0 -68 44 -68q96 23 96 146v22q0 71 -40 168v4q40 15 51 15q78 -21 78 -75h7
q70 131 181 131z" />
    <glyph glyph-name="G" unicode="G" horiz-adv-x="700" 
d="M865 468h29q115 0 167 -135q11 -38 11 -77v-33q0 -116 -114 -190q-44 -11 -61 -11h-14q-59 0 -100 58v4h4q58 -15 89 -15q107 0 143 128q7 48 7 63q0 119 -114 157l-43 3q-112 0 -164 -135q-43 -248 -72 -248q0 -19 -74 -37h-18q-19 0 -25 15q64 128 64 212
q0 175 -200 175h-7q-160 0 -160 -164v-19q0 -108 64 -204l-7 -4h-29q-167 0 -167 165q0 47 39 160h-4q-18 0 -35 -84q-29 14 -29 37v18q0 64 93 88q29 -6 39 -15q-50 -134 -50 -190q0 -101 68 -124q-36 72 -36 139q0 245 200 245h53q152 0 207 -128q11 -39 11 -66v-37
q0 -73 -39 -164q57 48 57 146q22 147 67 194q73 73 150 73z" />
    <glyph glyph-name="H" unicode="H" horiz-adv-x="700" 
d="M888 449h2q77 0 139 -46q39 -35 50 -65q21 -54 21 -107q0 -102 -85 -176q-50 -33 -114 -33h-3q-60 0 -99 47q-11 9 -11 12h1q62 -17 93 -17h7q64 0 119 53q42 52 42 130q0 100 -90 143q-32 15 -72 15q-88 0 -151 -70q-29 -39 -36 -70q-7 -16 -27 -130q-13 -55 -28 -79
q-20 -32 -66 -48q-30 -8 -47 -8h-7q-18 0 -28 16q62 78 68 132q7 37 7 81q0 125 -87 164q-25 8 -47 8q-63 0 -88 -51q-12 -31 -12 -74q0 -22 11 -120q1 -9 1 -13q0 -89 -95 -121q-28 -7 -53 -7q-74 0 -117 45q-18 25 -18 63v4q0 91 62 181q15 20 32 39h-1q-44 0 -94 -119
q-12 -33 -12 -35h-1q-9 9 -9 17v5q0 41 26 107q23 48 69 64q21 7 37 7h2q27 0 54 -26q-77 -83 -100 -132q-23 -47 -23 -96q0 -65 53 -82q21 -5 35 -5q52 0 87 35q19 23 19 70q-8 122 -8 133q0 120 89 150q23 7 52 7h6q123 0 165 -120q14 -47 14 -100q0 -107 -64 -191v-1h1
q49 22 72 79q10 27 25 135q12 50 25 75q16 33 56 70q69 55 151 55z" />
    <glyph glyph-name="I" unicode="I" 
d="M-385 828h16q56 0 124 -124q12 -45 12 -72v-28h-8q-37 120 -132 180q-35 15 -36 24zM-339 950h17q103 0 167 -99q25 -47 25 -96v-5q0 -113 -71 -195q-25 -20 -63 -36v1q87 119 87 210v6q0 114 -99 154q-34 9 -57 9q-108 0 -139 -97q-5 -19 -5 -40q0 -62 66 -85h6
q1 0 40 7q23 0 27 -31q0 -31 -41 -36h-9q-46 0 -107 43q-70 55 -89 113q-1 5 -1 10v7q0 15 22 35h2q12 -43 38 -71v1q-2 15 -2 16q0 116 111 166q40 13 75 13z" />
    <glyph glyph-name="K" unicode="K" horiz-adv-x="800" 
d="M994 449q80 0 144 -49q68 -59 68 -169q0 -94 -75 -166q-50 -43 -129 -43q-61 0 -102 48q-1 0 -11 11q1 0 1 1q63 -17 95 -17h6q70 0 125 56q40 52 40 120v15q0 88 -91 134q-37 14 -71 14h-3q-96 0 -161 -78q-21 -31 -34 -77q-7 -26 -27 -131q-12 -55 -45 -86
q-25 -21 -80 -31q-8 -1 -14 -1h-5q-17 0 -29 16v1q69 80 83 135q12 40 12 83q0 105 -82 151q-35 14 -68 14h-6q-90 0 -128 -76q-10 -24 -10 -55v-16q0 -16 6 -16q57 -23 103 -56q48 -45 48 -95q0 -47 -44 -63q-6 -1 -10 -1h-6q-40 0 -79 59q-27 44 -55 117q0 9 -13 9
q-33 10 -59 10q-50 0 -59 -38l-1 -10q0 -32 46 -83q19 -28 19 -42v-6q0 -24 -52 -28h-4q-71 0 -146 58q-37 32 -37 78v5q0 75 104 119q17 7 85 27q63 25 63 54q0 26 -42 34q-7 1 -11 1q-62 0 -120 -50q-47 -50 -68 -114h-5q-15 3 -15 24v4q0 54 69 118q62 49 147 49
q67 0 90 -44q5 -17 5 -28q0 -57 -77 -79q-95 -23 -120 -38q-56 -34 -56 -76v-6q0 -39 61 -76q20 -10 38 -10q11 0 16 6v4q0 7 -29 46q-22 36 -22 63q0 47 77 74q25 6 49 6h5q26 0 54 -8v8q0 90 53 134q49 44 131 44h1q112 0 168 -87q25 -49 25 -120q0 -87 -46 -168
q-11 -16 -14 -18v-1q27 17 40 37q16 21 26 53q6 28 19 109q10 48 22 74q19 40 57 75q71 58 160 58zM408 182q12 -38 28 -66q32 -50 61 -50q13 0 13 22q0 55 -77 88q-18 6 -25 6z" />
    <glyph glyph-name="L" unicode="L" horiz-adv-x="700" 
d="M860 464h29q141 0 184 -165l4 -45v-44q0 -109 -97 -188q-39 -22 -76 -22h-33q-39 0 -86 60v4h3q57 -15 94 -15q51 0 101 48q47 58 47 154q-18 164 -151 164h-8q-107 0 -162 -127l-29 -165q-51 -101 -151 -101h-33q-104 0 -137 101v12l32 194q0 56 -75 56q-68 0 -94 -71
q-29 -65 -29 -146v-45q0 -39 18 -108q-64 16 -101 49q-36 49 -36 123q0 61 43 150q-21 0 -54 -90h-4q-14 16 -14 30v30q36 90 101 90q0 3 7 3q29 -11 33 -11v-4l-47 -104q-18 -42 -18 -98v-26q0 -55 32 -71l-3 37v42q0 186 97 247q30 15 79 15h15q83 0 97 -79v-11
q-29 -168 -29 -191v-4q0 -67 112 -78q96 0 123 101q21 168 61 213q75 86 155 86z" />
    <glyph glyph-name="M" unicode="M" horiz-adv-x="600" 
d="M771 495h28q145 0 197 -164q8 -39 8 -70v-39q0 -116 -107 -199q-44 -23 -82 -23h-36q-54 0 -95 70h4q54 -19 99 -19q110 0 154 128q12 52 12 86q0 135 -134 175h-44q-152 0 -189 -218q0 -137 -119 -191q-61 -19 -126 -19q-170 0 -193 109v23q0 66 90 98v4q-90 13 -90 89
v4q-60 -46 -60 -160q0 -35 16 -89h-4q-55 26 -55 101v31q0 166 170 207q21 4 35 4h71q8 0 28 -51q-4 0 -4 -4q0 4 -75 8q-64 0 -79 -51q28 -70 166 -70l23 4h12q8 -1 8 -8v-19q0 -7 -118 -32q-55 -24 -71 -58q-4 -7 -4 -16v-11q0 -67 126 -67q135 0 182 75q18 47 47 202
q84 160 209 160z" />
    <glyph glyph-name="N" unicode="N" horiz-adv-x="694" 
d="M857 446h22q128 0 180 -142q7 -42 7 -67v-32q-29 -198 -183 -198h-8q-59 0 -100 57v3h3q69 -14 94 -14q87 0 133 103q14 53 14 85q0 134 -144 159h-7q-123 0 -176 -142q-21 -96 -39 -127h-4q-7 0 -7 7v35q0 23 3 54q0 121 -97 166q-34 7 -50 7q-88 0 -119 -89
q-7 -17 -7 -63v-7q112 -62 122 -92q26 -36 26 -71q-12 -67 -54 -67q-70 0 -133 187q-33 11 -44 11h-32q-39 -6 -39 -39v-11q0 -22 57 -113v-14q0 -32 -43 -32h-25q-155 35 -155 145q0 107 191 156q43 27 43 53q0 20 -43 32q-118 0 -180 -170h-4q-5 0 -14 14v18
q0 100 137 163q33 7 54 7h25q75 -14 75 -71q0 -60 -79 -89h-11v-3h4l25 3q8 0 54 -7v14q0 131 122 170q20 4 33 4h28q112 0 155 -117h4q76 124 186 124zM221 251v-3h7v3h-7zM99 142q29 -89 93 -89h4q7 0 7 11q-47 76 -47 109q0 46 62 71v4h-4q-115 -35 -115 -106zM387 173
q32 -113 75 -113h4q7 0 7 7v25q0 48 -83 81h-3z" />
    <glyph glyph-name="O" unicode="O" horiz-adv-x="806" 
d="M540 515h33q84 0 147 -116q16 -49 16 -86v-25q0 -269 -364 -382q-257 -120 -257 -301q0 -99 118 -154v4q-8 77 -8 111q0 216 217 279l65 5q176 0 242 -176q12 -35 12 -73v-39q0 -126 -94 -257q-17 -9 -25 -9l-4 9q66 154 66 274q0 161 -131 206q-47 9 -66 9
q-168 0 -225 -180q-4 -30 -4 -48v-8q0 -57 12 -176q-4 0 -4 -4q-108 25 -159 77q-66 75 -66 163q0 230 324 348q213 89 253 163q45 82 45 167v17q0 107 -82 142q-28 8 -49 8q-102 0 -102 -137q-4 -4 -4 -34q4 -58 4 -99q-16 -9 -53 -13q-36 155 -78 155q0 7 -29 8
q-65 -14 -65 -116v-25q0 -94 110 -202q-37 -22 -61 -22h-41q-134 0 -159 142v22q0 35 49 171q-31 0 -58 -137h-8q-12 31 -12 39v34q23 137 98 137q34 0 37 -43l-49 -184v-43q0 -76 110 -90q-69 76 -69 189q0 155 106 180h37q35 0 82 -43q0 126 110 159q16 4 33 4z" />
    <glyph glyph-name="P" unicode="P" horiz-adv-x="654" 
d="M754 488h42q165 0 225 -152q5 -27 5 -43v-47q0 -144 -170 -223q-32 -11 -83 -15q-100 0 -143 90h5q79 -32 133 -32q126 0 194 141q9 29 9 55v3q0 137 -148 164q-6 4 -32 4h-4q-166 0 -166 -168q0 -104 -46 -187q-69 -78 -198 -78h-42q-174 0 -226 144q-4 27 -4 43v12
q0 99 55 176h-4q-32 0 -65 -98l-14 -54h-9q-14 0 -23 35v39q26 132 129 132h14q34 0 73 -23q-87 -108 -87 -203v-27q0 -92 124 -125q46 -4 69 -4h5q184 0 184 226q0 150 143 207q32 8 55 8z" />
    <glyph glyph-name="Q" unicode="Q" horiz-adv-x="700" 
d="M850 496h26q139 0 188 -160q8 -38 8 -69v-42q0 -108 -102 -194q-47 -23 -101 -23q-53 0 -102 64v4q61 -15 87 -15h15q121 0 150 164q4 26 4 42q0 123 -105 168q-26 8 -45 8h-19q-115 0 -169 -149q-26 -124 -42 -134h-4q-13 18 -33 157q-27 57 -91 57q-41 0 -75 -19v-4
q120 0 120 -130q0 -152 -150 -210q-45 -11 -83 -11h-45q-160 0 -192 141v46q0 72 53 153h-8q-27 0 -67 -130h-4q-19 10 -19 30v23q0 94 94 126h30q36 0 60 -27q-86 -97 -86 -202q0 -78 86 -107q30 -7 64 -7h8q155 0 199 110q8 29 8 54v19q-11 72 -64 72h-15q-53 -10 -53 -76
v-15h-7q-31 51 -31 72q0 88 117 134q36 8 56 8q105 0 140 -88h3q68 160 196 160zM327 184q68 -24 119 -84q83 -108 94 -161q6 -41 -2 -42q-114 213 -250 256l-5 6q21 20 44 25z" />
    <glyph glyph-name="R" unicode="R" horiz-adv-x="591" 
d="M758 478h25q129 0 176 -130q7 -30 7 -55v-31q0 -98 -106 -163q-40 -13 -77 -16q-61 0 -103 56h7q58 -13 88 -13q91 0 135 99q10 48 10 71q0 107 -120 139h-39q-139 0 -183 -194q-9 -20 -18 -22h-3q-13 0 -29 117q-22 44 -70 68q-49 18 -102 18q-130 0 -149 -67v-16
q0 -29 89 -120q38 -50 38 -83q0 -46 -56 -71l10 -65h-3q-7 0 -35 59l-7 -3q-111 0 -131 64l-3 19q11 40 45 40q6 0 22 -6v3q-61 53 -124 77l-7 9v16q17 46 32 46q176 -142 176 -185q4 0 4 -6h3v18q0 43 -102 130q-28 29 -28 52v12q0 63 134 111q45 7 102 10q151 0 208 -105
q78 117 184 117zM186 163q0 -52 28 -52q7 0 7 3q0 2 -31 49h-4z" />
    <glyph glyph-name="S" unicode="S" horiz-adv-x="600" 
d="M766 478h26q133 0 181 -158q7 -38 7 -68v-37q0 -112 -98 -192q-41 -23 -76 -23h-33q-49 0 -87 68h4q50 -19 91 -19q101 0 141 124q11 50 11 83q0 130 -123 169h-40q-122 0 -167 -162q-24 -214 -43 -214q-21 -49 -66 -49h-21q-72 0 -163 173q-31 34 -62 34h-18
q-36 0 -40 -45q0 -17 47 -102v-22q-10 -23 -43 -23q-84 0 -145 102q0 26 -4 30q0 104 163 143q27 0 51 45q0 34 -47 34q-95 0 -149 -143l-7 -4q-5 0 -11 11v19q0 71 101 136q40 11 58 11h29q69 -11 69 -68q-14 -75 -72 -75v-4q106 0 170 -143q40 -60 73 -60h7q63 0 80 230
q33 117 112 169q54 30 94 30zM88 155q21 -85 80 -85h7v4q-36 80 -36 108q0 43 55 66v4h-4q-102 -32 -102 -97z" />
    <glyph glyph-name="T" unicode="T" horiz-adv-x="700" 
d="M859 476h30q116 0 172 -135q11 -48 11 -71v-41q0 -113 -106 -188q-45 -19 -85 -19q-62 0 -106 60v4h4q67 -15 91 -15q61 0 114 56q40 60 40 139q0 114 -113 158q-32 3 -48 3q-115 0 -172 -142q-41 -255 -81 -255q0 -15 -70 -30h-29q-9 7 -15 7q63 152 63 240
q0 128 -107 128q-78 0 -114 -64v-4q38 30 55 30h19q95 -23 95 -138v-12q0 -120 -139 -172q-30 -8 -63 -8h-25q-146 0 -191 120l-4 45q0 61 66 180q-34 0 -88 -142q0 -11 -7 -11h-4q-7 30 -7 37v15q21 146 125 146h7q48 -2 48 -15q-80 -123 -85 -210q0 -120 165 -120h8
q115 0 146 117v30q0 75 -55 97q-59 0 -95 -90h-4q-22 21 -22 64q0 100 114 146q35 8 55 8h7q105 0 147 -117q8 -37 8 -78q0 -71 -55 -184q28 0 66 94q0 64 47 213q76 124 187 124z" />
    <glyph glyph-name="V" unicode="V" horiz-adv-x="689" 
d="M858 474h25q129 0 176 -145q7 -35 7 -63v-34q0 -114 -109 -184q-39 -13 -64 -13h-24q-47 0 -88 58v4q65 -17 91 -17q50 0 110 51q38 66 38 139q-19 156 -137 156h-21q-119 0 -166 -153q-25 -86 -38 -86q-7 0 -25 124q-21 59 -63 77q-42 20 -95 20h-8q-81 0 -116 -86
q-7 -14 -7 -38v-21q0 -42 11 -104l17 4h36q76 0 102 -80v-31q0 -52 -50 -52h-21q-65 0 -95 83q-4 17 -10 17q-47 -24 -169 -97l-21 -3h-22q-41 0 -56 38h4q24 -3 38 -3h11q77 0 120 169v31q0 85 -99 94h-3q-18 0 -92 -18v4q40 59 113 59q113 0 126 -139v-3q0 -65 -28 -128
q28 21 67 41q-21 67 -21 114v35q0 134 173 156h28q119 0 169 -118h3q66 142 183 142zM372 114q27 -83 74 -83h11q18 9 18 28v3q0 56 -67 56h-18z" />
    <glyph glyph-name="W" unicode="W" horiz-adv-x="700" 
d="M850 496h26q139 0 188 -160q8 -38 8 -69v-42q0 -108 -102 -194q-47 -23 -101 -23q-53 0 -102 64v4q61 -15 87 -15h15q121 0 150 164q4 26 4 42q0 123 -105 168q-26 8 -45 8h-19q-115 0 -169 -149q-26 -124 -42 -134h-4q-13 18 -33 157q-27 57 -91 57q-41 0 -75 -19v-4
q120 0 120 -130q0 -152 -150 -210q-45 -11 -83 -11h-45q-160 0 -192 141v46q0 72 53 153h-8q-27 0 -67 -130h-4q-19 10 -19 30v23q0 94 94 126h30q36 0 60 -27q-86 -97 -86 -202q0 -78 86 -107q30 -7 64 -7h8q155 0 199 110q8 29 8 54v19q-11 72 -64 72h-15q-53 -10 -53 -76
v-15h-7q-31 51 -31 72q0 88 117 134q36 8 56 8q105 0 140 -88h3q68 160 196 160z" />
    <glyph glyph-name="X" unicode="X" horiz-adv-x="800" 
d="M945 492h24q140 0 197 -148q8 -45 8 -70v-34q0 -120 -126 -196q-49 -11 -67 -11h-28q-54 0 -99 63h8q64 -15 99 -15q103 0 150 119q12 52 12 77q0 138 -146 163q-7 4 -20 4q-135 0 -190 -144q-27 -169 -47 -230q-46 -70 -95 -70h-31q-67 4 -67 15q79 168 79 292
q0 100 -72 100h-15q-61 0 -103 -144q-33 -8 -39 -8q-45 126 -115 126q-75 -17 -75 -96v-15q0 -19 24 -100v-4q-9 0 -44 -3q-82 0 -122 89v44q0 80 114 118h8q-71 -70 -71 -129v-4q13 -63 56 -63q-12 30 -12 56v15q22 133 134 133q76 0 114 -93h4q42 115 115 115h16
q89 0 122 -96q4 -26 4 -41v-41q0 -80 -47 -207h23q65 0 95 248q71 185 225 185z" />
    <glyph glyph-name="Y" unicode="Y" horiz-adv-x="700" 
d="M837 511h37q121 0 190 -137q16 -55 16 -100v-37q0 -119 -111 -201q-47 -24 -87 -24h-33q-56 0 -103 68h4q73 -16 99 -16h4q69 0 128 61q45 66 45 153q0 125 -119 173q-52 8 -58 8q-118 0 -181 -129q-29 -174 -54 -241q-59 -89 -124 -89h-41q-95 0 -107 129v8l4 48v4h-4
q-48 -131 -153 -181l-24 -4h-17q-95 8 -95 80v37q0 97 107 257h-8q-82 -23 -82 -153h-9q-16 38 -16 53v32q0 63 74 108q32 13 58 13h4q41 -6 41 -37v-8q0 -8 -90 -161q-33 -90 -33 -120q9 -53 49 -53q77 0 153 149q57 157 82 246h4q33 -20 33 -33q-16 -231 -16 -277
q0 -70 49 -77h21q124 24 124 173q0 87 74 202q84 76 165 76z" />
    <glyph glyph-name="Z" unicode="Z" horiz-adv-x="792" 
d="M529 484h20q118 0 158 -155h4q68 140 222 140q161 0 222 -151q12 -39 12 -66v-41q0 -114 -143 -210q-30 -11 -55 -11h-28q-50 0 -115 74h8q69 -15 95 -15h16q137 0 163 181v18q-24 170 -167 170h-8q-161 0 -214 -185q-46 -162 -131 -217q-31 -22 -39 -22v18q0 24 63 107
q48 86 48 170v7q0 99 -84 136q-22 4 -31 4q-71 0 -100 -70q-19 -58 -35 -195h-8q-38 158 -115 158h-4q-79 -22 -79 -133q0 -83 95 -184v-4q-40 -7 -80 -7h-4q-120 0 -150 111l-4 33q0 75 79 214v3h-8q-32 0 -71 -129v-7h-8q-8 26 -8 44v8q0 85 95 132h40q5 0 20 -18v-11
q0 -20 -80 -177q-8 -35 -8 -55q19 -107 100 -107q-52 64 -52 140q5 158 111 206h24q53 0 91 -63h4q0 80 63 137q33 22 76 22z" />
    <glyph glyph-name="backslash" unicode="\" horiz-adv-x="874" 
d="M615 514h36q128 0 178 -157v-47q0 -156 -256 -322q0 4 -5 4q0 25 146 184q58 101 58 154q-20 137 -142 137h-5q-118 0 -141 -196l-5 -55h-5q-10 0 -47 90q-38 59 -100 59q-94 -18 -94 -122q0 -83 115 -180q-26 -7 -99 -12q-119 0 -167 78q-16 19 -16 59v12q0 64 89 192v4
h-5q-39 0 -89 -129h-6q-10 15 -10 43v16q40 121 141 121q26 0 42 -19v-16q0 -17 -94 -169l-11 -51q26 -98 115 -98q-57 57 -57 137q0 135 131 193h20q66 0 110 -55h11q22 145 162 145z" />
    <glyph glyph-name="bracketright" unicode="]" horiz-adv-x="761" 
d="M340 289q67 -40 108 -116q64 -133 64 -192q-3 -44 -12 -44q-74 252 -208 328l-4 8q26 16 52 16zM365 449q144 0 192 -79q37 -45 37 -123q0 -87 -29 -161q-9 -20 -26 -37h1q20 9 35 26q25 25 39 98q6 30 6 59v8q0 92 -58 177q31 11 54 11q50 0 82 -51q18 -37 18 -100
q0 -146 -56 -246q-14 -17 -37 -31h-1q16 34 28 66q29 87 29 189q0 103 -46 129q-10 6 -18 6v-1q42 -69 42 -161q0 -80 -38 -152q-37 -58 -87 -58h-7q-13 0 -32 14q33 74 48 145q5 28 5 56v5q0 83 -40 116q-49 50 -151 50q-113 0 -142 -84q-13 -41 -13 -83q0 -113 58 -199
q0 -3 4 -8q-1 0 -1 -1q-22 -1 -32 -1h-6q-80 0 -122 52q-27 47 -27 100v7q0 49 36 155q-12 0 -27 -34q-5 -16 -9 -48h-1q-10 0 -22 17q-6 13 -6 24v7q0 38 44 72q18 12 41 14q15 0 37 -11v-1q-44 -127 -44 -182v-10q0 -59 36 -98q16 -14 28 -14q-34 69 -34 131v9
q0 145 73 198q50 33 139 33z" />
    <glyph glyph-name="asciicircum" unicode="^" 
d="M-562 1165h5l10 -5q-47 -76 -47 -142q0 -209 443 -408v-10l-26 -4h-27q-129 0 -380 206q-91 95 -100 176v45q0 98 85 137zM-728 1087h21q131 0 212 -126q32 -60 32 -122v-6q0 -144 -91 -249q-30 -26 -79 -46v2q110 151 110 266v8q0 146 -126 196q-42 13 -72 13
q-137 0 -177 -125q-7 -24 -7 -50q0 -79 84 -109h9q1 0 50 9q29 0 35 -40q0 -39 -53 -46h-11q-58 0 -136 56q-90 70 -113 144q-2 6 -2 12v9q0 19 28 45h3q15 -55 48 -91v2q-2 19 -2 20q0 148 141 211q51 17 96 17z" />
    <glyph glyph-name="underscore" unicode="_" horiz-adv-x="395" 
d="M190 190q-56 0 -56 56q0 55 56 55q62 0 62 -55q0 -56 -62 -56z" />
    <glyph glyph-name="grave" unicode="`" horiz-adv-x="862" 
d="M650 440q76 0 124 -49q43 -52 43 -117v-10q0 -87 -83 -195q-22 -30 -72 -70q-22 -13 -41 -13q81 91 106 150q40 79 40 132v7q0 66 -51 105q-28 15 -55 15h-10q-91 0 -127 -112q-16 -37 -34 -96h-1q-6 7 -30 60q-12 29 -30 44q-29 27 -59 27q-35 0 -61 -31
q-17 -24 -17 -77q-2 -8 -9 -8q-12 0 -17 53v13q0 43 44 79q28 21 67 21q69 0 108 -71h1q25 60 49 91q44 52 115 52zM178 378h10q47 0 66 -33q0 -4 -32 -35q-99 -106 -112 -153q-9 -23 -9 -42q0 -52 67 -66q18 -3 33 -3h5q47 0 47 8q14 53 28 71q40 51 90 51q55 -3 65 -28
l1 -9v-2q0 -46 -74 -96q-38 -21 -68 -21l1 -4v-7q0 -102 48 -151q9 -15 61 -55q53 -38 196 -88v-1q-38 -2 -43 -2q-58 0 -160 46q-99 53 -132 138q-16 45 -16 114v3q-36 -3 -60 -3h-11q-67 0 -112 41q-17 20 -17 50q0 64 73 164q21 24 62 66q-14 4 -28 4h-1q-60 0 -78 -87
q-4 -41 -10 -41h-3q-19 5 -20 35v1q0 58 44 106q36 29 89 29zM299 57h1q19 1 51 14q31 13 47 49q1 6 1 8q0 14 -22 14q-50 0 -73 -61z" />
    <glyph glyph-name="a" unicode="a" horiz-adv-x="745" 
d="M556 449h40q87 0 104 -132v-62q0 -189 -88 -255h-4v4q44 154 44 251q0 128 -68 128h-12q56 -50 56 -119v-29q0 -182 -140 -235h-40q-82 0 -103 95q-6 74 -16 74h-4q-73 -165 -172 -165h-4q-96 9 -96 83v28q0 111 104 272h-8q-80 -21 -80 -156h-8q-16 41 -16 49v29
q0 92 92 128l24 4h16q24 0 40 -25v-21q-10 -30 -88 -160q-24 -71 -32 -124q0 -57 60 -57q66 0 132 164q32 33 48 33q35 0 63 -164q20 -25 48 -25h20q108 24 108 144v41q0 85 -60 103q-37 0 -80 -62h-4q0 121 80 153q16 8 44 8z" />
    <glyph glyph-name="b" unicode="b" horiz-adv-x="900" 
d="M518 446q114 0 156 -122q6 -24 6 -44v-5q0 -88 -94 -227q52 12 78 41q35 40 50 109q5 24 5 46q0 80 -62 158q-1 1 -15 18v1q49 8 69 8q80 0 125 -57q19 -34 19 -81v-11q0 -132 -77 -239q-26 -29 -64 -41v1q91 117 91 260v9q0 88 -64 117q-16 5 -30 5q57 -68 57 -158
q0 -78 -54 -153q-34 -41 -87 -56q-28 -6 -44 -6q-27 0 -53 19v1q103 146 103 240v6q0 60 -50 100q-27 19 -53 19h-14q-40 0 -73 -32q-22 -29 -26 -58q-10 -34 -26 -141h-1q-40 108 -67 123q-26 17 -47 17h-1q-45 0 -69 -61q-6 -14 -9 -54q0 -78 93 -161q-46 -8 -80 -8
q-80 0 -124 50q-24 35 -24 75q0 66 65 163q9 15 12 25h-1q-40 0 -76 -101q-4 -14 -5 -21h-2q-10 29 -10 41v5q0 39 46 90q31 26 61 26h8q33 0 33 -24q0 -25 -57 -114q-28 -51 -28 -88q0 -45 45 -77q31 -17 55 -17q-51 51 -51 123v6q0 101 79 159q21 12 38 12h8q49 0 91 -55
h1q16 84 44 105q36 34 100 34z" />
    <glyph glyph-name="c" unicode="c" horiz-adv-x="795" 
d="M605 485h6q87 0 125 -98q14 -47 14 -109v-4q0 -151 -48 -243q-20 -31 -61 -31l-1 2q43 56 55 114q14 78 14 134q0 92 -35 150q-24 33 -64 33q-9 0 -29 -4v-1q49 -17 66 -53q27 -51 27 -129q0 -143 -52 -214q-28 -32 -70 -32h-6q-87 0 -165 150q-43 78 -75 87q-19 6 -35 6
h-3q-38 0 -52 -26q-5 -12 -5 -23v-5q0 -33 40 -89q14 -30 14 -43v-8q0 -24 -41 -29h-12q-55 0 -124 60q-39 37 -39 86v13q0 83 105 130q83 24 105 38q33 22 33 43q0 28 -37 38q-7 1 -13 1h-5q-62 0 -117 -61q-28 -36 -41 -66l-17 -43h-4q-13 0 -13 25v4q0 59 71 130
q56 45 126 45h6q68 0 87 -56q3 -15 3 -23q0 -55 -55 -79q-28 -10 -103 -30q-62 -25 -80 -68q-5 -12 -7 -31q0 -49 60 -91q13 -7 30 -10q12 0 15 10q0 6 -31 65q-12 31 -12 51v5q0 52 76 79q18 4 39 5q101 0 180 -158q25 -45 53 -68q18 -11 33 -11q64 0 84 120q7 47 7 78
q0 98 -49 128q-11 4 -24 5q-29 0 -94 -30q0 1 -1 1q18 70 53 96q42 34 93 34z" />
    <glyph glyph-name="d" unicode="d" horiz-adv-x="761" 
d="M507 449q82 0 146 -43q63 -55 63 -139q0 -95 -42 -184q-29 -54 -81 -83v1q30 55 51 113q27 80 27 126v12q0 120 -92 156q-40 13 -78 13q-95 0 -130 -96q-4 -21 -5 -44q0 -29 16 -97q14 2 27 2h14q80 0 107 -66q3 -14 3 -24q0 -41 -30 -54q-13 -4 -29 -4q-90 0 -118 92
q-20 -7 -49 -31q-52 -54 -85 -80q-27 -17 -61 -17v0q-75 0 -97 56q-8 19 -8 47q0 75 86 170q25 28 58 70q-14 8 -36 8q-56 0 -83 -72q-7 -22 -7 -75v-2q0 -1 -2 -1q-27 17 -27 58q0 45 37 88q47 41 105 41q57 0 73 -35q1 -3 1 -5q0 -12 -40 -52q-107 -122 -115 -171
q-5 -19 -5 -33v-11q0 -31 27 -41q8 -3 21 -4q45 0 88 57q49 53 97 71q0 1 7 4q-21 73 -21 114v13q0 108 113 142q40 10 74 10zM388 143q15 -34 46 -62q24 -18 43 -18t23 17v5q0 30 -41 55q-21 6 -39 6q-17 0 -32 -3z" />
    <glyph glyph-name="e" unicode="e" horiz-adv-x="502" 
d="M275 434h35q106 0 147 -142v-58q0 -94 -111 -404q-51 -161 -51 -289v-40q0 -87 59 -160v-4h-4q-106 0 -127 222v5q0 159 159 532q24 79 24 143v13q0 97 -64 124q-14 9 -32 9h-19q-75 0 -103 -120v-44q0 -46 27 -133q-22 -14 -43 -14q-105 0 -127 160v36q0 61 67 115h4v-4
q-23 -81 -23 -125q0 -60 39 -106h4q-8 13 -12 71q0 136 111 204q32 9 40 9z" />
    <glyph glyph-name="f" unicode="f" horiz-adv-x="900" 
d="M148 449q20 0 61 -24v-4q-61 -145 -61 -234v-28q0 -43 20 -84h4v4l-4 56q0 232 115 306q27 8 37 8h25q47 0 95 -36q0 -9 -74 -135q-33 -98 -33 -155v-16q5 -51 41 -51q91 0 164 270h9q25 -3 49 -24l-8 -147q0 -95 57 -95q55 0 95 91q8 66 8 79q0 100 -49 183q20 24 66 24
q90 -20 90 -131v-68q-11 -211 -78 -234h-4v4q37 137 37 218v40q0 94 -45 119v-4q28 -63 28 -155q0 -162 -111 -222l-41 -4q-74 0 -98 75l-9 56q4 22 4 44v8h-4q-65 -179 -160 -179q-63 0 -86 71v64q0 90 78 254h-21q-4 0 -4 4q-69 0 -99 -87q-24 -51 -24 -167q0 -38 12 -131
q-4 0 -4 -4q-76 0 -111 75q-12 34 -12 72q0 124 49 234h-17q-33 0 -61 -147h-4q-25 17 -25 48v40q0 75 90 119h13z" />
    <glyph glyph-name="g" unicode="g" horiz-adv-x="761" 
d="M365 449q144 0 192 -79q37 -45 37 -123q0 -87 -29 -161q-9 -20 -26 -37h1q20 9 35 26q25 25 39 98q6 30 6 59v8q0 92 -58 177q31 11 54 11q50 0 82 -51q18 -37 18 -100q0 -146 -56 -246q-14 -17 -37 -31h-1q16 34 28 66q29 87 29 189q0 103 -46 129q-10 6 -18 6v-1
q42 -69 42 -161q0 -80 -38 -152q-37 -58 -87 -58h-7q-13 0 -32 14q33 74 48 145q5 28 5 56v5q0 83 -40 116q-49 50 -151 50q-113 0 -142 -84q-13 -41 -13 -83q0 -113 58 -199q0 -3 4 -8q-1 0 -1 -1q-22 -1 -32 -1h-6q-80 0 -122 52q-27 47 -27 100v7q0 49 36 155
q-12 0 -27 -34q-5 -16 -9 -48h-1q-10 0 -22 17q-6 13 -6 24v7q0 38 44 72q18 12 41 14q15 0 37 -11v-1q-44 -127 -44 -182v-10q0 -59 36 -98q16 -14 28 -14q-34 69 -34 131v9q0 145 73 198q50 33 139 33z" />
    <glyph glyph-name="h" unicode="h" horiz-adv-x="900" 
d="M470 449q107 0 154 -72q40 -50 40 -132v-12q0 -92 -70 -168h1q103 38 107 172v2q0 101 -89 184q52 11 85 11q73 0 123 -43q34 -35 34 -104q0 -139 -84 -239q-15 -16 -58 -48v1q43 69 64 124q26 68 26 140q0 104 -76 130q-18 5 -41 7q46 -37 65 -98q10 -34 10 -64
q0 -68 -49 -139q-16 -19 -47 -41q-53 -28 -102 -28q-20 0 -32 15q42 47 59 81q22 47 22 115v7q0 79 -69 135q-34 22 -75 22q-73 0 -98 -55q-10 -29 -10 -62q0 -19 13 -119v-6q0 -83 -102 -112q-27 -7 -57 -7q-74 0 -120 38q-24 22 -24 65q0 100 85 192q1 0 16 15h-2
q-46 0 -97 -105q-16 -36 -16 -38h-1q-10 9 -10 14v4q0 42 30 104q26 44 76 58q24 5 36 5q31 0 59 -24v-1q-112 -104 -122 -159q-9 -26 -9 -51q0 -67 66 -80q15 -2 30 -3q51 0 88 30q24 21 24 68l-9 124q0 102 80 135q30 12 76 12z" />
    <glyph glyph-name="i" unicode="i" 
d="M-339 950h17q103 0 167 -99q25 -47 25 -96v-5q0 -113 -71 -195q-25 -20 -63 -36v1q87 119 87 210v6q0 114 -99 154q-34 9 -57 9q-108 0 -139 -97q-5 -19 -5 -40q0 -62 66 -85h6q1 0 40 7q23 0 27 -31q0 -31 -41 -36h-9q-46 0 -107 43q-70 55 -89 113q-1 5 -1 10v7
q0 15 22 35h2q12 -43 38 -71v1q-2 15 -2 16q0 116 111 166q40 13 75 13z" />
    <glyph glyph-name="j" unicode="j" horiz-adv-x="840" 
d="M563 449h58q125 0 145 -86v-4q0 -42 -83 -90v-8q112 -37 112 -98v-28q-28 -135 -95 -135l-9 4q54 95 54 139q0 81 -174 102h-75v4q0 33 38 33q102 0 170 65v8q0 45 -108 53q-176 0 -245 -151q-4 -7 -4 -20v-21q0 -55 112 -159v-4q-64 -16 -108 -16h-25q-174 0 -174 143
q0 58 58 183h-8q-62 -43 -62 -106q-13 -53 -21 -53q-29 17 -29 49v37q22 90 50 90q35 36 112 36q34 0 54 -24q-83 -138 -83 -216v-21q0 -69 128 -69q-66 49 -66 118v16q0 160 191 217q43 12 87 12z" />
    <glyph glyph-name="k" unicode="k" horiz-adv-x="900" 
d="M515 449h6q90 0 145 -68q37 -49 37 -134v-8q0 -80 -40 -154q-7 -11 -13 -18h1q81 50 81 171q0 80 -43 147q-13 16 -30 35q43 11 71 11q58 0 97 -42q28 -33 28 -100v-6q0 -145 -75 -243q-11 -13 -41 -40v2q42 79 61 155q12 56 12 108q0 110 -72 129q-16 3 -18 3
q36 -36 53 -107q5 -28 5 -45v-12q0 -62 -40 -131q-49 -68 -107 -68q-12 0 -36 9q68 101 68 206q0 96 -69 143q-34 20 -72 20h-12q-74 0 -114 -64q-15 -26 -15 -68v-11q0 -18 5 -18q108 -46 131 -96q15 -29 15 -53q0 -47 -41 -63q-6 -1 -12 -1q-65 0 -116 132q-20 47 -20 48
q-39 13 -66 13q-48 0 -58 -36l-1 -12q0 -29 35 -70q28 -34 28 -55v-5q0 -23 -50 -28h-4q-67 0 -141 59q-34 31 -34 78v3q0 77 106 121q85 24 111 42q25 19 25 36q0 22 -32 32q-6 2 -20 2q-55 0 -108 -43q-46 -47 -65 -101q-5 -18 -7 -18h-5q-12 0 -14 26v1q0 54 65 116
q60 49 139 49h7q63 0 83 -45q5 -16 5 -25q0 -58 -77 -80q-95 -22 -124 -43q-43 -32 -43 -68v-7q0 -37 58 -74q21 -10 36 -10h3q14 1 14 5v4q0 7 -29 49q-20 34 -20 60q0 41 62 68q28 11 56 11h11q23 0 49 -9v9q0 96 60 140q45 36 115 36zM394 198v-1q10 -34 23 -60
q33 -56 61 -56q14 0 14 22q0 64 -98 95z" />
    <glyph glyph-name="l" unicode="l" horiz-adv-x="900" 
d="M348 449h37q106 0 106 -94q-33 -189 -33 -208v-4q13 -82 111 -82q100 0 151 90q12 38 12 69v29q0 56 -53 184v4l61 12q98 0 115 -127v-49q-18 -273 -98 -273q0 4 -4 4q57 128 57 265q0 131 -70 131v-4q41 -71 41 -180q0 -145 -143 -196q-41 -8 -73 -8h-9q-115 0 -155 106
v17q37 196 37 216q0 53 -78 53h-8q-88 0 -119 -102q-20 -68 -20 -143v-49q0 -32 20 -106h-4q-127 39 -127 82q-24 32 -24 102t49 163h-4q-37 -22 -53 -94h-5q-5 0 -20 21v36q0 73 119 106h8q33 -7 33 -16v-8q-74 -116 -74 -200v-37q0 -58 33 -77h4l-4 40v41q0 205 110 270
q29 16 74 16z" />
    <glyph glyph-name="m" unicode="m" horiz-adv-x="745" 
d="M561 449h33q83 0 106 -139v-49q-24 -261 -119 -261v4q66 145 66 261q0 102 -74 131h-16q49 -91 49 -180q0 -162 -168 -204q-33 -8 -78 -8h-8q-148 0 -192 82q-9 26 -9 36v21q0 66 91 98v8q-91 12 -91 90v8q-61 -52 -61 -171q0 -29 16 -94q-61 27 -61 110v41
q0 147 151 200q41 12 99 12q61 0 61 -49q4 0 4 -4q-4 0 -4 -4l-49 4h-29q-70 0 -82 -49q19 -74 181 -74h28q8 -1 8 -8v-16q0 -9 -118 -33q-82 -34 -82 -85v-9q13 -65 110 -65h29q162 0 201 118q4 23 4 37v29q0 79 -78 196q41 16 82 16z" />
    <glyph glyph-name="n" unicode="n" horiz-adv-x="809" 
d="M553 449h16q80 0 141 -57q54 -53 54 -161q0 -98 -51 -179q-17 -22 -48 -30l-15 -4l-1 2q74 107 74 215q0 118 -94 164q-36 12 -67 12q-97 0 -137 -80q-10 -25 -10 -54v-36q61 -24 112 -60q51 -47 51 -96v-8q0 -46 -44 -62q-7 -2 -14 -2h-1q-68 0 -124 138q-13 29 -22 53
q-42 14 -73 14q-46 0 -60 -31q-3 -13 -3 -17v-2q0 -35 45 -83q23 -32 23 -54q0 -23 -43 -30l-15 -1q-71 0 -151 58q-41 35 -41 83v11q0 75 112 124q99 27 125 45q27 20 27 38q0 23 -36 34q-10 2 -18 2h-5q-50 0 -103 -36q-43 -36 -55 -61q-18 -25 -34 -68q-1 -7 -3 -7h-2
q-14 0 -18 19v12q0 49 61 112q68 61 160 61h11q73 0 92 -56q2 -7 2 -15v-6q0 -67 -112 -89q-66 -16 -98 -33q-56 -37 -56 -81q0 -47 70 -86q20 -8 33 -8h2q17 0 17 9v1q0 7 -35 56q-19 34 -19 57v2q0 50 82 78q20 5 53 7q22 0 59 -9v1q0 97 49 141q54 53 137 53zM426 183
q17 -54 35 -78q29 -46 57 -46q15 0 15 24q0 62 -95 96z" />
    <glyph glyph-name="o" unicode="o" horiz-adv-x="422" 
d="M1 584q234 0 338 -177q38 -73 38 -145q0 -112 -89 -216q-47 -47 -81 -58q-33 -11 -73 -11q-97 0 -156 64q-13 17 -13 60l2 1q81 -66 153 -66q103 0 167 104q28 55 28 121q0 187 -191 253q-80 27 -160 27q-72 0 -152 -27q-12 -4 -64 -19v1q64 88 253 88z" />
    <glyph glyph-name="p" unicode="p" horiz-adv-x="804" 
d="M607 449h45q88 0 107 -135v-32q0 -162 -89 -270q-6 -4 -15 -4h-3q55 157 55 261v9q0 91 -59 122q-11 0 -26 4q52 -81 52 -179v-5q0 -154 -159 -212q-45 -8 -70 -8h-48q-179 0 -226 131q-4 22 -4 36v9q0 96 56 195v5h-4q-44 -40 -74 -156h-7q-15 7 -15 29v29
q27 167 137 167q59 -11 59 -37q-89 -125 -89 -237q0 -122 178 -122q150 0 203 110q7 37 7 53v4q0 115 -70 221v4q42 8 59 8z" />
    <glyph glyph-name="q" unicode="q" horiz-adv-x="761" 
d="M532 449h37q147 -17 147 -147v-61q0 -146 -78 -229q-11 -8 -28 -8q53 124 53 261q0 135 -111 135q-36 0 -81 -24v-5h12q4 0 4 5q78 0 110 -82q9 -45 9 -61q0 -155 -160 -221q-57 -12 -94 -12h-49q-175 0 -209 151v37q0 92 57 175h-4q-38 0 -73 -138h-9q-5 0 -20 20v37
q18 134 127 134q24 0 73 -20v-8q-94 -114 -94 -208q0 -91 90 -123q39 -8 62 -8h28q169 0 213 131q4 22 4 36v21q0 85 -73 85h-9q-55 0 -61 -89v-8h-8q-33 55 -33 77q0 85 115 139q37 8 53 8zM368 199q67 -40 108 -116q64 -133 64 -192q-3 -44 -12 -44q-74 252 -208 328l-4 8
q26 16 52 16z" />
    <glyph glyph-name="r" unicode="r" horiz-adv-x="726" 
d="M413 449q144 0 210 -58q58 -44 58 -117v-9q0 -116 -56 -261q-24 -54 -68 -132h-2q-6 16 -6 22q0 30 46 218q23 92 23 147v7q0 93 -84 124q-49 21 -125 21q-89 0 -145 -26q-33 -19 -33 -45v-2q0 -30 53 -73q95 -79 95 -123q0 -31 -38 -58q-22 -9 -27 -9q6 -30 11 -63h-1
q-21 23 -40 56q-16 -1 -25 -1q-67 0 -111 28q-25 21 -25 46q0 27 36 37q5 1 9 1h6q30 0 38 -25v-18q0 -13 13 -16t26 -3h3v1q-20 32 -56 60q-38 30 -66 42l-76 32q-11 8 -11 17q0 16 31 47h2q83 -51 130 -86q63 -51 85 -96h1q4 9 4 17q0 41 -82 98q-72 48 -72 78v5
q0 42 74 81q71 36 195 36z" />
    <glyph glyph-name="s" unicode="s" horiz-adv-x="795" 
d="M633 449h8q68 0 99 -97q10 -50 10 -94q0 -121 -39 -212q-20 -46 -71 -46v2q50 65 57 120q11 60 11 114q0 85 -33 139q-15 17 -33 17q0 1 -1 1v-1q29 -74 29 -154q0 -181 -66 -222q-23 -16 -53 -16h-2q-85 0 -153 117q-34 56 -58 85q-29 26 -66 26h-6q-46 0 -54 -38
q-1 -7 -1 -12q0 -30 42 -88q13 -25 13 -42q0 -25 -42 -29h-11q-52 0 -119 51q-45 36 -45 91v1q0 96 130 136q113 25 113 69q0 24 -36 35q-7 1 -13 1h-6q-60 0 -113 -54q-35 -41 -48 -75q-2 -1 -13 -31h-4q-14 0 -14 26q0 51 62 114q57 51 132 51h10q64 0 85 -48q4 -13 4 -21
v-5q0 -59 -71 -80q-93 -20 -121 -37q-52 -35 -52 -76v-3q0 -42 52 -80q22 -13 38 -13q14 1 14 10q0 6 -28 55q-15 31 -15 57q0 52 83 76q25 3 33 3q96 0 170 -134q24 -40 48 -67q23 -21 49 -21q63 0 81 111q8 49 8 91q0 95 -56 184v1q0 3 40 10q9 2 22 2z" />
    <glyph glyph-name="t" unicode="t" horiz-adv-x="900" 
d="M511 449q106 0 159 -92q16 -39 16 -88v-9q0 -88 -72 -196l-10 -11v-1h1q52 18 78 62q24 37 37 105q1 14 2 35q0 69 -45 145q-11 15 -31 39q40 9 70 9q75 0 118 -57q21 -34 21 -90q0 -154 -83 -264q-20 -21 -54 -36l-1 2q89 119 89 277q0 103 -72 127q-10 3 -20 5v-1
q56 -72 56 -165q0 -79 -51 -158q-21 -26 -48 -43q-42 -24 -82 -24q-20 0 -35 19q57 111 63 160q9 39 9 74v10q0 67 -50 104q-27 16 -71 16q-100 0 -138 -78q45 40 85 40q72 0 106 -88q9 -29 9 -54q0 -79 -80 -143q-62 -41 -156 -41h-7q-167 0 -218 100q-13 26 -13 52v8
q0 71 78 182h-2q-28 -4 -69 -64q-19 -31 -40 -92h-2q-13 32 -13 43v10q0 41 42 102q39 43 105 43q35 0 52 -12v-4q0 -3 -52 -80q-39 -73 -39 -125q0 -81 80 -108q53 -13 109 -13q120 0 163 88q12 29 12 51q0 54 -37 93q-14 12 -30 12q-42 0 -89 -52q-11 -15 -22 -38h-1
q-21 26 -21 61q0 58 58 113q55 40 136 40z" />
    <glyph glyph-name="u" unicode="u" 
d="M-104 86h8q9 -38 9 -49q0 -140 -101 -385q-51 -90 -172 -172q-8 -15 -8 -27q0 -26 25 -26q145 0 231 305q16 110 16 128h9l4 -53v-9q0 -206 -134 -362q-57 -58 -122 -58h-8q-68 0 -84 71v9q0 58 117 119q111 86 156 257z" />
    <glyph glyph-name="v" unicode="v" horiz-adv-x="829" 
d="M536 482h37q148 0 207 -144q4 -23 4 -37v-31q0 -186 -130 -270h-4v3q81 155 81 240v30q0 168 -191 168h-12q-104 0 -138 -106q0 -18 -4 -31q4 -49 16 -109l41 7q111 0 138 -86v-24q-8 -54 -53 -54h-20q-89 0 -118 82q-5 17 -12 17q-60 -24 -179 -89q-29 -10 -36 -10h-33
q-61 13 -61 37h4q28 -3 45 -3h12q92 0 138 174v21q-8 95 -113 95q-35 0 -110 -17v4q46 58 126 58q103 0 138 -82q12 -23 12 -62q0 -51 -32 -123l73 45q-25 88 -25 129q0 126 155 165q27 3 44 3zM419 150q36 -82 89 -82h12q14 0 20 35q0 43 -69 51h-32z" />
    <glyph glyph-name="w" unicode="w" horiz-adv-x="761" 
d="M532 449h37q147 -17 147 -147v-61q0 -146 -78 -229q-11 -8 -28 -8q53 124 53 261q0 135 -111 135q-36 0 -81 -24v-5h12q4 0 4 5q78 0 110 -82q9 -45 9 -61q0 -155 -160 -221q-57 -12 -94 -12h-49q-175 0 -209 151v37q0 92 57 175h-4q-38 0 -73 -138h-9q-5 0 -20 20v37
q18 134 127 134q24 0 73 -20v-8q-94 -114 -94 -208q0 -91 90 -123q39 -8 62 -8h28q169 0 213 131q4 22 4 36v21q0 85 -73 85h-9q-55 0 -61 -89v-8h-8q-33 55 -33 77q0 85 115 139q37 8 53 8z" />
    <glyph glyph-name="x" unicode="x" horiz-adv-x="900" 
d="M534 449h1q91 0 128 -81q11 -31 11 -73v-13q0 -77 -51 -213h9q49 0 71 56q27 50 27 113v5q0 85 -54 160q-6 8 -6 10q41 12 70 12q62 0 95 -57q20 -38 20 -93v-13q0 -81 -41 -194q-31 -64 -52 -64q0 -1 -8 -4l-1 2q53 147 53 241q0 74 -33 115q-21 21 -32 21
q35 -62 35 -150q0 -80 -36 -156q-39 -61 -111 -61q-24 0 -83 10v1q71 157 74 204q10 42 10 80q0 91 -65 106q-6 1 -11 1h-10q-53 0 -82 -65q-16 -36 -29 -78l-42 -6q-47 99 -70 110q-20 13 -44 13h-1q-35 0 -65 -34q-20 -30 -20 -70q0 -29 29 -104q-14 -5 -46 -5h-3
q-72 0 -115 65q-11 23 -11 46q0 47 36 90q34 29 73 39q19 8 23 8q-79 -71 -79 -128v-1q0 -46 50 -68q7 -1 10 -1q-13 35 -13 60v11q0 52 49 99q45 31 87 31q58 0 97 -48q13 -18 27 -46h2q40 117 127 117z" />
    <glyph glyph-name="y" unicode="y" horiz-adv-x="761" 
d="M381 449h2q29 -19 34 -24v-5q0 -15 -16 -234q0 -18 -1 -30q0 -76 31 -92q17 -6 32 -6q65 0 108 69q21 41 21 104q0 107 -58 191q39 17 64 17h8q50 0 86 -50q24 -36 24 -114q0 -161 -62 -253q-13 -16 -33 -22q47 148 47 239v14q0 117 -60 138q-2 1 -5 1q37 -71 37 -158
q0 -82 -41 -159q-50 -75 -127 -75h-6q-85 0 -113 69q-10 31 -10 65q0 27 8 78v2h-1q-18 -49 -49 -102q-75 -108 -148 -108q-68 0 -92 54q-7 21 -7 44v4q0 104 89 244l19 31v1l-7 1q-33 0 -59 -40q-11 -17 -23 -68l-6 -48h-2q-20 42 -20 66q0 52 34 96q33 30 52 35q22 7 35 7
h12q44 -5 44 -36q0 -22 -54 -98q-32 -52 -53 -111q-16 -51 -16 -77v-7q0 -37 33 -47q7 -2 16 -3q40 0 97 58q59 59 136 339z" />
    <glyph glyph-name="z" unicode="z" horiz-adv-x="1211" 
d="M529 484h20q118 0 158 -155h4q68 140 222 140q161 0 222 -151q12 -39 12 -66v-41q0 -114 -143 -210q-30 -11 -55 -11h-28q-50 0 -115 74h8q69 -15 95 -15h16q137 0 163 181v18q-24 170 -167 170h-8q-161 0 -214 -185q-46 -162 -131 -217q-31 -22 -39 -22v18q0 24 63 107
q48 86 48 170v7q0 99 -84 136q-22 4 -31 4q-71 0 -100 -70q-19 -58 -35 -195h-8q-38 158 -115 158h-4q-79 -22 -79 -133q0 -83 95 -184v-4q-40 -7 -80 -7h-4q-120 0 -150 111l-4 33q0 75 79 214v3h-8q-32 0 -71 -129v-7h-8q-8 26 -8 44v8q0 85 95 132h40q5 0 20 -18v-11
q0 -20 -80 -177q-8 -35 -8 -55q19 -107 100 -107q-52 64 -52 140q5 158 111 206h24q53 0 91 -63h4q0 80 63 137q33 22 76 22z" />
    <glyph glyph-name="braceleft" unicode="{" horiz-adv-x="654" 
d="M754 487h42q165 0 225 -152q5 -27 5 -43v-47q0 -143 -170 -222q-32 -11 -83 -15q-100 0 -143 89h5q79 -31 133 -31q126 0 194 140q9 30 9 55v4q0 136 -148 164q-6 3 -32 3h-4q-166 0 -166 -167q0 -105 -46 -187q-69 -78 -198 -78h-42q-174 0 -226 144q-4 27 -4 43v12
q0 99 55 175h-4q-32 0 -65 -97l-14 -55h-9q-14 0 -23 35v39q26 133 129 133h14q34 0 73 -24q-87 -107 -87 -202v-28q0 -91 124 -124q46 -4 69 -4h5q184 0 184 226q0 149 143 206q32 8 55 8zM406 209q67 -40 108 -116q64 -133 64 -192q-3 -44 -12 -44q-74 252 -208 328l-4 8
q26 16 52 16z" />
    <glyph glyph-name="bar" unicode="|" horiz-adv-x="654" 
d="M503 624h7q40 0 58 -119q29 11 42 11h4q24 0 27 -35v-2q-2 -37 -2 -59v-6l1 -2q-1 0 -1 -1q-28 10 -28 53q0 5 -2 15h-6q-6 0 -30 -17v-1q7 -83 7 -137q0 -142 -51 -234q-67 -90 -194 -90q-125 0 -185 69q-47 60 -47 136q0 104 54 188v1q-53 0 -82 -158q-1 -5 -3 -5
q-20 12 -24 29q-3 17 -3 29v9q0 63 44 115q41 36 84 36q31 0 75 -22v-1q-85 -118 -85 -223v-4q0 -113 110 -144q28 -10 58 -10h13q81 0 137 69q53 80 53 243q-1 14 -2 95q-4 -2 -17 -2h-3q-42 0 -64 33q-7 12 -7 31q0 53 38 98q14 12 24 12zM487 514v-3q0 -18 15 -18h17
q0 28 -14 62l-2 1h-1q-15 -15 -15 -42z" />
    <glyph glyph-name="braceright" unicode="}" horiz-adv-x="820" 
d="M972 449h32q131 0 190 -130q12 -36 12 -73v-32q0 -111 -129 -182q-50 -11 -69 -11h-16q-66 0 -113 56v4h5q65 -14 100 -14q121 0 162 122q8 46 8 60q0 114 -129 151l-49 3q-126 0 -185 -129q-49 -239 -81 -239q0 -17 -84 -35h-21q-21 0 -28 14q73 123 73 203
q0 169 -226 169h-8q-182 0 -182 -158v-18q0 -104 73 -196l-8 -3h-32q-190 0 -190 157q0 46 45 155h-4q-21 0 -41 -81q-32 13 -32 35v18q0 61 105 84q33 -5 44 -14q-56 -129 -56 -183q0 -96 76 -119q-40 69 -40 133q0 235 226 235h60q172 0 234 -122q12 -38 12 -63v-36
q0 -70 -44 -157q64 46 64 140q25 141 77 186q82 70 169 70zM383 273q67 -40 108 -116q64 -133 64 -192q-3 -44 -12 -44q-74 252 -208 328l-4 8q26 16 52 16z" />
    <glyph glyph-name="asciitilde" unicode="~" horiz-adv-x="643" 
d="M768 449q104 0 183 -74q51 -52 51 -119q0 -85 -70 -178q-33 -38 -99 -74q-53 -28 -125 -45q-9 -2 -30 -8l-1 2q42 36 74 53q181 110 181 253v2q0 101 -94 136q-34 12 -68 12h-13q-123 0 -173 -128q-20 -43 -49 -118h-2q-36 71 -43 83q-16 30 -56 46q-16 6 -31 6
q-43 0 -72 -39q-13 -27 -13 -73q-3 -8 -7 -8h-5q-12 0 -18 62q0 64 71 101q25 9 47 9h9q72 0 115 -72h2q30 73 60 106q37 42 117 59q30 6 59 6zM197 379q58 0 77 -36q2 0 2 -3q-125 -131 -144 -173q-25 -43 -25 -78q0 -51 57 -70q26 -7 57 -7q55 0 55 11q16 70 50 98
q35 34 79 34q50 0 68 -24q5 -9 5 -19q0 -47 -78 -104q-27 -18 -79 -25q0 -121 50 -173q38 -48 98 -83q67 -38 189 -79v-2q-1 0 -3 -1q-28 -1 -44 -1h-5q-60 0 -173 51q-106 56 -144 152q-18 50 -18 119v11q-36 -5 -74 -5q-81 0 -129 47q-18 21 -18 53v1q0 71 83 184
q19 21 66 70q-7 2 -31 4q-63 0 -83 -84q-5 -16 -10 -52q-4 -5 -8 -5h-1q-17 0 -21 40q0 55 39 107q39 42 113 42zM326 24h1q36 6 57 16q35 16 50 55q1 3 1 7v4q0 11 -21 12h-5q-41 0 -68 -44q-15 -35 -15 -50z" />
    <glyph glyph-name="exclamdown" unicode="&#xa1;" 
d="M-80 -482h4q-22 -110 -75 -153q-109 -67 -109 -146q0 -28 43 -35q81 0 132 275h9l5 -29v-65q0 -162 -113 -234q-9 -6 -19 -6h-38q-60 15 -71 88v35q0 87 156 170z" />
    <glyph glyph-name="cent" unicode="&#xa2;" 
d="M-86 -527h8q8 -1 8 -8q0 -8 -60 -48q-16 -18 -16 -36q4 -12 8 -12q61 20 72 20h20q56 0 56 -56v-20q0 -92 -76 -180h-4q0 10 40 148v24q0 36 -36 36q-13 0 -88 -12h-8q-20 10 -20 32v20q0 59 96 92z" />
    <glyph glyph-name="yen" unicode="&#xa5;" 
d="M-708 -92q19 0 57 -24v-4q-57 -145 -57 -234v-28q0 -43 19 -84h4v4l-4 56q0 232 107 306q25 8 35 8h23q43 0 88 -36q0 -9 -69 -135q-31 -98 -31 -155v-16q5 -51 39 -51q85 0 153 270h8q24 -3 46 -24l-8 -147q0 -95 54 -95q50 0 88 91q7 66 7 79q0 100 -46 183
q19 24 62 24q84 -20 84 -131v-68q-11 -211 -73 -234h-4v4q35 137 35 218v40q0 94 -42 119v-4q27 -63 27 -155q0 -162 -104 -222l-38 -4q-70 0 -92 75l-8 56q4 22 4 44v8h-4q-61 -179 -149 -179q-59 0 -81 71v64q0 90 73 254h-19q-4 0 -4 4q-65 0 -92 -87q-23 -51 -23 -167
q0 -38 11 -131q-3 0 -3 -4q-71 0 -104 75q-11 34 -11 72q0 124 46 234h-16q-31 0 -57 -147h-4q-23 17 -23 48v40q0 75 84 119h12z" />
    <glyph glyph-name="copyright" unicode="&#xa9;" horiz-adv-x="589" 
d="M110 -291l299 766q46 118 80 140l9 -6q11 -7 -63 -208l-236 -603q-95 -244 -112 -232l-12 7q-12 8 35 136z" />
    <glyph glyph-name="logicalnot" unicode="&#xac;" 
d="M8 686q-38 0 -38 50t38 50q36 0 36 -50t-36 -50zM-14 70l-3 411q-1 64 22 82l9 1q13 0 17 -107l3 -324q1 -130 -18 -131h-13q-14 0 -17 68z" />
    <glyph glyph-name="registered" unicode="&#xae;" 
d="M-345 -97q100 0 137 -122q5 -24 5 -44v-5q0 -88 -82 -227q45 12 69 41q30 40 43 109q5 24 5 46q0 80 -55 158q-1 1 -13 18v1q43 8 61 8q70 0 109 -57q17 -34 17 -81v-11q0 -132 -68 -239q-23 -29 -56 -41v1q80 117 80 260v9q0 88 -56 117q-15 5 -26 5q50 -68 50 -158
q0 -78 -48 -153q-29 -41 -77 -56q-24 -6 -38 -6q-24 0 -47 19v1q91 146 91 240v6q0 60 -44 100q-24 19 -47 19h-12q-35 0 -64 -32q-19 -29 -23 -58q-9 -34 -22 -141h-1q-36 108 -60 123q-22 17 -41 17h-1q-39 0 -60 -61q-6 -14 -9 -54q0 -78 82 -161q-40 -8 -70 -8
q-70 0 -109 50q-21 35 -21 75q0 66 57 163q8 15 10 25h-1q-34 0 -66 -101q-3 -14 -4 -21h-2q-9 29 -9 41v5q0 39 40 90q27 26 54 26h7q29 0 29 -24q0 -25 -50 -114q-24 -51 -24 -88q0 -45 39 -77q27 -17 48 -17q-44 51 -44 123v6q0 101 68 159q19 12 35 12h7q42 0 79 -55h1
q14 84 39 105q31 34 88 34z" />
    <glyph glyph-name="macron" unicode="&#xaf;" 
d="M-490 -97h32q94 0 94 -93q-29 -188 -29 -207v-4q11 -81 97 -81q89 0 133 89q11 38 11 69v28q0 56 -47 183v4l54 12q86 0 101 -126v-48q-16 -272 -86 -272q0 4 -4 4q50 127 50 264q0 129 -61 129v-4q36 -70 36 -178q0 -144 -126 -195q-35 -8 -64 -8h-8q-101 0 -136 106v16
q32 195 32 215q0 52 -68 52h-7q-77 0 -105 -101q-18 -67 -18 -142v-49q0 -32 18 -105h-3q-112 39 -112 81q-21 33 -21 102t43 162h-4q-32 -22 -46 -94h-4q-5 0 -18 21v36q0 72 104 106h7q29 -8 29 -17v-8q-64 -115 -64 -198v-37q0 -58 28 -77h4l-4 41v40q0 203 97 268
q26 16 65 16z" />
    <glyph glyph-name="plusminus" unicode="&#xb1;" horiz-adv-x="87" 
d="M-33 -91l32 7q69 -1 82 -57l7 -32q6 -30 -17 -91l4 -16q32 -144 -54 -237q-17 -11 -24 -12l-15 -3q-36 1 -42 27l-3 16q-6 29 101 225l4 11l-5 22q-8 35 1 37l3 1q6 1 12 -14h3q1 36 -1 44q-10 45 -78 40q-22 -8 -47 -20q0 3 -3 2q8 43 40 50zM-17 -478h3q53 12 63 152
l-2 6q-72 -123 -64 -158z" />
    <glyph glyph-name="twosuperior" unicode="&#xb2;" horiz-adv-x="106" 
d="M28 -116h47q37 -20 37 -50v-23q0 -31 -70 -96q72 0 89 -101l-9 -36q23 -12 23 -37q-5 0 -5 -4l-28 14q-52 -101 -103 -101h-28q-37 0 -37 41q0 75 131 101q5 8 5 18v18q0 55 -131 55v5q112 96 112 132q0 23 -28 23q-94 -39 -94 -78h-9v28q37 91 98 91zM-19 -495
q5 -18 19 -18q66 37 66 68h-14q-71 -13 -71 -50z" />
    <glyph glyph-name="mu" unicode="&#xb5;" 
d="M-403 1141h5q27 -110 27 -127q-6 -18 -25 -18h-2q-27 3 -27 20v9q22 96 22 116zM-271 1013q58 -11 58 -56v-20q0 -79 -100 -114q-32 -10 -63 -10h-35q-158 0 -185 105v27q18 66 61 66h17q49 -9 49 -47q-3 -13 -3 -19h-2q-24 34 -49 34q-39 -8 -39 -37v-9q0 -68 115 -88
q21 -3 36 -3h10q108 0 144 61q8 22 8 30v9q0 32 -30 32q-19 0 -53 -15v3q0 35 56 51h5zM-396 986h10q47 0 54 -58v-10q0 -42 -42 -54h-10v3q30 24 30 48v5q0 37 -42 37h-5q-39 0 -39 -44q0 -12 20 -46l-5 -3q-42 21 -42 59q0 54 71 63zM-408 806h13q83 0 135 -79
q20 -38 20 -78v-4q0 -91 -57 -157q-20 -17 -51 -29v1q70 95 70 169v4q0 93 -79 125q-27 7 -46 7q-87 0 -112 -78q-4 -15 -4 -32q0 -50 53 -69h5q1 0 32 6q18 0 22 -25q0 -25 -34 -29h-7q-36 0 -85 34q-57 45 -72 92q-1 3 -1 7v6q0 12 18 28h1q10 -34 31 -57v1q-1 12 -1 13
q0 93 89 133q32 11 60 11z" />
    <glyph glyph-name="cedilla" unicode="&#xb8;" 
d="M-362 1133h8q44 -225 44 -258q-9 -37 -40 -37h-4q-44 6 -44 41v18q36 196 36 236zM-146 866q96 -18 96 -92v-32q0 -130 -164 -188q-52 -16 -104 -16h-56q-261 0 -304 172v44q29 108 100 108h28q80 -15 80 -76q-4 -22 -4 -32h-4q-39 56 -80 56q-64 -13 -64 -60v-16
q0 -110 188 -144q35 -4 60 -4h16q176 0 236 100q12 36 12 48v16q0 52 -48 52q-32 0 -88 -24v4q0 57 92 84h8zM-350 822h16q77 0 88 -96v-16q0 -68 -68 -88h-16v4q48 40 48 80v8q0 60 -68 60h-8q-64 0 -64 -72q0 -19 32 -76l-8 -4q-68 33 -68 96q0 88 116 104z" />
    <glyph glyph-name="ordmasculine" unicode="&#xba;" 
d="M-398 1139h8q44 -225 44 -258q-9 -37 -40 -37h-4q-44 6 -44 41v18q36 196 36 236zM-182 872q96 -18 96 -92v-32q0 -130 -164 -188q-52 -16 -104 -16h-56q-261 0 -304 172v44q29 108 100 108h28q80 -15 80 -76q-4 -22 -4 -32h-4q-39 56 -80 56q-64 -13 -64 -60v-16
q0 -110 188 -144q35 -4 60 -4h16q176 0 236 100q12 36 12 48v16q0 52 -48 52q-32 0 -88 -24v4q0 57 92 84h8zM-386 828h16q77 0 88 -96v-16q0 -68 -68 -88h-16v4q48 40 48 80v8q0 60 -68 60h-8q-64 0 -64 -72q0 -19 32 -76l-8 -4q-68 33 -68 96q0 88 116 104z" />
    <glyph glyph-name="guillemotright" unicode="&#xbb;" horiz-adv-x="623" 
d="M410 449h37q131 -18 131 -126v-46q0 -174 -139 -277h-4v3q86 132 86 252v46q-15 108 -91 108h-12q66 -77 66 -169v-15q0 -151 -164 -200q-65 -13 -107 -13q-129 0 -205 71q-8 14 -8 28l8 3q94 -49 172 -49h17q4 0 4 -3l8 3h12q150 0 193 120q8 24 8 52v15q0 99 -90 182v6
q52 9 78 9zM260 -34h12q6 0 12 -12v-32q-14 -24 -20 -24h-4l4 40v4q-64 -31 -64 -68q4 -8 4 -12q71 20 76 20h20q56 -7 56 -56v-20q0 -93 -76 -180h-4q0 10 40 148v24q-5 36 -36 36h-4q-75 -12 -88 -12h-4q-20 10 -20 32v20q0 59 96 92z" />
    <glyph glyph-name="onequarter" unicode="&#xbc;" horiz-adv-x="900" 
d="M486 471h17q95 0 159 -72q39 -51 39 -125q0 -68 -38 -192q-4 -17 -4 -31v-2q0 -3 55 -10q18 -1 29 -1h16q78 0 185 31l1 -2v-10q0 -29 -162 -54q-24 -3 -50 -3h-5q-102 0 -118 21q-3 10 -3 12q0 10 23 70q30 93 30 152v2q0 115 -89 159q-36 15 -75 15q-95 0 -134 -81
q-15 -37 -15 -105v-2q0 -2 45 -17q109 -48 109 -125v-13q0 -39 -33 -61q-13 -7 -27 -7q-78 0 -131 180q0 4 -34 7h-8q-20 -3 -20 -23v-6q0 -30 41 -95q15 -25 15 -35q0 -24 -45 -30q-11 -1 -19 -1q-55 0 -101 36q-23 25 -23 58q0 38 40 91q74 98 74 147q0 35 -34 43
q-4 1 -9 1h-2q-39 0 -76 -45q-25 -29 -25 -119q-3 -16 -12 -40h-2q-25 63 -25 96v6q0 88 87 136q29 14 57 14h6q53 0 75 -42q7 -20 7 -41q0 -52 -29 -104h1q5 1 14 1q7 0 35 -3v1q0 118 56 166q53 52 132 52zM356 194v-1q2 -20 27 -74q29 -50 57 -50h3q13 0 13 28
q0 65 -100 97zM203 191q-33 -49 -33 -71q0 -38 37 -53q10 -3 18 -3q10 0 12 7q-3 13 -27 59q-8 24 -8 41q0 6 2 19v1h-1z" />
    <glyph glyph-name="onehalf" unicode="&#xbd;" horiz-adv-x="745" 
d="M561 449h33q83 0 106 -139v-49q-24 -261 -119 -261v4q66 145 66 261q0 102 -74 131h-16q49 -91 49 -180q0 -162 -168 -204q-33 -8 -78 -8h-8q-148 0 -192 82q-9 26 -9 36v21q0 66 91 98v8q-91 12 -91 90v8q-61 -52 -61 -171q0 -29 16 -94q-61 27 -61 110v41
q0 147 151 200q41 12 99 12q61 0 61 -49q4 0 4 -4q-4 0 -4 -4l-49 4h-29q-70 0 -82 -49q19 -74 181 -74h28q8 -1 8 -8v-16q0 -9 -118 -33q-82 -34 -82 -85v-9q13 -65 110 -65h29q162 0 201 118q4 23 4 37v29q0 79 -78 196q41 16 82 16zM362 1139h8q44 -225 44 -258
q-9 -37 -40 -37h-4q-44 6 -44 41v18q36 196 36 236zM578 872q96 -18 96 -92v-32q0 -130 -164 -188q-52 -16 -104 -16h-56q-261 0 -304 172v44q29 108 100 108h28q80 -15 80 -76q-4 -22 -4 -32h-4q-39 56 -80 56q-64 -13 -64 -60v-16q0 -110 188 -144q35 -4 60 -4h16
q176 0 236 100q12 36 12 48v16q0 52 -48 52q-32 0 -88 -24v4q0 57 92 84h8zM374 828h16q77 0 88 -96v-16q0 -68 -68 -88h-16v4q48 40 48 80v8q0 60 -68 60h-8q-64 0 -64 -72q0 -19 32 -76l-8 -4q-68 33 -68 96q0 88 116 104z" />
    <glyph glyph-name="threequarters" unicode="&#xbe;" 
 />
    <glyph glyph-name="questiondown" unicode="&#xbf;" horiz-adv-x="148" 
 />
    <glyph glyph-name="Agrave" unicode="&#xc0;" horiz-adv-x="4" 
d="M-278 -88h19q147 0 201 -135q14 -43 14 -86v-15q0 -108 -90 -195q-24 -18 -45 -18h-24q-2 0 -2 2q50 52 73 89q28 55 28 129v13q0 82 -76 143q-39 26 -88 26q-125 0 -125 -126q0 -20 15 -133v-7q0 -91 -122 -123q-29 -6 -52 -6h-17q-73 0 -127 38q-32 25 -32 75
q0 80 58 163q29 37 58 63h-1q-58 0 -120 -132l-11 -24h-1q-11 8 -11 18v2q0 44 34 115q29 45 83 61q25 7 43 7h8q31 0 64 -26q-97 -87 -124 -136q-28 -51 -28 -96q0 -68 69 -86q22 -4 37 -4h9q60 0 103 37q22 24 22 70l-9 127v18q0 102 93 140q37 12 74 12z" />
    <glyph glyph-name="Aacute" unicode="&#xc1;" horiz-adv-x="939" 
d="M735 476h35q124 -20 124 -135v-52q0 -183 -132 -289v3q78 147 78 266v49q-14 115 -86 115h-11q62 -84 62 -180v-13q0 -158 -147 -214q-53 -13 -97 -13h-28q-107 0 -158 72v23h-8q-58 -98 -155 -98h-20q-87 0 -143 115q-4 12 -4 26v23q0 39 43 89h7v-30l-11 -66
q0 -82 101 -118h11q96 0 148 115q0 17 3 30q0 44 -85 59h-74q-7 0 -7 6v7q128 97 128 118q7 21 7 26q0 20 -27 20q-58 0 -116 -69l-4 -13h-8v23q26 92 136 92h23q38 0 47 -49v-14q0 -37 -89 -114q116 -19 116 -92q0 -30 -19 -76q57 -52 158 -52h8q152 0 194 118q12 30 12 69
v6q0 116 -89 204q0 6 77 13zM604 233q67 -40 108 -116q64 -133 64 -192q-3 -44 -12 -44q-74 252 -208 328l-4 8q26 16 52 16z" />
    <glyph glyph-name="Acircumflex" unicode="&#xc2;" 
d="M-100 60h2q8 -45 8 -70q0 -56 -59 -176l-7 -15q46 -35 72 -35h3q32 0 71 31h1q0 -16 -12 -38q-32 -32 -73 -32q-35 0 -81 31h-2q-45 -104 -113 -201q-16 -20 -18 -27q0 -5 2 -41q0 -107 -83 -159q-30 -17 -54 -17q-24 2 -24 16v2q0 21 46 97q53 90 55 103q-6 20 -60 53
q-67 40 -113 73q-65 55 -65 122v5q0 73 61 111q51 27 108 27h5q104 0 243 -99q42 91 87 239zM-547 -208v-8q0 -38 46 -90q40 -33 95 -67q30 -18 70 -58q53 63 107 163l22 45q-104 80 -154 90q-31 11 -65 11q-96 0 -117 -64q-4 -10 -4 -22z" />
    <glyph glyph-name="Atilde" unicode="&#xc3;" 
d="M-74 59h2q12 -42 15 -65q4 -53 -44 -172l-6 -15q49 -28 75 -26h3q32 3 68 36h1q1 -15 -9 -37q-28 -33 -69 -37q-35 -4 -84 22h-2q-35 -102 -94 -201q-15 -20 -16 -27q0 -5 5 -39q10 -101 -68 -157q-29 -19 -52 -21q-24 0 -25 12l-1 3q-2 19 37 96q45 89 47 101
q-8 20 -66 45q-69 31 -119 59q-69 45 -75 109v5q-7 68 51 110q48 30 105 35l5 1q104 9 251 -71q33 90 65 234zM-496 -236l1 -7q3 -36 54 -81q43 -28 100 -55q32 -13 76 -48q47 65 91 164l19 45q-111 66 -161 70q-33 7 -67 4q-95 -9 -111 -71q-3 -10 -2 -21z" />
    <glyph glyph-name="Adieresis" unicode="&#xc4;" 
d="M-77 -491h2q12 -23 15 -36q4 -29 -44 -96l-6 -8q49 -16 75 -14h3q32 2 68 19l1 1q1 -9 -9 -21q-28 -18 -69 -21q-35 -1 -84 13h-2q-35 -57 -94 -112q-15 -11 -16 -15q0 -2 5 -21q10 -56 -68 -87q-29 -11 -52 -12q-24 0 -25 7l-1 1q-2 11 37 53q45 50 47 57q-8 10 -66 25
q-69 17 -119 32q-69 25 -75 61v2q-7 38 51 61q48 17 105 20h5q104 6 251 -39q33 50 65 130zM-490 -659v-4q4 -18 50 -41q40 -14 92 -28q29 -7 69 -24q43 32 84 83l17 23q-101 33 -148 35q-29 4 -60 2q-88 -4 -102 -36q-3 -5 -2 -10z" />
    <glyph glyph-name="Aring" unicode="&#xc5;" horiz-adv-x="3" 
d="M-292 -94h36q74 0 111 -97q8 -44 8 -64q0 -90 -52 -228h12q76 0 91 176q0 102 -59 176l8 3h24q71 -48 71 -168v-37q0 -185 -123 -210h-31q-68 4 -68 15q79 171 79 281v22q-10 94 -63 94h-24q-61 0 -99 -143q-13 -7 -39 -11q-58 127 -103 127h-8q-83 -11 -83 -93v-11
q0 -42 27 -109q-6 -4 -47 -7q-123 25 -123 101v33q0 74 95 113q13 7 24 7h4q-72 -71 -72 -131v-4q0 -48 56 -63q-12 30 -12 63q0 101 95 135q18 8 40 8q76 0 115 -94l39 67q0 24 71 49z" />
    <glyph glyph-name="AE" unicode="&#xc6;" 
d="M-331 -97h1q80 0 112 -81q10 -31 10 -73v-13q0 -77 -45 -213h8q43 0 63 56q23 50 23 113v5q0 85 -47 160q-5 8 -5 10q35 12 61 12q54 0 84 -57q17 -38 17 -93v-13q0 -81 -36 -194q-27 -64 -46 -64q0 -1 -7 -4l-1 2q47 147 47 241q0 74 -29 115q-19 21 -28 21
q30 -62 30 -150q0 -80 -31 -156q-34 -61 -98 -61q-20 0 -72 10v1q61 157 64 204q9 42 9 80q0 91 -57 106q-5 1 -10 1h-8q-47 0 -73 -65q-13 -36 -25 -78l-37 -6q-41 99 -62 110q-17 13 -38 13h-1q-31 0 -57 -34q-18 -30 -18 -70q0 -29 26 -104q-12 -5 -41 -5h-2
q-63 0 -101 65q-10 23 -10 46q0 47 32 90q30 29 64 39q16 8 20 8q-70 -71 -70 -128v-1q0 -46 45 -68q6 -1 9 -1q-12 35 -12 60v11q0 52 43 99q40 31 77 31q50 0 85 -48q11 -18 24 -46h1q35 117 112 117z" />
    <glyph glyph-name="Ccedilla" unicode="&#xc7;" 
d="M-464 -34h5q46 -4 27 -194q-26 -250 -194 -279l-19 2q-92 8 -99 143l3 30q13 43 47 40l4 -9l-4 -35q-10 -103 65 -110q126 -10 159 313l5 47zM-423 -72q-1 -4 3 -4l-5 -24l-5 -80q-7 -119 64 -165q35 -11 41 -12q65 -4 78 62l1 14q5 78 -112 134l1 10q68 33 118 30h4
q157 -10 194 -206q7 -21 3 -76l-6 -94q-6 -107 -40 -121q1 286 -29 333q-41 93 -118 98h-4q50 -62 47 -107q-7 -109 -91 -132q-23 -3 -37 -2l-13 1q-110 6 -144 146q-7 73 -5 109q11 89 55 86z" />
    <glyph glyph-name="Egrave" unicode="&#xc8;" 
d="M-516 -103h32q86 0 118 -93q10 -42 39 -221q19 -60 57 -83q45 -11 54 -11q112 0 112 228v7q0 76 -25 170l6 3q57 -30 57 -93q10 -28 10 -80v-45q0 -185 -96 -242q-35 -10 -51 -10h-32q-131 0 -156 221q-24 166 -42 166q-22 28 -73 28q-115 0 -144 -177v-51
q0 -105 64 -125h16q54 0 54 125q0 42 -6 103h3q45 -34 45 -90v-38q0 -155 -99 -155h-16q-109 23 -109 169v52q0 175 131 232q21 10 51 10z" />
    <glyph glyph-name="Eacute" unicode="&#xc9;" 
d="M-157 36q90 0 115 -274v-62q0 -232 -219 -320q-75 -21 -137 -21h-60q-194 0 -317 165q-22 52 -22 88v52q0 183 186 269h11v-6q-142 -128 -142 -273q0 -155 175 -207q82 -26 137 -26h27q222 0 284 207q17 102 17 144q0 85 -60 264h5z" />
    <glyph glyph-name="Ecircumflex" unicode="&#xca;" 
d="M-157 36q90 0 115 -274v-62q0 -232 -219 -320q-75 -21 -137 -21h-60q-194 0 -317 165q-22 52 -22 88v52q0 183 186 269h11v-6q-142 -128 -142 -273q0 -155 175 -207q82 -26 137 -26h27q222 0 284 207q17 102 17 144q0 85 -60 264h5zM-317 -395q67 -40 108 -116
q64 -133 64 -192q-3 -44 -12 -44q-74 252 -208 328l-4 8q26 16 52 16z" />
    <glyph glyph-name="Edieresis" unicode="&#xcb;" horiz-adv-x="153" 
d="M-69 36h4q92 0 132 -302q4 -12 4 -61v-70q0 -227 -181 -367q-134 -78 -251 -78h-54q-174 0 -341 131q-95 102 -95 228v37q0 223 206 343h20v-4q-172 -164 -172 -335v-8q0 -200 177 -282q121 -53 246 -53q188 0 309 151q82 125 82 282v33q0 171 -86 355z" />
    <glyph glyph-name="Igrave" unicode="&#xcc;" horiz-adv-x="105" 
d="M-69 36h4q92 0 132 -302q4 -12 4 -61v-70q0 -227 -181 -367q-134 -78 -251 -78h-54q-174 0 -341 131q-95 102 -95 228v37q0 223 206 343h20v-4q-172 -164 -172 -335v-8q0 -200 177 -282q121 -53 246 -53q188 0 309 151q82 125 82 282v33q0 171 -86 355zM-246 -614
q67 -40 108 -116q64 -133 64 -192q-3 -44 -12 -44q-74 252 -208 328l-4 8q26 16 52 16z" />
    <glyph glyph-name="Iacute" unicode="&#xcd;" horiz-adv-x="159" 
d="M-74 36h4q96 0 137 -302q4 -12 4 -61v-70q0 -227 -188 -367q-140 -78 -261 -78h-56q-181 0 -355 131q-98 102 -98 228v37q0 223 214 343h21v-4q-179 -164 -179 -335v-8q0 -200 184 -282q126 -53 256 -53q195 0 321 151q85 125 85 282v33q0 171 -89 355z" />
    <glyph glyph-name="Icircumflex" unicode="&#xce;" horiz-adv-x="7" 
d="M-157 36q90 0 115 -274v-62q0 -232 -219 -320q-75 -21 -137 -21h-60q-194 0 -317 165q-22 52 -22 88v52q0 183 186 269h11v-6q-142 -128 -142 -273q0 -155 175 -207q82 -26 137 -26h27q222 0 284 207q17 102 17 144q0 85 -60 264h5z" />
    <glyph glyph-name="Idieresis" unicode="&#xcf;" horiz-adv-x="745" 
d="M544 449h46q91 0 110 -135v-32q0 -162 -91 -270q-7 -4 -16 -4h-3q57 157 57 261v9q-1 91 -61 122q-12 0 -27 4q53 -81 53 -179v-5q0 -154 -163 -212q-46 -8 -73 -8h-49q-184 0 -232 131q-4 22 -4 36v9q0 96 57 195v5h-4q-46 -40 -76 -156h-8q-15 7 -15 29v29
q28 167 141 167q61 -11 61 -37q-92 -125 -92 -237q0 -122 183 -122q155 0 210 110q7 37 7 53v4q0 115 -72 221v4q43 8 61 8zM365 -46h12q6 0 12 -12v-32q-14 -24 -20 -24h-4l4 40v4q-64 -31 -64 -68q4 -8 4 -12q71 20 76 20h20q56 -7 56 -56v-20q0 -93 -76 -180h-4
q0 10 40 148v24q-5 36 -36 36h-4q-75 -12 -88 -12h-4q-20 10 -20 32v20q0 59 96 92z" />
    <glyph glyph-name="Udieresis" unicode="&#xdc;" horiz-adv-x="157" 
d="M277 504h26q154 0 216 -157q9 -47 9 -75v-35q-35 -220 -221 -220h-9q-73 0 -121 67v4q75 -20 113 -20q151 0 182 189v19q0 116 -109 161q-22 12 -73 16q-144 0 -204 -145q-8 -40 -13 -75q5 -253 5 -353q0 -410 -156 -523q-83 -43 -139 -43h-34q-217 26 -217 189v47
q0 145 182 278q75 52 112 52h5l30 -8v-12q-260 -134 -260 -310v-28q0 -149 156 -149q150 0 208 157q56 121 56 734q19 97 78 165q88 75 178 75z" />
    <glyph glyph-name="Thorn" unicode="&#xde;" horiz-adv-x="1" 
d="M-458 -83h36q66 0 94 -54l8 -45q-31 -171 -31 -202v-12q0 -64 86 -74q7 -4 20 -4q158 17 158 164v9q0 73 -55 206h15q67 -10 83 -198v-41q0 -166 -193 -190h-31q-94 0 -134 95q-4 16 -4 29q0 18 35 210q0 62 -75 62h-4q-105 0 -130 -149q-8 -51 -8 -86v-54q0 -54 20 -111
l-8 -4q-122 41 -122 91q-15 9 -19 98q0 67 47 161h-4q-35 -22 -51 -95h-8q-16 7 -16 29v29q0 73 114 107h8q5 0 32 -12q-52 -112 -63 -153q-8 -38 -8 -61v-42q0 -56 35 -78l-4 29v70q0 162 87 251q44 25 90 25z" />
    <glyph glyph-name="germandbls" unicode="&#xdf;" 
d="M-323 -99q132 -12 132 -77q0 -50 -84 -60q-49 0 -126 71h-24q-180 -21 -180 -164q0 -160 288 -214l192 -17q23 6 48 6h60v-11q-88 -44 -150 -44h-90q-317 0 -414 219q-6 30 -6 50v44q0 143 276 197h78zM-347 -154q36 -44 72 -44q30 7 30 17v5q0 22 -90 22h-12z" />
    <glyph glyph-name="agrave" unicode="&#xe0;" 
d="M-343 -108q64 0 81 -49q2 -7 2 -13v-6q0 -48 -56 -99q-34 -24 -52 -24h-2q-16 0 -16 17q0 22 9 22q75 35 75 82v1q0 18 -19 26q-10 2 -18 2q-44 0 -135 -52q-55 -36 -91 -88q-39 -61 -39 -105v-13q0 -57 66 -88q44 -16 92 -16h1q97 0 185 73q45 47 51 81q2 0 2 8
q-9 12 -78 31v1q0 2 41 15q17 3 26 3h7q63 0 109 -46q36 -45 36 -102q0 -58 -27 -77q-15 -7 -24 -7q0 1 -1 1q7 48 7 74v6q0 58 -53 83v-1q8 -16 8 -18q-35 -68 -91 -122q-99 -80 -197 -80h-13q-124 0 -176 72q-31 44 -31 106q0 122 98 209q72 60 151 81q46 12 72 12z" />
    <glyph glyph-name="aacute" unicode="&#xe1;" 
d="M-375 -92q168 0 225 -81q45 -49 45 -123v-14q0 -112 -61 -201q-24 -29 -66 -29q0 -1 -2 -1v1q71 141 71 193q1 8 3 31q0 79 -34 111q-59 66 -194 66q-127 0 -163 -80q-18 -40 -18 -89v-12q0 -112 68 -203q0 -2 4 -7q-2 0 -2 -1q-21 -1 -32 -1h-14q-76 0 -129 40
q-45 47 -45 124q0 51 42 163v1q-17 -4 -31 -33q-6 -17 -11 -53q-35 9 -35 47q0 50 64 85q21 8 32 8h9q19 0 41 -12q-54 -132 -54 -195q0 -83 60 -119q14 -5 18 -5q-42 73 -42 144q0 123 57 187q56 58 194 58z" />
    <glyph glyph-name="acircumflex" unicode="&#xe2;" 
d="M-487 -92q57 0 96 -38q4 -1 4 -3v-1l-45 -76q-60 -119 -60 -209v-4q1 -57 32 -65q4 -1 8 -1h5q31 0 80 65q33 52 75 201q3 9 4 9q43 -19 49 -23q-7 -92 -7 -149v-1q0 -76 25 -91q13 -6 25 -6q49 0 85 65q19 44 19 107q0 103 -49 190v1h8q1 0 1 -1q1 0 1 1q37 0 53 -45
q26 -60 26 -143q0 -94 -41 -173q-41 -59 -96 -59h-6q-60 0 -85 54q-13 31 -13 73v7q0 35 5 69v1h-1q-23 -73 -54 -122q-53 -78 -104 -78q-44 0 -70 37q-15 27 -15 72v12q0 92 55 220l24 45q-8 5 -31 7q-88 0 -112 -164q-5 -40 -5 -84v-3q0 -51 13 -135v-1l-2 -1
q-80 0 -108 80q-9 29 -9 67q0 118 46 233q-2 0 -10 1q-37 0 -60 -112q-6 -38 -8 -38q-25 22 -25 63q0 79 54 127q23 18 43 18h2q21 0 58 -27v-2q-62 -143 -62 -243q0 -82 30 -108v1q-5 44 -5 70q0 128 47 235q41 75 110 75z" />
    <glyph glyph-name="atilde" unicode="&#xe3;" 
d="M-297 -71q112 0 155 -125q7 -27 7 -50v-2q0 -85 -68 -201l-24 -40h2q60 17 80 50q17 19 35 70q15 49 15 85q0 81 -58 162l-22 26l2 1q49 0 73 -37q53 -66 53 -163q0 -75 -48 -153q-55 -72 -136 -72h-1q-27 0 -51 21q102 153 102 254v4q0 74 -65 116q-22 10 -44 10
q-85 0 -107 -100q-8 -34 -23 -143h-2q-36 108 -63 126q-26 21 -50 21q-44 0 -69 -64q-9 -32 -9 -56q0 -84 91 -169v-2q-45 -7 -70 -7h-13q-58 0 -104 37q-37 37 -37 93q0 71 67 178q7 11 9 20h-4q-36 0 -72 -106q-4 -13 -5 -21h-1q-3 0 -11 37v11q0 37 41 90q31 32 70 32
q35 0 35 -25q0 -28 -56 -120q-27 -54 -27 -92v-3q0 -50 52 -85q27 -11 45 -11v1q-49 53 -49 124v9q0 104 75 166q21 15 46 15q52 0 92 -58h2v1q13 75 37 103q39 42 103 42z" />
    <glyph glyph-name="adieresis" unicode="&#xe4;" 
d="M-251 -99h4q81 0 141 -48q59 -57 59 -132v-8q0 -93 -43 -181q-24 -47 -81 -80h-1v1q31 54 60 130q20 54 20 109q0 114 -66 147q-49 25 -105 25q-63 0 -99 -36q-40 -29 -40 -94q0 -46 15 -99q10 3 36 5q87 0 116 -61q6 -15 6 -30v0q0 -39 -27 -53q-11 -5 -26 -5h-15
q-51 0 -85 42q-10 14 -24 52q-37 -12 -104 -59q-56 -39 -83 -39h-10q-39 0 -77 41q-37 44 -37 110q0 96 95 150q37 16 70 16q22 0 63 -18v-1q-63 -6 -82 -12q-47 -14 -76 -62q-20 -38 -20 -69v-8q0 -45 33 -90q16 -18 40 -18q38 0 75 36q66 48 98 62q-23 72 -23 119
q0 114 120 149q36 9 73 9zM-373 -404q12 -32 25 -49q31 -29 55 -29h5q23 4 23 27v4q0 35 -42 48q-14 2 -31 3q-18 -1 -35 -4z" />
    <glyph glyph-name="aring" unicode="&#xe5;" 
d="M-236 -117h31q109 0 152 -134v-40q0 -133 -219 -275q0 3 -5 3q0 22 126 158q49 85 49 131q-17 117 -121 117h-4q-102 0 -121 -168l-5 -47h-4q-8 0 -40 77q-33 51 -85 51q-81 -16 -81 -104q0 -71 98 -154q-22 -6 -85 -10q-101 0 -143 67q-13 16 -13 50v10q0 54 76 164v3
h-5q-33 0 -76 -110h-4q-9 13 -9 37v13q34 104 121 104q22 0 36 -17v-13q0 -14 -81 -144l-9 -44q22 -84 99 -84q-50 49 -50 118q0 115 112 164h18q56 0 94 -47h9q19 124 139 124z" />
    <glyph glyph-name="egrave" unicode="&#xe8;" horiz-adv-x="509" 
d="M379 501q44 0 58 -97h1q29 10 38 10h8q25 -4 25 -29v-1q-2 -32 -2 -48l1 -6l-2 -1q-23 10 -23 26q-5 29 -7 29h-2q-8 0 -31 -14q7 -66 7 -110q0 -113 -50 -191q-39 -50 -113 -69q-41 -10 -76 -10q-88 0 -159 36q-49 28 -49 61q-1 0 -3 19h1q83 -54 131 -59q22 -5 60 -5h2
q113 0 169 61q42 67 42 182q-2 59 -2 77q-8 -1 -17 -1h-1q-44 0 -65 29q-5 10 -5 23q0 35 29 71q18 17 35 17zM360 412v-4q1 -13 16 -13h15v0q-8 50 -16 50h-1q-14 -11 -14 -33z" />
    <glyph glyph-name="eacute" unicode="&#xe9;" 
d="M-324 -80h11q40 -6 40 -30h-3q-129 -13 -228 -84q-82 -75 -82 -142v-6q0 -71 128 -90h28q122 0 216 87q26 31 26 51q-30 12 -74 12q-69 0 -193 -75h-3q0 48 105 111q53 21 97 21q151 0 205 -105q11 -28 11 -51v-30q-21 -160 -82 -160h-15q43 94 43 105q8 22 8 61v9
q0 63 -65 90v-3l3 -18q0 -44 -111 -124q-88 -51 -165 -51h-17q-169 0 -199 121q-3 4 -3 21v27q0 146 202 226q69 27 117 27z" />
    <glyph glyph-name="ecircumflex" unicode="&#xea;" horiz-adv-x="285" 
d="M-21 470h4q166 -10 210 -87q32 -60 26 -166l-5 -89q-14 -259 -95 -763l-9 -3q-22 1 -20 36v4l63 737q15 258 -94 264l-1 -4q62 -219 49 -457l-5 -98q-22 -387 -137 -474q-92 -61 -169 -57l-44 3q-142 8 -193 148q-7 37 -6 59l3 47q9 169 258 298q26 11 44 10
q30 -11 30 -18q-253 -129 -262 -294l-1 -12q0 -4 -5 -3l4 -9v-15q-8 -128 131 -153l18 -1q157 -9 219 160q38 121 46 276l6 105q19 328 -65 556z" />
    <glyph glyph-name="edieresis" unicode="&#xeb;" horiz-adv-x="262" 
d="M174 -168l36 7q79 -1 93 -57l8 -32q8 -30 -18 -91l4 -16q36 -144 -61 -237q-20 -11 -28 -12l-17 -3q-41 1 -48 27l-4 16q-7 29 116 225l4 11l-5 22q-9 35 1 37l3 1q7 1 14 -14h3q1 36 0 44q-12 45 -90 40q-25 -8 -53 -20q-1 3 -4 2q9 43 46 50zM192 -555h3q61 12 72 152
l-2 6q-82 -123 -73 -158zM-21 470h4q166 -10 210 -87q32 -60 26 -166l-5 -89q-14 -259 -95 -763l-9 -3q-22 1 -20 36v4l63 737q15 258 -94 264l-1 -4q62 -219 49 -457l-5 -98q-22 -387 -137 -474q-92 -61 -169 -57l-44 3q-142 8 -193 148q-7 37 -6 59l3 47q9 169 258 298
q26 11 44 10q30 -11 30 -18q-253 -129 -262 -294l-1 -12q0 -4 -5 -3l4 -9v-15q-8 -128 131 -153l18 -1q157 -9 219 160q38 121 46 276l6 105q19 328 -65 556z" />
    <glyph glyph-name="igrave" unicode="&#xec;" horiz-adv-x="266" 
d="M239 -183h47q37 -20 37 -50v-23q0 -31 -70 -96q72 0 89 -101l-9 -36q23 -12 23 -37q-5 0 -5 -4l-28 14q-52 -101 -103 -101h-28q-37 0 -37 41q0 75 131 101q5 8 5 18v18q0 55 -131 55v5q112 96 112 132q0 23 -28 23q-94 -39 -94 -78h-9v28q37 91 98 91zM192 -562
q5 -18 19 -18q66 37 66 68h-14q-71 -13 -71 -50zM-21 470h4q166 -10 210 -87q32 -60 26 -166l-5 -89q-14 -259 -95 -763l-9 -3q-22 1 -20 36v4l63 737q15 258 -94 264l-1 -4q62 -219 49 -457l-5 -98q-22 -387 -137 -474q-92 -61 -169 -57l-44 3q-142 8 -193 148q-7 37 -6 59
l3 47q9 169 258 298q26 11 44 10q30 -11 30 -18q-253 -129 -262 -294l-1 -12q0 -4 -5 -3l4 -9v-15q-8 -128 131 -153l18 -1q157 -9 219 160q38 121 46 276l6 105q19 328 -65 556z" />
    <glyph glyph-name="iacute" unicode="&#xed;" horiz-adv-x="242" 
d="M2 440h45q99 -12 99 -97q8 -26 8 -102v-102q-16 -739 -86 -739h-8q53 480 53 812q0 170 -45 170v-5q16 -43 16 -151v-87q0 -795 -156 -938q-73 -58 -143 -58h-29q-123 25 -123 117v29q0 110 189 131h12q70 -5 70 -24q0 -10 -115 -25q-103 -31 -103 -107q0 -53 66 -63h29
q159 0 213 263q45 277 45 714q0 204 -45 252q1 10 8 10z" />
    <glyph glyph-name="icircumflex" unicode="&#xee;" horiz-adv-x="272" 
d="M2 440h45q99 -12 99 -97q8 -26 8 -102v-102q-16 -739 -86 -739h-8q53 480 53 812q0 170 -45 170v-5q16 -43 16 -151v-87q0 -795 -156 -938q-73 -58 -143 -58h-29q-123 25 -123 117v29q0 110 189 131h12q70 -5 70 -24q0 -10 -115 -25q-103 -31 -103 -107q0 -53 66 -63h29
q159 0 213 263q45 277 45 714q0 204 -45 252q1 10 8 10zM127 -319l32 7q69 -1 82 -57l7 -32q6 -30 -17 -91l4 -16q32 -144 -54 -237q-17 -11 -24 -12l-15 -3q-36 1 -42 27l-3 16q-6 29 101 225l4 11l-5 22q-8 35 1 37l3 1q6 1 12 -14h3q1 36 -1 44q-10 45 -78 40
q-22 -8 -47 -20q0 3 -3 2q8 43 40 50zM143 -706h3q53 12 63 152l-2 6q-72 -123 -64 -158z" />
    <glyph glyph-name="idieresis" unicode="&#xef;" horiz-adv-x="277" 
d="M2 440h45q99 -12 99 -97q8 -26 8 -102v-102q-16 -739 -86 -739h-8q53 480 53 812q0 170 -45 170v-5q16 -43 16 -151v-87q0 -795 -156 -938q-73 -58 -143 -58h-29q-123 25 -123 117v29q0 110 189 131h12q70 -5 70 -24q0 -10 -115 -25q-103 -31 -103 -107q0 -53 66 -63h29
q159 0 213 263q45 277 45 714q0 204 -45 252q1 10 8 10zM191 -310h47q37 -20 37 -50v-23q0 -31 -70 -96q72 0 89 -101l-9 -36q23 -12 23 -37q-5 0 -5 -4l-28 14q-52 -101 -103 -101h-28q-37 0 -37 41q0 75 131 101q5 8 5 18v18q0 55 -131 55v5q112 96 112 132q0 23 -28 23
q-94 -39 -94 -78h-9v28q37 91 98 91zM144 -689q5 -18 19 -18q66 37 66 68h-14q-71 -13 -71 -50z" />
    <glyph glyph-name="eth" unicode="&#xf0;" horiz-adv-x="229" 
d="M-333 -705q-296 -97 -434 -0.5t-126 314.5q4 89 38 305l11 -3q-21 -190 -24 -254q-12 -221 120 -297t419 13zM2 440h45q99 -12 99 -97q8 -26 8 -102v-102q-16 -739 -86 -739h-8q53 480 53 812q0 170 -45 170v-5q16 -43 16 -151v-87q0 -795 -156 -938q-73 -58 -143 -58
h-29q-123 25 -123 117v29q0 110 189 131h12q70 -5 70 -24q0 -10 -115 -25q-103 -31 -103 -107q0 -53 66 -63h29q159 0 213 263q45 277 45 714q0 204 -45 252q1 10 8 10z" />
    <glyph glyph-name="ograve" unicode="&#xf2;" horiz-adv-x="901" 
d="M647 504q139 0 194 -135q15 -41 15 -83q0 -126 -132 -353l-86 -151q63 -40 98 -40q37 0 87 31h1v0q-10 -32 -32 -45q-34 -19 -67 -19h-10q-43 0 -99 32h-2q-70 -122 -148 -225l-1 -3q3 -43 3 -44q0 -97 -89 -147q-40 -20 -66 -20h-9q-25 0 -25 18q0 22 100 158
q20 30 20 35q0 19 -115 74q-47 22 -101 57q-67 50 -67 114q0 86 99 121q57 16 105 16q119 0 276 -89q100 181 147 286q56 126 56 207q0 92 -79 142q-32 14 -60 14h-5q-69 0 -108 -49q-12 -13 -26 -52q-17 -56 -34 -183h-1q-2 0 -19 46q-32 77 -58 97q-36 27 -71 27
q-49 0 -83 -59q-19 -41 -19 -87q0 -96 116 -198v-1q-61 -8 -94 -8q-95 0 -151 51q-39 41 -39 103q0 84 84 206q13 22 13 29h-1h-3q-51 0 -97 -126q-6 -19 -6 -21h-2q-11 33 -11 44v9q0 38 45 96q42 45 91 45h12q27 0 35 -17q2 -3 2 -9v-3q0 -31 -58 -116q-50 -79 -50 -135
q0 -59 64 -101q26 -13 71 -18q-68 66 -68 150v15q0 111 86 185q33 25 66 25h2q67 0 123 -72q12 57 25 90q24 50 74 71q42 15 82 15zM183 -231v-4q0 -36 50 -86q46 -35 116 -71q37 -19 78 -53q0 -1 6 -4q65 90 139 215q-94 62 -141 69q-70 18 -125 18h-1q-90 0 -115 -55
q-7 -13 -7 -29z" />
    <glyph glyph-name="divide" unicode="&#xf7;" horiz-adv-x="761" 
d="M533 449h31q109 0 152 -134v-40q0 -133 -219 -275q0 3 -5 3q0 22 126 158q49 85 49 131q-17 117 -121 117h-4q-102 0 -121 -168l-5 -47h-4q-8 0 -40 77q-33 51 -85 51q-81 -16 -81 -104q0 -71 98 -154q-22 -6 -85 -10q-101 0 -143 67q-13 16 -13 50v10q0 54 76 164v3h-5
q-33 0 -76 -110h-4q-9 13 -9 37v13q34 104 121 104q22 0 36 -17v-13q0 -14 -81 -144l-9 -44q22 -84 99 -84q-50 49 -50 118q0 115 112 164h18q56 0 94 -47h9q19 124 139 124zM393 -7h12q6 0 12 -12v-32q-14 -24 -20 -24h-4l4 40v4q-64 -31 -64 -68q4 -8 4 -12q71 20 76 20
h20q56 -7 56 -56v-20q0 -93 -76 -180h-4q0 10 40 148v24q-5 36 -36 36h-4q-75 -12 -88 -12h-4q-20 10 -20 32v20q0 59 96 92z" />
    <glyph glyph-name="oslash" unicode="&#xf8;" 
d="M-429 950h17q103 0 167 -99q25 -47 25 -96v-5q0 -113 -71 -195q-25 -20 -63 -36v1q87 119 87 210v6q0 114 -99 154q-34 9 -57 9q-108 0 -139 -97q-5 -19 -5 -40q0 -62 66 -85h6q1 0 40 7q23 0 27 -31q0 -31 -41 -36h-9q-46 0 -107 43q-70 55 -89 113q-1 5 -1 10v7
q0 15 22 35h2q12 -43 38 -71v1q-2 15 -2 16q0 116 111 166q40 13 75 13z" />
    <glyph glyph-name="ugrave" unicode="&#xf9;" 
d="M-379 827h16q56 0 124 -124q12 -45 12 -72v-28h-8q-37 120 -132 180q-35 15 -36 24zM-339 950h17q103 0 167 -99q25 -47 25 -96v-5q0 -113 -71 -195q-25 -20 -63 -36v1q87 119 87 210v6q0 114 -99 154q-34 9 -57 9q-108 0 -139 -97q-5 -19 -5 -40q0 -62 66 -85h6
q1 0 40 7q23 0 27 -31q0 -31 -41 -36h-9q-46 0 -107 43q-70 55 -89 113q-1 5 -1 10v7q0 15 22 35h2q12 -43 38 -71v1q-2 15 -2 16q0 116 111 166q40 13 75 13z" />
    <glyph glyph-name="uacute" unicode="&#xfa;" horiz-adv-x="568" 
d="M361 440h28q113 0 157 -119l4 -58q0 -164 -221 -325q-150 -82 -226 -148q-60 -59 -60 -127v-7q0 -117 125 -148q-17 43 -21 98q0 167 178 227q57 7 64 7q163 0 226 -155q8 -16 8 -47v-32q0 -143 -165 -293q-28 -18 -53 -18v7q158 186 158 300q0 130 -117 173
q-58 11 -69 11q-112 0 -161 -133q-4 -14 -4 -33v-7q0 -106 56 -174v-3l-28 -4h-20q-117 0 -226 109q-24 47 -24 86v40q0 162 266 282q178 92 222 198q36 64 36 123q0 116 -129 116q-97 0 -113 -119v-8q0 -55 45 -112v-7l-29 -3h-12q-83 0 -129 97q-8 16 -8 47v18
q0 61 73 112h4q-28 -107 -28 -115q0 -43 40 -80l-4 43v22q0 110 109 152q28 7 48 7z" />
    <glyph glyph-name="udieresis" unicode="&#xfc;" horiz-adv-x="947" 
d="M732 549q49 0 65 -189q2 -7 6 -53q41 33 59 33h4q33 0 33 -57q-2 -73 -2 -86v-20v-4l-1 -1q-24 18 -24 36q-3 16 -8 75q-3 5 -9 5h-1q-7 0 -47 -32q11 -167 11 -305q0 -426 -120 -572q-43 -45 -86 -60q-31 -12 -55 -12q-22 0 -22 12v3q0 9 25 106q10 56 10 108v10
q0 139 -86 187q-33 16 -71 16q-81 0 -140 -73q-44 -67 -44 -156v-8q0 -24 10 -159h-1q-89 25 -127 74q-51 70 -51 153q0 87 49 174q23 36 55 62q66 54 166 102q102 52 129 79q56 40 80 125q16 53 16 107v3q0 116 -67 148q-21 9 -40 9q-56 0 -74 -58q-10 -30 -10 -103
q0 -30 2 -101q-7 -2 -42 -9q-17 113 -48 140q-16 16 -31 16q-35 0 -51 -57q-8 -33 -8 -64q0 -112 85 -200l5 -6q-26 -22 -65 -22h-5q-94 0 -124 80q-12 34 -12 67q0 45 29 136q9 31 11 40q-18 -12 -28 -39q-11 -26 -17 -65q-4 -27 -4 -35h-1q-15 29 -15 57q0 74 41 126
q20 18 38 18q22 0 27 -26v-10q0 -27 -28 -118q-12 -51 -12 -88q0 -73 56 -93q12 -4 41 -10q-38 49 -49 90q-11 47 -11 82v16q0 75 32 133q28 33 66 33h7q43 0 72 -46v-1h1v2q0 126 90 156q14 5 26 5h12q52 0 102 -62q39 -59 39 -147q0 -110 -54 -201q-40 -54 -72 -79
q-51 -41 -146 -83q-56 -27 -107 -68q-22 -19 -51 -50q-39 -46 -46 -75q-19 -52 -19 -90v-6q0 -1 -1 -1l1 -1v-6q0 -58 48 -115q29 -28 50 -36v1q-8 69 -8 109q0 156 98 235q54 38 111 38h16q74 0 136 -62q64 -74 64 -191v-14q0 -88 -48 -196q27 9 45 21q32 19 73 77
q20 30 36 67q14 33 30 107q25 146 25 279v41q0 74 -14 286v14h-1q-19 -6 -30 -6q-42 0 -74 43q-16 31 -16 74q0 94 36 166q27 45 55 45zM682 353q0 -50 31 -66q7 -3 13 -3h5q13 0 30 5q0 25 -13 114q-13 69 -29 69h-1q-17 0 -32 -78q-3 -16 -4 -41z" />
    <glyph glyph-name="yacute" unicode="&#xfd;" horiz-adv-x="844" 
d="M540 515h33q84 0 147 -116q16 -49 16 -86v-25q0 -269 -364 -382q-257 -120 -257 -301q0 -99 118 -154v4q-8 77 -8 111q0 216 217 279l65 5q176 0 242 -176q12 -35 12 -73v-39q0 -126 -94 -257q-17 -9 -25 -9l-4 9q66 154 66 274q0 161 -131 206q-47 9 -66 9
q-168 0 -225 -180q-4 -30 -4 -48v-8q0 -57 12 -176q-4 0 -4 -4q-108 25 -159 77q-66 75 -66 163q0 230 324 348q213 89 253 163q45 82 45 167v17q0 107 -82 142q-28 8 -49 8q-102 0 -102 -137q-4 -4 -4 -34q4 -58 4 -99q-16 -9 -53 -13q-36 155 -78 155q0 7 -29 8
q-65 -14 -65 -116v-25q0 -94 110 -202q-37 -22 -61 -22h-41q-134 0 -159 142v22q0 35 49 171q-31 0 -58 -137h-8q-12 31 -12 39v34q23 137 98 137q34 0 37 -43l-49 -184v-43q0 -76 110 -90q-69 76 -69 189q0 155 106 180h37q35 0 82 -43q0 126 110 159q16 4 33 4zM344 1145
h8q44 -225 44 -258q-9 -37 -40 -37h-4q-44 6 -44 41v18q36 196 36 236zM560 878q96 -18 96 -92v-32q0 -130 -164 -188q-52 -16 -104 -16h-56q-261 0 -304 172v44q29 108 100 108h28q80 -15 80 -76q-4 -22 -4 -32h-4q-39 56 -80 56q-64 -13 -64 -60v-16q0 -110 188 -144
q35 -4 60 -4h16q176 0 236 100q12 36 12 48v16q0 52 -48 52q-32 0 -88 -24v4q0 57 92 84h8zM356 834h16q77 0 88 -96v-16q0 -68 -68 -88h-16v4q48 40 48 80v8q0 60 -68 60h-8q-64 0 -64 -72q0 -19 32 -76l-8 -4q-68 33 -68 96q0 88 116 104z" />
    <glyph glyph-name="thorn" unicode="&#xfe;" horiz-adv-x="1236" 
d="M540 515h33q84 0 147 -116q16 -49 16 -86v-25q0 -269 -364 -382q-257 -120 -257 -301q0 -99 118 -154v4q-8 77 -8 111q0 216 217 279l65 5q176 0 242 -176q12 -35 12 -73v-39q0 -126 -94 -257q-17 -9 -25 -9l-4 9q66 154 66 274q0 161 -131 206q-47 9 -66 9
q-168 0 -225 -180q-4 -30 -4 -48v-8q0 -57 12 -176q-4 0 -4 -4q-108 25 -159 77q-66 75 -66 163q0 230 324 348q213 89 253 163q45 82 45 167v17q0 107 -82 142q-28 8 -49 8q-102 0 -102 -137q-4 -4 -4 -34q4 -58 4 -99q-16 -9 -53 -13q-36 155 -78 155q0 7 -29 8
q-65 -14 -65 -116v-25q0 -94 110 -202q-37 -22 -61 -22h-41q-134 0 -159 142v22q0 35 49 171q-31 0 -58 -137h-8q-12 31 -12 39v34q23 137 98 137q34 0 37 -43l-49 -184v-43q0 -76 110 -90q-69 76 -69 189q0 155 106 180h37q35 0 82 -43q0 126 110 159q16 4 33 4zM941 466
h46q140 0 196 -145q8 -15 8 -43v-55q0 -152 -157 -223l-51 -4h-30q-75 0 -123 71v3q100 -23 123 -23q141 0 183 172v47q0 103 -132 141q-29 4 -46 4q-118 0 -234 -86h-4q-9 0 -9 8q0 45 162 121q45 12 68 12zM379 1139h8q44 -225 44 -258q-9 -37 -40 -37h-4q-44 6 -44 41v18
q36 196 36 236zM595 872q96 -18 96 -92v-32q0 -130 -164 -188q-52 -16 -104 -16h-56q-261 0 -304 172v44q29 108 100 108h28q80 -15 80 -76q-4 -22 -4 -32h-4q-39 56 -80 56q-64 -13 -64 -60v-16q0 -110 188 -144q35 -4 60 -4h16q176 0 236 100q12 36 12 48v16q0 52 -48 52
q-32 0 -88 -24v4q0 57 92 84h8zM391 828h16q77 0 88 -96v-16q0 -68 -68 -88h-16v4q48 40 48 80v8q0 60 -68 60h-8q-64 0 -64 -72q0 -19 32 -76l-8 -4q-68 33 -68 96q0 88 116 104z" />
    <glyph glyph-name="scaron" unicode="&#x161;" 
d="M-699 1091q3 1 9 5q2 -2 4 -2t4 -2zM-863 1112q5 3 9 6l8 6q3 -5 6 -9t5 -8zM-419 895h4q158 -1 200 -92q16 -38 16 -82q0 -119 -133 -198v1q3 14 40 67q45 70 45 145q0 61 -56 99q-39 20 -102 20h-5q-95 0 -153 -73q-26 -35 -26 -75v-4q0 -79 67 -134q22 -21 26 -29h-1
h-8q-29 0 -83 55q-39 47 -39 123q0 90 84 147q49 30 124 30zM-423 769h10q83 0 108 -54q8 -18 8 -39v-6q0 -63 -79 -110v1q0 5 33 58q16 32 16 62q0 38 -42 57q-22 5 -43 5h-10q-39 0 -70 -34q-16 -20 -16 -44v-2q0 -44 43 -78q2 -3 9 -12h-2h-2q-18 0 -37 16q-37 29 -37 78
v5q0 49 47 81q28 16 64 16z" />
    <glyph glyph-name="fhook" unicode="&#x192;" horiz-adv-x="746" 
d="M126 281h455q70 0 91 -28v-12q0 -16 -118 -20h-358q-145 0 -145 24v16q0 17 75 20z" />
    <glyph glyph-name="quoteleft" unicode="&#x2018;" horiz-adv-x="296" 
d="M186 454h26q79 -41 79 -149v-36q0 -5 -13 -11q-4 0 -53 80q-20 14 -39 14q-35 -11 -44 -11l-9 11v4q27 98 53 98z" />
    <glyph glyph-name="quoteright" unicode="&#x2019;" horiz-adv-x="315" 
d="M186 454h26q79 -41 79 -149v-36q0 -5 -13 -11q-4 0 -53 80q-20 14 -39 14q-35 -11 -44 -11l-9 11v4q27 98 53 98z" />
    <glyph glyph-name="quotedblleft" unicode="&#x201c;" horiz-adv-x="336" 
d="M186 454h26q79 -41 79 -149v-36q0 -5 -13 -11q-4 0 -53 80q-20 14 -39 14q-35 -11 -44 -11l-9 11v4q27 98 53 98zM93 334h9q77 0 106 -152q4 -19 4 -22q-7 -14 -13 -14h-5q-8 1 -48 65q-22 18 -26 18h-22q-43 -11 -49 -11l-4 8v3q0 76 48 105z" />
    <glyph glyph-name="dagger" unicode="&#x2020;" horiz-adv-x="196" 
d="M65 -180l3 666q0 103 26 133h11q14 0 17 -172l-2 -526q-1 -212 -23 -211h-15q-15 0 -17 110z" />
    <glyph glyph-name="daggerdbl" unicode="&#x2021;" horiz-adv-x="855" 
d="M192 18h503q78 0 101 -21v-8q0 -12 -130 -15h-397q-160 0 -160 18v11q0 13 83 15zM724 343q7 0 14 -12v-40q0 -157 -218 -220q-21 -8 -59 -8h-41q-213 0 -295 164q-14 20 -14 52v52q1 8 9 8h5q15 -8 63 -108q85 -100 255 -100q191 0 272 212h9z" />
    <glyph glyph-name="guilsinglleft" unicode="&#x2039;" horiz-adv-x="798" 
d="M183 261h493q77 0 99 -20v-8q0 -11 -128 -14h-388q-157 0 -157 17v11q0 12 81 14zM215 427q0 -9 -52 -159q0 -50 64 -197q-4 0 -4 -5q-38 0 -140 181v5q95 175 124 175h8z" />
    <glyph glyph-name="guilsinglright" unicode="&#x203a;" horiz-adv-x="884" 
d="M138 261h531q82 0 106 -20v-8q0 -11 -137 -14h-418q-169 0 -169 17v11q0 12 87 14zM690 417h8q29 0 124 -179v-5q-102 -185 -140 -185q0 6 -4 6q64 149 64 201q-52 153 -52 162z" />
    <glyph glyph-name="trademark" unicode="&#x2122;" 
d="M-527 1304q6 2 9 5q7 -4 8 -4zM-359 917h4q158 -1 200 -92q16 -38 16 -82q0 -119 -133 -198v1q3 14 40 67q45 70 45 145q0 61 -56 99q-39 20 -102 20h-5q-95 0 -153 -73q-26 -35 -26 -75v-4q0 -79 67 -134q22 -21 26 -29h-1h-8q-29 0 -83 55q-39 47 -39 123q0 90 84 147
q49 30 124 30zM-363 791h10q83 0 108 -54q8 -18 8 -39v-6q0 -63 -79 -110v1q0 5 33 58q16 32 16 62q0 38 -42 57q-22 5 -43 5h-10q-39 0 -70 -34q-16 -20 -16 -44v-2q0 -44 43 -78q2 -3 9 -12h-2h-2q-18 0 -37 16q-37 29 -37 78v5q0 49 47 81q28 16 64 16z" />
    <glyph glyph-name="oe" unicode="&#x153;" horiz-adv-x="813" 
d="M225 449h32q88 0 120 -92q37 -252 66 -252q23 -29 69 -29h16q101 0 101 182v38q0 82 -22 150l6 3h16q139 0 139 -131v-51q0 -199 -88 -264q-7 -3 -10 -3v3q54 143 54 287q-8 86 -48 86v-3q7 -91 7 -102q0 -255 -158 -255h-3q-110 0 -145 89q-21 72 -54 245q-22 48 -85 48
q-125 0 -146 -172v-44q0 -109 82 -109q51 0 51 112q0 51 -6 98h3q44 -34 44 -73v-51q0 -137 -101 -137h-9q-81 0 -111 128v76q0 162 129 213q21 10 51 10z" />
    <glyph glyph-name="space" unicode=" " horiz-adv-x="1" 
 />
    <glyph glyph-name="Ydieresis" unicode="&#x178;" horiz-adv-x="877" 
d="M567 457q119 0 170 -143q8 -30 8 -56v-32q0 -264 -385 -381q-245 -121 -245 -291q0 -99 121 -159v4q-9 89 -9 112q0 206 199 274q39 8 62 8h33q68 0 125 -36l8 4h62q54 -8 54 -20v-4l-75 -12q75 -82 75 -175v-47q0 -131 -120 -215q-42 -20 -79 -20h-4q-108 9 -108 99
l4 36q-74 44 -74 139q0 116 170 191v4h-58q-158 0 -216 -175l-4 -47v-16q0 -47 13 -171h-5q-102 20 -157 71q-70 74 -70 167q0 236 360 358q163 69 211 135q58 79 58 167v32q0 114 -99 147h-50q-91 0 -91 -167q4 -66 4 -103q0 -4 -58 -4q-25 155 -103 155q-57 0 -67 -111
v-32q0 -94 112 -195q0 -13 -62 -24h-37q-125 0 -162 111q-4 36 -4 44q0 42 50 179q-32 0 -58 -139h-9q-12 31 -12 44v24q0 119 104 143q29 0 33 -40q0 -17 -50 -179v-56q0 -72 112 -83q-71 74 -71 187q0 157 112 179h29q41 0 87 -44q0 126 120 163h46zM443 -458v-8
q0 -55 41 -79h4q47 48 87 48q50 0 62 -64q-11 -72 -74 -72h-13q-4 0 -45 8v-4q9 -59 54 -59h33q59 0 103 95q17 58 17 104v27q0 118 -87 171q-182 -47 -182 -167zM530 -577v-4l41 -12q26 8 29 20v8q0 10 -29 16q-31 -8 -41 -28zM379 1139h8q44 -225 44 -258q-9 -37 -40 -37
h-4q-44 6 -44 41v18q36 196 36 236zM595 872q96 -18 96 -92v-32q0 -130 -164 -188q-52 -16 -104 -16h-56q-261 0 -304 172v44q29 108 100 108h28q80 -15 80 -76q-4 -22 -4 -32h-4q-39 56 -80 56q-64 -13 -64 -60v-16q0 -110 188 -144q35 -4 60 -4h16q176 0 236 100
q12 36 12 48v16q0 52 -48 52q-32 0 -88 -24v4q0 57 92 84h8zM391 828h16q77 0 88 -96v-16q0 -68 -68 -88h-16v4q48 40 48 80v8q0 60 -68 60h-8q-64 0 -64 -72q0 -19 32 -76l-8 -4q-68 33 -68 96q0 88 116 104z" />
    <glyph glyph-name="dieresis" unicode="&#xa8;" 
d="M-299 968h4l8 -4q-37 -59 -37 -112q0 -163 348 -319v-8l-21 -4h-20q-102 0 -299 162q-71 75 -78 139v34q0 78 66 108zM-467 908h17q103 0 167 -99q25 -47 25 -96v-5q0 -113 -71 -195q-25 -20 -63 -36v1q87 119 87 210v6q0 114 -99 154q-34 9 -57 9q-108 0 -139 -97
q-5 -19 -5 -40q0 -62 66 -85h6q1 0 40 7q23 0 27 -31q0 -31 -41 -36h-9q-46 0 -107 43q-70 55 -89 113q-1 5 -1 10v7q0 15 22 35h2q12 -43 38 -71v1q-2 15 -2 16q0 116 111 166q40 13 75 13z" />
    <glyph glyph-name="emdash" unicode="&#x2014;" horiz-adv-x="521" 
d="M30 281h455q70 0 91 -28v-12q0 -16 -118 -20h-358q-145 0 -145 24v16q0 17 75 20z" />
    <glyph glyph-name="periodcentered" unicode="&#xb7;" 
d="M12 902q-73 0 -73 77q0 30 21 50t52 20q28 0 49 -21q21 -22 21 -49q0 -33 -19 -55t-51 -22z" />
    <glyph glyph-name="endash" unicode="&#x2013;" horiz-adv-x="256" 
d="M155 254q-60 0 -60 64q0 25 17 41.5t43 16.5q23 0 40 -18q18 -18 18 -40q0 -28 -16 -46t-42 -18zM155 38q-60 0 -60 63q0 26 17 42t43 16q23 0 40 -17q18 -18 18 -41q0 -27 -16 -45t-42 -18z" />
    <glyph glyph-name="ordfeminine" unicode="&#xaa;" horiz-adv-x="862" 
d="M650 440q76 0 124 -49q43 -52 43 -117v-10q0 -87 -83 -195q-22 -30 -72 -70q-22 -13 -41 -13q81 91 106 150q40 79 40 132v7q0 66 -51 105q-28 15 -55 15h-10q-91 0 -127 -112q-16 -37 -34 -96h-1q-6 7 -30 60q-12 29 -30 44q-29 27 -59 27q-35 0 -61 -31
q-17 -24 -17 -77q-2 -8 -9 -8q-12 0 -17 53v13q0 43 44 79q28 21 67 21q69 0 108 -71h1q25 60 49 91q44 52 115 52zM178 378h10q47 0 66 -33q0 -4 -32 -35q-99 -106 -112 -153q-9 -23 -9 -42q0 -52 67 -66q18 -3 33 -3h5q47 0 47 8q14 53 28 71q40 51 90 51q55 -3 65 -28
l1 -9v-2q0 -46 -74 -96q-38 -21 -68 -21l1 -4v-7q0 -102 48 -151q9 -15 61 -55q53 -38 196 -88v-1q-38 -2 -43 -2q-58 0 -160 46q-99 53 -132 138q-16 45 -16 114v3q-36 -3 -60 -3h-11q-67 0 -112 41q-17 20 -17 50q0 64 73 164q21 24 62 66q-14 4 -28 4h-1q-60 0 -78 -87
q-4 -41 -10 -41h-3q-19 5 -20 35v1q0 58 44 106q36 29 89 29zM299 57h1q19 1 51 14q31 13 47 49q1 6 1 8q0 14 -22 14q-50 0 -73 -61z" />
    <glyph glyph-name="exclam" unicode="!" 
d="M-299 968h4l8 -4q-37 -59 -37 -112q0 -163 348 -319v-8l-21 -4h-20q-102 0 -299 162q-71 75 -78 139v34q0 78 66 108zM-506 785h16q56 0 124 -124q12 -45 12 -72v-28h-8q-37 120 -132 180q-35 15 -36 24zM-430 912h17q103 0 167 -99q25 -47 25 -96v-5q0 -113 -71 -195
q-25 -20 -63 -36v1q87 119 87 210v6q0 114 -99 154q-34 9 -57 9q-108 0 -139 -97q-5 -19 -5 -40q0 -62 66 -85h6q1 0 40 7q23 0 27 -31q0 -31 -41 -36h-9q-46 0 -107 43q-70 55 -89 113q-1 5 -1 10v7q0 15 22 35h2q12 -43 38 -71v1q-2 15 -2 16q0 116 111 166q40 13 75 13z
" />
    <glyph glyph-name="one" unicode="1" horiz-adv-x="907" 
d="M755 566q43 0 43 -119v-7q27 8 36 8q25 0 28 -30v-3l-10 -76l-2 -1q-19 15 -19 35v10q0 5 1 25l-3 2q-8 0 -31 -14q0 -132 -34 -256q-46 -140 -132 -140h-11q-30 0 -41 29q-3 14 -3 20v2q0 24 32 104q36 106 36 171q0 79 -53 131q-26 23 -57 23h-6q-57 0 -88 -60
q-15 -32 -25 -95q-9 -61 -17 -138h-2q-29 99 -50 135q-31 43 -68 43q-38 0 -64 -59q-14 -37 -14 -84v-5q0 -96 93 -200v-1q-51 -8 -76 -8h-6q-82 0 -127 65q-21 41 -21 87v7q0 86 72 218q5 12 5 15v1q-44 0 -81 -141q-3 -11 -3 -13h-2q-10 41 -10 56q0 51 48 118
q31 31 65 31h1q24 0 32 -13q5 -6 5 -13v-6q0 -31 -60 -145q-27 -65 -27 -107q0 -64 55 -105q29 -14 47 -14q-52 64 -52 158q0 133 81 205q22 15 41 15h5q50 0 94 -70q13 73 25 101q37 75 121 75q117 0 160 -153q5 -22 7 -57q0 -96 -67 -236q-7 -23 -7 -34v-1q1 -7 3 -7h5
q32 0 70 49q22 35 35 84q24 93 24 176l3 37h-4q-49 0 -68 43q-3 9 -3 14v8q0 46 42 97q15 13 29 13zM726 452q0 -17 23 -17h4v17q0 26 -6 45h-2q-8 0 -18 -36q0 -8 -1 -9z" />
    <glyph glyph-name="currency" unicode="&#xa4;" horiz-adv-x="423" 
d="M203 159l86 88l-86 89l-89 -89zM59 247l144 147l143 -147l-143 -145z" />
    <glyph glyph-name="threesuperior" unicode="&#xb3;" horiz-adv-x="726" 
d="M529 449h45q88 0 107 -135v-32q0 -162 -89 -270q-6 -4 -15 -4h-3q55 157 55 261v9q0 91 -59 122q-11 0 -26 4q52 -81 52 -179v-5q0 -154 -159 -212q-45 -8 -70 -8h-48q-179 0 -226 131q-4 22 -4 36v9q0 96 56 195v5h-4q-44 -40 -74 -156h-7q-15 7 -15 29v29
q27 167 137 167q59 -11 59 -37q-89 -125 -89 -237q0 -122 178 -122q150 0 203 110q7 37 7 53v4q0 115 -70 221v4q42 8 59 8zM382 227q67 -40 108 -116q64 -133 64 -192q-3 -44 -12 -44q-74 252 -208 328l-4 8q26 16 52 16z" />
    <glyph glyph-name="acute" unicode="&#xb4;" horiz-adv-x="761" 
d="M310 289q67 -40 108 -116q64 -133 64 -192q-3 -44 -12 -44q-74 252 -208 328l-4 8q26 16 52 16zM365 449q144 0 192 -79q37 -45 37 -123q0 -87 -29 -161q-9 -20 -26 -37h1q20 9 35 26q25 25 39 98q6 30 6 59v8q0 92 -58 177q31 11 54 11q50 0 82 -51q18 -37 18 -100
q0 -146 -56 -246q-14 -17 -37 -31h-1q16 34 28 66q29 87 29 189q0 103 -46 129q-10 6 -18 6v-1q42 -69 42 -161q0 -80 -38 -152q-37 -58 -87 -58h-7q-13 0 -32 14q33 74 48 145q5 28 5 56v5q0 83 -40 116q-49 50 -151 50q-113 0 -142 -84q-13 -41 -13 -83q0 -113 58 -199
q0 -3 4 -8q-1 0 -1 -1q-22 -1 -32 -1h-6q-80 0 -122 52q-27 47 -27 100v7q0 49 36 155q-12 0 -27 -34q-5 -16 -9 -48h-1q-10 0 -22 17q-6 13 -6 24v7q0 38 44 72q18 12 41 14q15 0 37 -11v-1q-44 -127 -44 -182v-10q0 -59 36 -98q16 -14 28 -14q-34 69 -34 131v9
q0 145 73 198q50 33 139 33z" />
    <glyph glyph-name="sterling" unicode="&#xa3;" horiz-adv-x="874" 
d="M615 514h36q128 0 178 -157v-47q0 -156 -256 -322q0 4 -5 4q0 25 146 184q58 101 58 154q-20 137 -142 137h-5q-118 0 -141 -196l-5 -55h-5q-10 0 -47 90q-38 59 -100 59q-94 -18 -94 -122q0 -83 115 -180q-26 -7 -99 -12q-119 0 -167 78q-16 19 -16 59v12q0 64 89 192v4
h-5q-39 0 -89 -129h-6q-10 15 -10 43v16q40 121 141 121q26 0 42 -19v-16q0 -17 -94 -169l-11 -51q26 -98 115 -98q-57 57 -57 137q0 135 131 193h20q66 0 110 -55h11q22 145 162 145z" />
    <glyph glyph-name="guillemotleft" unicode="&#xab;" horiz-adv-x="219" 
d="M-49 766h8q114 0 178 -90q37 -68 37 -152v-12q0 -137 -112 -577q-27 -132 -27 -212q0 -127 84 -311q-12 -6 -47 -21q-105 177 -105 336v10q0 120 97 464q51 185 51 288v38q0 124 -90 161q-49 15 -78 15q-98 0 -135 -90q-6 -21 -8 -55q4 -36 16 -78l-43 -14q-18 60 -18 96
v9q0 136 135 189q32 6 57 6z" />
    <glyph glyph-name="paragraph" unicode="&#xb6;" horiz-adv-x="510" 
d="M383 480v-903h-14v903h-99v-903h-15v540q-38 2 -66 6t-47 12q-97 38 -97 168q0 55 17 88q50 96 171 96h208v-7h-58z" />
    <glyph glyph-name="quotedbl" unicode="&#x22;" horiz-adv-x="336" 
d="M186 454h26q79 -41 79 -149v-36q0 -5 -13 -11q-4 0 -53 80q-20 14 -39 14q-35 -11 -44 -11l-9 11v4q27 98 53 98zM93 334h9q77 0 106 -152q4 -19 4 -22q-7 -14 -13 -14h-5q-8 1 -48 65q-22 18 -26 18h-22q-43 -11 -49 -11l-4 8v3q0 76 48 105z" />
    <glyph glyph-name="numbersign" unicode="#" 
d="M-498 800h16q56 0 124 -124q12 -45 12 -72v-28h-8q-37 120 -132 180q-35 15 -36 24zM-153 913h19q118 -36 118 -243v-47q0 -38 -27 -66q-31 295 -106 295q-26 -1 -72 -33l-3 10v14q0 47 71 70zM-444 923h17q103 0 167 -99q25 -47 25 -96v-5q0 -113 -71 -195
q-25 -20 -63 -36v1q87 119 87 210v6q0 114 -99 154q-34 9 -57 9q-108 0 -139 -97q-5 -19 -5 -40q0 -62 66 -85h6q1 0 40 7q23 0 27 -31q0 -31 -41 -36h-9q-46 0 -107 43q-70 55 -89 113q-1 5 -1 10v7q0 15 22 35h2q12 -43 38 -71v1q-2 15 -2 16q0 116 111 166q40 13 75 13z
" />
    <glyph glyph-name="zero" unicode="0" horiz-adv-x="434" 
d="M260 415q87 0 119 -80q10 -32 10 -66v-2q0 -147 -175 -257l-5 -10q-102 38 -132 79q-32 44 -32 102q0 88 62 164q68 70 153 70zM238 355h-5q-55 0 -111 -91q-20 -42 -20 -75v-14q0 -91 95 -111q4 0 21 -2v-7h1q114 112 114 214q0 62 -63 82q-12 4 -26 4h-3q-1 0 -1 2z
" />
    <glyph glyph-name="dollar" unicode="$" 
d="M-1446 1385q1 -1 6 -5l-16 5h10zM-275 963h4l7 -3q-33 -55 -33 -102q0 -150 311 -292v-7l-19 -4h-18q-90 0 -267 148q-63 68 -70 126v32q0 71 59 99zM-546 858h4q1 0 51 -47q71 41 168 51l33 3q125 13 179 -57l2 -22q-41 -65 -158 -77l-23 -2q-79 -8 -182 49
q-82 -49 -76 -110l2 -14q3 -26 42 -83v-4l-43 -4q-111 10 -119 90l-3 29q-4 37 33 68q1 -4 4 -4v-37l3 -30q4 -36 36 -57l4 1l-4 37q-9 89 77 155q-15 18 -30 65zM-424 776l1 -8q87 -28 139 -23q63 6 101 48v7q-39 12 -121 11q-72 -15 -120 -35z" />
    <glyph glyph-name="ucircumflex" unicode="&#xfb;" horiz-adv-x="637" 
d="M361 440h28q113 0 157 -119l4 -58q0 -164 -221 -325q-150 -82 -226 -148q-60 -59 -60 -127v-7q0 -117 125 -148q-17 43 -21 98q0 167 178 227q57 7 64 7q163 0 226 -155q8 -16 8 -47v-32q0 -143 -165 -293q-28 -18 -53 -18v7q158 186 158 300q0 130 -117 173
q-58 11 -69 11q-112 0 -161 -133q-4 -14 -4 -33v-7q0 -106 56 -174v-3l-28 -4h-20q-117 0 -226 109q-24 47 -24 86v40q0 162 266 282q178 92 222 198q36 64 36 123q0 116 -129 116q-97 0 -113 -119v-8q0 -55 45 -112v-7l-29 -3h-12q-83 0 -129 97q-8 16 -8 47v18
q0 61 73 112h4q-28 -107 -28 -115q0 -43 40 -80l-4 43v22q0 110 109 152q28 7 48 7zM350 1150h8q44 -225 44 -258q-9 -37 -40 -37h-4q-44 6 -44 41v18q36 196 36 236zM566 883q96 -18 96 -92v-32q0 -130 -164 -188q-52 -16 -104 -16h-56q-261 0 -304 172v44q29 108 100 108
h28q80 -15 80 -76q-4 -22 -4 -32h-4q-39 56 -80 56q-64 -13 -64 -60v-16q0 -110 188 -144q35 -4 60 -4h16q176 0 236 100q12 36 12 48v16q0 52 -48 52q-32 0 -88 -24v4q0 57 92 84h8zM362 839h16q77 0 88 -96v-16q0 -68 -68 -88h-16v4q48 40 48 80v8q0 60 -68 60h-8
q-64 0 -64 -72q0 -19 32 -76l-8 -4q-68 33 -68 96q0 88 116 104z" />
    <glyph glyph-name="comma" unicode="," horiz-adv-x="386" 
d="M68 410q250 -123 265 -426l5 -92q3 -77 -24 -152h-8q-18 362 -87 436q-77 117 -179 166v5q2 28 28 63z" />
    <glyph glyph-name="period" unicode="." horiz-adv-x="467" 
d="M130 410q267 -123 283 -426l5 -93q4 -76 -25 -151h-9q-19 362 -93 436q-82 117 -191 166v4q2 29 30 64zM131 273q198 -144 198 -320v-22q0 -27 -15 -77h-8q-27 178 -82 254q-56 58 -128 117q26 47 35 48z" />
    <glyph glyph-name="oacute" unicode="&#xf3;" horiz-adv-x="395" 
d="M186 327h26q79 -41 79 -148v-36q0 -5 -13 -11q-4 0 -53 80q-20 14 -39 14q-35 -11 -44 -11l-9 11v4q27 97 53 97z" />
    <glyph glyph-name="ocircumflex" unicode="&#xf4;" horiz-adv-x="397" 
d="M198 190q-66 0 -66 69q0 28 19 46t47 18q25 0 44 -19q20 -20 20 -45q0 -29 -17.5 -49t-46.5 -20z" />
    <glyph glyph-name="parenleft" unicode="(" 
d="M-526 998h5l9 -4q-41 -59 -41 -110q0 -162 384 -316v-7l-23 -4h-23q-111 0 -329 160q-79 73 -87 137v34q0 76 73 106z" />
    <glyph glyph-name="parenright" unicode=")" 
d="M-477 854h3q2 0 46 -52q75 33 173 33h33q126 0 172 -75v-22q-47 -60 -166 -60h-23q-79 0 -176 67q-86 -40 -86 -101v-15q0 -26 33 -86v-4h-43q-109 21 -109 101v30q0 37 40 64q0 -4 3 -4l-3 -37v-30q0 -36 30 -60h3v37q0 90 93 147q-14 19 -23 67zM-365 760v-7
q84 -38 136 -38q64 0 106 38v7q-37 15 -119 23q-73 -8 -123 -23z" />
    <glyph glyph-name="brokenbar" unicode="&#xa6;" horiz-adv-x="380" 
d="M288 633l6 -12q-146 -181 -146 -385v-48q0 -240 151 -403q6 -12 6 -18q-11 -6 -17 -6q-113 61 -174 198q-39 126 -39 187v66q0 264 202 421h11z" />
    <glyph glyph-name="section" unicode="&#xa7;" horiz-adv-x="380" 
d="M92 633h11q202 -157 202 -421v-66q0 -61 -39 -187q-61 -137 -174 -198q-6 0 -17 6q0 6 6 18q151 163 151 403v48q0 204 -146 385z" />
    <glyph glyph-name="degree" unicode="&#xb0;" 
d="M1 1055q-12 0 -21 -3.5t-16 -11.5q-14 -13 -14 -36q0 -22 14 -37q14 -13 37 -13q22 0 36 13q14 15 14 37q0 23 -14 36q-14 15 -36 15zM1 1087q35 0 59 -24q24 -23 24 -59q0 -18 -6 -33t-18 -27t-27 -17.5t-32 -5.5q-18 0 -33 5.5t-27 17.5t-18 27t-6 33q0 17 6 32t18 27
q12 13 27 18.5t33 5.5z" />
    <glyph glyph-name="Scaron" unicode="&#x160;" horiz-adv-x="623" 
d="M-104 86h8q9 -38 9 -49q0 -140 -101 -385q-51 -90 -172 -172q-8 -15 -8 -27q0 -26 25 -26q145 0 231 305q16 110 16 128h9l4 -53v-9q0 -206 -134 -362q-57 -58 -122 -58h-8q-68 0 -84 71v9q0 58 117 119q111 86 156 257zM415 449h10q53 0 98 -27q55 -35 55 -131
q0 -139 -77 -237q-15 -19 -60 -54v1q46 79 65 138q18 58 18 128q0 93 -44 123q-26 21 -57 21h-2q22 -26 39 -67q23 -63 23 -102v-13q0 -65 -40 -128q-37 -51 -107 -71q-58 -17 -121 -17h-2q-94 0 -181 45q-24 17 -27 34q-4 15 -5 16q1 0 1 1q106 -49 196 -49h6q134 0 194 80
q28 42 28 102q0 85 -77 199q42 8 67 8z" />
    <glyph glyph-name="question" unicode="?" horiz-adv-x="400" 
d="M162 679h43q110 -18 110 -84v-23q0 -77 -166 -281q-24 -55 -24 -74q6 -29 30 -90q-6 0 -6 -5q-86 0 -86 107q0 40 160 264q18 29 25 79q0 39 -74 56q-50 -1 -117 -56h-12v28q0 58 117 79zM143 66q37 -12 37 -47q-8 -24 -31 -35h-30q-10 0 -25 23v30q16 29 49 29z" />
    <glyph glyph-name="J" unicode="J" horiz-adv-x="600" 
d="M45 251l251 231l248 -231l-248 -231z" />
    <glyph glyph-name="B" unicode="B" horiz-adv-x="700" 
d="M171 146l-110 100l110 100l109 -100zM221 392l110 100l110 -100l-110 -100zM492 346l108 -100l-108 -100l-110 100zM440 100l-109 -100l-110 100l110 99z" />
    <glyph glyph-name="quotedblright" unicode="&#x201d;" horiz-adv-x="468" 
d="M310 458h26q79 -41 79 -149v-36q0 -5 -13 -11q-4 0 -53 80q-20 14 -39 14q-35 -11 -44 -11l-9 11v4q27 98 53 98zM217 338h9q77 0 106 -152q4 -19 4 -22q-7 -14 -13 -14h-5q-8 1 -48 65q-22 18 -26 18h-22q-43 -11 -49 -11l-4 8v3q0 76 48 105z" />
    <glyph glyph-name="percent" unicode="%" 
d="M-562 853h3q2 0 42 -48q68 31 158 31h30q115 0 157 -68v-21q-43 -54 -151 -54h-21q-72 0 -161 61q-78 -36 -78 -92v-14q0 -24 30 -79v-3h-39q-100 19 -100 92v28q0 33 36 58q0 -4 3 -4l-3 -34v-27q0 -33 27 -55h4v34q0 82 84 134q-12 18 -21 61zM-459 768v-7
q76 -34 124 -34q58 0 96 34v7q-34 14 -108 20q-67 -6 -112 -20zM-148 901h18q114 -35 114 -235v-45q0 -37 -26 -64q-30 285 -102 285q-25 -1 -70 -31l-3 9v13q0 46 69 68z" />
    <glyph glyph-name="softhyphen" unicode="&#xad;" horiz-adv-x="546" 
d="M83 60l278 360q43 56 78 55l9 -7q13 -10 -56 -106l-219 -284q-89 -114 -108 -99l-12 9q-14 11 30 72zM163 439l267 -369q41 -57 30 -90l-9 -7q-13 -10 -86 83l-209 291q-85 117 -66 131l13 10q14 10 60 -49z" />
    <glyph glyph-name="ampersand" unicode="&#x26;" 
d="M-161 933h21q128 -38 128 -255v-49q0 -39 -29 -69q-34 309 -115 309q-29 -1 -79 -34l-4 10v14q0 50 78 74zM-427 914h17q103 0 167 -99q25 -47 25 -96v-5q0 -113 -71 -195q-25 -20 -63 -36v1q87 119 87 210v6q0 114 -99 154q-34 9 -57 9q-108 0 -139 -97q-5 -19 -5 -40
q0 -62 66 -85h6q1 0 40 7q23 0 27 -31q0 -31 -41 -36h-9q-46 0 -107 43q-70 55 -89 113q-1 5 -1 10v7q0 15 22 35h2q12 -43 38 -71v1q-2 15 -2 16q0 116 111 166q40 13 75 13z" />
    <glyph glyph-name="quotedblbase" unicode="&#x201e;" horiz-adv-x="356" 
d="M173 464h5q18 0 108 -291q20 -82 20 -98v-13q0 -46 -103 -66h-50q-94 0 -108 57v27q0 72 118 380zM171 368q-61 -236 -61 -269v-22q0 -37 71 -37h5q31 0 56 32v9q0 44 -66 287h-5z" />
    <glyph glyph-name="quotesingle" unicode="'" horiz-adv-x="292" 
d="M181 442h26q79 -41 79 -149v-36q0 -5 -13 -11q-4 0 -53 80q-20 14 -39 14q-35 -11 -44 -11l-9 11v4q27 98 53 98z" />
    <glyph glyph-name="bullet" unicode="&#x2022;" horiz-adv-x="298" 
d="M107 211q-3 0 -5.5 2t-2.5 5l3 41q0 4 2 6t6 2l148 1q3 0 5.5 -2.5t2.5 -5.5l-3 -41q0 -3 -2 -5.5t-6 -2.5h-148zM175 294q-51 0 -51 54q0 21 14.5 35t36.5 14q20 0 35 -15t15 -34q0 -24 -13.5 -39t-36.5 -15zM175 87q-51 0 -51 54q0 21 14.5 35t36.5 14q20 0 35 -15
t15 -34q0 -23 -13.5 -38.5t-36.5 -15.5z" />
    <glyph glyph-name="hyphenminus" unicode="-" horiz-adv-x="550" 
d="M103 201l-2 48l395 1l2 -48z" />
    <glyph glyph-name="perthousand" unicode="&#x2030;" 
d="M-368 1132h5q26 -93 26 -107q-6 -15 -24 -15h-2q-27 3 -27 17v7q22 81 22 98zM-239 1031q58 -11 58 -55v-20q0 -78 -98 -112q-32 -10 -63 -10h-33q-157 0 -183 103v27q18 64 60 64h17q48 -9 48 -45q-2 -13 -2 -19h-3q-23 33 -48 33q-38 -8 -38 -36v-9q0 -67 113 -87
q21 -2 36 -2h9q106 0 142 60q7 21 7 29v9q0 31 -29 31q-19 0 -53 -14v2q0 35 56 51h4zM-361 1004h10q46 0 52 -57v-10q0 -41 -40 -53h-10v3q29 24 29 48v5q0 36 -41 36h-5q-38 0 -38 -44q0 -11 19 -45l-5 -3q-41 20 -41 58q0 53 70 62zM-377 824h15q94 0 152 -86
q23 -41 23 -85v-4q0 -99 -65 -170q-22 -18 -57 -32v1q79 104 79 183v6q0 100 -90 134q-31 9 -52 9q-98 0 -127 -86q-5 -16 -5 -34q0 -55 61 -75h6l36 6q21 0 25 -27q0 -27 -38 -32h-8q-42 0 -98 38q-64 49 -81 99q-1 4 -1 9v6q0 13 20 30h2q11 -37 34 -62v1q-1 13 -1 14
q0 102 102 145q36 12 68 12z" />
    <glyph glyph-name="quotesinglbase" unicode="&#x201a;" horiz-adv-x="815" 
d="M726 364h4q7 0 14 -12v-36q0 -120 -161 -208q-68 -24 -116 -24h-46q-242 0 -308 196q-5 5 -5 28v44q1 8 9 8h5q7 0 69 -112q86 -100 249 -100q197 0 276 208q2 8 10 8z" />
    <glyph glyph-name="ntilde" unicode="&#xf1;" 
d="M-485 -102h14q88 0 117 -141h3q50 128 164 128q118 0 163 -138q9 -35 9 -60v-37q0 -103 -105 -191q-23 -10 -41 -10h-21q-37 0 -84 67h6q51 -13 70 -13h11q102 0 120 164v17q-17 154 -123 154h-5q-119 0 -158 -168q-34 -148 -97 -198q-23 -20 -29 -20v17q0 22 47 97
q35 78 35 154v7q0 90 -61 124q-16 3 -24 3q-52 0 -73 -63q-14 -53 -26 -178h-6q-28 144 -85 144h-3q-58 -20 -58 -120q0 -77 70 -168v-3q-29 -7 -58 -7h-3q-89 0 -111 101l-3 30q0 68 58 194v3h-6q-24 0 -52 -117v-7h-6q-6 24 -6 41v6q0 78 70 121h29q4 0 15 -17v-10
q0 -18 -58 -161q-6 -31 -6 -50q13 -97 73 -97q-38 58 -38 127q4 144 82 188h17q39 0 67 -57h3q0 72 47 124q24 20 56 20z" />
    <glyph glyph-name="ydieresis" unicode="&#xff;" horiz-adv-x="400" 
 />
    <glyph glyph-name="odieresis" unicode="&#xf6;" horiz-adv-x="990" 
d="M735 476h35q124 -20 124 -135v-52q0 -183 -132 -289v3q78 147 78 266v49q-14 115 -86 115h-11q62 -84 62 -180v-13q0 -158 -147 -214q-53 -13 -97 -13h-28q-107 0 -158 72v23h-8q-58 -98 -155 -98h-20q-87 0 -143 115q-4 12 -4 26v23q0 39 43 89h7v-30l-11 -66
q0 -82 101 -118h11q96 0 148 115q0 17 3 30q0 44 -85 59h-74q-7 0 -7 6v7q128 97 128 118q7 21 7 26q0 20 -27 20q-58 0 -116 -69l-4 -13h-8v23q26 92 136 92h23q38 0 47 -49v-14q0 -37 -89 -114q116 -19 116 -92q0 -30 -19 -76q57 -52 158 -52h8q152 0 194 118q12 30 12 69
v6q0 116 -89 204q0 6 77 13zM604 233q67 -40 108 -116q64 -133 64 -192q-3 -44 -12 -44q-74 252 -208 328l-4 8q26 16 52 16zM502 1127h8q44 -225 44 -258q-9 -37 -40 -37h-4q-44 6 -44 41v18q36 196 36 236zM718 860q96 -18 96 -92v-32q0 -130 -164 -188q-52 -16 -104 -16
h-56q-261 0 -304 172v44q29 108 100 108h28q80 -15 80 -76q-4 -22 -4 -32h-4q-39 56 -80 56q-64 -13 -64 -60v-16q0 -110 188 -144q35 -4 60 -4h16q176 0 236 100q12 36 12 48v16q0 52 -48 52q-32 0 -88 -24v4q0 57 92 84h8zM514 816h16q77 0 88 -96v-16q0 -68 -68 -88h-16
v4q48 40 48 80v8q0 60 -68 60h-8q-64 0 -64 -72q0 -19 32 -76l-8 -4q-68 33 -68 96q0 88 116 104z" />
    <glyph glyph-name="otilde" unicode="&#xf5;" horiz-adv-x="1270" 
d="M341 482h33q39 0 55 -54v-16q0 -49 -106 -140v-4q138 -18 138 -105q0 -133 -152 -206q-36 -15 -74 -15q-129 0 -190 155v43q0 56 56 101h4v-31l-14 -78q0 -94 111 -140h33q89 0 157 113q9 27 9 47v23q-18 58 -120 58h-65q-6 0 -14 12q158 118 158 148q9 19 9 27
q0 23 -32 23q-77 0 -139 -85q-5 -8 -5 -12h-9v27q30 109 157 109zM980 465q180 0 240 -157q5 -28 5 -45v-45q0 -153 -185 -240q-31 -13 -70 -13q-95 0 -143 100h5q61 -25 101 -25h10q226 22 226 194v8q-19 166 -185 166h-9q-121 0 -153 -108q-13 -264 -55 -277v-8
q55 -110 55 -174v-4l-4 -41h-9q-37 120 -79 190h-5q-42 -12 -97 -16q-150 0 -180 78q4 0 4 4q87 -25 148 -25h14q74 3 74 17q-48 49 -129 112v4q35 12 51 12h4q43 0 111 -95h9q22 25 33 240q48 124 97 124q34 24 116 24z" />
    <glyph glyph-name="Eth" unicode="&#xd0;" 
d="M-258 -98q128 0 192 -97q24 -46 24 -109v-7q0 -109 -69 -211q-12 -17 -42 -23q0 1 -1 1q69 123 69 230q0 112 -86 158q-39 18 -86 18q-107 0 -145 -91q-12 -38 -12 -96h1q162 -46 162 -145q0 -54 -49 -72q-6 -1 -15 -2q-54 0 -97 77q-23 48 -41 103q-28 5 -39 5
q-25 0 -25 -25v-4q0 -30 49 -104q9 -16 9 -25q0 -24 -53 -29q-8 0 -11 -1q-57 0 -107 35q-24 24 -24 54v9q0 38 59 108q59 78 59 122q0 29 -27 41q-8 2 -18 3q-44 0 -84 -49q-23 -31 -23 -111q-4 -27 -14 -42q-27 59 -27 98q0 95 100 141q29 10 53 10q53 0 78 -34
q11 -18 11 -48q0 -52 -30 -104q4 2 11 2h5q15 0 36 -3q0 113 54 162q56 55 153 55zM-404 -373q22 -83 62 -114q15 -9 27 -9q15 2 15 25v4q0 64 -104 94zM-597 -443v-8q0 -25 27 -42q13 -7 24 -7h7q10 1 10 6q0 7 -29 61q-6 20 -7 38l2 20q-34 -44 -34 -68z" />
    <glyph glyph-name="Ntilde" unicode="&#xd1;" 
d="M-305 -93h45q34 0 138 -12v-4q0 -18 -183 -23q-103 -19 -183 -95q-41 -58 -41 -91v-24q0 -85 94 -114v4q-4 27 -4 43v12q0 136 175 162q163 0 207 -174v-67q0 -22 -8 -59h-8q-32 173 -86 213q-46 32 -101 32q-106 0 -122 -103v-28q0 -41 16 -106l-12 -8q-216 45 -216 178
v35q0 146 203 217q43 12 86 12z" />
    <glyph glyph-name="Ograve" unicode="&#xd2;" 
d="M-185 -90h38q83 0 99 -129v-61q0 -185 -84 -250h-4v4q42 151 42 246q0 125 -64 125h-12q53 -49 53 -117v-28q0 -178 -133 -230h-38q-78 0 -99 93q-5 73 -15 73h-4q-69 -162 -164 -162h-4q-91 9 -91 81v28q0 123 122 299q23 12 30 12h12q23 -3 23 -12q-133 -158 -145 -307
q0 -53 57 -53q63 0 126 162q30 32 45 32q34 0 61 -161q19 -24 46 -24h19q85 0 103 141v40q0 83 -57 101q-36 0 -76 -60h-4q0 118 76 149q15 8 42 8z" />
    <glyph glyph-name="Oacute" unicode="&#xd3;" 
d="M-262 -98h41q116 0 171 -129q5 -28 5 -45v-53q0 -88 -92 -210q-17 -12 -33 -12h-18v4q74 149 74 251v20q-16 121 -111 121h-23q-95 0 -135 -60v-4h5q43 28 69 28q115 0 135 -158v-4q0 -127 -172 -190q-43 -8 -69 -8h-51q-163 0 -226 109q-14 37 -14 61q0 84 83 198v4h-5
q-64 -37 -111 -166h-9q-9 33 -9 41v16q29 162 162 162q60 -4 60 -25q-97 -133 -102 -222q0 -129 199 -129h23q145 0 180 133v20q-13 109 -74 109t-124 -97q-23 27 -23 69q0 107 134 158q41 8 60 8z" />
    <glyph glyph-name="Ocircumflex" unicode="&#xd4;" 
d="M-50 10l5 -11v-11q0 -21 -124 -59q26 -98 26 -163v-54q0 -289 -232 -380q-20 -5 -41 -5h-52q-160 0 -201 157v82q0 262 619 444zM-607 -467q0 -127 144 -146h16q176 0 232 222q10 68 10 114v11q0 63 -20 168q9 5 15 5v5h-5q-392 -164 -392 -379zM-362 -405
q67 -40 108 -116q64 -133 64 -192q-3 -44 -12 -44q-74 252 -208 328l-4 8q26 16 52 16z" />
    <glyph glyph-name="Otilde" unicode="&#xd5;" horiz-adv-x="6" 
d="M-611 -130q0 -1 1 -1q-78 -125 -78 -192v-13q0 -84 94 -112q38 -9 83 -9q99 0 174 28q55 110 140 137q17 6 31 6h5q35 0 47 -23q3 -5 4 -16q0 -39 -54 -88q-56 -43 -113 -58q8 -37 25 -56q34 -27 91 -27q65 0 162 51h1v-1q-27 -38 -62 -67q-47 -33 -113 -33h-7
q-115 0 -147 76q-8 17 -8 39q-108 -29 -167 -29h-20q-113 0 -192 65q-48 44 -48 113q0 95 75 176q24 23 76 34zM-273 -422h1q14 0 62 22q50 29 50 54v1q-2 16 -13 16h-6q-29 0 -69 -42q-25 -44 -25 -51z" />
    <glyph glyph-name="Odieresis" unicode="&#xd6;" 
d="M-385 -92q168 0 225 -81q45 -49 45 -123v-14q0 -112 -61 -201q-24 -29 -66 -29q0 -1 -2 -1v1q71 141 71 193q1 8 3 31q0 79 -34 111q-59 66 -194 66q-127 0 -163 -80q-18 -40 -18 -89v-12q0 -112 68 -203q0 -2 4 -7q-2 0 -2 -1q-21 -1 -32 -1h-14q-76 0 -129 40
q-45 47 -45 124q0 51 42 163v1q-17 -4 -31 -33q-6 -17 -11 -53q-35 9 -35 47q0 50 64 85q21 8 32 8h9q19 0 41 -12q-54 -132 -54 -195q0 -83 60 -119q14 -5 18 -5q-42 73 -42 144q0 123 57 187q56 58 194 58zM-425 -219q67 -40 108 -116q64 -133 64 -192q-3 -44 -12 -44
q-74 252 -208 328l-4 8q26 16 52 16z" />
    <glyph glyph-name="multiply" unicode="&#xd7;" horiz-adv-x="623" 
d="M246 189q67 -40 108 -116q64 -133 64 -192q-3 -44 -12 -44q-74 252 -208 328l-4 8q26 16 52 16zM415 449h10q53 0 98 -27q55 -35 55 -131q0 -139 -77 -237q-15 -19 -60 -54v1q46 79 65 138q18 58 18 128q0 93 -44 123q-26 21 -57 21h-2q22 -26 39 -67q23 -63 23 -102v-13
q0 -65 -40 -128q-37 -51 -107 -71q-58 -17 -121 -17h-2q-94 0 -181 45q-24 17 -27 34q-4 15 -5 16q1 0 1 1q106 -49 196 -49h6q134 0 194 80q28 42 28 102q0 85 -77 199q42 8 67 8z" />
    <glyph glyph-name="Oslash" unicode="&#xd8;" horiz-adv-x="745" 
d="M479 451h6q102 0 168 -68q47 -50 47 -135q0 -152 -145 -231q-39 -17 -68 -17h-10q-77 0 -119 75q-1 0 -8 11v2h1q53 -25 98 -25q92 0 161 64q43 53 43 117q0 65 -48 118q-53 40 -117 40q-61 0 -110 -37q-20 -21 -29 -51q-10 -32 -17 -179q-7 -36 -15 -53q-23 -47 -61 -65
q-35 -12 -81 -12q-73 0 -128 27q-17 12 -27 41l2 1q84 -22 128 -22h10q81 0 109 47q24 42 24 100v24q0 103 23 140q49 88 163 88zM186 180q59 -36 96 -103q57 -118 57 -171q-3 -39 -11 -39q-65 224 -184 292l-4 7q23 14 46 14z" />
    <glyph glyph-name="Ugrave" unicode="&#xd9;" 
d="M-50 10l5 -11v-11q0 -21 -124 -59q26 -98 26 -163v-54q0 -289 -232 -380q-20 -5 -41 -5h-52q-160 0 -201 157v82q0 262 619 444zM-607 -467q0 -127 144 -146h16q176 0 232 222q10 68 10 114v11q0 63 -20 168q9 5 15 5v5h-5q-392 -164 -392 -379z" />
    <glyph glyph-name="Uacute" unicode="&#xda;" 
d="M-50 10l5 -11v-11q0 -21 -124 -59q26 -98 26 -163v-54q0 -289 -232 -380q-20 -5 -41 -5h-52q-160 0 -201 157v82q0 262 619 444zM-607 -467q0 -127 144 -146h16q176 0 232 222q10 68 10 114v11q0 63 -20 168q9 5 15 5v5h-5q-392 -164 -392 -379z" />
    <glyph glyph-name="Ucircumflex" unicode="&#xdb;" 
d="M-49 -548l5 -12v-6q0 -19 -98 -29q20 -38 20 -88q0 -168 -222 -199h-72q-140 12 -140 94v29q0 130 507 211zM-163 -601v-6h16v6h-16zM-504 -771v-6q0 -58 103 -58h47q156 0 176 141v23l-6 59h16v5h-10q-326 -84 -326 -164z" />
    <glyph glyph-name="Yacute" unicode="&#xdd;" horiz-adv-x="159" 
d="M275 484h31q141 0 195 -172q8 -44 8 -63v-52q0 -131 -119 -216q-49 -19 -84 -19h-8q-67 0 -111 72v5q70 -20 107 -20q105 0 151 135q12 55 12 95q-22 178 -170 178q-138 0 -191 -173q-13 0 -28 -488q-16 -257 -52 -393q-73 -230 -230 -230h-28q-119 24 -119 115v29
q0 109 183 129h8q71 -5 71 -24q0 -10 -111 -24q-99 -33 -99 -105q0 -53 63 -63h36q234 0 234 657q17 455 56 483q74 144 195 144z" />
    <glyph glyph-name="ae" unicode="&#xe6;" horiz-adv-x="623" 
d="M415 449h10q53 0 98 -27q55 -35 55 -131q0 -139 -77 -237q-15 -19 -60 -54v1q46 79 65 138q18 58 18 128q0 93 -44 123q-26 21 -57 21h-2q22 -26 39 -67q23 -63 23 -102v-13q0 -65 -40 -128q-37 -51 -107 -71q-58 -17 -121 -17h-2q-94 0 -181 45q-24 17 -27 34
q-4 15 -5 16q1 0 1 1q106 -49 196 -49h6q134 0 194 80q28 42 28 102q0 85 -77 199q42 8 67 8z" />
    <glyph glyph-name="ccedilla" unicode="&#xe7;" horiz-adv-x="745" 
d="M479 451h6q102 0 168 -68q47 -50 47 -135q0 -152 -145 -231q-39 -17 -68 -17h-10q-77 0 -119 75q-1 0 -8 11v2h1q53 -25 98 -25q92 0 161 64q43 53 43 117q0 65 -48 118q-53 40 -117 40q-61 0 -110 -37q-20 -21 -29 -51q-10 -32 -17 -179q-7 -36 -15 -53q-23 -47 -61 -65
q-35 -12 -81 -12q-73 0 -128 27q-17 12 -27 41l2 1q84 -22 128 -22h10q81 0 109 47q24 42 24 100v24q0 103 23 140q49 88 163 88z" />
    <glyph glyph-name="asterisk" unicode="*" 
d="M-408 915q88 0 143 -117q37 -101 37 -185q0 -74 -39 -110h-2q0 45 -22 175q-35 167 -120 167h-14q-33 0 -108 -39l-1 2q4 25 22 56q44 51 104 51z" />
    <glyph glyph-name="bracketleft" unicode="[" horiz-adv-x="795" 
d="M582 449h49q98 0 119 -135v-32q0 -162 -98 -270q-8 -4 -17 -4h-4q62 157 62 261v9q-1 91 -66 122q-12 0 -29 4q58 -81 58 -179v-5q0 -154 -177 -212q-49 -8 -77 -8h-54q-197 0 -250 131q-4 22 -4 36v9q0 96 62 195v5h-4q-50 -40 -82 -156h-9q-16 7 -16 29v29
q30 167 152 167q65 -11 65 -37q-98 -125 -98 -237q0 -122 197 -122q166 0 225 110q8 37 8 53v4q0 115 -78 221v4q47 8 66 8zM435 221q67 -40 108 -116q64 -133 64 -192q-3 -44 -12 -44q-74 252 -208 328l-4 8q26 16 52 16z" />
    <glyph glyph-name="eight" unicode="8" horiz-adv-x="686" 
d="M503 624h7q40 0 58 -119q29 11 42 11h4q24 0 27 -35v-2q-2 -37 -2 -59v-6l1 -2q-1 0 -1 -1q-28 10 -28 53q0 5 -2 15h-6q-6 0 -30 -17v-1q7 -83 7 -137q0 -142 -51 -234q-67 -90 -194 -90q-125 0 -185 69q-47 60 -47 136q0 104 54 188v1q-53 0 -82 -158q-1 -5 -3 -5
q-20 12 -24 29q-3 17 -3 29v9q0 63 44 115q41 36 84 36q31 0 75 -22v-1q-85 -118 -85 -223v-4q0 -113 110 -144q28 -10 58 -10h13q81 0 137 69q53 80 53 243q-1 14 -2 95q-4 -2 -17 -2h-3q-42 0 -64 33q-7 12 -7 31q0 53 38 98q14 12 24 12zM487 514v-3q0 -18 15 -18h17
q0 28 -14 62l-2 1h-1q-15 -15 -15 -42z" />
    <glyph glyph-name="U" unicode="U" 
d="M-108 0l4 -8q0 -31 -79 -89q-48 -52 -48 -105q0 -29 28 -31q91 39 127 39h16q70 0 80 -105v-35q0 -166 -108 -366h-8q0 42 60 268q0 6 4 63q0 85 -60 97h-12q-13 0 -135 -31q-40 15 -40 58v43q0 119 171 202z" />
    <glyph glyph-name="circumflexmod" unicode="&#x2c6;" horiz-adv-x="526" 
d="M254 66q-41 0 -79 13t-66.5 36t-46 54t-17.5 67q0 35 11.5 68t37 58t65 39.5t95.5 14.5q55 0 95 -14.5t66 -39t37.5 -57.5t11.5 -69q0 -33 -17 -64t-46 -54.5t-67 -37.5t-80 -14zM261 117q86 0 129 33.5t44 93.5q0 28 -14.5 49.5t-39 36t-56.5 22t-66 7.5t-64 -6.5
t-54 -21.5t-38.5 -36.5t-16.5 -50.5q-1 -28 10.5 -50.5t34.5 -39.5t55.5 -27t75.5 -10z" />
    <glyph glyph-name="OE" unicode="&#x152;" horiz-adv-x="745" 
d="M556 449h40q87 0 104 -132v-62q0 -189 -88 -255h-4v4q44 154 44 251q0 128 -68 128h-12q56 -50 56 -119v-29q0 -182 -140 -235h-40q-82 0 -103 95q-6 74 -16 74h-4q-73 -165 -172 -165h-4q-96 9 -96 83v28q0 111 104 272h-8q-80 -21 -80 -156h-8q-16 41 -16 49v29
q0 92 92 128l24 4h16q24 0 40 -25v-21q-10 -30 -88 -160q-24 -71 -32 -124q0 -57 60 -57q66 0 132 164q32 33 48 33q35 0 63 -164q20 -25 48 -25h20q108 24 108 144v41q0 85 -60 103q-37 0 -80 -62h-4q0 121 80 153q16 8 44 8z" />
    <glyph glyph-name="plus" unicode="+" horiz-adv-x="550" 
d="M101 242h328q51 0 66 -23v-10q0 -13 -85 -16h-259q-104 0 -104 20v13q0 14 54 16zM296 387l-1 -328q0 -51 -23 -66l-9 1q-14 0 -17 84l1 259q0 105 19 105l13 -1q15 0 17 -54z" />
    <glyph glyph-name="slash" unicode="/" horiz-adv-x="229" 
d="M-67 766h36q96 0 135 -132q12 -50 12 -118q0 -98 -92 -607q-12 -108 -12 -184q0 -227 172 -315v-5q-4 -14 -24 -14h-4q-67 0 -168 141q-35 101 -35 198v14q0 183 103 659q8 59 8 99v47q0 160 -111 160h-8q-128 0 -128 -145v-10q0 -22 20 -108q-55 0 -68 113v37
q0 122 112 161q18 9 52 9z" />
    <glyph glyph-name="Zcaron" unicode="&#x17d;" 
d="M-230 -104h16q87 0 147 -67q35 -46 35 -115q0 -62 -34 -177q-4 -15 -4 -28v-2q0 -3 50 -9q17 -1 27 -1h15q71 0 170 28l1 -1v-9q0 -28 -149 -50q-22 -3 -46 -3h-5q-94 0 -108 19q-3 10 -3 11q0 10 21 65q28 86 28 140v2q0 105 -82 146q-33 14 -69 14q-88 0 -124 -75
q-14 -34 -14 -97v-1q0 -2 41 -15q101 -45 101 -116v-12q0 -36 -31 -56q-11 -7 -25 -7q-71 0 -120 166q0 4 -31 6h-8q-18 -2 -18 -21v-5q0 -28 38 -87q13 -24 13 -33q0 -21 -41 -27q-10 -1 -18 -1q-50 0 -93 33q-21 23 -21 54q0 35 37 83q68 91 68 135q0 32 -31 40q-3 1 -8 1
h-2q-36 0 -70 -42q-23 -26 -23 -109q-3 -15 -11 -37h-2q-23 58 -23 89v5q0 81 80 125q27 13 52 13h6q49 0 69 -38q6 -18 6 -38q0 -48 -26 -96h1q5 1 13 1q6 0 32 -3v1q0 108 51 153q50 48 122 48zM-350 -359v-1q2 -18 25 -69q27 -46 52 -46h3q12 0 12 26q0 60 -92 90z
M-491 -362q-30 -45 -30 -66q0 -35 34 -48q9 -3 17 -3q9 0 11 6q-3 13 -25 54q-8 23 -8 39q0 5 2 17v1h-1z" />
    <glyph glyph-name="tildemod" unicode="&#x2dc;" horiz-adv-x="229" 
d="M-243 -663q-278 -89 -407.5 -1t-118.5 287q4 81 36 278l10 -2q-20 -174 -23 -232q-11 -202 113 -271t394 12zM2 440h45q99 -12 99 -97q8 -26 8 -102v-102q-16 -739 -86 -739h-8q53 480 53 812q0 170 -45 170v-5q16 -43 16 -151v-87q0 -795 -156 -938q-73 -58 -143 -58
h-29q-123 25 -123 117v29q0 110 189 131h12q70 -5 70 -24q0 -10 -115 -25q-103 -31 -103 -107q0 -53 66 -63h29q159 0 213 263q45 277 45 714q0 204 -45 252q1 10 8 10z" />
    <glyph glyph-name="euro" unicode="&#x20ac;" horiz-adv-x="565" 
d="M103 60l278 360q43 56 78 55l9 -7q13 -10 -56 -106l-219 -284q-89 -114 -108 -99l-12 9q-14 11 30 72zM183 439l267 -369q41 -57 30 -90l-9 -7q-13 -10 -86 83l-209 291q-85 117 -66 131l13 10q14 10 60 -49z" />
    <glyph glyph-name="two" unicode="2" horiz-adv-x="901" 
d="M647 504q139 0 194 -135q15 -41 15 -83q0 -126 -132 -353l-86 -151q63 -40 98 -40q37 0 87 31h1v0q-10 -32 -32 -45q-34 -19 -67 -19h-10q-43 0 -99 32h-2q-70 -122 -148 -225l-1 -3q3 -43 3 -44q0 -97 -89 -147q-40 -20 -66 -20h-9q-25 0 -25 18q0 22 100 158
q20 30 20 35q0 19 -115 74q-47 22 -101 57q-67 50 -67 114q0 86 99 121q57 16 105 16q119 0 276 -89q100 181 147 286q56 126 56 207q0 92 -79 142q-32 14 -60 14h-5q-69 0 -108 -49q-12 -13 -26 -52q-17 -56 -34 -183h-1q-2 0 -19 46q-32 77 -58 97q-36 27 -71 27
q-49 0 -83 -59q-19 -41 -19 -87q0 -96 116 -198v-1q-61 -8 -94 -8q-95 0 -151 51q-39 41 -39 103q0 84 84 206q13 22 13 29h-1h-3q-51 0 -97 -126q-6 -19 -6 -21h-2q-11 33 -11 44v9q0 38 45 96q42 45 91 45h12q27 0 35 -17q2 -3 2 -9v-3q0 -31 -58 -116q-50 -79 -50 -135
q0 -59 64 -101q26 -13 71 -18q-68 66 -68 150v15q0 111 86 185q33 25 66 25h2q67 0 123 -72q12 57 25 90q24 50 74 71q42 15 82 15zM183 -231v-4q0 -36 50 -86q46 -35 116 -71q37 -19 78 -53q0 -1 6 -4q65 90 139 215q-94 62 -141 69q-70 18 -125 18h-1q-90 0 -115 -55
q-7 -13 -7 -29z" />
    <glyph glyph-name="zcaron" unicode="&#x17e;" horiz-adv-x="767" 
d="M391 701h8q44 -225 44 -258q-9 -37 -40 -37h-4q-44 6 -44 41v18q36 196 36 236zM607 434q96 -18 96 -92v-32q0 -130 -164 -188q-52 -16 -104 -16h-56q-261 0 -304 172v44q29 108 100 108h28q80 -15 80 -76q-4 -22 -4 -32h-4q-39 56 -80 56q-64 -13 -64 -60v-16
q0 -110 188 -144q35 -4 60 -4h16q176 0 236 100q12 36 12 48v16q0 52 -48 52q-32 0 -88 -24v4q0 57 92 84h8zM403 390h16q77 0 88 -96v-16q0 -68 -68 -88h-16v4q48 40 48 80v8q0 60 -68 60h-8q-64 0 -64 -72q0 -19 32 -76l-8 -4q-68 33 -68 96q0 88 116 104z" />
    <glyph glyph-name="three" unicode="3" horiz-adv-x="806" 
d="M540 515h33q84 0 147 -116q16 -49 16 -86v-25q0 -269 -364 -382q-257 -120 -257 -301q0 -99 118 -154v4q-8 77 -8 111q0 216 217 279l65 5q176 0 242 -176q12 -35 12 -73v-39q0 -126 -94 -257q-17 -9 -25 -9l-4 9q66 154 66 274q0 161 -131 206q-47 9 -66 9
q-168 0 -225 -180q-4 -30 -4 -48v-8q0 -57 12 -176q-4 0 -4 -4q-108 25 -159 77q-66 75 -66 163q0 230 324 348q213 89 253 163q45 82 45 167v17q0 107 -82 142q-28 8 -49 8q-102 0 -102 -137q-4 -4 -4 -34q4 -58 4 -99q-16 -9 -53 -13q-36 155 -78 155q0 7 -29 8
q-65 -14 -65 -116v-25q0 -94 110 -202q-37 -22 -61 -22h-41q-134 0 -159 142v22q0 35 49 171q-31 0 -58 -137h-8q-12 31 -12 39v34q23 137 98 137q34 0 37 -43l-49 -184v-43q0 -76 110 -90q-69 76 -69 189q0 155 106 180h37q35 0 82 -43q0 126 110 159q16 4 33 4z" />
    <glyph glyph-name="ellipsis" unicode="&#x2026;" 
d="M-488 -56q142 0 273 -62q91 -46 147 -171q23 -55 23 -111q0 -92 -44 -196q-43 -85 -77 -113q-29 -21 -63 -32v1q120 148 120 337q0 176 -173 261q-89 39 -164 39h-5q-20 -1 -21 -6v-1q46 -4 128 -34q113 -51 166 -165q23 -60 23 -118q0 -102 -63 -198q-71 -91 -181 -91
h-3q-35 0 -68 24q135 183 135 299v15q0 72 -69 126q-36 20 -75 20q-97 0 -132 -90q-18 -53 -38 -202h-3q-50 135 -89 157q-33 20 -61 20q-50 0 -84 -61q-17 -38 -17 -79v-8q0 -96 119 -199v-1q-61 -8 -91 -8h-19q-91 0 -152 58q-33 44 -33 91v11q0 84 93 216q5 12 5 15h-5
q-46 0 -94 -126q-7 -24 -7 -26h-3q-13 39 -13 56q0 47 56 111q42 37 90 37q47 0 47 -29v-3q0 -30 -73 -140q-37 -66 -37 -113q0 -56 58 -96q37 -21 72 -21q-67 63 -67 157q0 133 106 206q28 14 53 14q71 0 124 -71h1q17 79 32 102q30 48 85 64q30 9 59 9h19q103 0 168 -91
q36 -61 36 -110v-18q0 -103 -121 -280h1q67 15 100 52q34 35 55 96q17 52 17 94v9q0 109 -87 198q-61 51 -97 61q-81 32 -175 36q-72 2 -72 5v9q0 47 137 63q15 1 28 1z" />
    <glyph glyph-name="four" unicode="4" horiz-adv-x="507" 
d="M358 478q47 0 64 -30q7 -15 7 -25v-8q0 -46 -112 -126q40 0 89 -21q54 -28 54 -71v-6q0 -63 -67 -134q-77 -57 -153 -57q-108 0 -178 99q-17 32 -17 63q0 58 59 105q0 -1 1 -1q1 -18 1 -27v-4q0 -6 -13 -54v-15q0 -71 87 -116q20 -9 44 -9h2q74 0 140 63q40 39 40 90
q0 47 -86 61q-29 3 -42 3q-52 -1 -59 -1t-12 7v2q0 10 71 51t91 96v8q0 19 -25 22h-10q-49 0 -120 -53q-9 -9 -25 -37h-2v1q0 8 -1 29q0 29 44 61q57 34 128 34z" />
    </font>
</defs>
</svg>
