<?xml version="1.0" standalone="no"?>
<!DOCTYPE svg PUBLIC "-//W3C//DTD SVG 1.1//EN" "http://www.w3.org/Graphics/SVG/1.1/DTD/svg11.dtd" >
<svg xmlns="http://www.w3.org/2000/svg" xmlns:xlink="http://www.w3.org/1999/xlink" version="1.1">
<metadata>
Created by FontForge 20190801 at Thu Dec  2 19:59:56 2021
 By www-data
Copyright 2019 I Wayan Sukanta All Right Reserved
</metadata>
<defs>
<font id="WakulKebah" horiz-adv-x="0" >
  <font-face 
    font-family="Wakul Kebah"
    font-weight="400"
    font-stretch="normal"
    units-per-em="2048"
    panose-1="2 11 8 3 5 3 2 2 2 4"
    ascent="1638"
    descent="-410"
    x-height="60"
    cap-height="1921"
    bbox="-2123 -1848 2823 2134"
    underline-thickness="100"
    underline-position="-40"
    unicode-range="U+001D-2122"
  />
<missing-glyph horiz-adv-x="1" 
 />
    <glyph glyph-name=".notdef" horiz-adv-x="1" 
 />
    <glyph glyph-name=".notdef" horiz-adv-x="1" 
 />
    <glyph glyph-name="five" unicode="5" horiz-adv-x="1357" 
d="M700 946h21q362 0 540 -285q46 -96 46 -202v-10q0 -305 -411 -1544q-70 -239 -157 -671q-162 65 -162 216q0 204 386 1311q144 409 144 632v32q0 229 -256 333q-56 21 -140 21q-299 0 -415 -295q-24 -88 -24 -157v-3q0 -236 189 -317q60 -24 113 -24q125 0 196 94l4 24v7
q0 99 -274 188v3q46 151 53 153q176 -48 238 -48l4 7v7q0 73 -116 142q-46 14 -60 14q-36 -7 -73 -7q-7 26 -7 49v10q0 52 66 91q10 7 46 10q145 0 267 -191q28 -74 28 -115v-24q0 -80 -155 -80v-4q169 -107 169 -201v-7q0 -128 -172 -195q-53 -17 -109 -17h-25
q-248 0 -452 187q-102 122 -102 268q0 368 323 535q154 63 277 63z" />
    <glyph glyph-name="six" unicode="6" horiz-adv-x="1371" 
d="M826 909h13q103 0 164 -78v-3q-323 -58 -505 -188q-138 -120 -161 -180q-63 -112 -63 -194v-9q0 -57 22 -87q51 94 224 275q206 178 404 242q95 33 174 33q111 0 170 -161q3 -4 3 -21v-9q0 -58 -161 -556q-11 0 -145 66q28 87 139 454q-49 6 -76 6q-164 0 -413 -212
q-128 -137 -206 -305q-4 -8 -101 -60q-208 157 -208 368v15q0 201 224 406q272 198 502 198z" />
    <glyph glyph-name="seven" unicode="7" horiz-adv-x="1951" 
d="M1270 1347q391 -52 456 -138q51 -36 51 -131v-23q8 -7 138 -41q106 -46 106 -123v-4q0 -47 -102 -116q-125 -11 -138 -15q0 4 -4 4q67 97 67 138q0 42 -94 60q-16 -72 -260 -913q-201 -45 -212 -45q-323 103 -361 161q-28 47 -28 97v4q0 132 114 509h-4
q-200 -46 -200 -127v-34q0 -8 -8 -8q-77 22 -110 49q-86 -304 -86 -389q0 -72 78 -94l197 -45q-66 -101 -134 -101q-121 0 -306 90q-86 57 -86 139v3q0 121 153 491h-4q-98 0 -220 -173q-23 -34 -32 -116q-141 60 -141 165q0 233 334 341q78 18 204 18q130 -41 130 -52
l-28 -94q153 95 338 116q189 -37 189 -45v-3q-162 -538 -162 -603q0 -73 173 -123q0 -3 40 -19l251 797q-229 29 -267 79q-47 30 -47 146q0 42 8 164zM1384 1227v-22q0 -4 -4 -4q0 -68 106 -90q84 -22 99 -22v7q0 69 -55 94q-94 37 -146 37z" />
    <glyph glyph-name="nine" unicode="9" horiz-adv-x="1826" 
d="M1279 1307q320 -51 384 -142q32 -41 32 -135v-8q0 -6 95 -33q106 -48 106 -116v-11q0 -53 -84 -117l-113 -15q0 4 -4 4q46 80 55 124q0 56 -76 69q-117 -512 -198 -766q-53 -105 -135 -135q-79 -22 -153 -22q-110 0 -157 47q-77 39 -88 55q84 456 117 624h-25
q-54 0 -73 -135q-75 -380 -146 -507q-51 -88 -238 -88q-196 0 -285 161q-18 46 -18 102q0 153 135 449h-3q-94 0 -172 -197q-7 -16 -11 -44q0 -7 7 -29q-3 0 -3 -4q-128 40 -128 110v7q0 140 186 292q100 62 230 62q28 0 102 -88q-192 -528 -193 -584q0 -73 190 -73h11
q64 0 84 66q29 103 117 478q51 141 109 168q45 26 128 26q68 0 139 -48q40 -14 40 -22q0 -12 -121 -671h70q136 0 171 124l157 639q-148 22 -204 62q-51 35 -51 135v36q0 9 -4 15q4 6 4 15q0 120 14 120zM1367 1194v-22q0 -74 73 -91l95 -30v4q0 87 -70 110q-49 18 -98 29z
" />
    <glyph glyph-name="colon" unicode=":" horiz-adv-x="752" 
d="M659 827q72 -45 73 -60v-17q-161 -290 -328 -290q-175 23 -175 162q14 137 14 145h15q88 -77 175 -77q81 0 226 137zM596 399h15q69 -45 70 -59v-9q-169 -290 -339 -290h-30q-162 39 -162 137q0 108 23 170q102 -77 185 -77h23q68 0 215 128z" />
    <glyph glyph-name="semicolon" unicode=";" horiz-adv-x="981" 
d="M582 895h21q203 0 267 -188q11 -35 11 -81v-7q0 -267 -374 -425q-100 -24 -146 -24v-4q310 -222 310 -428v-39q-20 -352 -292 -891q-138 -254 -317 -475q-120 -124 -192 -180q-137 25 -146 25v7q207 221 342 477q329 621 356 995v7q0 199 -257 382q-53 28 -138 60v4
q71 159 85 159q219 51 296 99q181 106 181 212v11q0 67 -100 67q-131 0 -370 -311h-3q-7 2 -68 113v3q53 136 221 312q144 120 313 120z" />
    <glyph glyph-name="less" unicode="&#x3c;" horiz-adv-x="2059" 
d="M918 917h16q138 0 180 -61q11 -37 11 -65v-4q0 -112 -144 -604v-27q0 -23 23 -23h35q216 669 231 692q208 81 258 81h71q200 0 200 -172v-31q0 -188 -169 -845v-4l12 -7h8q128 0 172 355v61l-4 39l8 3h31q83 0 102 -160v-15q0 -225 -106 -367q-93 -110 -274 -153
q-4 0 -51 -8q-96 129 -101 141q156 689 176 815v46q0 77 -98 87h-20q-58 0 -90 -11l-219 -661q-165 -65 -172 -65h-82q-108 0 -125 68q-4 33 -4 54q0 87 133 547q8 30 8 65v11q0 35 -47 35h-39q-155 0 -192 -176q-51 -191 -141 -597q-100 -80 -149 -80q-187 0 -246 149
q-20 54 -20 115v7q0 190 172 245q43 15 55 15v-3q-39 -48 -39 -161q0 -115 70 -153q8 0 28 -11q72 441 152 611q128 222 380 222z" />
    <glyph glyph-name="equal" unicode="=" horiz-adv-x="1495" 
d="M218 200v127h1202v-127h-1202zM218 455v135h1202v-135h-1202z" />
    <glyph glyph-name="greater" unicode="&#x3e;" horiz-adv-x="2716" 
d="M827 913q120 -55 143 -62v-6q-160 -538 -160 -613q0 -72 157 -72q90 0 129 20q0 -3 3 -3q-53 -154 -205 -154q-96 0 -203 48q-87 56 -87 171q0 121 115 442h-3q-67 -15 -154 -117q-45 -58 -45 -106q-118 50 -118 158q0 91 146 215q80 58 209 72q52 7 73 7zM1800 875
q6 0 146 -61l-174 -805h-3q-1 4 -157 93q41 192 108 537h-4q-114 -32 -178 -96q-90 -100 -111 -167h-4q-174 73 -174 89q66 157 87 219v3q-3 0 -3 3q-78 -8 -195 -109q-28 -29 -28 -79v-20q-110 0 -178 65q-18 24 -18 44q0 99 224 209q125 55 209 55h10q67 0 87 -103
q0 -9 -3 -68q234 191 359 191zM2110 848q149 -66 178 -82l-18 -76q116 93 199 93q51 0 147 -48v-3l-346 -1565q59 -52 203 -188v-4q-116 -151 -122 -154l-129 117h-4q-21 -112 -164 -750q-21 6 -181 99l178 808l-112 96q-205 -952 -216 -976h-3q-19 15 -199 117
q66 252 98 380q-106 -144 -248 -278q-193 -140 -401 -140h-21q-232 0 -334 161q-35 64 -35 134v41q0 134 101 284q-105 -21 -174 -21h-53q-244 0 -362 247q-42 106 -42 219v24q0 265 258 681q42 55 101 116h4q87 -99 87 -116q-234 -412 -234 -647q0 -228 157 -270
q45 -14 119 -18q152 0 460 93q2 0 115 51q7 -24 24 -253l-77 -24q-212 -171 -212 -308v-17q0 -86 136 -120q28 -7 59 -7h3q203 0 412 185q114 131 167 277q65 147 122 356q-134 118 -226 195q-40 -145 -133 -205q-109 -65 -220 -65h-24q-179 0 -265 133q-21 53 -21 89v38
q0 240 321 490q87 54 146 54q67 -8 67 -48q0 -7 3 -13q-10 -68 -31 -96q-3 0 -28 3q-93 -21 -213 -167q-59 -96 -59 -165v-20q0 -100 101 -117h14q129 0 146 158q4 44 4 72v13q58 44 219 134l265 -250q129 525 286 1253h7zM1995 -573l108 -99l283 1287h-4q-57 -2 -146 -82
q-241 -1090 -241 -1106z" />
    <glyph glyph-name="at" unicode="@" horiz-adv-x="1399" 
d="M1033 680l-102 -639q-3 -21 -3 -28q0 -32 30 -32q48 0 105 46.5t99 137.5t42 213q0 206 -123.5 333t-324.5 127q-233 0 -385 -161t-152 -430q0 -259 148 -411t378 -152q113 0 214.5 38t192.5 113h169q-105 -134 -260 -202.5t-316 -68.5q-275 0 -460 186t-185 490
q0 302 172.5 510t480.5 208q183 0 299 -70.5t194 -197t78 -312.5q0 -248 -138 -390t-277 -142q-104 0 -127 93q-54 -53 -94 -73.5t-96 -20.5q-120 0 -192.5 93.5t-72.5 249.5q0 202 101 359t246 157q58 0 105 -29t82 -87l13 92h159zM494 142q0 -75 32.5 -127.5t86.5 -52.5
q53 0 92.5 41t73.5 169t34 244q0 72 -30.5 117t-83.5 45q-98 0 -151.5 -138.5t-53.5 -297.5z" />
    <glyph glyph-name="A" unicode="A" horiz-adv-x="1643" 
d="M437 929q86 -20 140 -87v-4q-141 -376 -200 -587v-30q0 -72 143 -72q28 0 65 56q23 47 83 228q55 125 156 125h37q110 0 110 -46q8 -7 152 -360h7q69 220 69 383v27q0 3 3 3q0 114 -87 156q-45 12 -45 49q-31 114 -31 129h16q359 0 450 -99q111 -97 125 -163
q204 205 428 205h16q280 0 382 -227q34 -79 34 -163v-12q0 -209 -166 -405q-157 -125 -330 -125h-19q-170 7 -170 23q0 31 11 208h4q74 -79 182 -79q249 0 363 287q15 42 15 99q0 167 -178 208h-79q-129 0 -318 -147q-121 -126 -186 -296q-22 -45 -26 -45q-6 11 -137 132
q27 149 27 209v15q0 117 -122 159q-14 4 -49 4q53 -105 53 -209q0 -172 -98 -413q-42 -76 -171 -106q-54 -22 -64 -22q-79 169 -178 416l-23 23h-7q-22 -12 -107 -250q-57 -144 -200 -144q-141 0 -239 91q-61 78 -61 178v19q0 166 144 462h-3q-127 -53 -167 -125
q-22 -68 -34 -68q-57 38 -57 140v4q0 116 155 212q100 34 182 34z" />
    <glyph glyph-name="C" unicode="C" horiz-adv-x="1317" 
d="M559 919q108 0 108 -25q68 -65 68 -169l-150 -301h43q190 0 283 -169q40 -49 40 -57h3q54 235 54 359q0 156 -111 186q-38 0 -51 79q-28 69 -28 86v4h136q390 0 488 -205q7 0 7 -14q181 140 352 140h36q172 0 291 -126q86 -107 86 -244v-11q0 -198 -158 -384
q-148 -118 -312 -118h-18q-162 6 -162 22q0 44 11 197h4q70 -75 172 -75q231 0 344 269q15 48 15 97q0 157 -162 193l-50 8q-187 0 -391 -194q-74 -89 -108 -151l-7 -4h-7q-12 20 -115 144q32 87 32 133q0 88 -154 125h-29q58 -84 58 -179v-43q0 -145 -79 -377
q-24 -69 -173 -147q-8 -11 -25 -11q-27 74 -100 172q-90 112 -169 112q-167 0 -359 -226q-32 -43 -32 -54h-7q-122 98 -122 194q-5 0 -11 50q160 156 223 172q15 12 197 327v3h-4q-135 -36 -176 -104q-33 -26 -89 -165l-7 -3h-8q-53 40 -53 104v35q0 159 136 266
q120 79 240 79z" />
    <glyph glyph-name="D" unicode="D" horiz-adv-x="1521" 
d="M521 919h49q41 0 109 -98q0 -3 15 -37q-225 -426 -225 -519v-4q0 -29 15 -34q158 218 240 241q82 19 90 22q71 238 207 320q116 90 286 90q225 0 331 -199q172 154 369 154h37q238 0 361 -192q49 -100 49 -195v-12q0 -211 -169 -398q-154 -128 -339 -128h-30
q-80 0 -165 19q11 150 11 199q4 7 4 11h4q72 -79 184 -79q258 0 376 294q11 47 11 82v12q0 136 -131 188q0 6 -94 19q-192 0 -346 -155q-101 -141 -124 -267h-8q-154 100 -158 106q11 109 11 176q0 141 -105 181q-40 11 -68 11h-22q-194 0 -286 -263q102 -31 139 -94
q19 -52 19 -102v-11q0 -182 -154 -308q-26 -8 -45 -8q-120 0 -162 233q-8 41 -8 94v19h-3q-143 -128 -241 -274q-39 -53 -64 -53q-162 0 -218 120q-19 46 -19 98q0 188 196 542h-4q-108 0 -207 -203q-7 -25 -7 -34v-30l-4 -8q-128 48 -128 117v11q0 114 169 260
q114 86 252 86z" />
    <glyph glyph-name="E" unicode="E" horiz-adv-x="1488" 
d="M1187 905q201 -99 201 -105q-392 -1652 -561 -2488q-8 -109 -18 -109q-201 106 -201 178v14q0 209 406 1908q74 321 92 388q-309 0 -399 -174q-103 -174 -103 -381q0 -38 21 -159q-8 -22 -21 -22q-88 0 -197 145q-50 99 -50 192q0 109 110 377q7 20 7 40
q-81 -7 -202 -123q-28 -32 -28 -87v-11q0 -7 -7 -7q-187 21 -187 112q0 131 286 261q99 36 155 36h11q85 -18 85 -101v-25q0 -30 -7 -66q130 115 317 163q87 22 290 44zM1349 1474l3 -8l-7 -100q-20 -135 -67 -131q-28 -24 -358 -68q-234 -68 -249 -262l-2 -16q0 -8 -8 -7
q-42 32 -39 67q0 104 5 172q16 203 168 252q117 48 441 94q14 -1 113 7z" />
    <glyph glyph-name="F" unicode="F" horiz-adv-x="1847" 
d="M424 939h19q106 0 197 -57q0 -10 -11 -50q96 84 160 84q65 -15 97 -65q0 -2 26 -38v-4q-193 -531 -193 -601v-4q0 -55 78 -65l63 -7q67 0 134 256q57 157 172 157h22q120 0 120 -50q3 -1 149 -363h3q71 226 71 405q0 120 -59 157q-64 30 -64 46l-37 145l7 4
q381 0 470 -115q71 -61 97 -133h7q186 160 392 160q278 0 380 -229q33 -80 33 -165v-11q0 -212 -164 -410q-154 -126 -324 -126h-19q-97 0 -167 19q0 65 11 214h4q73 -80 179 -80q256 0 365 314q7 41 7 73q0 156 -145 206q-43 8 -60 8h-37q-163 0 -369 -188
q-71 -80 -134 -180h-4q-123 147 -123 157q26 87 26 134q0 97 -138 138l-26 4q52 -99 52 -214v-16q0 -172 -96 -405q-56 -77 -94 -77q-42 -19 -134 -50q-71 142 -164 394q-24 50 -45 50q-24 -29 -100 -245q-53 -153 -198 -153q-193 0 -272 150q-22 60 -22 118q0 163 138 490
h-4q-130 -49 -130 -103q-97 -351 -97 -444q0 -64 115 -134v-4q-39 -61 -100 -61q-144 0 -198 130q-10 41 -15 99q0 133 123 502h-7q-87 0 -179 -157q-11 -26 -11 -42v-16q-82 0 -101 107v23q0 150 149 268q75 50 175 50z" />
    <glyph glyph-name="G" unicode="G" horiz-adv-x="1725" 
d="M524 929q134 -78 143 -91q-136 -513 -136 -625q0 -95 103 -95h14q45 0 128 7v-4q-69 -157 -197 -157h-7q-134 0 -216 117q-26 46 -26 110v18q0 123 106 464q-95 -31 -164 -179q-29 -101 -29 -153h-11q-132 70 -132 182q0 191 238 351q102 55 186 55zM1178 889
q317 0 402 -307q8 -37 8 -66v-33q0 -162 -125 -333q-94 -102 -303 -149q-3 0 -121 138l8 4h3q224 0 304 205q18 65 18 117q0 151 -117 201q-30 11 -55 11h-18q-180 0 -351 -194q-29 -56 -29 -110q0 -68 77 -146v-3q-99 -66 -161 -66q-89 0 -110 128v33q0 240 256 464
q157 106 314 106zM2214 919h25q216 0 325 -175q49 -94 49 -185v-15q0 -213 -169 -393q-138 -105 -311 -105q-159 8 -159 21q0 26 11 197h3q65 -73 156 -73h28q224 0 332 284q7 44 7 69q0 146 -134 193q-55 10 -81 11q-179 0 -346 -164q-126 -150 -166 -371
q-58 -222 -124 -222q-26 -11 -99 -11h-7q-30 0 -74 7v4q84 59 131 247q72 310 144 419q200 262 459 262z" />
    <glyph glyph-name="H" unicode="H" horiz-adv-x="1684" 
d="M2111 908h26q246 0 356 -202q34 -85 34 -148v-14q0 -221 -195 -396q-147 -89 -306 -89q-101 4 -165 18q0 52 11 194h3q67 -70 162 -70h37q195 0 324 233q22 63 22 117q0 133 -140 180q-50 11 -92 11q-150 0 -338 -145q-116 -121 -159 -265q-47 -163 -95 -389l-8 -4
q0 3 -147 95q100 497 188 612q203 262 482 262zM470 931h63q63 -19 156 -66q-211 -540 -211 -671q0 -98 127 -98h25q68 0 97 35q54 97 152 482q64 196 161 260q114 58 354 58q178 -48 190 -58q-190 -831 -207 -920h-4q-21 0 -194 89q131 641 135 652q-42 0 -42 4l-21 -4h-38
q-94 0 -119 -81q-33 -96 -147 -497q-46 -144 -140 -144q-96 -23 -215 -23h-21q-209 0 -283 124q-12 65 -12 78q0 148 164 547h-8q-102 0 -203 -155q-29 -54 -46 -132h-4q-106 65 -106 186v12q0 159 232 295q73 27 165 27z" />
    <glyph glyph-name="I" unicode="I" 
d="M-674 1716q97 0 181 -106q42 -49 83 -200v-15l-109 -49q-92 206 -144 219q-44 38 -170 38h-15q-7 0 -7 7q99 106 181 106zM-494 1921q283 -14 368 -171q40 -66 34 -150q-16 -217 -262 -446q-223 -176 -370 -169h-5q-82 4 -151 80v4q51 -3 196 75l-28 2q-405 19 -541 247
q-9 38 -7 55v9q20 270 462 427q151 44 304 37zM-1031 1420q24 -136 303 -130l53 8q129 19 158 71h6q55 -38 66 -100q182 211 155 363l-3 21q-19 107 -174 123q-61 4 -121 -5q-262 -39 -401 -209q-54 -73 -42 -142z" />
    <glyph glyph-name="K" unicode="K" horiz-adv-x="1673" 
d="M546 898q107 -62 129 -139l-75 -254h4q139 11 139 18q74 216 200 286q122 82 286 82q272 0 350 -257q7 -57 7 -75v-25q0 -118 -114 -575q-32 9 -168 85q110 327 110 497q0 125 -100 168q-39 14 -85 14q-140 0 -236 -121q-20 -27 -61 -118q143 -49 143 -175v-4
q0 -205 -164 -332l-39 -11q-108 0 -147 186q-11 51 -11 121v54q-94 -9 -218 -129q-110 -126 -135 -214q-136 44 -190 136q0 4 -21 39q44 82 168 193q26 0 61 125q46 123 75 214h-4q-112 -46 -143 -107q-57 -74 -57 -164q-10 -29 -18 -29q-66 0 -125 111q-7 25 -7 43v7
q0 121 189 275q135 75 257 75zM2154 859h28q221 0 330 -165q50 -89 50 -175v-14q0 -215 -188 -384q-141 -86 -295 -86q-98 3 -160 17q0 54 11 189h4q64 -69 156 -69h35q189 0 313 227q21 61 21 113q0 126 -128 172q-25 10 -92 13q-165 0 -352 -161q-115 -143 -142 -278
q-21 -66 -85 -340h-3q0 3 -143 93q96 484 182 594q102 155 319 233q85 21 139 21z" />
    <glyph glyph-name="L" unicode="L" horiz-adv-x="1276" 
d="M561 929q101 -40 110 -48q-22 -80 -22 -91q86 71 286 110q161 -36 161 -44q-136 -528 -136 -579v-18q0 -76 161 -117v4q92 282 136 432q45 112 135 197q159 125 344 125q265 0 381 -209q36 -96 36 -165v-14q0 -228 -190 -414q-153 -99 -296 -99h-44q-82 0 -154 19
q11 135 11 190q4 7 4 11h3q69 -73 191 -73q186 0 311 190q55 89 55 172v15q0 142 -147 186q-33 11 -84 11q-145 0 -293 -113q-103 -91 -168 -362q-60 -235 -73 -235l-172 -40q-315 114 -315 172q-19 29 -19 92q0 125 99 490h-3q-172 -42 -172 -132v-25l-4 -8q-72 22 -95 48
q-73 -283 -73 -362v-26q0 -58 47 -77q71 -26 187 -51v-4q-64 -95 -114 -95q-120 0 -278 99q-58 53 -58 124v11q0 106 128 472h-4q-81 0 -190 -175q-15 -37 -22 -106h-4q-117 60 -117 164v4q0 211 271 322q74 22 190 22z" />
    <glyph glyph-name="M" unicode="M" horiz-adv-x="959" 
d="M445 888h18q218 0 305 -68q29 -41 29 -78v-7q-6 -96 -25 -96q-54 18 -78 18h-25q-125 0 -224 -103q-14 -19 -14 -36q0 -21 199 -21h106q31 0 40 -68l14 -117h-4q-160 -5 -341 -71q-58 -38 -96 -93v-3q361 -36 405 -36h46q60 0 82 36q21 71 78 323q68 227 207 310
q132 89 288 89q221 0 337 -153q68 -99 68 -217v-11q0 -204 -167 -384q-144 -114 -334 -114q-67 0 -164 18q11 146 11 196l7 3q68 -71 160 -71h28q222 0 338 263q14 49 14 89v4q0 156 -153 195q-40 7 -74 7q-137 0 -285 -113q-120 -133 -160 -345q-46 -214 -89 -214
q-8 -8 -103 -60q-739 28 -739 36q-50 131 -50 138q0 154 174 221q56 28 128 53q0 6 -92 28q-93 50 -93 96v11q0 60 157 196h-4q-90 0 -156 -111h-7q-43 41 -43 75v21q0 111 156 153q61 11 125 11z" />
    <glyph glyph-name="N" unicode="N" horiz-adv-x="1613" 
d="M568 898q112 -66 135 -146l-78 -266h3q146 14 146 19q72 218 218 307q133 79 292 79q252 0 349 -214v-8h7q13 26 116 105q165 98 319 98q301 0 397 -255q19 -71 19 -116v-15q0 -237 -203 -424q-151 -90 -307 -90q-103 4 -169 19q0 56 12 206h7q58 -75 161 -75h30
q228 0 345 274q15 42 15 90q0 135 -116 187q-46 19 -86 19h-45q-151 0 -345 -161q-117 -147 -176 -289q-8 -20 -8 -22q-18 0 -146 97v8q19 133 19 202q0 126 -105 172q-42 15 -82 15q-228 0 -319 -251h4q146 -52 146 -183q0 -221 -176 -353q-25 -7 -34 -7h-15
q-81 0 -127 135q-26 72 -26 184v56q-99 0 -252 -158q-108 -140 -116 -195l-7 -3q-141 48 -180 120q-38 56 -38 60q56 102 207 228l112 334q-129 -49 -191 -173q-15 -52 -30 -138l-11 -8q-66 0 -132 116q-7 26 -7 45v8q0 128 199 288q141 79 269 79z" />
    <glyph glyph-name="O" unicode="O" horiz-adv-x="1906" 
d="M637 926l161 -71l-54 -183q120 113 226 146q130 48 223 48q81 0 103 -108v-4q0 -19 -7 -78q264 198 402 198q107 -47 165 -79q-196 -779 -249 -970q-256 -119 -859 -344q-206 -85 -307 -183q-96 -110 -96 -224q0 -164 173 -358h4q138 409 421 563q118 53 215 53h35
q217 0 352 -142q73 -89 73 -224v-30q0 -342 -364 -657q-104 -75 -161 -75h-8q-28 0 -84 37v8q261 280 299 351q115 165 115 310v11q0 129 -192 157h-57q-308 0 -426 -530q-18 -86 -57 -105q-109 -97 -119 -97q-304 274 -334 336q-130 159 -130 347v8q0 431 529 661l801 265
q181 638 181 649h-4q-122 -21 -192 -78q-97 -79 -146 -176q-2 -18 -11 -18q-188 86 -188 104q83 172 104 239q-4 0 -4 4q-108 -21 -223 -116q-27 -38 -27 -63v-34q0 -7 -7 -7q-148 21 -173 63q-27 20 -27 34h-3q-89 -306 -89 -370v-19q0 -70 173 -70q70 0 138 18v-4
q-33 -100 -111 -145q-62 -19 -108 -19q-253 13 -306 150q-16 53 -16 93q0 116 127 478h-4q-59 0 -192 -157q-19 -37 -26 -90q-127 65 -127 161v15q0 126 203 265q142 56 265 56z" />
    <glyph glyph-name="P" unicode="P" horiz-adv-x="1133" 
d="M599 919q75 -22 114 -80v-4q-198 -466 -198 -578v-8q0 -106 224 -106h54q154 0 209 118q67 252 133 346q193 259 461 259h38q283 0 388 -225q30 -79 30 -152v-11q0 -200 -163 -392q-158 -126 -335 -126h-31q-160 9 -160 19q0 56 12 206h4q72 -77 186 -77q238 0 358 271
q11 60 11 76q0 155 -129 217q-66 26 -152 26h-4q-4 0 -4 4l-8 -4h-11q-171 0 -346 -160q-81 -84 -122 -308q-37 -143 -122 -198q-92 -57 -247 -57q-338 0 -430 137q-46 54 -46 126v15q0 156 160 464h-4q-65 -5 -137 -80q-80 -121 -80 -159v-19l4 -19l-8 -4q-148 39 -148 114
v7q0 113 164 255q127 107 335 107z" />
    <glyph glyph-name="Q" unicode="Q" horiz-adv-x="1419" 
d="M928 392q229 -53 236 -541q-1 -6 -140 22q-48 259 -104 327q-55 69 -214 106l-11 2l-26 3q-4 11 -8 76q160 30 267 5zM601 919q81 -24 130 -101q11 -17 11 -22q-225 -437 -225 -537v-3q0 -85 145 -101q38 -7 69 -7h42q196 0 260 152q23 64 23 131q0 119 -142 361v4
q216 116 490 116h23q9 0 164 -53v-3q0 -16 -19 -97q179 115 352 115q288 0 397 -231q27 -83 27 -145v-19q0 -182 -161 -372q-158 -127 -340 -127h-19q-100 0 -172 19v3q0 38 11 198h4q75 -75 184 -75q247 0 367 272q15 51 15 93q0 133 -118 187q-49 18 -104 18h-23
q-167 0 -359 -164q-105 -117 -157 -245h-7q-32 34 -157 193l53 246h-3q-7 4 -16 4h-46q-83 0 -168 -45q69 -141 69 -249v-34q0 -139 -92 -287q-80 -130 -367 -130q-312 0 -413 179q-15 52 -15 74v15q0 169 161 466h-4q-107 0 -207 -190q-11 -34 -11 -45v-22l4 -19
q-157 29 -157 119q0 126 199 280q122 78 302 78z" />
    <glyph glyph-name="R" unicode="R" horiz-adv-x="1551" 
d="M1278 902l28 -1q111 -3 255 -15q121 -104 130 -104l-1 -20l-4 -8h4q164 88 310 83h20q294 -8 398 -243q29 -85 27 -153v-12q-7 -240 -216 -426q-169 -96 -311 -92l-32 1q-146 5 -175 29q1 51 17 204h4q70 -78 202 -82q219 -6 363 238q30 67 32 127v12q4 135 -130 192
q-41 17 -96 18l-16 1q-221 6 -467 -231q-63 -70 -72 -150l-22 -59q-27 20 -175 153q8 20 97 321q-92 31 -199 42q-248 7 -343 -231q-39 -98 -45 -314q-1 -27 1 -124q-6 0 -94 -70h-4q-117 168 -220 171q-85 2 -188 -143q-38 -39 -41 -39q-106 32 -192 126l-4 8v8
q227 131 306 359l19 76h-4q-119 3 -201 -143q-25 -87 -30 -87v-4q-65 2 -102 79q-7 34 -6 56q5 184 283 256q40 11 133 17q129 -89 129 -100l-1 -20q-3 -126 -121 -333q63 -3 139 -28v12q14 494 326 607q105 41 289 36z" />
    <glyph glyph-name="S" unicode="S" horiz-adv-x="1102" 
d="M1583 938h25q244 0 353 -208q33 -87 33 -153v-14q0 -231 -197 -412q-145 -87 -298 -87q-33 0 -164 14v4q0 54 11 200h3q66 -73 161 -73h36q193 0 321 241q22 65 22 120q0 137 -139 186q-49 11 -91 11q-160 0 -350 -164q-88 -105 -120 -259q-51 -223 -102 -295
q-34 -42 -156 -105q0 -4 -19 -11q-120 276 -262 276q-193 0 -393 -262q-3 -18 -11 -18h-4q-106 84 -117 149q-18 40 -25 95q158 154 237 182q160 270 186 321h-4q-82 0 -190 -110q-29 -38 -80 -160q-4 0 -11 -3q-62 44 -62 102v36q0 8 -3 15q20 131 73 196q140 142 320 142
q110 0 110 -25q69 -77 69 -175q-150 -297 -150 -302h73q161 0 281 -179l7 -4q62 300 128 427q125 202 342 277q78 25 157 25z" />
    <glyph glyph-name="T" unicode="T" horiz-adv-x="1523" 
d="M2015 888h25q220 0 332 -173q50 -93 50 -184v-14q0 -226 -191 -404q-143 -90 -299 -90q-162 8 -162 21q0 43 10 195h4q67 -72 159 -72h36q191 0 317 238q22 64 22 119q0 135 -137 184q-49 11 -91 11q-146 0 -331 -148q-151 -164 -199 -440q-48 -225 -57 -231
q-1 4 -145 97q101 521 188 628q100 159 321 241q80 22 148 22zM576 884q91 -37 126 -111l4 -8q-213 -425 -213 -522v-11q0 -75 166 -94l50 -4q178 0 235 91q57 72 57 176v4q0 126 -133 353v7q209 112 480 112h14l148 -58l-206 -879q-152 80 -158 90v3q140 627 151 664h-18
q-24 0 -43 3q-82 0 -162 -46q64 -131 64 -238v-40q0 -157 -111 -303q-85 -97 -321 -97q-243 0 -357 126q-47 58 -47 126v18q0 148 151 444h-3q-65 -11 -112 -58q-85 -109 -94 -173v-18l4 -18q-4 0 -4 -4q-144 38 -144 108v4q0 118 159 252q122 101 317 101z" />
    <glyph glyph-name="V" unicode="V" horiz-adv-x="1500" 
d="M111 929h90q277 0 352 -142q11 -20 11 -53q0 -72 -112 -213q-62 -26 -83 -26q57 93 57 123v12q-16 56 -98 56q-79 -8 -123 -26q-94 245 -94 269zM1215 895q241 0 352 -190h3q173 145 378 145q318 0 412 -276q15 -63 15 -109v-11q0 -216 -172 -401q-152 -123 -333 -123
h-30q-80 0 -165 19q11 147 11 198q4 7 4 11h8q60 -78 183 -78q255 0 374 299q8 45 8 71v15q0 145 -154 195q-45 7 -71 7h-15q-156 0 -307 -127q-108 -124 -146 -288q-14 0 -172 101q19 91 19 161v26q0 123 -116 168q-44 15 -90 15q-187 0 -277 -153q-18 -27 -45 -101
q173 -56 173 -195q0 -201 -161 -329q-29 -11 -41 -11h-15q-159 0 -188 333v26h-3q-89 -4 -225 -131q-56 -68 -134 -202q-154 82 -180 180q-15 56 -15 67q176 180 281 221q135 64 258 74q52 0 52 53q79 206 232 273q140 67 292 67z" />
    <glyph glyph-name="W" unicode="W" horiz-adv-x="1419" 
d="M588 919q79 -24 127 -101q11 -17 11 -22q-220 -437 -220 -537v-3q0 -85 142 -101q37 -7 67 -7h41q191 0 253 152q23 64 23 131q0 119 -138 361v4q210 116 477 116h22q9 0 160 -53v-3q0 -16 -18 -97q174 115 342 115q281 0 388 -231q26 -83 26 -145v-19q0 -182 -156 -372
q-155 -127 -332 -127h-19q-97 0 -167 19v3q0 38 11 198h3q73 -75 179 -75q241 0 358 272q15 51 15 93q0 133 -116 187q-47 18 -100 18h-23q-163 0 -350 -164q-102 -117 -153 -245h-7q-30 34 -153 193l52 246h-3q-7 4 -15 4h-45q-82 0 -164 -45q67 -141 67 -249v-34
q0 -139 -89 -287q-79 -130 -358 -130q-304 0 -402 179q-15 52 -15 74v15q0 169 156 466h-4q-104 0 -201 -190q-11 -34 -11 -45v-22l4 -19q-153 29 -153 119q0 126 194 280q119 78 294 78z" />
    <glyph glyph-name="X" unicode="X" horiz-adv-x="1245" 
d="M1723 898h25q241 0 350 -206q32 -86 32 -151v-14q0 -226 -191 -404q-144 -90 -299 -90q-100 3 -163 18q0 56 11 198h4q66 -72 159 -72h36q187 0 313 231q26 67 26 126q0 135 -138 184q-48 11 -90 11q-146 0 -331 -148q-125 -143 -155 -271q-33 -113 -98 -400h-3
q0 3 -145 97q98 509 184 624q70 103 184 180q146 87 289 87zM1027 837l122 -94q-114 -728 -158 -728q-58 -80 -148 -80q-70 5 -83 11q79 116 119 310q65 292 65 354q-167 -50 -263 -202l-62 -109q-164 73 -176 91q0 13 86 216q7 23 7 32h-3q-83 -9 -209 -122
q-26 -39 -26 -87v-11q0 -7 -7 -7q-191 24 -191 112v11q0 81 173 191q172 94 278 94h14q64 0 87 -101v-4q0 -26 -8 -79h4q229 202 379 202z" />
    <glyph glyph-name="Y" unicode="Y" horiz-adv-x="1521" 
d="M516 919q53 -18 102 -91q-139 -386 -193 -606v-12q0 -52 95 -61q26 0 98 -7q75 0 99 64q29 104 106 465q38 139 102 202q34 38 160 38h4q46 0 142 -57l22 -11l-124 -701q38 0 59 -4q162 0 219 186q72 239 179 363q185 194 408 194h26q223 0 339 -187q48 -99 48 -194v-12
q0 -201 -157 -392q-151 -126 -321 -126h-30q-153 9 -153 19q0 62 11 206h4q70 -76 175 -76q237 0 350 278q15 52 15 95q0 221 -285 221q-173 0 -347 -160q-131 -166 -171 -377q-47 -115 -102 -149q-57 -49 -205 -49q-106 0 -142 42q-86 45 -99 64l117 648q-3 0 -22 4
q-59 0 -80 -171q-72 -356 -135 -492q-56 -99 -226 -99h-15q-228 0 -303 187q-11 49 -11 87q0 152 135 469q-45 0 -106 -69q-73 -116 -80 -183l4 -22v-12q-128 40 -128 111v11q0 150 197 309q86 57 219 57z" />
    <glyph glyph-name="Z" unicode="Z" horiz-adv-x="1909" 
d="M770 9l-5 4q2 -2 3 -2.5t2 -1.5zM516 956h20q107 0 220 -56v-4l-56 -196q185 167 372 200l76 12q79 0 112 -88l4 -24v-12q0 -26 -4 -80q265 224 420 224q143 -62 160 -76l-40 -188q220 232 484 232q321 0 424 -272q20 -76 20 -132v-20q0 -183 -152 -384
q-165 -152 -364 -152h-40q-114 0 -172 20l4 8l12 184h4q41 -60 176 -60q253 0 400 264q28 70 28 128q0 163 -148 200l-64 4q-198 0 -400 -136q-148 -127 -148 -232q4 -50 4 -52h-4q-59 16 -132 88q-52 -271 -92 -436l-184 108q40 175 124 628q-163 -44 -244 -152
q-72 -96 -92 -156h-4q-200 85 -200 108q78 174 100 260q-82 0 -232 -132q-28 -33 -28 -96q4 -8 4 -12l-8 -4q-143 19 -180 56q-32 34 -32 44h-4q-88 -319 -88 -388v-8q0 -80 176 -80h4q77 0 148 20v-4q-60 -176 -232 -176q-253 0 -324 172q-8 38 -8 60v44q0 125 132 500h-4
q-64 0 -152 -84q-80 -81 -80 -164q-132 44 -132 164v4q0 127 200 272q97 52 216 52z" />
    <glyph glyph-name="backslash" unicode="\" horiz-adv-x="1879" 
d="M568 929q131 -54 144 -62q-9 -19 -70 -229q122 149 418 221q35 4 58 4h16q78 0 102 -104v-28q0 -19 -4 -58q264 200 427 213h4q155 -63 164 -73l-201 -903q-19 0 -189 101q0 13 152 647q-183 -63 -283 -163q-102 -135 -102 -167h-4q-155 59 -193 90q75 161 98 244v4
q0 7 -8 7h-16q-119 0 -242 -131q-9 -32 -9 -43q0 -22 9 -43l-9 -4h-16q-163 0 -197 97h-4q-86 -300 -86 -387q0 -85 168 -85h41q83 0 152 19v-4q-64 -170 -230 -170h-4q-225 0 -316 124q-32 58 -32 116q0 145 139 507h-4q-73 0 -205 -162q-19 -19 -33 -93q-123 58 -123 159
v7q0 178 234 303q146 46 254 46z" />
    <glyph glyph-name="bracketright" unicode="]" horiz-adv-x="2084" 
d="M573 932q115 -77 140 -105q-175 -512 -183 -636q-7 -98 99 -105l15 -1q46 -3 133 -1l-1 -8q-90 -153 -207 -145l-15 1q-247 50 -234 239l2 31q9 130 142 472q-45 3 -140 -105q-76 -111 -83 -225l-12 1q-131 81 -123 198q14 198 270 345q109 50 197 44zM1241 897h4
q231 0 351 -159h4q146 134 217 140q38 16 55 16q169 -62 169 -72q-197 -847 -208 -871q-174 77 -174 87q59 191 138 640h-24q-51 0 -106 -72q16 -62 16 -117q0 -221 -182 -398q-69 -52 -213 -98l-67 -15q-13 9 -130 144v3h16q258 0 335 254q0 19 8 72q0 172 -138 219
q-30 8 -55 8h-8q-204 0 -382 -201q-32 -56 -32 -106v-3q0 -79 83 -156v-3q-110 -68 -174 -68q-102 0 -122 151q0 232 233 458q183 147 386 147zM1116 592h4q154 0 255 -314q-28 -17 -115 -81q-85 244 -129 244q-49 40 -151 40h-41v4q85 107 177 107z" />
    <glyph glyph-name="asciicircum" unicode="^" 
d="M-433 1808q160 -35 158 -43q-4 -149 11 -204q27 -105 99 -210q64 -90 305 -247l-1 -4q-58 4 -103 13l-2 1q-231 49 -373 243q-82 132 -96 266q-8 61 -4 184zM-818 1869q241 -12 313 -150q34 -58 29 -132q-14 -191 -223 -393q-190 -155 -315 -149h-5q-69 4 -128 70v4
q43 -2 167 66l-24 2q-345 17 -460 217q-7 34 -6 49v7q17 238 393 377q128 39 259 32zM-1275 1428q20 -120 257 -114l46 7q109 17 134 62l5 1q47 -34 57 -89q154 187 132 320l-3 18q-16 95 -148 109q-52 3 -103 -5q-223 -34 -342 -183q-46 -65 -35 -126z" />
    <glyph glyph-name="underscore" unicode="_" horiz-adv-x="534" 
d="M361 241q-94 0 -94 94q0 93 94 93q104 0 104 -93q0 -94 -104 -94z" />
    <glyph glyph-name="grave" unicode="`" horiz-adv-x="2005" 
d="M528 898h4q149 0 201 -87q15 -39 15 -62q0 -131 -280 -476q1 -5 102 -77q146 149 277 149q102 -10 102 -87v-18q0 -116 -193 -196q-69 -19 -159 -30q-129 -173 -129 -283v-4q0 -73 102 -73h27q116 0 276 73q0 -3 4 -3q-18 -106 -64 -153q-137 -102 -311 -102h-8
q-208 0 -254 142q-4 14 -4 29v36q0 162 164 364q5 0 22 22q-145 80 -235 141v4q319 436 319 527v11q-3 29 -27 29q-64 0 -167 -134q-67 -105 -76 -215v-7h-3q-133 83 -133 160q0 122 224 265q109 55 204 55zM1789 864q156 -70 156 -80l-209 -876h-7q-161 85 -163 91l128 603
q-135 -28 -227 -129q-76 -99 -99 -151h-7q-178 81 -178 94v8q0 11 83 201q15 39 15 42q-4 0 -4 4q-152 -40 -223 -129q-23 -24 -23 -53v-38l-4 -8q-208 30 -208 133q0 74 178 189q182 88 296 88q92 0 106 -114v-4q0 -38 -8 -76q262 205 398 205z" />
    <glyph glyph-name="a" unicode="a" horiz-adv-x="1949" 
d="M536 898q57 -17 107 -90q-202 -543 -202 -612q16 -64 126 -64q107 0 141 94q103 278 146 278q36 45 199 45h23q39 0 157 -45v-4l-111 -372h50q149 0 187 131q93 430 134 523q42 105 126 105h81q77 0 153 -49q44 -13 46 -23q-196 -872 -207 -905l-165 86q0 16 165 718h-31
q-62 0 -84 -143q-70 -487 -187 -552q-70 -49 -199 -49h-31q-117 0 -199 45q-12 0 -42 15q11 51 119 406h-39q-47 0 -103 -203q-92 -233 -145 -233q-34 -26 -108 -26h-65q-203 0 -279 169q-15 42 -15 90q0 153 141 466q-90 -25 -118 -79q-70 -106 -77 -173q4 -6 4 -15v-15
q-134 38 -134 109v8q0 152 207 308q90 56 229 56z" />
    <glyph glyph-name="b" unicode="b" horiz-adv-x="2084" 
d="M553 928q124 -75 132 -83q-12 -31 -46 -147q176 152 370 185q13 4 41 4h23q55 0 83 -95v-30q0 -49 -8 -68h4q243 211 400 211q0 -3 128 -98q-11 -56 -11 -64q92 69 241 87q94 -80 94 -83q-166 -773 -177 -807h-4q0 4 -166 98v4q68 252 125 626h-4q-130 -13 -139 -87
q-68 -452 -121 -535q-69 -80 -155 -80h-34q-19 0 -56 4q0 9 75 151q61 191 121 551q-172 -55 -253 -178q-62 -84 -90 -151q-185 82 -185 95v7q0 12 90 223q8 24 8 30h-4q-67 0 -215 -121q-30 -45 -30 -71v-38l-4 -8q-108 0 -184 68q0 8 -8 8h-4q-71 -253 -71 -340
q0 -69 169 -79q38 -3 38 -11q-49 -113 -128 -113h-30q-167 0 -246 124q-11 40 -11 68v15q0 119 136 498q-63 0 -185 -136q-26 -49 -26 -83h-4q-93 30 -113 72q-19 33 -19 68v26q0 155 279 253q100 30 174 30z" />
    <glyph glyph-name="c" unicode="c" horiz-adv-x="1633" 
d="M556 888h11q105 0 105 -21q69 -72 69 -157v-7q0 -11 -152 -302h11q207 0 278 -114q57 -69 80 -110h4q54 221 54 359q0 141 -98 174q-51 9 -51 43q-14 22 -43 128h109q12 0 18 3l21 -3h29q368 0 471 -231q18 -54 18 -100q0 -106 -112 -593h-4q-146 57 -155 71
q79 355 79 480v25q0 118 -105 145q-13 7 -65 11q62 -95 62 -192q0 -190 -94 -423q-15 -44 -153 -121l-25 -14h-11q-134 277 -268 277h-21q-161 0 -370 -252q-5 -25 -14 -25q-85 73 -109 128q-25 96 -25 117q150 143 235 178q163 267 189 316h-4q-81 0 -185 -106
q-39 -49 -79 -153l-11 -7h-11q-51 40 -51 103v28q0 144 109 245q125 100 264 100z" />
    <glyph glyph-name="d" unicode="d" horiz-adv-x="1837" 
d="M526 898h49q41 0 110 -96q0 -5 15 -37q-228 -418 -228 -501v-19q0 -20 16 -26q176 233 243 233q20 10 91 26q65 222 213 320q127 82 285 82q255 0 361 -251q15 -55 15 -122q0 -135 -99 -546q-27 9 -167 85q76 354 76 457q0 207 -175 207h-26q-149 0 -244 -162
q-22 -48 -41 -96q133 -50 133 -89q26 -30 26 -118q0 -171 -156 -299q-26 -7 -45 -7q-146 0 -171 310v29h-4q-163 -145 -228 -250q-53 -71 -80 -71q-159 0 -216 111q-23 46 -23 103q0 185 197 532h-3q-106 0 -206 -189q-11 -33 -11 -44v-29l-4 -8q-129 47 -129 115v11
q0 119 194 273q111 66 232 66z" />
    <glyph glyph-name="e" unicode="e" horiz-adv-x="1488" 
d="M1187 905q201 -99 201 -105q-392 -1652 -561 -2488q-8 -109 -18 -109q-201 106 -201 178v14q0 209 406 1908q74 321 92 388q-309 0 -399 -174q-103 -174 -103 -381q0 -38 21 -159q-8 -22 -21 -22q-88 0 -197 145q-50 99 -50 192q0 109 110 377q7 20 7 40
q-81 -7 -202 -123q-28 -32 -28 -87v-11q0 -7 -7 -7q-187 21 -187 112q0 131 286 261q99 36 155 36h11q85 -18 85 -101v-25q0 -30 -7 -66q130 115 317 163q87 22 290 44z" />
    <glyph glyph-name="f" unicode="f" horiz-adv-x="2116" 
d="M423 898h18q104 0 197 -54v-4l-11 -43q93 79 159 79q49 -6 93 -58q30 -40 30 -43q-193 -501 -193 -557v-15q0 -65 119 -65h15q3 0 3 -4q70 0 141 254q56 137 164 137h33q108 0 108 -43q11 -12 148 -344h7q71 221 71 387q0 123 -93 159q-35 0 -48 95q-19 54 -19 68v4h4
q350 0 445 -87q156 -125 156 -286v-7q0 -127 -119 -561h-7q-127 62 -156 83v4q89 371 89 499q0 111 -81 141q-24 11 -64 15v-4q52 -95 52 -199q0 -154 -85 -373q-58 -97 -108 -97q-4 -4 -129 -47q-50 86 -167 376q-21 44 -41 44q-27 -30 -97 -221q-58 -152 -181 -152h-30
q-206 0 -271 166q-11 47 -11 83q0 159 137 464h-4q-126 -46 -126 -87q-100 -333 -100 -434q0 -55 115 -123q-37 -62 -108 -62q-131 0 -189 123q-11 39 -15 94q0 128 123 474h-8q-93 0 -185 -163q-4 -19 -4 -32v-7q-81 0 -100 101v22q0 164 186 275q72 25 137 25z" />
    <glyph glyph-name="g" unicode="g" horiz-adv-x="2084" 
d="M573 932q115 -77 140 -105q-175 -512 -183 -636q-7 -98 99 -105l15 -1q46 -3 133 -1l-1 -8q-90 -153 -207 -145l-15 1q-247 50 -234 239l2 31q9 130 142 472q-45 3 -140 -105q-76 -111 -83 -225l-12 1q-131 81 -123 198q14 198 270 345q109 50 197 44zM1241 897h4
q231 0 351 -159h4q146 134 217 140q38 16 55 16q169 -62 169 -72q-197 -847 -208 -871q-174 77 -174 87q59 191 138 640h-24q-51 0 -106 -72q16 -62 16 -117q0 -221 -182 -398q-69 -52 -213 -98l-67 -15q-13 9 -130 144v3h16q258 0 335 254q0 19 8 72q0 172 -138 219
q-30 8 -55 8h-8q-204 0 -382 -201q-32 -56 -32 -106v-3q0 -79 83 -156v-3q-110 -68 -174 -68q-102 0 -122 151q0 232 233 458q183 147 386 147z" />
    <glyph glyph-name="h" unicode="h" horiz-adv-x="1929" 
d="M1482 770v-12h4v12h-4zM481 929h60q126 -48 138 -61q-190 -523 -190 -677q0 -84 113 -84h49q73 0 101 76q24 75 138 481q61 171 166 223q130 42 332 42l154 -50q-8 -30 -8 -46q93 65 174 77q156 -40 170 -54q-203 -865 -215 -907q-169 89 -174 100q138 594 154 676h-49
q-117 -40 -117 -150q-124 -561 -162 -561q0 -20 -186 -34q0 4 -4 4q33 36 73 207q44 202 105 507h-69q-109 0 -138 -46q-44 -111 -162 -534q-40 -146 -162 -146q-76 -15 -166 -15q-239 0 -299 127q-13 49 -13 88q0 125 138 526q-86 0 -190 -165q-20 -50 -37 -119h-4
q-101 65 -101 184v12q0 158 223 292q69 27 158 27z" />
    <glyph glyph-name="i" unicode="i" 
d="M-614 1931q283 -14 368 -171q40 -66 34 -150q-16 -217 -262 -446q-223 -176 -370 -169h-5q-82 4 -151 80v4q51 -3 196 75l-28 2q-405 19 -541 247q-9 38 -7 55v9q20 270 462 427q151 44 304 37zM-1151 1430q24 -136 303 -130l53 8q129 19 158 71h6q55 -38 66 -100
q182 211 155 363l-3 21q-19 107 -174 123q-61 4 -121 -5q-262 -39 -401 -209q-54 -73 -42 -142z" />
    <glyph glyph-name="j" unicode="j" horiz-adv-x="1490" 
d="M485 929q10 0 143 -92h4v-4q0 -9 -174 -436q-55 -163 -55 -214q11 -77 71 -77q0 -13 158 -15h23v-7q-87 -111 -181 -111h-24q-164 0 -245 122q-16 48 -16 70v29q0 128 170 484h-4q-82 0 -193 -159q-52 -112 -52 -147q-30 0 -102 84q-28 38 -28 89q0 211 328 362
q76 22 177 22zM1128 903q154 -18 154 -40q35 -74 35 -141v-33q-72 -109 -197 -233q165 -171 165 -269q0 -66 -59 -277h-4q-9 0 -177 81q39 124 39 155q0 69 -134 181q-37 -22 -63 -22h-12q-59 0 -142 129v4q77 0 304 177q75 80 75 96h-36q-164 0 -280 -181h-4q-44 64 -44 96
q0 106 123 207q102 66 217 66h24q9 0 16 4z" />
    <glyph glyph-name="k" unicode="k" horiz-adv-x="1919" 
d="M479 878q104 -51 133 -137q-25 -96 -66 -245h6q129 9 129 29q68 202 174 270q136 83 261 83h28q200 0 286 -176v-4q119 120 198 140q38 11 42 11q145 -56 156 -68q-153 -724 -174 -814h-3l-164 97l119 591h-18q-49 0 -118 -105l3 -18v-39q0 -275 -139 -472
q-74 -65 -174 -65q0 -7 -24 -7q101 223 101 241q59 221 59 342v36q0 118 -115 144q-31 4 -31 8l-7 -4h-7q-202 0 -275 -234q136 -49 136 -180q0 -182 -147 -310q-17 -11 -28 -11h-24q-100 0 -136 227q-3 35 -3 69v46q-120 -29 -202 -133q-103 -122 -118 -201h-7
q-117 33 -164 108q-21 30 -31 54q52 92 139 176q45 28 45 68q63 181 87 274h-3q-120 -53 -164 -165l-24 -123l-11 -7q-66 0 -97 112q-7 16 -7 46v11q0 222 306 321q10 0 73 14z" />
    <glyph glyph-name="l" unicode="l" horiz-adv-x="1963" 
d="M560 929q27 -5 118 -48l-26 -97q111 85 292 115q155 -37 164 -41q-141 -546 -141 -607q0 -83 164 -123q123 544 224 674q65 82 198 82q228 -14 228 -33q115 -54 118 -64q-163 -738 -186 -857h-4q-18 0 -183 97q141 614 153 652q-50 8 -96 11q-59 0 -83 -52
q-65 -166 -198 -637q-9 -11 -183 -49q-315 112 -315 168q-23 27 -23 93v4q0 127 99 503q-179 -38 -179 -149v-7l4 -8l-8 -3q-70 21 -95 48q-76 -310 -76 -388q0 -72 65 -93q70 -22 171 -45v-7q-59 -93 -103 -93h-26q-111 0 -274 108q-50 53 -50 127q0 109 133 484
q-93 0 -201 -186q-12 -41 -19 -101q-122 56 -122 172q0 223 289 331q67 19 171 19z" />
    <glyph glyph-name="m" unicode="m" horiz-adv-x="1649" 
d="M471 949h12q255 0 341 -75q27 -44 27 -79q-6 -108 -27 -108q-41 15 -100 22q-154 0 -260 -123q-8 -14 -8 -30q0 -15 341 -19q27 0 46 -195h-4q-185 0 -383 -82q-63 -49 -88 -90q387 -41 456 -41h19q71 0 92 52q27 62 126 487q68 244 242 244h34q105 0 138 -38l107 -75
q-134 -687 -191 -891l-165 86l142 704q-29 8 -54 8h-4q-61 0 -80 -131q-81 -354 -115 -469q-21 -60 -84 -89q-41 -18 -81 -45q-3 0 -23 3l-770 30l-57 146q0 167 180 233q30 17 146 63v4q-119 21 -165 64q-35 40 -35 60v11q0 65 169 206h-8q-92 0 -164 -116h-12
q-42 50 -42 78v23q0 119 172 161q56 11 130 11z" />
    <glyph glyph-name="n" unicode="n" horiz-adv-x="1715" 
d="M511 908q107 -51 135 -133v-12q-7 -39 -75 -252h4q142 11 142 19q125 371 500 371q288 0 357 -271q8 -37 8 -67v-18q0 -133 -121 -586l-169 89q113 325 113 497v15q0 134 -139 166q-14 4 -34 4h-15q-216 0 -304 -241h4q142 -49 142 -182q0 -196 -169 -333q-30 -8 -37 -8
h-12q-113 0 -146 223q-8 38 -8 118q0 3 4 23q-87 -7 -222 -126q-121 -140 -139 -219h-3q-128 37 -173 107q-41 54 -41 71q55 90 172 193q27 0 72 159q64 161 64 182h-4q-132 -53 -180 -167q-15 -40 -30 -130l-12 -7q-55 0 -116 89q-19 35 -19 66v12q0 108 169 252
q105 80 263 96h19z" />
    <glyph glyph-name="o" unicode="o" horiz-adv-x="1098" 
d="M545 906h38q219 0 343 -162q72 -108 72 -230v-12q0 -222 -177 -411q-155 -124 -336 -124h-23q-97 0 -173 19l11 185l8 3q34 -56 162 -56q279 0 411 286q15 59 15 95q0 142 -113 188q-39 12 -79 12h-27q-186 0 -388 -136q-136 -127 -136 -219v-11l4 -46q-105 36 -158 129
q-8 34 -8 49v11q0 142 230 321q167 109 324 109z" />
    <glyph glyph-name="p" unicode="p" horiz-adv-x="1782" 
d="M658 908q62 -17 109 -67q0 -8 -168 -333q-75 -163 -75 -233v-12q0 -73 117 -100q96 -21 151 -21h38q228 0 281 96q43 70 118 408q53 187 134 233q53 21 155 21q90 0 227 -54v-5q-180 -740 -227 -911q-108 51 -184 92q0 11 180 699q-3 0 -33 4q-77 0 -88 -100
q-80 -382 -160 -504q-81 -89 -151 -112q-122 -29 -248 -29q-398 0 -491 196q-12 63 -12 70q0 157 180 462h-8q-73 0 -155 -87q-69 -88 -84 -158l4 -25v-4h-4q-164 36 -164 112v17q0 102 180 245q148 100 378 100z" />
    <glyph glyph-name="q" unicode="q" horiz-adv-x="1765" 
d="M655 909q75 -14 148 -101q8 -20 8 -23q-249 -440 -249 -544v-7q0 -79 207 -101h47q235 0 296 120q47 61 47 150v33q0 101 -157 345v4q242 116 542 116h25q69 -14 187 -56v-4q-216 -833 -242 -911q-177 84 -186 94l178 690l-9 4h-67q-93 0 -187 -45q81 -144 81 -267
q0 -200 -153 -356q-114 -82 -351 -82q-389 0 -474 210q-9 28 -9 52v8q0 175 182 472q-85 -14 -144 -64q-105 -131 -106 -176v-15l5 -26q-174 33 -174 112v8q0 127 220 281q137 79 335 79zM958 372q229 -53 236 -541q-1 -6 -140 22q-48 259 -104 327q-55 69 -214 106l-11 2
l-26 3q-4 11 -8 76q160 30 267 5z" />
    <glyph glyph-name="r" unicode="r" horiz-adv-x="1730" 
d="M1290 892h16q126 0 274 -8l135 -108q-233 -816 -245 -836q-168 80 -180 92l180 648q-139 36 -205 36q-253 0 -343 -236q-37 -102 -37 -288v-108l4 -48q-30 -19 -98 -72h-4q-113 164 -229 164q-84 0 -200 -164l-25 -24q-137 44 -204 128v4q241 173 294 344l25 104h-9
q-113 0 -192 -140q-15 -33 -28 -96h-13q-85 0 -106 116v16q0 168 262 256q105 24 155 24q16 -15 131 -84l4 -36q-30 -189 -98 -304q-3 0 -17 -24v-4q56 0 139 -20l5 8v28q0 469 331 596q115 36 278 36z" />
    <glyph glyph-name="s" unicode="s" horiz-adv-x="1694" 
d="M584 929q110 0 110 -22q75 -76 75 -179l-155 -301h12q228 0 310 -128q17 -14 56 -73h8q93 418 155 549q69 125 230 125q108 0 148 -37q103 -64 110 -73q-144 -676 -197 -850q-160 85 -166 95l143 663q-38 4 -56 4h-4q-65 0 -91 -161q-84 -371 -147 -462q-47 -66 -95 -66
q0 -3 -79 -47h-12q-117 274 -268 274q-202 0 -408 -263q-3 -19 -12 -19q-101 60 -136 176q-15 65 -15 70q159 151 246 183q193 316 193 322h-4q-87 -8 -178 -88q-60 -68 -98 -179l-8 -4h-15q-57 45 -57 110v29q0 239 269 330q53 22 136 22z" />
    <glyph glyph-name="t" unicode="t" horiz-adv-x="1909" 
d="M1354 898q147 -45 148 -52q0 -7 -19 -100q86 88 182 122q4 0 30 8q130 -68 137 -78q-171 -831 -182 -853q-161 80 -167 85q75 297 149 664q-111 0 -182 -122q-103 -586 -182 -586q-44 -8 -122 -8q-8 0 -8 8q30 0 104 415q52 295 52 312h-3q-151 -14 -275 -93l-41 -30
q152 -143 152 -300q0 -183 -155 -297q-139 -63 -305 -63q-311 0 -378 204q-4 25 -4 41v11q0 167 193 493h-3q-64 -5 -138 -78q-96 -124 -96 -185l4 -19q-4 0 -4 -3q-141 38 -141 107v19q0 64 108 193q162 170 408 170q79 -31 122 -111q0 -4 4 -11q-260 -463 -260 -571
q0 -82 211 -97q180 0 230 100q19 39 30 97q0 109 -159 207q-7 6 -26 167q290 197 541 230q6 0 45 4z" />
    <glyph glyph-name="u" unicode="u" 
d="M-413 57q24 1 204 3v-4l-198 -566q314 296 340 315h4l84 -108v-8q-338 -354 -398 -462q-272 -405 -347 -763q-52 -198 -67 -240q-267 91 -270 171l-1 8q-2 62 214 574q233 570 427 1080h8z" />
    <glyph glyph-name="v" unicode="v" horiz-adv-x="1772" 
d="M1227 896q298 0 392 -283q12 -52 12 -120q0 -166 -109 -570l-8 -4q-174 99 -178 105q89 335 89 469v35q0 140 -113 178q-46 12 -73 12h-16q-170 0 -266 -151q-45 -92 -45 -113v-3q102 -31 142 -94q24 -49 24 -108v-12q0 -196 -158 -325q-31 -12 -44 -12h-4
q-157 0 -190 314q-4 49 -4 58q-81 0 -222 -132q-62 -82 -138 -213q-190 110 -190 256q181 219 425 287q139 26 149 35q58 200 174 279q158 112 351 112zM248 916l74 -23q268 -86 259 -236q2 -4 -6 -27q-24 -61 -167 -150q-75 -6 -84 -3l1 3q78 58 93 96l1 3q15 37 -63 73
l-8 -1l-11 3q-37 12 -100 10q-5 8 2 251z" />
    <glyph glyph-name="w" unicode="w" horiz-adv-x="1667" 
d="M617 919q70 -14 138 -101q8 -20 8 -23q-233 -440 -233 -544v-7q0 -79 193 -101h44q219 0 276 120q43 61 43 150v33q0 101 -146 345v4q225 116 505 116h24q64 -14 174 -56v-4q-202 -833 -225 -911q-166 84 -174 94l166 690l-8 4h-63q-87 0 -174 -45q75 -144 75 -267
q0 -200 -142 -356q-106 -82 -327 -82q-362 0 -442 210q-8 28 -8 52v8q0 175 170 472q-80 -14 -135 -64q-98 -131 -98 -176v-15l4 -26q-162 33 -162 112v8q0 127 205 281q127 79 312 79z" />
    <glyph glyph-name="x" unicode="x" horiz-adv-x="1907" 
d="M1286 940q160 -97 162 -104l-13 -68q111 74 292 92q82 -51 120 -88q-209 -823 -222 -852h-5l-199 100q88 284 153 668h-10q-162 -16 -162 -92q-111 -576 -167 -576q-67 -76 -180 -76h-10q-97 0 -97 12q109 137 167 392q46 194 74 344q-194 -48 -320 -196
q-78 -105 -97 -148h-5q-227 81 -227 100q0 12 116 248l5 24h-14q-73 -6 -227 -108q-65 -49 -65 -120v-16l-5 -8q-250 23 -250 136q0 109 297 248q174 65 278 72q89 0 125 -80q9 -26 9 -36v-4q0 -29 -9 -88q299 224 486 224z" />
    <glyph glyph-name="y" unicode="y" horiz-adv-x="1990" 
d="M522 898q49 -15 103 -89q-188 -517 -188 -595v-15q0 -60 218 -60q57 0 111 331q62 272 122 346q56 75 222 75q41 0 170 -79q-122 -663 -122 -676h63q122 0 155 111q30 117 96 450q46 140 108 168q36 22 122 22h15q74 0 148 -48q42 -13 44 -23q-192 -882 -200 -896
q-157 82 -159 89v4l159 703h-29q-58 0 -74 -119q-72 -435 -141 -521q-69 -93 -214 -93h-126q-156 89 -163 97q89 490 118 636h-29q-63 0 -108 -279q-72 -339 -129 -398q-61 -67 -218 -67q-225 0 -307 182q-11 54 -11 86q0 153 136 461q-49 0 -118 -78q-61 -90 -70 -168
q3 -14 3 -29v-4q-129 37 -129 108v7q0 152 200 305q87 56 222 56z" />
    <glyph glyph-name="z" unicode="z" horiz-adv-x="2828" 
d="M770 9l-5 4q2 -2 3 -2.5t2 -1.5zM516 956h20q107 0 220 -56v-4l-56 -196q185 167 372 200l76 12q79 0 112 -88l4 -24v-12q0 -26 -4 -80q265 224 420 224q143 -62 160 -76l-40 -188q220 232 484 232q321 0 424 -272q20 -76 20 -132v-20q0 -183 -152 -384
q-165 -152 -364 -152h-40q-114 0 -172 20l4 8l12 184h4q41 -60 176 -60q253 0 400 264q28 70 28 128q0 163 -148 200l-64 4q-198 0 -400 -136q-148 -127 -148 -232q4 -50 4 -52h-4q-59 16 -132 88q-52 -271 -92 -436l-184 108q40 175 124 628q-163 -44 -244 -152
q-72 -96 -92 -156h-4q-200 85 -200 108q78 174 100 260q-82 0 -232 -132q-28 -33 -28 -96q4 -8 4 -12l-8 -4q-143 19 -180 56q-32 34 -32 44h-4q-88 -319 -88 -388v-8q0 -80 176 -80h4q77 0 148 20v-4q-60 -176 -232 -176q-253 0 -324 172q-8 38 -8 60v44q0 125 132 500h-4
q-64 0 -152 -84q-80 -81 -80 -164q-132 44 -132 164v4q0 127 200 272q97 52 216 52z" />
    <glyph glyph-name="braceleft" unicode="{" horiz-adv-x="1164" 
d="M599 919q75 -22 114 -80v-4q-198 -466 -198 -578v-8q0 -106 224 -106h54q154 0 209 118q67 252 133 346q193 259 461 259h38q283 0 388 -225q30 -79 30 -152v-11q0 -200 -163 -392q-158 -126 -335 -126h-31q-160 9 -160 19q0 56 12 206h4q72 -77 186 -77q238 0 358 271
q11 60 11 76q0 155 -129 217q-66 26 -152 26h-4q-4 0 -4 4l-8 -4h-11q-171 0 -346 -160q-81 -84 -122 -308q-37 -143 -122 -198q-92 -57 -247 -57q-338 0 -430 137q-46 54 -46 126v15q0 156 160 464h-4q-65 -5 -137 -80q-80 -121 -80 -159v-19l4 -19l-8 -4q-148 39 -148 114
v7q0 113 164 255q127 107 335 107zM938 372q229 -53 236 -541q-1 -6 -140 22q-48 259 -104 327q-55 69 -214 106l-11 2l-26 3q-4 11 -8 76q160 30 267 5z" />
    <glyph glyph-name="bar" unicode="|" horiz-adv-x="1481" 
d="M909 1307q75 0 302 -72q93 -42 121 -108q11 -44 11 -97v-11q208 -39 208 -151q0 -52 -91 -119q-19 0 -117 -11v4q51 85 57 122q-12 65 -76 65h-7q-134 -597 -208 -778q-53 -87 -125 -119q-109 -32 -253 -32h-19q-293 0 -389 184q-11 43 -11 68v4q0 171 162 457
q-128 -35 -128 -68q-86 -96 -95 -166v-11l4 -25q-54 0 -140 61q-15 26 -15 54q0 110 162 245q135 105 337 105q65 -21 109 -80q-196 -455 -196 -565q0 -73 102 -90q59 -15 102 -15h53q167 0 211 109q34 72 170 623q5 0 12 36q-219 44 -219 72q-49 34 -49 133v11q0 26 7 162z
M1003 1192v-39q0 -61 174 -98v4q0 92 -98 119q-66 14 -76 14z" />
    <glyph glyph-name="braceright" unicode="}" horiz-adv-x="1715" 
d="M524 929q134 -78 143 -91q-136 -513 -136 -625q0 -95 103 -95h14q45 0 128 7v-4q-69 -157 -197 -157h-7q-134 0 -216 117q-26 46 -26 110v18q0 123 106 464q-95 -31 -164 -179q-29 -101 -29 -153h-11q-132 70 -132 182q0 191 238 351q102 55 186 55zM1178 889
q317 0 402 -307q8 -37 8 -66v-33q0 -162 -125 -333q-94 -102 -303 -149q-3 0 -121 138l8 4h3q224 0 304 205q18 65 18 117q0 151 -117 201q-30 11 -55 11h-18q-180 0 -351 -194q-29 -56 -29 -110q0 -68 77 -146v-3q-99 -66 -161 -66q-89 0 -110 128v33q0 240 256 464
q157 106 314 106zM2214 919h25q216 0 325 -175q49 -94 49 -185v-15q0 -213 -169 -393q-138 -105 -311 -105q-159 8 -159 21q0 26 11 197h3q65 -73 156 -73h28q224 0 332 284q7 44 7 69q0 146 -134 193q-55 10 -81 11q-179 0 -346 -164q-126 -150 -166 -371
q-58 -222 -124 -222q-26 -11 -99 -11h-7q-30 0 -74 7v4q84 59 131 247q72 310 144 419q200 262 459 262zM1044 591h3q149 0 247 -302q-28 -17 -111 -78q-83 234 -125 234q-47 39 -147 39h-39v4q83 103 172 103z" />
    <glyph glyph-name="asciitilde" unicode="~" horiz-adv-x="1337" 
d="M499 888h14q142 0 183 -104q7 -29 7 -47q0 -124 -256 -466q1 -4 94 -75q134 147 252 147q58 0 87 -50l10 -40q0 -135 -190 -211q-59 -14 -135 -25q-118 -172 -118 -280q0 -75 90 -75h28q95 0 252 68h4q-16 -98 -49 -140q-122 -111 -294 -111h-6q-190 0 -232 140
q-4 14 -4 29v28q0 187 170 387q-105 62 -214 140v4q290 429 290 520v10q-3 29 -24 29q-61 0 -156 -140q-56 -93 -66 -204v-7h-3q-121 82 -121 157q0 125 211 266q97 50 176 50zM1833 884q331 0 411 -297q7 -54 7 -76v-15q0 -213 -169 -395q-145 -121 -339 -121
q-174 7 -174 23q0 43 12 200h3q80 -76 181 -76q242 0 362 275q15 52 15 94q0 157 -151 200l-68 11q-249 0 -512 -294q-71 -89 -71 -97h-8q-182 78 -184 94v11q71 161 98 237q-4 0 -4 4q-153 -40 -234 -139q-11 -34 -11 -45v-34l-4 -8q-203 31 -203 121v15q0 92 230 211
q145 60 237 60q78 0 105 -91v-30q0 -41 -7 -71q18 9 101 90q177 143 377 143z" />
    <glyph glyph-name="exclamdown" unicode="&#xa1;" 
d="M-515 -957h8q136 -140 136 -160l-96 -140v-4q195 151 220 164h4q0 -7 60 -100q-192 -124 -328 -256q-144 -162 -208 -364h-8q-160 128 -160 184v8q0 81 236 468q79 123 136 200z" />
    <glyph glyph-name="cent" unicode="&#xa2;" 
d="M-546 -1000l162 -92v-4q-15 -33 -88 -158v-4q28 -81 34 -145l3 -24q19 -190 -102 -307q-43 -37 -89 -41l-8 -1q-42 -4 -58 62q-8 82 65 276q5 66 5 73q-11 104 -147 227q2 9 93 113q63 -66 85 -84q34 108 45 109z" />
    <glyph glyph-name="yen" unicode="&#xa5;" 
d="M-1699 -171h17q97 0 184 -53v-3l-11 -43q88 78 149 78q46 -6 87 -57q28 -39 28 -42q-181 -488 -181 -542v-15q0 -63 111 -63h14q4 0 4 -4q65 0 131 247q53 134 153 134h31q101 0 101 -42q10 -12 138 -335h7q66 215 66 377q0 120 -86 155q-34 0 -46 92q-17 53 -17 67v3h4
q327 0 416 -84q145 -122 145 -279v-7q0 -123 -111 -546h-7q-118 60 -145 81v4q83 361 83 486q0 108 -76 137q-22 11 -59 14v-3q48 -93 48 -194q0 -150 -80 -363q-54 -95 -100 -95q-4 -4 -121 -46q-47 84 -156 367q-20 42 -38 42q-26 -29 -91 -215q-54 -148 -169 -148h-28
q-193 0 -253 162q-11 46 -11 81q0 155 129 451h-4q-118 -45 -118 -84q-93 -324 -93 -423q0 -53 107 -120q-35 -60 -100 -60q-123 0 -177 120q-11 38 -14 91q0 125 114 462h-7q-87 0 -173 -159q-3 -19 -3 -31v-7q-77 0 -94 98v22q0 160 173 267q68 25 129 25z" />
    <glyph glyph-name="copyright" unicode="&#xa9;" horiz-adv-x="825" 
d="M689 1464l134 6l1 -14q1 -17 -570 -2385h-6q-23 -1 -247 18l-1 28q586 2303 601 2330q56 16 88 17z" />
    <glyph glyph-name="logicalnot" unicode="&#xac;" 
d="M2 1502q-111 0 -111 133t111 133q108 0 108 -133t-108 -133zM-73 602v646h159v-646h-159z" />
    <glyph glyph-name="registered" unicode="&#xae;" 
d="M-1585 -72q116 -75 124 -83q-11 -31 -43 -147q166 152 348 185q13 4 39 4h21q52 0 78 -95v-30q0 -49 -7 -68h4q228 211 376 211q0 -3 120 -98q-10 -56 -10 -64q86 69 227 87q88 -80 88 -83q-156 -773 -166 -807h-4q-1 4 -156 98v4q64 252 117 626h-3q-123 -13 -132 -87
q-64 -452 -113 -535q-65 -80 -146 -80h-32q-17 0 -53 4q0 9 71 151q57 191 114 551q-162 -55 -238 -178q-59 -84 -85 -151q-174 82 -174 95v7q0 12 85 223q7 24 7 30h-3q-64 0 -202 -121q-29 -45 -29 -71v-38l-3 -8q-103 0 -174 68q0 8 -7 8h-4q-67 -253 -67 -340
q0 -69 159 -79q36 -3 36 -11q-46 -113 -121 -113h-28q-156 0 -231 124q-10 40 -10 68v15q0 119 127 498q-59 0 -173 -136q-25 -49 -25 -83h-4q-87 30 -106 72q-18 33 -18 68v26q0 155 263 253q94 30 163 30z" />
    <glyph glyph-name="macron" unicode="&#xaf;" 
d="M-1495 -133q25 -5 111 -46l-25 -92q105 81 276 110q146 -36 154 -39q-132 -519 -132 -577q0 -79 154 -117q116 517 211 641q61 78 187 78q215 -14 215 -32q108 -51 111 -61q-154 -701 -176 -814h-3q-17 0 -172 92q132 583 143 620q-46 7 -89 10q-57 0 -79 -49
q-61 -159 -187 -606q-8 -10 -172 -46q-298 107 -298 160q-21 25 -21 88v4q0 120 93 478q-168 -36 -168 -142v-7l3 -7l-7 -4q-66 21 -90 46q-71 -294 -71 -368q0 -68 61 -88q66 -22 161 -43v-7q-56 -89 -97 -89h-25q-104 0 -258 103q-47 51 -47 121q0 104 126 460
q-88 0 -190 -177q-11 -39 -18 -96q-115 53 -115 163q0 212 273 315q63 18 161 18z" />
    <glyph glyph-name="plusminus" unicode="&#xb1;" 
d="M-360 -537q190 -257 190 -394q84 79 135 124q58 -25 105 -98v-7q0 -4 -226 -212q-132 -139 -182 -277q-91 -174 -98 -182q-205 200 -208 281v18q0 69 226 280l-84 376z" />
    <glyph glyph-name="twosuperior" unicode="&#xb2;" 
d="M-250 -473h16q164 -18 164 -164v-8q0 -142 -200 -236v-4q136 -71 136 -164q0 -192 -440 -392q-24 196 -24 224q220 116 220 216q0 4 4 12h-4l-160 -48q-11 13 -64 128q203 107 292 188q40 47 40 88h-4l-220 -68l-52 136q213 92 296 92z" />
    <glyph glyph-name="mu" unicode="&#xb5;" 
d="M-866 2114h4q42 -162 53 -209l-4 -2q-119 8 -142 11q89 196 89 200zM-893 1865h4q63 0 158 -95l-153 -94h-4q-131 98 -145 113q90 76 140 76zM-1217 1830h4q127 -213 319 -213q163 0 278 117q0 2 17 14q5 0 95 -83v-2q-178 -148 -355 -148q-207 0 -319 144
q-45 69 -45 126v2q0 14 6 43zM-807 1500q153 -7 199 -92q22 -36 18 -81q-8 -117 -141 -241q-120 -95 -200 -91h-3q-44 2 -81 43v2q27 -1 106 41l-15 1q-219 10 -293 133q-4 21 -3 30v4q11 146 249 231q82 24 164 20zM-1097 1230q13 -74 164 -70l29 4q69 10 85 38h3
q30 -20 36 -54q98 114 84 196l-2 11q-10 58 -94 67q-33 2 -65 -3q-142 -21 -217 -113q-29 -39 -23 -76z" />
    <glyph glyph-name="cedilla" unicode="&#xb8;" 
d="M-826 2103h7q78 -300 98 -389l-7 -3q-221 14 -264 20q166 364 166 372zM-877 1640h7q117 0 295 -176l-285 -176h-6q-244 183 -271 210q167 142 260 142zM-1479 1576h8q237 -396 593 -396q303 0 517 216q0 4 30 27q10 0 178 -155v-4q-331 -274 -661 -274q-385 0 -593 267
q-83 128 -83 234v3q0 28 11 82z" />
    <glyph glyph-name="ordmasculine" unicode="&#xba;" 
d="M-826 2103h7q78 -300 98 -389l-7 -3q-221 14 -264 20q166 364 166 372zM-877 1640h7q117 0 295 -176l-285 -176h-6q-244 183 -271 210q167 142 260 142zM-1479 1576h8q237 -396 593 -396q303 0 517 216q0 4 30 27q10 0 178 -155v-4q-331 -274 -661 -274q-385 0 -593 267
q-83 128 -83 234v3q0 28 11 82z" />
    <glyph glyph-name="guillemotright" unicode="&#xbb;" horiz-adv-x="1194" 
d="M951 931h47q161 -36 161 -52q-200 -942 -211 -980l-173 92q142 648 161 752h-4l-7 4q-53 0 -73 -40q-30 -87 -89 -408q-54 -200 -131 -276q-91 -92 -315 -92q-226 0 -407 128v4q83 94 108 120q163 -80 296 -80h26q158 0 208 120q40 98 119 456q54 171 115 212
q48 40 169 40zM53 -163h53q137 0 418 -4q0 -21 -184 -307q-110 -168 -230 -168h-12q-55 0 -139 20v9q107 57 242 249q2 0 49 66v4h-33q-108 0 -152 94q-3 0 -20 33z" />
    <glyph glyph-name="onequarter" unicode="&#xbc;" horiz-adv-x="1888" 
d="M548 908q103 -50 134 -134v-11q-8 -41 -75 -254h4q142 10 142 19q125 373 496 373q284 0 354 -273q7 -37 7 -74q0 -124 -71 -410h4q63 -15 123 -19q132 0 176 138v4h11q0 -7 15 -30q-34 -171 -67 -224q-39 -63 -138 -63h-19q-133 0 -325 56q116 382 116 537v11
q0 145 -153 175h-30q-219 0 -305 -242q145 -48 145 -187q0 -172 -138 -309q-31 -30 -71 -34q-107 0 -149 187q-11 77 -11 156v4l4 19h-4q-93 -8 -213 -124q-141 -166 -141 -220q-4 0 -4 -3q-133 41 -187 130q-26 40 -26 49q48 89 187 209q12 0 41 104q78 206 78 227
q-101 -39 -145 -108q-64 -84 -64 -182l-15 -15h-3q-56 0 -116 97q-15 27 -15 59v4q0 131 201 287q137 71 247 71z" />
    <glyph glyph-name="onehalf" unicode="&#xbd;" horiz-adv-x="1680" 
d="M940 2113h7q78 -300 98 -389l-7 -3q-221 14 -264 20q166 364 166 372zM889 1650h7q117 0 295 -176l-285 -176h-6q-244 183 -271 210q167 142 260 142zM287 1586h8q237 -396 593 -396q303 0 517 216q0 4 30 27q10 0 178 -155v-4q-331 -274 -661 -274q-385 0 -593 267
q-83 128 -83 234v3q0 28 11 82zM471 949h12q255 0 341 -75q27 -44 27 -79q-6 -108 -27 -108q-41 15 -100 22q-154 0 -260 -123q-8 -14 -8 -30q0 -15 341 -19q27 0 46 -195h-4q-185 0 -383 -82q-63 -49 -88 -90q387 -41 456 -41h19q71 0 92 52q27 62 126 487q68 244 242 244
h34q105 0 138 -38l107 -75q-134 -687 -191 -891l-165 86l142 704q-29 8 -54 8h-4q-61 0 -80 -131q-81 -354 -115 -469q-21 -60 -84 -89q-41 -18 -81 -45q-3 0 -23 3l-770 30l-57 146q0 167 180 233q30 17 146 63v4q-119 21 -165 64q-35 40 -35 60v11q0 65 169 206h-8
q-92 0 -164 -116h-12q-42 50 -42 78v23q0 119 172 161q56 11 130 11z" />
    <glyph glyph-name="threequarters" unicode="&#xbe;" 
 />
    <glyph glyph-name="questiondown" unicode="&#xbf;" horiz-adv-x="320" 
 />
    <glyph glyph-name="Agrave" unicode="&#xc0;" 
d="M-1339 -151h59q18 0 141 -54v-4q-195 -537 -195 -680q0 -91 116 -91h71q93 0 133 212q119 448 192 509q87 96 245 96q0 6 183 12q171 -48 171 -58q-204 -901 -212 -920q-180 80 -183 87q137 595 149 663h-4q-196 0 -225 -54q-49 -137 -170 -543q-54 -124 -96 -124
q-90 -33 -233 -33h-25q-98 0 -208 41q-100 52 -100 162v8q0 139 141 539q-64 0 -170 -120q-63 -113 -63 -166h-8q-104 70 -104 178v17q0 153 208 282q72 41 187 41z" />
    <glyph glyph-name="Aacute" unicode="&#xc1;" horiz-adv-x="2052" 
d="M398 980q126 -67 165 -84v-4q-199 -176 -199 -218q-76 -129 -76 -272v-7q0 -256 198 -345q73 -31 131 -31q218 33 218 134q0 115 -299 211v4q50 168 58 168q192 -53 260 -53l4 7v4q0 79 -119 157q-38 15 -73 19q-39 -8 -80 -8q-11 41 -11 77q27 107 99 107h8
q139 0 271 -161q69 -95 69 -199v-7q0 -80 -130 -92h-38q184 -126 184 -230q0 -156 -215 -226q-53 -11 -115 -11q-239 0 -451 165q-157 141 -157 336v12q0 334 264 528q5 4 34 19zM1780 869q75 -4 99 -4l123 -92q-172 -842 -180 -849l-161 80q16 66 130 666q-46 4 -46 8
q-56 0 -76 -54q-15 -47 -61 -245q42 -81 80 -218l-11 -8q-48 0 -108 -7q-11 19 -11 27h-4q-33 -125 -99 -188l-150 -54q-73 149 -179 242q-6 0 -27 26q19 123 19 138h11q90 -45 234 -210q1 -8 7 -8l54 268q-64 42 -157 42h-53l-20 -4q-19 48 -19 65q139 54 192 54h26
q39 0 69 -16q41 159 88 234q59 107 230 107z" />
    <glyph glyph-name="Acircumflex" unicode="&#xc2;" 
d="M-424 74q154 -101 159 -110l-120 -464q157 -155 173 -217q39 -70 39 -180q0 -212 -145 -454h-11q-46 32 -46 42q36 191 36 291v18q0 3 3 3l-3 7v18q0 138 -128 223q-7 -31 -167 -574q164 -137 164 -227v-7q0 -192 -57 -266q-25 -14 -36 -14h-10q-57 0 -174 74
q-117 82 -117 256v35q0 5 4 36q-141 65 -291 170q-298 248 -298 521v7q0 264 220 397q106 50 223 50q170 0 440 -110l135 475h7zM-1229 -780q0 -222 415 -451l170 603q-196 103 -369 103q-157 0 -206 -177q-10 -35 -10 -78z" />
    <glyph glyph-name="Atilde" unicode="&#xc3;" 
d="M-419 78h6q132 -109 135 -121l-76 -250q180 -163 172 -351q-8 -178 -135 -375q-13 -18 -16 -18q-43 32 -42 42q38 165 42 252l2 40q5 116 -101 196h-3l-168 -491q138 -126 135 -204v-6q-8 -167 -60 -230q-23 -11 -32 -11l-9 1q-50 2 -150 71q-99 75 -93 227l1 31
q1 4 5 31q-126 65 -255 162q-245 232 -236 453l1 15q10 237 217 341q84 34 170 30l37 -2q143 -6 363 -111q89 270 90 278zM-1105 -503q-8 -194 347 -408l172 519q-177 97 -317 103q-131 6 -186 -134q-14 -39 -16 -80z" />
    <glyph glyph-name="Adieresis" unicode="&#xc4;" 
d="M-529 -977h4q120 -66 120 -75q-40 -131 -48 -146q136 -92 136 -202v-3q0 -117 -96 -234h-4q0 2 -28 19q20 107 20 153v16q0 68 -80 108h-4q0 -13 -100 -277q44 -55 44 -81v-10q0 -43 -104 -117q-80 23 -80 78q-4 31 -4 59v9q-275 103 -348 261q-24 47 -24 87v7
q0 192 228 231q25 3 56 3q116 0 248 -49q56 163 64 163zM-897 -1345q0 -79 178 -162q66 198 74 214q-61 30 -151 40q-87 0 -101 -92z" />
    <glyph glyph-name="Aring" unicode="&#xc5;" 
d="M-726 -156q153 -88 153 -102q-78 -415 -131 -624q53 -38 83 -38q79 239 193 685l228 45q0 -4 4 -4q-228 -859 -236 -880q-9 0 -145 -49q-89 35 -184 117q-66 -87 -197 -87q-77 4 -88 11q81 105 127 249q49 186 106 444h-5q-207 -50 -333 -226l-65 -98h-5q-210 81 -210 94
q0 11 110 233l4 23h-13q-155 -38 -254 -139q-22 -32 -22 -75v-19h-5q-154 0 -223 79q-13 19 -13 37q0 137 372 275q99 26 175 34q108 0 123 -120q0 -20 -9 -76q285 211 460 211z" />
    <glyph glyph-name="AE" unicode="&#xc6;" 
d="M-787 -162q160 -92 162 -99l-13 -65q111 70 292 88q82 -49 120 -84q-209 -783 -222 -811h-5l-199 95q88 270 153 636h-10q-162 -15 -162 -87q-111 -549 -167 -549q-67 -72 -180 -72h-10q-97 0 -97 11q109 130 167 373q46 185 74 328q-194 -45 -320 -187q-78 -99 -97 -141
h-5q-227 78 -227 96q0 11 116 236l5 23h-14q-73 -6 -227 -103q-65 -47 -65 -114v-16l-5 -7q-250 22 -250 129q0 104 297 236q174 62 278 69q89 0 125 -76q9 -25 9 -35v-3q0 -28 -9 -84q299 213 486 213z" />
    <glyph glyph-name="Ccedilla" unicode="&#xc7;" 
d="M-1378 -111q208 -20 226 -24v-8q-44 -21 -132 -160q-128 -262 -128 -364q0 -184 143 -252q89 -40 166 -40h15q142 0 207 92v28q0 81 -316 272q343 328 591 328q161 0 268 -140q41 -67 41 -164v-20q0 -184 -151 -632q-161 89 -162 96q128 333 128 492q0 148 -173 148
q-88 0 -215 -76q144 -126 211 -204q42 -61 42 -116q0 -129 -204 -264q-149 -72 -267 -72h-34q-238 0 -414 220l-61 120q-152 -287 -165 -300q-254 16 -347 24v8q81 71 162 176q546 803 569 832z" />
    <glyph glyph-name="Egrave" unicode="&#xc8;" 
d="M-1259 -203q350 -4 404 -18q38 -38 145 -137q0 -8 -162 -597q85 -3 128 -3h8q157 0 209 219q34 118 115 500l9 4h127q9 -1 9 -8q-98 -580 -196 -744q-77 -119 -196 -119q0 -7 -94 -7h-34q-150 0 -170 32q-6 1 -128 72q171 594 179 637h-4q-165 7 -239 7q-9 0 -17 4
q-171 0 -213 -130q-89 -312 -89 -392q0 -39 111 -39l102 370q4 0 34 4q123 0 123 -97q0 -100 -115 -421l-349 -11q-102 80 -102 165v4q0 194 145 583q54 122 217 122h43z" />
    <glyph glyph-name="Eacute" unicode="&#xc9;" 
d="M-414 38l153 -96q-174 -895 -310 -1044q-218 -276 -579 -276q-292 0 -548 184q-180 162 -180 432v28q0 306 180 740h8q54 -44 115 -112q-157 -385 -157 -648q0 -255 253 -344q171 -64 337 -64q391 0 513 332q42 119 207 864z" />
    <glyph glyph-name="Ecircumflex" unicode="&#xca;" 
d="M-414 38l153 -96q-174 -895 -310 -1044q-218 -276 -579 -276q-292 0 -548 184q-180 162 -180 432v28q0 306 180 740h8q54 -44 115 -112q-157 -385 -157 -648q0 -255 253 -344q171 -64 337 -64q391 0 513 332q42 119 207 864zM-806 -924q229 -53 236 -541q-1 -6 -140 22
q-48 259 -104 327q-55 69 -214 106l-11 2l-26 3q-4 11 -8 76q160 30 267 5z" />
    <glyph glyph-name="Edieresis" unicode="&#xcb;" horiz-adv-x="384" 
d="M131 908q162 -81 183 -98q-324 -1640 -409 -2055q-136 -346 -412 -480q-187 -91 -412 -91h-18q-301 0 -631 209q-202 144 -285 421q-25 95 -25 145q187 -12 187 -31q95 -256 282 -342q243 -115 493 -115h42q371 0 533 256q22 0 66 264q392 1863 406 1917z" />
    <glyph glyph-name="Igrave" unicode="&#xcc;" horiz-adv-x="384" 
d="M131 952q162 -82 183 -100q-324 -1666 -409 -2088q-136 -351 -412 -488q-187 -92 -412 -92h-18q-301 0 -631 212q-202 147 -285 428q-25 97 -25 148q187 -13 187 -32q95 -261 282 -348q243 -116 493 -116h42q371 0 533 260q22 0 66 268q392 1893 406 1948zM-537 -1153h6
q260 0 430 -529q-48 -30 -193 -137q-145 411 -218 411q-83 68 -255 68h-69v6q144 181 299 181z" />
    <glyph glyph-name="Iacute" unicode="&#xcd;" horiz-adv-x="347" 
d="M176 908q166 -81 188 -98q-333 -1640 -420 -2055q-140 -346 -424 -480q-192 -91 -424 -91h-18q-309 0 -648 209q-208 144 -294 421q-25 95 -25 145q192 -12 192 -31q98 -256 290 -342q250 -115 507 -115h43q381 0 547 256q23 0 69 264q402 1863 417 1917z" />
    <glyph glyph-name="Icircumflex" unicode="&#xce;" horiz-adv-x="7" 
d="M-414 38l153 -96q-174 -895 -310 -1044q-218 -276 -579 -276q-292 0 -548 184q-180 162 -180 432v28q0 306 180 740h8q54 -44 115 -112q-157 -385 -157 -648q0 -255 253 -344q171 -64 337 -64q391 0 513 332q42 119 207 864z" />
    <glyph glyph-name="Idieresis" unicode="&#xcf;" horiz-adv-x="1785" 
d="M652 908q84 -22 126 -79v-3q-219 -460 -219 -570v-7q0 -83 156 -102q36 -3 59 -3h97q160 0 215 101q38 118 118 438q68 214 240 214q21 0 51 4q30 -4 76 -4h4q140 -39 160 -56q-211 -864 -219 -911h-4q-20 0 -186 90l173 704h-21q-76 0 -76 -48q-17 -38 -80 -330
q-59 -189 -118 -255q-94 -112 -345 -112h-9q-423 0 -501 191q-13 36 -13 67v15q0 153 177 457h-4q-62 0 -152 -78q-88 -120 -88 -158v-18l4 -19l-9 -4q-164 39 -164 113v7q0 111 181 251q141 105 371 105zM528 -143h57q145 0 445 -4q0 -22 -197 -327q-116 -179 -244 -179
h-13q-59 0 -148 22v9q114 61 257 265q3 0 52 70v5h-34q-116 0 -162 100q-3 0 -21 35z" />
    <glyph glyph-name="Udieresis" unicode="&#xdc;" horiz-adv-x="229" 
d="M696 899h26q225 0 339 -174q52 -94 52 -186v-14q0 -201 -166 -381q-154 -117 -332 -117q-119 8 -170 18v8l11 170h4q36 -54 155 -54q262 0 387 265q15 51 15 91q0 136 -118 174q-28 8 -52 8h-40q-180 0 -373 -135q-155 -163 -155 -247q-173 -668 -524 -2085l-11 -11
q-1 5 -210 124q70 267 103 403q-258 -331 -498 -399q-119 -33 -203 -33h-30q-259 0 -446 214q-103 126 -103 309q0 338 291 654q317 305 631 305h33q159 0 225 -127q-283 -51 -439 -117q-167 -80 -310 -221q-195 -209 -195 -432q0 -264 199 -345q106 -40 218 -40h29
q237 0 484 305q120 158 236 490q81 266 258 919q102 318 244 465q214 196 435 196z" />
    <glyph glyph-name="Thorn" unicode="&#xde;" 
d="M-1283 -177q30 -5 132 -49l-30 -98q124 87 327 117q173 -38 182 -42q-157 -549 -157 -614q0 -80 183 -124q212 699 229 742q177 -8 225 -15q-250 -819 -267 -859l-200 -45q-323 106 -352 162q-25 44 -25 113q0 121 110 501q-200 -41 -200 -139v-19l5 -8l-9 -3
q-70 19 -106 48q-85 -312 -85 -384q0 -80 77 -101q69 -19 191 -46v-3q-73 -98 -128 -98q-140 0 -318 105q-64 53 -64 132q0 113 149 490h-4q-100 0 -217 -185q-16 -27 -25 -105h-4q-132 64 -132 165q0 236 322 343q75 19 191 19z" />
    <glyph glyph-name="germandbls" unicode="&#xdf;" 
d="M-735 -190h28q236 0 312 -158q14 -41 14 -71v-11q0 -138 -179 -293q-79 -58 -136 -58h-25q-75 0 -75 43q164 128 164 197v4q0 68 -136 86q-31 3 -53 3q-227 0 -605 -215q-169 -123 -169 -193v-11q0 -114 405 -150q30 -4 104 -4h86q168 0 483 29q0 -81 -125 -140
q-250 -75 -480 -75h-22q-410 0 -633 133q-79 72 -79 147v17q0 128 168 323q256 249 666 361q162 36 287 36z" />
    <glyph glyph-name="agrave" unicode="&#xe0;" 
d="M-638 -160h19q207 0 272 -168q10 -34 10 -62v-26q0 -123 -150 -285q-80 -65 -132 -65q-78 12 -78 33v14q144 131 144 208q0 61 -119 84q-31 4 -47 4q-209 0 -541 -230q-135 -116 -135 -186v-11q0 -95 229 -135q34 -8 112 -8q302 0 588 183q29 18 38 18q104 -22 122 -33
l-138 -354q-41 -7 -131 -18q0 15 50 182h-6q-331 -175 -610 -175q-199 0 -385 106q-97 74 -97 175v15q0 125 141 321q138 159 306 252q269 161 538 161z" />
    <glyph glyph-name="aacute" unicode="&#xe1;" 
d="M-1412 -131q133 -95 142 -111q-192 -527 -203 -653q-9 -101 99 -111l19 -2q51 -4 133 -4l-1 -8q-97 -156 -212 -145l-23 2q-249 59 -231 252l2 31q12 133 157 485q-45 4 -146 -105q-80 -115 -91 -231h-4q-141 81 -130 204l1 4q18 205 285 351q113 49 203 41zM-720 -153h4
q318 -27 392 -345q7 -59 3 -105q-12 -156 -143 -604l-4 1q-14 1 -172 96q83 338 93 452l2 31q14 165 -113 231q-30 14 -65 17l-12 1q-205 17 -410 -196q-36 -61 -40 -109q-3 -28 -6 -113q-9 -26 -30 -32q-92 7 -126 119q-5 41 -3 63q14 167 204 345q203 166 426 148z" />
    <glyph glyph-name="acircumflex" unicode="&#xe2;" 
d="M-1582 -146h19q111 0 205 -57q0 -9 -12 -50q99 84 166 84q73 -19 97 -61l30 -42q0 -10 -162 -446q-38 -114 -38 -156v-8q0 -61 146 -68q68 0 139 251q55 160 182 160h27q116 0 116 -49q7 -8 154 -362q68 74 120 587q7 110 7 175q4 0 4 4q143 -40 143 -50v-175
q0 -307 -124 -618q-60 -87 -108 -87q-7 -8 -135 -50q-69 135 -166 385q-22 44 -38 57h-8q-22 -6 -108 -248q-62 -144 -181 -144h-35q-197 0 -274 152q-20 63 -20 111q0 159 143 488h-4q-139 -46 -139 -122q-96 -326 -96 -424q0 -62 120 -133v-4q-44 -61 -108 -61h-4
q-132 0 -193 122q-12 19 -20 111q8 153 128 495h-8q-90 0 -185 -156q-12 -26 -12 -42v-15q-85 0 -104 107v23q0 148 154 266q78 50 182 50z" />
    <glyph glyph-name="atilde" unicode="&#xe3;" 
d="M-1487 -149q118 -72 125 -83q0 -11 -41 -147q165 149 361 185q13 3 40 3h22q45 0 78 -79q3 -14 3 -30v-11q0 -42 -7 -72h4q236 211 382 211q24 -13 133 -98q-85 -500 -118 -660q42 -30 70 -30l88 449h4q158 -112 158 -117q-70 -427 -85 -479l-117 -57q-84 31 -166 121v4
q-65 -72 -147 -72h-22q-19 0 -63 4l74 158q51 149 118 543q-165 -51 -247 -177q-54 -71 -88 -151q-184 81 -184 102q66 151 99 253h-4q-88 -10 -209 -125q-30 -36 -30 -68v-37l-3 -8q-85 0 -173 57q-10 18 -15 19h-4q-70 -250 -70 -340q0 -69 166 -79q37 -2 37 -12
q-44 -113 -136 -113h-11q-178 0 -247 129q-11 30 -11 64v7q0 130 132 506q-61 0 -180 -136q-20 -37 -29 -83h-4q-125 40 -125 140v26q0 155 272 253q98 30 170 30z" />
    <glyph glyph-name="adieresis" unicode="&#xe4;" 
d="M-722 -146h20q245 0 346 -224q31 -63 31 -164q0 -170 -105 -566q-4 0 -4 -4q-143 78 -175 103q86 329 86 475v19q0 190 -199 190q-99 0 -210 -88q-53 -63 -89 -174q163 -50 163 -198v-15q0 -203 -167 -327l-27 -4h-16q-115 0 -163 232q-12 62 -12 133v4q-83 -9 -210 -126
q-73 -94 -132 -213h-12q-130 78 -163 171q-16 64 -16 80q55 57 58 57l-4 8q-7 115 -7 129q0 176 148 236q86 37 233 87q35 28 35 38h8q7 -77 7 -140q0 -84 -70 -111q-203 -53 -252 -102q-55 -68 -55 -99q211 179 397 194q54 7 54 11q61 210 179 285q143 103 323 103z" />
    <glyph glyph-name="aring" unicode="&#xe5;" 
d="M-1401 -132q154 -67 161 -67v-4l-54 -189q120 114 264 163q108 34 165 34h15q71 0 96 -100v-23q0 -19 -4 -63q258 208 402 208q148 -63 153 -70q-172 -805 -191 -870h-4l-169 100v4q39 177 115 580q-154 -42 -233 -141q-50 -67 -92 -145q-191 78 -191 100q66 140 95 238
q-4 0 -4 3q-80 -8 -214 -118q-31 -38 -31 -86l4 -18l-7 -4q-99 0 -184 59q-18 30 -23 30q-84 -288 -84 -364q0 -74 160 -74h20q71 0 134 18v-4q-58 -163 -215 -163h-4q-254 0 -314 163q-7 28 -7 52v30q0 133 126 472h-4q-74 0 -206 -178q-13 -67 -20 -67q-122 65 -122 174
q0 125 211 268q145 52 256 52z" />
    <glyph glyph-name="egrave" unicode="&#xe8;" horiz-adv-x="990" 
d="M430 1304q353 -38 426 -130q38 -44 41 -131l1 -15q0 -6 105 -30q118 -45 121 -115v-12q3 -53 -87 -124q-106 -16 -123 -20l-4 7q39 61 55 127q-3 58 -87 68q-110 -548 -158 -736q-47 -150 -132 -206q-105 -49 -258 -55l-20 -1q-224 -9 -375 79l-1 11q91 137 102 144
q85 -76 235 -70l76 4q147 6 196 110q33 71 167 709q-57 -2 -202 41q-85 34 -91 167q0 11 1 170zM531 1187l1 -38q3 -67 156 -88q0 -2 33 -10l-1 4q-3 88 -84 114q-85 19 -105 18z" />
    <glyph glyph-name="eacute" unicode="&#xe9;" 
d="M-775 -150l92 -90v-4q-78 0 -372 -90q-291 -108 -388 -315q-24 -40 -36 -139q0 -177 288 -225h52q146 0 220 90l4 22q0 40 -224 203q-67 44 -84 64v3q332 293 584 293q201 0 308 -154q28 -62 28 -131v-19q0 -171 -160 -593q-162 83 -172 83v7q136 318 136 458
q0 116 -128 139q-21 4 -40 4h-28q-95 0 -216 -75q268 -187 268 -293q0 -111 -172 -225q-172 -94 -320 -94h-36q-247 0 -432 172q-112 119 -112 275q0 240 304 450q305 184 636 184z" />
    <glyph glyph-name="ecircumflex" unicode="&#xea;" horiz-adv-x="418" 
d="M104 912q182 -84 232 -113q-624 -2590 -632 -2606h-3q-1 5 -207 120q101 385 101 393q-252 -325 -501 -393q-113 -28 -188 -28h-29q-255 0 -440 209q-101 122 -101 300q0 329 287 637q208 191 337 233q155 64 283 64h22q169 0 232 -124q-293 -53 -428 -113
q-151 -65 -308 -216q-193 -205 -193 -421q0 -280 236 -350q91 -25 174 -25h29q232 0 454 280q122 168 222 445q156 440 417 1704q4 0 4 4z" />
    <glyph glyph-name="edieresis" unicode="&#xeb;" horiz-adv-x="439" 
d="M175 897q157 -73 223 -111q-257 -1097 -264 -1138q282 -311 282 -453v-10h3q74 83 80 83q53 -16 108 -83v-7q-39 -49 -195 -220q-73 -92 -101 -188l-90 -229h-7q-209 173 -209 261v14q0 75 177 278q-101 318 -108 320q-3 -29 -278 -1190q-23 7 -205 115q76 292 97 386
q-236 -310 -452 -376q-116 -38 -209 -38h-28q-244 0 -421 205q-98 121 -98 296q0 323 275 627q300 292 596 292h20q164 0 223 -122q-339 -65 -452 -132q-328 -189 -411 -442q-28 -96 -28 -167q0 -291 258 -348q60 -18 135 -18h28q223 0 435 275q87 118 171 324
q167 424 418 1671q20 119 27 125z" />
    <glyph glyph-name="igrave" unicode="&#xec;" horiz-adv-x="439" 
d="M152 914q184 -78 235 -105l-299 -1405l4 1q162 64 222 66q135 4 171 -121q4 -13 4 -31l1 -11q4 -129 -189 -229v-4q132 -59 135 -157q5 -174 -412 -379q0 -4 -8 -4v3q-4 10 -31 209q131 75 187 142q28 51 27 85q-152 -50 -162 -50q-34 59 -34 65h-4q-158 -767 -165 -774
h-4q-13 10 -210 112q90 383 90 391q-251 -337 -484 -399q-102 -35 -191 -37l-29 -1q-255 -8 -445 193q-105 118 -110 294q-10 325 267 637q202 196 330 241q152 67 281 71l21 1q169 5 236 -115q-352 -76 -460 -144q-110 -52 -255 -193q-197 -212 -190 -428q8 -259 206 -330
q104 -35 214 -32l29 1q231 7 445 290q117 169 207 446q146 454 366 1697q4 0 4 4zM77 -772q-7 14 -7 25h-4l-45 -200q141 72 230 151q37 39 42 87h-3q-204 -63 -213 -63z" />
    <glyph glyph-name="iacute" unicode="&#xed;" horiz-adv-x="509" 
d="M190 946l236 -170q-531 -2576 -546 -2623l-4 -1q-20 17 -232 130q50 241 49 258q-259 -247 -404 -287q-149 -56 -295 -60l-28 -1q-299 -8 -429 209q-42 79 -44 159l-1 16q-5 173 164 304q116 79 298 84q251 7 390 -209q8 -26 9 -36v-12q1 -36 -18 -77q-214 175 -393 170
q-3 0 -24 3q-184 -5 -240 -150q-11 -46 -10 -72q5 -184 313 -176q543 14 754 548q190 446 409 1759q36 234 46 234z" />
    <glyph glyph-name="icircumflex" unicode="&#xee;" horiz-adv-x="533" 
d="M180 905l8 1q226 -148 237 -162l-244 -1161q298 -345 302 -490v-4h4l85 92q85 -23 131 -90v-4q-21 -33 -194 -227q-107 -127 -129 -234q-97 -256 -105 -268h-4q-245 192 -248 289v12q-3 87 195 317q-100 286 -108 286q-10 -64 -226 -1071h-8q-222 118 -228 118v4
q-1 25 49 251h-4q-248 -233 -404 -280q-150 -55 -295 -59l-28 -1q-298 -8 -430 202q-42 77 -44 155v16q-6 201 219 329q115 47 238 50q259 7 394 -203q9 -26 9 -35v-12q1 -36 -17 -75q-214 170 -393 165q-3 0 -24 3q-185 -5 -240 -147q-11 -44 -10 -70q5 -180 313 -171
q565 16 772 579q197 491 427 1895z" />
    <glyph glyph-name="idieresis" unicode="&#xef;" horiz-adv-x="533" 
d="M181 873l8 1l229 -156l-262 -1292l4 1q140 62 222 65h8q122 4 170 -123l5 -38l1 -16q4 -146 -201 -253q86 -59 106 -78q37 -45 38 -92v-4q7 -204 -447 -427l-34 235q216 130 215 188q7 0 13 62l-168 -59q-29 49 -33 49q-137 -700 -154 -759h-4q-1 5 -224 125
q47 237 46 249q-264 -250 -401 -283q-137 -51 -273 -55l-27 -1q-289 -9 -416 200q-41 76 -43 153l-1 15q-5 168 157 295q111 77 288 83q242 7 377 -201q9 -27 9 -46q2 -48 -20 -75q-202 172 -400 166q-178 -6 -231 -146q-10 -45 -10 -70l1 -8q4 -130 198 -156q57 -6 104 -5
q535 17 733 553q190 462 417 1903zM92 -919q278 154 274 263q-205 -68 -237 -84z" />
    <glyph glyph-name="eth" unicode="&#xf0;" horiz-adv-x="461" 
d="M190 946l236 -170q-531 -2576 -546 -2623l-4 -1q-20 17 -232 130q50 241 49 258q-259 -247 -404 -287q-149 -56 -295 -60l-28 -1q-299 -8 -429 209q-42 79 -44 159l-1 16q-5 173 164 304q116 79 298 84q251 7 390 -209q8 -26 9 -36v-12q1 -36 -18 -77q-214 175 -393 170
q-3 0 -24 3q-184 -5 -240 -150q-11 -46 -10 -72q5 -184 313 -176q543 14 754 548q190 446 409 1759q36 234 46 234zM-1023 -1209q-574 -209 -825.5 4t-172.5 661q45 251 153 528l29 -14q-66 -207 -99 -390q-80 -450 163 -602t791 34z" />
    <glyph glyph-name="ograve" unicode="&#xf2;" horiz-adv-x="1866" 
d="M558 899q142 -52 163 -69l-53 -167q133 116 257 146q104 34 182 34q92 0 106 -107q0 -18 -7 -70q261 184 397 184q105 -43 163 -73q-231 -847 -352 -1264q227 -178 227 -382v-7q0 -221 -159 -444h-4q-22 10 -53 38q42 211 42 316q0 148 -136 236l-182 -562
q174 -134 174 -219v-18q0 -185 -61 -253q-20 -14 -34 -14h-22q-86 13 -186 80q-113 80 -113 212v100q-450 192 -584 483q-45 102 -45 198q0 234 193 368q119 73 284 73q177 0 470 -107v3q299 986 299 993h-4q-120 -19 -189 -73q-114 -91 -152 -180h-4q-163 71 -181 90v10
q0 9 91 188q0 3 7 31h-15q-144 -35 -220 -121q-15 -23 -15 -52v-21q0 -7 -7 -7q-73 0 -167 52q-27 26 -27 35h-7q-87 -282 -87 -351v-4q0 -69 166 -69h4q66 0 140 17v-3q-58 -153 -219 -153q-250 14 -299 135q-16 31 -16 66v39q0 113 125 430h-3q-75 0 -205 -166
q-13 -63 -19 -63q-121 63 -121 160v3q0 105 182 236q141 63 276 63zM513 -761q0 -214 443 -441q182 580 182 590q-209 101 -387 101q-195 0 -234 -212q-4 -31 -4 -38z" />
    <glyph glyph-name="divide" unicode="&#xf7;" horiz-adv-x="1824" 
d="M590 929q161 -69 169 -69v-4l-57 -197q126 118 278 170q113 34 172 34h16q74 0 101 -104v-23q0 -20 -4 -66q270 217 421 217q156 -66 161 -74q-181 -835 -201 -903h-4l-177 104v4q41 184 121 602q-161 -43 -245 -146q-52 -70 -96 -151q-201 81 -201 104q69 146 100 247
q-4 0 -4 4q-85 -9 -225 -123q-32 -39 -32 -89l4 -19l-8 -4q-103 0 -193 61q-19 31 -24 31q-88 -299 -88 -378q0 -77 169 -77h20q75 0 140 19v-4q-60 -170 -225 -170h-4q-266 0 -329 170q-8 29 -8 54v31q0 138 132 490h-4q-77 0 -216 -185q-14 -69 -20 -69q-129 67 -129 181
q0 129 221 278q153 54 269 54zM834 -194h57q145 0 445 -4q0 -22 -197 -327q-116 -179 -244 -179h-13q-59 0 -148 22v9q114 61 257 265q3 0 52 70v5h-34q-116 0 -162 100q-3 0 -21 35z" />
    <glyph glyph-name="oslash" unicode="&#xf8;" 
d="M-614 1931q283 -14 368 -171q40 -66 34 -150q-16 -217 -262 -446q-223 -176 -370 -169h-5q-82 4 -151 80v4q51 -3 196 75l-28 2q-405 19 -541 247q-9 38 -7 55v9q20 270 462 427q151 44 304 37zM-1151 1430q24 -136 303 -130l53 8q129 19 158 71h6q55 -38 66 -100
q182 211 155 363l-3 21q-19 107 -174 123q-61 4 -121 -5q-262 -39 -401 -209q-54 -73 -42 -142z" />
    <glyph glyph-name="ugrave" unicode="&#xf9;" 
d="M-944 1706q97 0 181 -106q42 -49 83 -200v-15l-109 -49q-92 206 -144 219q-44 38 -170 38h-15q-7 0 -7 7q99 106 181 106zM-764 1911q283 -14 368 -171q40 -66 34 -150q-16 -217 -262 -446q-223 -176 -370 -169h-5q-82 4 -151 80v4q51 -3 196 75l-28 2q-405 19 -541 247
q-9 38 -7 55v9q20 270 462 427q151 44 304 37zM-1301 1410q24 -136 303 -130l53 8q129 19 158 71h6q55 -38 66 -100q182 211 155 363l-3 21q-19 107 -174 123q-61 4 -121 -5q-262 -39 -401 -209q-54 -73 -42 -142z" />
    <glyph glyph-name="uacute" unicode="&#xfa;" horiz-adv-x="1857" 
d="M754 904q141 -63 159 -74q-132 -453 -179 -669v-27q0 -82 167 -82h8q79 0 144 20v-4q-55 -170 -226 -170q-250 12 -307 151q-15 44 -15 96q0 138 128 500h-4q-60 0 -190 -155q-31 -62 -31 -97q-133 59 -133 170q0 127 187 267q134 74 292 74zM1469 896q216 0 338 -155
l-229 -878q-321 -128 -840 -321q-266 -111 -361 -209q-94 -103 -94 -252q0 -179 206 -426q58 227 125 352q213 349 521 349q293 0 419 -213q35 -96 35 -174q0 -386 -365 -701q-104 -85 -171 -85h-8q-35 0 -82 43v3q303 306 331 376q109 188 109 317v4q0 116 -140 163
q-71 19 -128 19q-330 0 -432 -503q-23 -159 -43 -159l-136 -116q-341 297 -420 468q-54 121 -54 240v8q0 380 389 612q182 103 626 228l334 108l179 689h-4q-112 12 -148 12q-158 0 -280 -279q-92 -240 -167 -240q-17 -7 -62 -7h-47q123 393 237 549q130 178 362 178z" />
    <glyph glyph-name="udieresis" unicode="&#xfc;" horiz-adv-x="2441" 
d="M1665 1356q291 -40 438 -124q120 -70 120 -288q268 -56 268 -216q0 -73 -92 -172q0 -11 -162 -32v4q63 140 63 200q0 62 -102 84q-526 -2231 -597 -2516q-29 -128 -170 -128q-48 -4 -60 -4q-98 41 -98 144q0 33 45 332q4 0 4 52v20q0 167 -120 220q-54 20 -106 20h-14
q-285 0 -392 -564q-22 -104 -43 -104q-92 -96 -116 -116q-379 365 -420 608q-11 76 -11 124v8q0 456 473 700q118 52 753 292q3 26 166 700q-143 -34 -216 -116q-81 -103 -106 -176h-3q-173 86 -173 104q0 17 81 212q0 7 14 48q-4 0 -4 4q-63 0 -194 -112q-39 -39 -39 -108
v-16q-80 0 -169 68q-18 31 -18 40h-3q-85 -346 -85 -408q0 -88 152 -88h7q58 0 130 20q-32 -115 -106 -160q-55 -20 -98 -20q-158 0 -255 108q-39 58 -39 156q0 127 117 508h-4q-105 -40 -187 -188q-12 -72 -17 -72q-113 64 -113 168v16q0 121 155 260q117 84 275 84
l149 -76q-39 -145 -50 -192q153 160 332 196q43 8 67 8h18q67 0 88 -108v-24q0 -32 -7 -72q243 212 375 212q126 -66 148 -84q-21 -107 -226 -1040q-206 -112 -749 -348q-240 -115 -318 -204q-95 -119 -95 -268q0 -157 159 -368q199 668 593 668q303 -14 396 -224
q39 -102 39 -240h3q18 89 484 2028q-198 36 -258 76q-88 55 -88 248v64q0 62 4 168zM1792 1192v-44q0 -76 53 -100q46 -24 169 -56v4q0 127 -102 164q-63 20 -120 32z" />
    <glyph glyph-name="yacute" unicode="&#xfd;" horiz-adv-x="1868" 
d="M637 926l161 -71l-54 -183q120 113 226 146q130 48 223 48q81 0 103 -108v-4q0 -19 -7 -78q264 198 402 198q107 -47 165 -79q-196 -779 -249 -970q-256 -119 -859 -344q-206 -85 -307 -183q-96 -110 -96 -224q0 -164 173 -358h4q138 409 421 563q118 53 215 53h35
q217 0 352 -142q73 -89 73 -224v-30q0 -342 -364 -657q-104 -75 -161 -75h-8q-28 0 -84 37v8q261 280 299 351q115 165 115 310v11q0 129 -192 157h-57q-308 0 -426 -530q-18 -86 -57 -105q-109 -97 -119 -97q-304 274 -334 336q-130 159 -130 347v8q0 431 529 661l801 265
q181 638 181 649h-4q-122 -21 -192 -78q-97 -79 -146 -176q-2 -18 -11 -18q-188 86 -188 104q83 172 104 239q-4 0 -4 4q-108 -21 -223 -116q-27 -38 -27 -63v-34q0 -7 -7 -7q-148 21 -173 63q-27 20 -27 34h-3q-89 -306 -89 -370v-19q0 -70 173 -70q70 0 138 18v-4
q-33 -100 -111 -145q-62 -19 -108 -19q-253 13 -306 150q-16 53 -16 93q0 116 127 478h-4q-59 0 -192 -157q-19 -37 -26 -90q-127 65 -127 161v15q0 126 203 265q142 56 265 56zM1215 2113h7q78 -300 98 -389l-7 -3q-221 14 -264 20q166 364 166 372zM1164 1650h7
q117 0 295 -176l-285 -176h-6q-244 183 -271 210q167 142 260 142zM562 1586h8q237 -396 593 -396q303 0 517 216q0 4 30 27q10 0 178 -155v-4q-331 -274 -661 -274q-385 0 -593 267q-83 128 -83 234v3q0 28 11 82z" />
    <glyph glyph-name="thorn" unicode="&#xfe;" horiz-adv-x="2881" 
d="M637 926l161 -71l-54 -183q120 113 226 146q130 48 223 48q81 0 103 -108v-4q0 -19 -7 -78q264 198 402 198q107 -47 165 -79q-196 -779 -249 -970q-256 -119 -859 -344q-206 -85 -307 -183q-96 -110 -96 -224q0 -164 173 -358h4q138 409 421 563q118 53 215 53h35
q217 0 352 -142q73 -89 73 -224v-30q0 -342 -364 -657q-104 -75 -161 -75h-8q-28 0 -84 37v8q261 280 299 351q115 165 115 310v11q0 129 -192 157h-57q-308 0 -426 -530q-18 -86 -57 -105q-109 -97 -119 -97q-304 274 -334 336q-130 159 -130 347v8q0 431 529 661l801 265
q181 638 181 649h-4q-122 -21 -192 -78q-97 -79 -146 -176q-2 -18 -11 -18q-188 86 -188 104q83 172 104 239q-4 0 -4 4q-108 -21 -223 -116q-27 -38 -27 -63v-34q0 -7 -7 -7q-148 21 -173 63q-27 20 -27 34h-3q-89 -306 -89 -370v-19q0 -70 173 -70q70 0 138 18v-4
q-33 -100 -111 -145q-62 -19 -108 -19q-253 13 -306 150q-16 53 -16 93q0 116 127 478h-4q-59 0 -192 -157q-19 -37 -26 -90q-127 65 -127 161v15q0 126 203 265q142 56 265 56zM1215 2113h7q78 -300 98 -389l-7 -3q-221 14 -264 20q166 364 166 372zM1164 1650h7
q117 0 295 -176l-285 -176h-6q-244 183 -271 210q167 142 260 142zM562 1586h8q237 -396 593 -396q303 0 517 216q0 4 30 27q10 0 178 -155v-4q-331 -274 -661 -274q-385 0 -593 267q-83 128 -83 234v3q0 28 11 82zM2370 868h38q219 0 343 -162q72 -108 72 -230v-12
q0 -222 -177 -411q-155 -124 -336 -124h-23q-97 0 -173 19l11 185l8 3q34 -56 162 -56q279 0 411 286q15 59 15 95q0 142 -113 188q-39 12 -79 12h-27q-186 0 -388 -136q-136 -127 -136 -219v-11l4 -46q-105 36 -158 129q-8 34 -8 49v11q0 142 230 321q167 109 324 109z" />
    <glyph glyph-name="scaron" unicode="&#x161;" 
d="M-877 1924h23q265 0 420 -210q69 -108 69 -222v-8q0 -192 -176 -355q-71 -59 -237 -88q0 4 -4 4q12 94 12 134q218 77 218 275v23q0 160 -172 218q-81 23 -138 23q-214 0 -294 -214q-8 -44 -8 -62v-15q0 -4 -4 -4q0 -108 168 -225v-77q0 -20 -3 -65h-4q-356 124 -356 417
v11q0 302 348 417q69 23 138 23zM-843 1611q187 -24 187 -172q0 -100 -103 -157l-57 -15q0 3 -4 3q0 65 38 65q54 43 54 96q0 62 -61 88q-27 7 -46 7h-31q-77 0 -99 -103v-11q0 -36 65 -84v-54h-4q-138 49 -138 149v27q0 127 180 161h19z" />
    <glyph glyph-name="fhook" unicode="&#x192;" horiz-adv-x="1448" 
d="M163 359l-4 212h1214l4 -212h-1214z" />
    <glyph glyph-name="quoteleft" unicode="&#x2018;" horiz-adv-x="547" 
d="M283 289q59 50 90 104t31 112q0 11 -4 29t-8 35q-13 -2 -39 -10t-45 -13q-96 25 -96 135q0 150 126 150q81 0 127 -88q18 -39 29 -79t11 -83q0 -261 -204 -358z" />
    <glyph glyph-name="quoteright" unicode="&#x2019;" horiz-adv-x="547" 
d="M283 289q59 50 90 104t31 112q0 11 -4 29t-8 35q-13 -2 -39 -10t-45 -13q-96 25 -96 135q0 150 126 150q81 0 127 -88q18 -39 29 -79t11 -83q0 -261 -204 -358z" />
    <glyph glyph-name="quotedblleft" unicode="&#x201c;" horiz-adv-x="905" 
d="M444 621q-9 -3 -28 -9.5t-31 -10.5q-91 3 -91 128q0 54 33 101q32 50 77 50q64 0 108 -85q36 -71 36 -157q0 -136 -51 -229t-165 -149v69q63 53 94.5 109t33.5 122zM679 594q-89 32 -89 137q0 149 112 149q145 0 145 -252q0 -269 -221 -377v66q128 109 128 237
q0 10 -1.5 25t-6.5 40z" />
    <glyph glyph-name="dagger" unicode="&#x2020;" horiz-adv-x="428" 
d="M100 -592v1769h228v-1769h-228z" />
    <glyph glyph-name="daggerdbl" unicode="&#x2021;" horiz-adv-x="1650" 
d="M187 -251v204h1384v-204h-1384zM160 749l150 -1q6 0 24 -119q39 -145 132 -216q157 -98 420 -99q323 -2 419 160q50 66 80 207q7 62 17 62l128 -1q5 -1 5 -5q-1 -130 -70 -320q-82 -184 -243 -263q-152 -61 -326 -61l-13 1q-410 2 -578 214q-86 88 -121 245
q-16 56 -29 193z" />
    <glyph glyph-name="guilsinglleft" unicode="&#x2039;" horiz-adv-x="1544" 
d="M364 65q-83 89 -161.5 173.5t-159.5 174.5q41 46 80.5 89.5t79 86.5t79 86.5t82.5 89.5h62l-201 -353q48 -85 100 -173.5t101 -173.5h-62zM199 341v155h1259v-155h-1259z" />
    <glyph glyph-name="guilsinglright" unicode="&#x203a;" horiz-adv-x="1573" 
d="M1220 64h-62l197 347q-46 85 -97.5 175.5t-99.5 177.5h62q83 -91 161.5 -176.5t159.5 -175.5zM104 327v155h1259v-155h-1259z" />
    <glyph glyph-name="trademark" unicode="&#x2122;" 
d="M-877 1924h23q265 0 420 -210q69 -108 69 -222v-8q0 -192 -176 -355q-71 -59 -237 -88q0 4 -4 4q12 94 12 134q218 77 218 275v23q0 160 -172 218q-81 23 -138 23q-214 0 -294 -214q-8 -44 -8 -62v-15q0 -4 -4 -4q0 -108 168 -225v-77q0 -20 -3 -65h-4q-356 124 -356 417
v11q0 302 348 417q69 23 138 23zM-843 1611q187 -24 187 -172q0 -100 -103 -157l-57 -15q0 3 -4 3q0 65 38 65q54 43 54 96q0 62 -61 88q-27 7 -46 7h-31q-77 0 -99 -103v-11q0 -36 65 -84v-54h-4q-138 49 -138 149v27q0 127 180 161h19z" />
    <glyph glyph-name="oe" unicode="&#x153;" horiz-adv-x="1620" 
d="M443 930q140 0 414 -15l78 -117q-137 -599 -148 -636q61 -3 92 -3h30q106 0 151 136q26 94 104 459q39 143 151 143q5 0 37 4q155 0 203 -48l15 -22q-188 -860 -199 -889l-159 84q3 32 159 702q-12 0 -12 4q-70 -8 -70 -44q-21 -38 -70 -320q-59 -225 -114 -297
q-63 -70 -192 -70h-74q-101 0 -133 36q-3 0 -104 70q141 570 155 650h-3q-214 11 -229 11q-135 0 -178 -128q-36 -120 -77 -404q0 -41 96 -41l89 379l25 3q111 0 111 -99q0 -103 -99 -433h-8q-82 0 -295 -8q-89 79 -89 173q0 171 107 544q55 176 185 176h51z" />
    <glyph glyph-name="space" unicode=" " horiz-adv-x="1" 
 />
    <glyph glyph-name="Ydieresis" unicode="&#x178;" horiz-adv-x="1982" 
d="M1159 2134h7q78 -300 98 -389l-7 -3q-221 14 -264 20q166 364 166 372zM1108 1671h7q117 0 295 -176l-285 -176h-6q-244 183 -271 210q167 142 260 142zM506 1607h8q237 -396 593 -396q303 0 517 216q0 4 30 27q10 0 178 -155v-4q-331 -274 -661 -274q-385 0 -593 267
q-83 128 -83 234v3q0 28 11 82zM632 949l160 -72q-11 -45 -53 -183v-4h4q54 67 155 122q177 76 282 76h7q83 0 99 -121l-7 -73q262 202 399 202q105 -48 163 -80q-205 -839 -247 -989q-229 -109 -851 -349q-297 -131 -346 -240q-38 -53 -54 -175q0 -162 168 -361v-4
q9 9 72 171q4 0 7 12q-11 57 -15 129q0 168 152 342q167 138 415 179q159 19 224 19l27 -84q-5 -7 -187 -42q-277 -67 -372 -178q-60 -77 -65 -103q190 186 384 186q318 0 434 -243q30 -82 30 -175v-34q0 -223 -152 -460q-174 -213 -350 -213h-4q-172 0 -296 144
q-50 71 -50 153v15q0 41 19 87q-23 19 -26 19q-40 -166 -53 -178l-137 -118h-8q-299 268 -361 380q-99 147 -99 312v7q0 405 445 635q171 79 745 262q123 44 133 54l175 654h-4q-51 0 -175 -65q-143 -130 -159 -198q-6 -15 -12 -15q-163 78 -182 99v8q0 13 91 212q8 25 8 31
q-4 0 -4 4q-142 -35 -225 -126q-22 -31 -22 -57v-34q0 -8 -8 -8q-145 23 -171 65q-5 0 -30 34q-88 -310 -88 -376v-19q0 -72 171 -72q85 0 137 22q0 -3 4 -3q-58 -172 -221 -172q-250 14 -304 153q-15 54 -15 95q0 119 125 486h-3q-41 0 -137 -95q-80 -84 -80 -156h-4
q-122 71 -122 164v15q0 133 210 274q140 53 254 53zM815 -1222q3 0 26 -27q103 141 206 141q111 0 152 -125q7 -17 7 -50v-15q0 -127 -144 -182q-38 -8 -50 -8q-43 0 -133 34v-11q0 -114 171 -171q20 -4 39 -4h22q189 0 301 327q22 63 22 144v19q0 142 -144 198
q-59 19 -118 19h-15q-222 0 -342 -281v-8zM925 -1351q78 -38 118 -38q76 16 76 76q-15 57 -76 57q-69 0 -118 -95z" />
    <glyph glyph-name="dieresis" unicode="&#xa8;" 
d="M-433 1808q160 -35 158 -43q-4 -149 11 -204q27 -105 99 -210q64 -90 305 -247l-1 -4q-58 4 -103 13l-2 1q-231 49 -373 243q-82 132 -96 266q-8 61 -4 184zM-818 1869q241 -12 313 -150q34 -58 29 -132q-14 -191 -223 -393q-190 -155 -315 -149h-5q-69 4 -128 70v4
q43 -2 167 66l-24 2q-345 17 -460 217q-7 34 -6 49v7q17 238 393 377q128 39 259 32zM-1275 1428q20 -120 257 -114l46 7q109 17 134 62l5 1q47 -34 57 -89q154 187 132 320l-3 18q-16 95 -148 109q-52 3 -103 -5q-223 -34 -342 -183q-46 -65 -35 -126z" />
    <glyph glyph-name="emdash" unicode="&#x2014;" horiz-adv-x="1043" 
d="M-92 330v185h1259v-185h-1259z" />
    <glyph glyph-name="periodcentered" unicode="&#xb7;" 
d="M6 1807q-153 0 -153 162q0 63 43.5 105t109.5 42q58 0 102 -45q45 -45 45 -102q0 -69 -40 -115.5t-107 -46.5z" />
    <glyph glyph-name="endash" unicode="&#x2013;" horiz-adv-x="497" 
d="M292 474q-134 0 -134 142q0 56 38.5 92.5t95.5 36.5q52 0 90 -39q40 -40 40 -90q0 -62 -35.5 -102t-94.5 -40zM291 108q-137 0 -137 144q0 57 39 94t98 37q52 0 91 -40q40 -40 40 -91q0 -62 -36 -103t-95 -41z" />
    <glyph glyph-name="ordfeminine" unicode="&#xaa;" horiz-adv-x="2005" 
d="M528 898h4q149 0 201 -87q15 -39 15 -62q0 -131 -280 -476q1 -5 102 -77q146 149 277 149q102 -10 102 -87v-18q0 -116 -193 -196q-69 -19 -159 -30q-129 -173 -129 -283v-4q0 -73 102 -73h27q116 0 276 73q0 -3 4 -3q-18 -106 -64 -153q-137 -102 -311 -102h-8
q-208 0 -254 142q-4 14 -4 29v36q0 162 164 364q5 0 22 22q-145 80 -235 141v4q319 436 319 527v11q-3 29 -27 29q-64 0 -167 -134q-67 -105 -76 -215v-7h-3q-133 83 -133 160q0 122 224 265q109 55 204 55zM1789 864q156 -70 156 -80l-209 -876h-7q-161 85 -163 91l128 603
q-135 -28 -227 -129q-76 -99 -99 -151h-7q-178 81 -178 94v8q0 11 83 201q15 39 15 42q-4 0 -4 4q-152 -40 -223 -129q-23 -24 -23 -53v-38l-4 -8q-208 30 -208 133q0 74 178 189q182 88 296 88q92 0 106 -114v-4q0 -38 -8 -76q262 205 398 205z" />
    <glyph glyph-name="exclam" unicode="!" 
d="M-957 1664q86 0 160 -93q36 -43 73 -177v-13l-97 -43q-81 181 -126 193q-40 33 -150 33h-14q-6 0 -6 7q88 93 160 93zM-433 1808q160 -35 158 -43q-4 -149 11 -204q27 -105 99 -210q64 -90 305 -247l-1 -4q-58 4 -103 13l-2 1q-231 49 -373 243q-82 132 -96 266
q-8 61 -4 184zM-818 1869q241 -12 313 -150q34 -58 29 -132q-14 -191 -223 -393q-190 -155 -315 -149h-5q-69 4 -128 70v4q43 -2 167 66l-24 2q-345 17 -460 217q-7 34 -6 49v7q17 238 393 377q128 39 259 32zM-1275 1428q20 -120 257 -114l46 7q109 17 134 62l5 1
q47 -34 57 -89q154 187 132 320l-3 18q-16 95 -148 109q-52 3 -103 -5q-223 -34 -342 -183q-46 -65 -35 -126z" />
    <glyph glyph-name="one" unicode="1" horiz-adv-x="2176" 
d="M1563 1344q354 -52 424 -147q37 -43 37 -139v-7q0 -7 105 -34q117 -50 117 -121v-11q0 -53 -93 -121q-107 -11 -125 -15l-4 8q42 59 60 124q0 58 -84 72l-227 -1006h-4q-122 83 -157 117l218 885q-58 0 -202 49q-85 38 -85 169q0 12 8 170zM1669 1200l-4 -18
q0 -58 51 -77q110 -37 130 -37v4q0 95 -102 117q-39 11 -75 11zM548 936q124 -53 154 -74q-51 -174 -51 -183q134 128 260 161q88 33 151 33h14q67 0 92 -102q0 -26 -3 -81q247 205 378 205q6 0 154 -66q-173 -811 -180 -859h-7l-166 96q44 204 114 576h-3
q-119 -34 -184 -99q-100 -111 -121 -184h-4q-183 81 -183 96q91 223 91 238q-3 0 -3 4q-137 -37 -213 -128q-22 -24 -22 -74v-11l3 -7l-7 -4q-177 21 -194 92h-4q-81 -288 -81 -360v-3q0 -74 165 -74q77 0 132 22l4 -7q-60 -158 -191 -158h-40q-173 0 -257 110
q-29 46 -29 99v41q0 119 121 455h-4q-69 0 -195 -169q-14 -43 -14 -70h-4q-121 55 -121 165v4q0 123 202 264q143 52 246 52z" />
    <glyph glyph-name="currency" unicode="&#xa4;" horiz-adv-x="761" 
d="M393 244l168 170l-168 172l-170 -172zM76 412l313 321l314 -321l-314 -316z" />
    <glyph glyph-name="threesuperior" unicode="&#xb3;" horiz-adv-x="1782" 
d="M888 362q229 -53 236 -541q-1 -6 -140 22q-48 259 -104 327q-55 69 -214 106l-11 2l-26 3q-4 11 -8 76q160 30 267 5zM658 908q62 -17 109 -67q0 -8 -168 -333q-75 -163 -75 -233v-12q0 -73 117 -100q96 -21 151 -21h38q228 0 281 96q43 70 118 408q53 187 134 233
q53 21 155 21q90 0 227 -54v-5q-180 -740 -227 -911q-108 51 -184 92q0 11 180 699q-3 0 -33 4q-77 0 -88 -100q-80 -382 -160 -504q-81 -89 -151 -112q-122 -29 -248 -29q-398 0 -491 196q-12 63 -12 70q0 157 180 462h-8q-73 0 -155 -87q-69 -88 -84 -158l4 -25v-4h-4
q-164 36 -164 112v17q0 102 180 245q148 100 378 100z" />
    <glyph glyph-name="acute" unicode="&#xb4;" horiz-adv-x="2084" 
d="M573 932q115 -77 140 -105q-175 -512 -183 -636q-7 -98 99 -105l15 -1q46 -3 133 -1l-1 -8q-90 -153 -207 -145l-15 1q-247 50 -234 239l2 31q9 130 142 472q-45 3 -140 -105q-76 -111 -83 -225l-12 1q-131 81 -123 198q14 198 270 345q109 50 197 44zM1241 897h4
q231 0 351 -159h4q146 134 217 140q38 16 55 16q169 -62 169 -72q-197 -847 -208 -871q-174 77 -174 87q59 191 138 640h-24q-51 0 -106 -72q16 -62 16 -117q0 -221 -182 -398q-69 -52 -213 -98l-67 -15q-13 9 -130 144v3h16q258 0 335 254q0 19 8 72q0 172 -138 219
q-30 8 -55 8h-8q-204 0 -382 -201q-32 -56 -32 -106v-3q0 -79 83 -156v-3q-110 -68 -174 -68q-102 0 -122 151q0 232 233 458q183 147 386 147zM1116 592h4q154 0 255 -314q-28 -17 -115 -81q-85 244 -129 244q-49 40 -151 40h-41v4q85 107 177 107z" />
    <glyph glyph-name="sterling" unicode="&#xa3;" horiz-adv-x="1879" 
d="M590 929q161 -69 169 -69v-4l-57 -197q126 118 278 170q113 34 172 34h16q74 0 101 -104v-23q0 -20 -4 -66q270 217 421 217q156 -66 161 -74q-181 -835 -201 -903h-4l-177 104v4q41 184 121 602q-161 -43 -245 -146q-52 -70 -96 -151q-201 81 -201 104q69 146 100 247
q-4 0 -4 4q-85 -9 -225 -123q-32 -39 -32 -89l4 -19l-8 -4q-103 0 -193 61q-19 31 -24 31q-88 -299 -88 -378q0 -77 169 -77h20q75 0 140 19v-4q-60 -170 -225 -170h-4q-266 0 -329 170q-8 29 -8 54v31q0 138 132 490h-4q-77 0 -216 -185q-14 -69 -20 -69q-129 67 -129 181
q0 129 221 278q153 54 269 54z" />
    <glyph glyph-name="guillemotleft" unicode="&#xab;" horiz-adv-x="572" 
d="M-86 1853h32q211 0 404 -198q160 -206 160 -518v-12q0 -325 -304 -1545q-160 -715 -160 -951v-59q0 -163 84 -265q0 -31 -148 -51h-12q-72 0 -120 185q-8 33 -12 135q0 356 316 1713q124 614 124 804q0 348 -216 451q-83 25 -132 25q-213 0 -280 -223q-8 -43 -8 -59
q0 -73 60 -244v-5l-132 -122h-4q-148 194 -148 392v12q0 326 288 484q107 51 208 51z" />
    <glyph glyph-name="paragraph" unicode="&#xb6;" horiz-adv-x="1148" 
d="M999 887v-1793h-33v1793h-233v-1793h-34v1072q-89 4 -155 12.5t-110 23.5q-229 75 -229 335q0 108 41 174q116 191 401 191h489v-15h-137z" />
    <glyph glyph-name="quotedbl" unicode="&#x22;" horiz-adv-x="920" 
d="M444 621q-9 -3 -28 -9.5t-31 -10.5q-91 3 -91 128q0 54 33 101q32 50 77 50q64 0 108 -85q36 -71 36 -157q0 -136 -51 -229t-165 -149v69q63 53 94.5 109t33.5 122zM679 594q-89 32 -89 137q0 149 112 149q145 0 145 -252q0 -269 -221 -377v66q128 109 128 237
q0 10 -1.5 25t-6.5 40z" />
    <glyph glyph-name="numbersign" unicode="#" 
d="M-887 1724q86 0 160 -93q36 -43 73 -177v-13l-97 -43q-81 181 -126 193q-40 33 -150 33h-14q-6 0 -6 7q88 93 160 93zM-249 1951q203 -135 276 -344q54 -190 42 -230q9 -128 -16 -208q-9 -17 -15 -16q-43 201 -79 308q-81 188 -332 265l-1 7l121 219zM-737 1908
q252 -12 327 -157q36 -61 31 -139q-14 -200 -234 -411q-198 -163 -329 -156h-5q-73 4 -135 73l1 4q45 -2 174 70l-25 1q-361 18 -482 228q-7 36 -6 51v8q18 249 411 395q135 40 272 33zM-1216 1446q21 -125 270 -119l47 7q115 18 141 65l5 1q50 -35 60 -93q162 195 138 335
l-4 19q-16 99 -154 114q-55 3 -108 -5q-233 -36 -358 -192q-48 -68 -37 -132z" />
    <glyph glyph-name="zero" unicode="0" horiz-adv-x="859" 
d="M523 818q134 -3 140 -14q-7 -35 -10 -44v-3h3q24 54 31 54q122 -115 122 -265v-14q0 -161 -136 -344q-67 -76 -136 -102q-118 -51 -198 -51h-17q-111 0 -211 68v3l10 14v4h-3q-30 -24 -34 -24q-34 137 -34 228v27q0 317 317 439q67 24 156 24zM225 309q0 -120 65 -120
q23 0 25 -3q137 0 251 135q81 112 81 225q0 129 -120 129q-89 0 -204 -99q-61 -56 -92 -207q-6 -35 -6 -60z" />
    <glyph glyph-name="dollar" unicode="$" 
d="M-1367 1129q1 -2 6 -7l-16 7h10zM-352 1787q158 -35 156 -42q-4 -147 11 -201q26 -103 97 -206q63 -89 300 -242l-1 -5q-57 4 -101 13l-3 1q-226 49 -366 239q-81 129 -94 261q-8 60 -4 181zM-730 1772q329 -11 384 -332q-341 -113 -516 -107q-213 7 -380 104
q-115 -120 -118 -204q-1 -58 70 -110v-8q-15 -8 -87 -65q-79 45 -122 155q-39 133 -53 194q34 87 107 84l26 -33q-9 -58 -11 -111q4 -8 4 -12h4q20 98 86 177q-28 10 -83 74q1 11 141 56l4 -1q-1 -13 25 -44h4q234 192 515 183zM-1072 1532v-3q147 -56 238 -59
q100 -3 332 65q-20 48 -94 75q-93 17 -99 17q-167 5 -377 -95z" />
    <glyph glyph-name="ucircumflex" unicode="&#xfb;" horiz-adv-x="1857" 
d="M754 904q141 -63 159 -74q-132 -453 -179 -669v-27q0 -82 167 -82h8q79 0 144 20v-4q-55 -170 -226 -170q-250 12 -307 151q-15 44 -15 96q0 138 128 500h-4q-60 0 -190 -155q-31 -62 -31 -97q-133 59 -133 170q0 127 187 267q134 74 292 74zM1469 896q216 0 338 -155
l-229 -878q-321 -128 -840 -321q-266 -111 -361 -209q-94 -103 -94 -252q0 -179 206 -426q58 227 125 352q213 349 521 349q293 0 419 -213q35 -96 35 -174q0 -386 -365 -701q-104 -85 -171 -85h-8q-35 0 -82 43v3q303 306 331 376q109 188 109 317v4q0 116 -140 163
q-71 19 -128 19q-330 0 -432 -503q-23 -159 -43 -159l-136 -116q-341 297 -420 468q-54 121 -54 240v8q0 380 389 612q182 103 626 228l334 108l179 689h-4q-112 12 -148 12q-158 0 -280 -279q-92 -240 -167 -240q-17 -7 -62 -7h-47q123 393 237 549q130 178 362 178z
M1165 2113h7q78 -300 98 -389l-7 -3q-221 14 -264 20q166 364 166 372zM1114 1650h7q117 0 295 -176l-285 -176h-6q-244 183 -271 210q167 142 260 142zM512 1586h8q237 -396 593 -396q303 0 517 216q0 4 30 27q10 0 178 -155v-4q-331 -274 -661 -274q-385 0 -593 267
q-83 128 -83 234v3q0 28 11 82z" />
    <glyph glyph-name="comma" unicode="," horiz-adv-x="875" 
d="M353 873q512 -867 495 -1109q-5 -69 -88 -160l-4 1q-81 349 -465 1030q-55 -81 -62 -171q-130 56 -129 72q15 207 117 311q9 -1 136 26z" />
    <glyph glyph-name="period" unicode="." horiz-adv-x="1298" 
d="M353 873q512 -867 495 -1109q-5 -69 -88 -160l-4 1q-81 349 -465 1030q-55 -81 -62 -171q-130 56 -129 72q15 207 117 311q9 -1 136 26zM353 873q512 -867 495 -1109q-5 -69 -88 -160l-4 1q-81 349 -465 1030q-55 -81 -62 -171q-130 56 -129 72q15 207 117 311
q9 -1 136 26zM776 853q512 -866 495 -1108q-5 -69 -88 -160h-4q-81 350 -465 1031q-55 -82 -62 -171q-130 56 -129 72q15 207 117 310q9 0 136 26z" />
    <glyph glyph-name="oacute" unicode="&#xf3;" horiz-adv-x="738" 
d="M364 129q91 120 91 233q0 11 -5 47q-1 4 -1.5 7.5t-1.5 7.5q-12 -11 -28 -16t-33 -6q-68 5 -104 33t-41 82q7 144 166 144q60 0 116 -93l-2 2q12 -32 19 -68t3 -75q-14 -239 -165 -323z" />
    <glyph glyph-name="ocircumflex" unicode="&#xf4;" horiz-adv-x="740" 
d="M395 317q-162 0 -162 162q0 65 46.5 107.5t115.5 42.5q62 0 110 -45q47 -47 47 -105q0 -69 -42.5 -115.5t-114.5 -46.5z" />
    <glyph glyph-name="parenleft" unicode="(" 
d="M-1205 1787q228 -1 228 -12q38 -205 75 -274q67 -135 196 -255q112 -105 485 -247v-6q-80 -12 -143 -12h-4q-326 0 -576 221q-151 155 -209 333q-29 81 -58 249z" />
    <glyph glyph-name="parenright" unicode=")" 
d="M-558 1705q353 0 422 -331q-363 -128 -550 -128q-229 0 -410 95q-120 -128 -120 -215q0 -60 79 -112v-8q-16 -9 -91 -71q-87 44 -137 158q-45 136 -62 198q33 91 112 91l29 -33q-9 -61 -9 -116q5 -8 5 -12h4q19 102 87 186q-31 9 -91 75q0 10 149 62h4q0 -14 29 -46h4
q244 207 546 207zM-951 1425v-4q166 -58 268 -58q112 0 369 85q-23 53 -107 80q-105 16 -112 16q-187 0 -418 -119z" />
    <glyph glyph-name="brokenbar" unicode="&#xa6;" horiz-adv-x="786" 
d="M697 1104l89 -89v-4q-316 -170 -360 -301q-110 -245 -110 -509q0 -246 171 -385q50 -28 50 -39q0 -8 -11 -49h-6q-216 64 -381 349q-39 87 -39 182q0 260 138 544q125 197 459 301z" />
    <glyph glyph-name="section" unicode="&#xa7;" horiz-adv-x="751" 
d="M451 1052q292 -234 292 -480v-13q0 -276 -149 -547q-28 -59 -202 -171q-209 -115 -386 -115l-6 9q0 57 53 57q185 48 303 225q167 287 167 550v31q0 180 -202 392v9q0 8 130 53z" />
    <glyph glyph-name="degree" unicode="&#xb0;" 
d="M0 2045q-17 0 -31 -5.5t-25 -16.5q-22 -21 -22 -56q0 -34 22 -56q22 -21 56 -21t56 21q22 22 22 56q0 35 -22 56q-22 22 -56 22zM0 2095q55 0 91 -37q37 -36 37 -91q0 -27 -9 -50t-28 -41q-18 -19 -41 -27.5t-50 -8.5t-50 8.5t-41 27.5q-19 18 -28 41t-9 50t9 50t28 41
q18 19 41 28t50 9z" />
    <glyph glyph-name="Scaron" unicode="&#x160;" horiz-adv-x="1259" 
d="M1023 931h49q173 -36 173 -52q-214 -942 -226 -980l-185 92q152 648 173 752h-4l-9 4q-56 0 -78 -40q-31 -87 -94 -408q-58 -200 -140 -276q-98 -92 -337 -92q-241 0 -435 128v4q89 94 115 120q175 -80 316 -80h29q168 0 222 120q43 98 127 456q58 171 123 212
q52 40 181 40zM-413 57q24 1 204 3v-4l-198 -566q314 296 340 315h4l84 -108v-8q-338 -354 -398 -462q-272 -405 -347 -763q-52 -198 -67 -240q-267 91 -270 171l-1 8q-2 62 214 574q233 570 427 1080h8z" />
    <glyph glyph-name="question" unicode="?" horiz-adv-x="943" 
d="M363 194q0 153 155 153q152 0 152 -153q0 -149 -152 -149q-155 0 -155 149zM572 1768h13q203 0 273 -202q13 -38 13 -110q0 -182 -290 -576q-66 -116 -66 -176q14 -110 92 -110h9q28 0 92 22h5v-5q-25 -145 -44 -145q-8 -4 -22 -4h-9q-199 0 -277 167q-31 64 -31 141
q0 147 198 426q127 201 127 312v18q0 75 -101 88q-77 0 -202 -136q-10 0 -44 206q152 84 264 84z" />
    <glyph glyph-name="J" unicode="J" horiz-adv-x="1263" 
d="M100 422l534 531l529 -531l-529 -532z" />
    <glyph glyph-name="B" unicode="B" horiz-adv-x="1224" 
d="M327 268l-227 215l227 217l226 -217zM384 763l216 210l217 -210l-217 -212zM892 721l232 -212l-232 -211l-234 211zM861 216l-238 -232l-239 232l239 229z" />
    <glyph glyph-name="quotedblright" unicode="&#x201d;" horiz-adv-x="905" 
d="M436 669q-9 -2 -29.5 -7.5t-33.5 -8.5q-98 2 -98 104q0 44 36 82q34 41 83 41q68 0 116 -69q38 -58 38 -128q0 -111 -54.5 -186.5t-177.5 -121.5v56q67 43 101.5 89t35.5 99zM667 652q-95 25 -95 109q0 119 119 119q156 0 156 -201q0 -215 -236 -301v53q137 87 137 189
q0 8 -2 20t-8 32z" />
    <glyph glyph-name="percent" unicode="%" 
d="M-287 1858q199 -109 288 -310q71 -185 64 -228q23 -127 10 -211q-6 -19 -11 -17q-63 196 -108 300q-93 179 -328 223l-2 7l84 237zM-1367 1129q1 -2 6 -7l-16 7h10zM-730 1772q329 -11 384 -332q-341 -113 -516 -107q-213 7 -380 104q-115 -120 -118 -204q-1 -58 70 -110
v-8q-15 -8 -87 -65q-79 45 -122 155q-39 133 -53 194q34 87 107 84l26 -33q-9 -58 -11 -111q4 -8 4 -12h4q20 98 86 177q-28 10 -83 74q1 11 141 56l4 -1q-1 -13 25 -44h4q234 192 515 183zM-1072 1532v-3q147 -56 238 -59q100 -3 332 65q-20 48 -94 75q-93 17 -99 17
q-167 5 -377 -95z" />
    <glyph glyph-name="softhyphen" unicode="&#xad;" horiz-adv-x="1259" 
d="M438 890l196 -260h6q171 223 219 255q51 5 87 5h139v-5q0 -4 -330 -421q101 -142 336 -457v-10h-260q-30 17 -214 286q-219 -276 -226 -276q-236 11 -254 11v10q347 420 353 421l-313 431q12 5 18 5q57 0 243 5z" />
    <glyph glyph-name="ampersand" unicode="&#x26;" 
d="M-249 1951q203 -135 276 -344q54 -190 42 -230q9 -128 -16 -208q-9 -17 -15 -16q-43 201 -79 308q-81 188 -332 265l-1 7l121 219zM-737 1908q252 -12 327 -157q36 -61 31 -139q-14 -200 -234 -411q-198 -163 -329 -156h-5q-73 4 -135 73l1 4q45 -2 174 70l-25 1
q-361 18 -482 228q-7 36 -6 51v8q18 249 411 395q135 40 272 33zM-1216 1446q21 -125 270 -119l47 7q115 18 141 65l5 1q50 -35 60 -93q162 195 138 335l-4 19q-16 99 -154 114q-55 3 -108 -5q-233 -36 -358 -192q-48 -68 -37 -132z" />
    <glyph glyph-name="quotedblbase" unicode="&#x201e;" horiz-adv-x="835" 
d="M207 344l227 789q22 33 51 33t47 -33l228 -789q22 -74 -12 -113.5t-74 -50.5q-44 -22 -94.5 -29.5t-99.5 -7.5h7q-50 0 -101.5 7.5t-98.5 29.5q-22 11 -42.5 22t-32.5 30t-14 43.5t9 68.5z" />
    <glyph glyph-name="quotesingle" unicode="'" horiz-adv-x="547" 
d="M288 380q58 41 88 85.5t30 91.5q0 10 -4 25t-7 29q-13 -2 -38.5 -8.5t-43.5 -11.5q-94 21 -94 113q0 123 123 123q79 0 124 -73q18 -32 28.5 -65t10.5 -69q0 -215 -199 -295z" />
    <glyph glyph-name="bullet" unicode="&#x2022;" horiz-adv-x="607" 
d="M358 573q-127 0 -127 134q0 53 36 87.5t91 34.5q48 0 85 -37q37 -38 37 -85q0 -58 -33.5 -96t-88.5 -38zM347 83q-123 0 -123 130q0 52 35 85.5t88 33.5q48 0 83 -37q36 -36 36 -82q0 -56 -32.5 -93t-86.5 -37zM138 371l-2 165l419 4l2 -165z" />
    <glyph glyph-name="hyphenminus" unicode="-" horiz-adv-x="1063" 
d="M203 329l-4 165l787 4l4 -165z" />
    <glyph glyph-name="perthousand" unicode="&#x2030;" 
d="M-756 2114h4q42 -162 53 -209l-4 -2q-119 8 -142 11q89 196 89 200zM-783 1865h4q63 0 158 -95l-153 -94h-4q-131 98 -145 113q90 76 140 76zM-1107 1830h4q127 -213 319 -213q163 0 278 117q0 2 17 14q5 0 95 -83v-2q-178 -148 -355 -148q-207 0 -319 144
q-45 69 -45 126v2q0 14 6 43zM-697 1500q153 -7 199 -92q22 -36 18 -81q-8 -117 -141 -241q-120 -95 -200 -91h-3q-44 2 -81 43v2q27 -1 106 41l-15 1q-219 10 -293 133q-4 21 -3 30v4q11 146 249 231q82 24 164 20zM-987 1230q13 -74 164 -70l29 4q69 10 85 38h3
q30 -20 36 -54q98 114 84 196l-2 11q-10 58 -94 67q-33 2 -65 -3q-142 -21 -217 -113q-29 -39 -23 -76z" />
    <glyph glyph-name="quotesinglbase" unicode="&#x201a;" horiz-adv-x="1586" 
d="M158 749l150 -1q6 0 17 -119q30 -145 119 -216q152 -98 415 -99q323 -2 428 160q54 66 92 207q10 62 20 62l128 -1q5 -1 5 -5q-9 -130 -88 -320q-93 -184 -259 -263q-155 -61 -329 -61l-13 1q-410 2 -566 214q-81 88 -107 245q-12 56 -18 193z" />
    <glyph glyph-name="ntilde" unicode="&#xf1;" 
d="M-1763 -180q118 -56 123 -56v-3l-41 -159q92 95 203 137q83 28 127 28h12q54 0 74 -84v-19q0 -16 -3 -53q198 175 309 175q114 -53 118 -60q-133 -675 -147 -730h-3l-130 85v3q30 149 88 486q-118 -35 -179 -118q-39 -56 -71 -122q-147 66 -147 84q51 118 73 200
q-3 0 -3 3q-62 -7 -165 -100q-23 -31 -23 -71l3 -16l-6 -3q-76 0 -142 50q-14 25 -17 25q-65 -242 -65 -306q0 -62 124 -62h14q55 0 103 15v-3q-44 -137 -165 -137h-3q-195 0 -241 137q-6 24 -6 44v25q0 112 97 396h-3q-57 0 -159 -150q-10 -56 -15 -56q-94 54 -94 147
q0 104 162 224q112 44 198 44zM-564 -257h30q175 0 275 -128q58 -86 58 -182v-9q0 -176 -142 -326q-124 -98 -270 -98h-18q-78 0 -139 15l9 146l6 3q28 -45 130 -45q224 0 330 227q12 47 12 75q0 112 -91 149q-31 9 -63 9h-21q-150 0 -312 -108q-109 -100 -109 -173v-9
l3 -35q-84 27 -127 101q-6 27 -6 39v9q0 112 185 253q133 87 260 87z" />
    <glyph glyph-name="ydieresis" unicode="&#xff;" horiz-adv-x="960" 
 />
    <glyph glyph-name="odieresis" unicode="&#xf6;" horiz-adv-x="2102" 
d="M1120 2113h7q78 -300 98 -389l-7 -3q-221 14 -264 20q166 364 166 372zM1069 1650h7q117 0 295 -176l-285 -176h-6q-244 183 -271 210q167 142 260 142zM467 1586h8q237 -396 593 -396q303 0 517 216q0 4 30 27q10 0 178 -155v-4q-331 -274 -661 -274q-385 0 -593 267
q-83 128 -83 234v3q0 28 11 82zM398 980q126 -67 165 -84v-4q-199 -176 -199 -218q-76 -129 -76 -272v-7q0 -256 198 -345q73 -31 131 -31q218 33 218 134q0 115 -299 211v4q50 168 58 168q192 -53 260 -53l4 7v4q0 79 -119 157q-38 15 -73 19q-39 -8 -80 -8q-11 41 -11 77
q27 107 99 107h8q139 0 271 -161q69 -95 69 -199v-7q0 -80 -130 -92h-38q184 -126 184 -230q0 -156 -215 -226q-53 -11 -115 -11q-239 0 -451 165q-157 141 -157 336v12q0 334 264 528q5 4 34 19zM1780 869q75 -4 99 -4l123 -92q-172 -842 -180 -849l-161 80q16 66 130 666
q-46 4 -46 8q-56 0 -76 -54q-15 -47 -61 -245q42 -81 80 -218l-11 -8q-48 0 -108 -7q-11 19 -11 27h-4q-33 -125 -99 -188l-150 -54q-73 149 -179 242q-6 0 -27 26q19 123 19 138h11q90 -45 234 -210q1 -8 7 -8l54 268q-64 42 -157 42h-53l-20 -4q-19 48 -19 65
q139 54 192 54h26q39 0 69 -16q41 159 88 234q59 107 230 107z" />
    <glyph glyph-name="otilde" unicode="&#xf5;" horiz-adv-x="2564" 
d="M398 980q126 -67 165 -84v-4q-199 -176 -199 -218q-76 -129 -76 -272v-7q0 -256 198 -345q73 -31 131 -31q218 33 218 134q0 115 -299 211v4q50 168 58 168q192 -53 260 -53l4 7v4q0 79 -119 157q-38 15 -73 19q-39 -8 -80 -8q-11 41 -11 77q27 107 99 107h8
q139 0 271 -161q69 -95 69 -199v-7q0 -80 -130 -92h-38q184 -126 184 -230q0 -156 -215 -226q-53 -11 -115 -11q-239 0 -451 165q-157 141 -157 336v12q0 334 264 528q5 4 34 19zM2012 884h16q300 0 408 -248q28 -83 28 -152v-12q0 -211 -172 -412q-165 -132 -352 -132h-32
q-172 10 -172 20q4 8 16 192h4q39 -56 148 -56h16q9 0 16 -4q152 0 300 108q116 119 116 248v4q0 168 -140 228q-75 20 -124 20h-64q-273 0 -352 -184q-33 -53 -48 -124q76 -182 76 -308h-4q-124 0 -124 20q-8 26 -8 36h-8q-55 -172 -124 -172q-4 -5 -124 -48
q-56 115 -152 220q-64 56 -64 60q16 116 24 148q120 -60 256 -232h4l64 264q-88 56 -192 56h-8q-13 0 -20 64q100 36 188 36q58 -4 80 -16q64 190 236 296q138 80 288 80z" />
    <glyph glyph-name="Eth" unicode="&#xd0;" 
d="M-1358 -154q107 -51 135 -133v-12q-7 -39 -75 -252h4q142 11 142 19q125 371 500 371q288 0 357 -271q8 -37 8 -67v-18q0 -133 -121 -586l-169 89q113 325 113 497v15q0 134 -139 166q-14 4 -34 4h-15q-216 0 -304 -241h4q142 -49 142 -182q0 -196 -169 -333
q-30 -8 -37 -8h-12q-113 0 -146 223q-8 38 -8 118q0 3 4 23q-87 -7 -222 -126q-121 -140 -139 -219h-3q-128 37 -173 107q-41 54 -41 71q55 90 172 193q27 0 72 159q64 161 64 182h-4q-132 -53 -180 -167q-15 -40 -30 -130l-12 -7q-55 0 -116 89q-19 35 -19 66v12
q0 108 169 252q105 80 263 96h19z" />
    <glyph glyph-name="Ntilde" unicode="&#xd1;" 
d="M-798 -153h15q116 0 184 -81v-3q-362 -60 -567 -197q-155 -125 -181 -187q-71 -117 -71 -203v-9q0 -60 25 -91q57 98 252 287q231 186 453 253q107 34 195 34q125 0 192 -168q3 -4 3 -22v-9q0 -61 -181 -581q-12 0 -163 69q32 91 156 474q-55 6 -85 6q-184 0 -464 -221
q-144 -142 -231 -319q-4 -8 -113 -62q-234 164 -234 384v16q0 210 252 424q304 206 563 206z" />
    <glyph glyph-name="Ograve" unicode="&#xd2;" 
d="M-1604 -162q50 0 128 -80q-216 -470 -216 -562v-22q0 -80 152 -80q74 0 152 258q60 138 184 138h8q136 0 136 -40l160 -352q43 53 72 279q8 0 8 91v33q0 112 -92 145q-42 0 -52 80l-28 87q4 0 4 3q382 0 488 -90q164 -126 164 -276v-11q0 -125 -128 -569l-8 -4
q0 4 -168 83v8q100 377 100 497v3q0 118 -92 145q-40 11 -72 15q60 -102 60 -200q0 -176 -104 -399q-61 -83 -120 -83q-7 -7 -128 -44q-72 137 -176 378q-27 46 -40 47q-21 0 -124 -258q-58 -119 -192 -119h-8q-217 0 -292 137q-28 51 -28 113v7q0 225 252 642z" />
    <glyph glyph-name="Oacute" unicode="&#xd3;" 
d="M-1221 -120q71 -14 140 -100q8 -19 8 -22q-236 -432 -236 -534v-7q0 -78 196 -100h44q222 0 280 118q44 60 44 147v34q0 98 -148 339v3q228 115 512 115h24q65 -14 176 -56v-3q-204 -819 -228 -896q-168 82 -176 92l168 678l-8 4h-64q-88 0 -176 -44q76 -141 76 -262
q0 -196 -144 -350q-108 -81 -332 -81q-367 0 -448 206q-8 28 -8 52v7q0 172 172 465q-81 -14 -136 -63q-99 -129 -100 -173v-15l4 -26q-164 33 -164 111v7q0 125 208 277q129 77 316 77z" />
    <glyph glyph-name="Ocircumflex" unicode="&#xd4;" 
d="M-838 -720q229 -53 236 -541q-1 -6 -140 22q-48 259 -104 327q-55 69 -214 106l-11 2l-26 3q-4 11 -8 76q160 30 267 5zM-427 79q149 -84 171 -101q-86 -331 -152 -512q136 -150 136 -276q-4 -52 -12 -101h-3q-81 81 -194 187h-4q-50 -141 -241 -346q-205 -171 -341 -178
q-63 -8 -125 -8q-379 0 -516 322q-27 69 -27 148q0 398 384 535q118 31 210 31q301 0 570 -171h4q66 219 132 470h8zM-1521 -760v-20q0 -199 206 -260q64 -12 107 -12q386 0 579 463q-251 198 -468 198q-251 0 -387 -206q-37 -94 -37 -163z" />
    <glyph glyph-name="Otilde" unicode="&#xd5;" 
d="M-1680 -120q38 -26 130 -127v-23q0 -347 101 -432q118 -127 285 -127q63 0 201 35q-61 157 -61 224q0 143 136 196q22 12 65 12h30q151 0 210 -150q10 -21 10 -46q0 -96 -115 -254q33 -34 95 -34h20q156 0 251 202v5h10l30 -127q-91 -265 -306 -265q-97 0 -230 75
q-186 -115 -321 -115h-25q-396 0 -531 438q-35 160 -35 282v6q0 95 45 225h5zM-845 -585q0 -56 45 -124q60 71 60 129v12q-14 56 -35 56h-30q-20 0 -40 -73z" />
    <glyph glyph-name="Odieresis" unicode="&#xd6;" 
d="M-1475 -121q145 -82 156 -97q-148 -539 -148 -665q0 -101 112 -101h20q52 0 136 8v-8q-85 -163 -204 -163h-24q-260 36 -260 229v31q0 132 116 494q-47 0 -140 -117q-72 -121 -72 -237h-4q-152 68 -152 191v3q0 205 260 374q111 58 204 58zM-759 -164h4q329 0 432 -311
q12 -58 12 -105q0 -156 -96 -614h-4q-14 0 -184 82q56 344 56 458v31q0 167 -136 222q-32 12 -68 12h-12q-211 0 -404 -230q-32 -64 -32 -112q0 -28 4 -113q-7 -27 -28 -35q-95 0 -140 109q-8 41 -8 62q0 168 180 362q194 182 424 182zM-871 -506q167 0 280 -326l-120 -86
h-8q-52 165 -108 229q-56 66 -204 66h-28q-8 0 -8 8q103 109 196 109z" />
    <glyph glyph-name="multiply" unicode="&#xd7;" horiz-adv-x="1249" 
d="M1013 931h49q173 -36 173 -52q-214 -942 -226 -980l-185 92q152 648 173 752h-4l-9 4q-56 0 -78 -40q-31 -87 -94 -408q-58 -200 -140 -276q-98 -92 -337 -92q-241 0 -435 128v4q89 94 115 120q175 -80 316 -80h29q168 0 222 120q43 98 127 456q58 171 123 212
q52 40 181 40zM347 362q229 -53 236 -541q-1 -6 -140 22q-48 259 -104 327q-55 69 -214 106l-11 2l-26 3q-4 11 -8 76q160 30 267 5z" />
    <glyph glyph-name="Oslash" unicode="&#xd8;" horiz-adv-x="572" 
d="M1093 878h24q210 0 313 -184q40 -93 40 -177v-11q0 -190 -140 -369q-136 -123 -290 -123h-33q-123 0 -140 22q10 149 10 170h3q36 -54 140 -54q163 0 277 115q80 97 80 206v4q0 172 -144 213q-45 11 -83 11h-40q-265 0 -323 -224q-64 -208 -90 -278q-72 -199 -314 -199
h-30q-199 0 -353 116v3q84 100 93 105q153 -69 244 -69h43q164 0 210 195q86 340 230 430q127 98 273 98zM510 344q200 -47 206 -474q-1 -5 -123 19q-42 227 -90 286q-49 61 -188 93l-9 2l-23 2q-4 11 -7 67q140 27 234 5z" />
    <glyph glyph-name="Ugrave" unicode="&#xd9;" 
d="M-417 79q149 -84 171 -101q-86 -331 -152 -512q136 -150 136 -276q-4 -52 -12 -101h-3q-81 81 -194 187h-4q-50 -141 -241 -346q-205 -171 -341 -178q-63 -8 -125 -8q-379 0 -516 322q-27 69 -27 148q0 398 384 535q118 31 210 31q301 0 570 -171h4q66 219 132 470h8z
M-1511 -760v-20q0 -199 203 -260q63 -12 105 -12q382 0 572 463q-248 198 -462 198q-247 0 -381 -206q-37 -94 -37 -163z" />
    <glyph glyph-name="Uacute" unicode="&#xda;" 
d="M-411 79q144 -81 165 -97q-83 -320 -147 -495q132 -145 132 -266q-4 -50 -12 -97h-3q-79 78 -188 179h-3q-49 -135 -233 -333q-198 -166 -330 -172q-59 -8 -119 -8q-367 0 -499 311q-26 67 -26 142q0 385 371 518q114 29 202 29q291 0 551 -164h4q64 211 127 453h8z
M-1430 -715v-19q0 -184 187 -240q58 -11 97 -11q353 0 529 427q-230 184 -428 184q-228 0 -352 -191q-33 -87 -33 -150z" />
    <glyph glyph-name="Ucircumflex" unicode="&#xdb;" 
d="M-564 -954l160 -23l1 -8q-89 -324 -226 -571q-160 -235 -454 -278l-25 -4q-229 -33 -398 84q-99 85 -118 208l-1 7q-29 198 180 340q96 43 163 53l46 6q181 27 331 -118q29 -33 34 -61l1 -7q3 -21 -4 -70q-14 -2 -126 65q-131 61 -268 41q-157 -23 -194 -141
q-12 -45 -6 -81l1 -7q18 -126 220 -135q92 6 136 12q282 42 388 283q76 145 159 405z" />
    <glyph glyph-name="Yacute" unicode="&#xdd;" horiz-adv-x="257" 
d="M716 915h29q272 5 399 -228q39 -99 40 -173v-17q5 -238 -187 -450q-167 -123 -356 -127q-174 8 -183 21l-1 5l9 194h4q41 -61 172 -58q290 5 422 310q15 58 14 103q-2 155 -134 196q-30 8 -57 8l-44 -1q-220 -4 -449 -191q-86 -71 -121 -255q0 -15 -438 -2069h-9
q-214 120 -230 132q0 25 52 266h-4q-254 -244 -414 -293q-152 -57 -300 -60h-29q-303 -6 -435 219q-43 83 -44 165v16q-4 210 221 348q118 48 256 50q240 5 382 -204q17 -26 18 -61v-4q1 -52 -23 -80q-206 187 -419 183q-188 -4 -245 -154q-12 -47 -11 -75v-4
q3 -145 211 -174q56 -7 110 -6q672 13 892 845q88 305 250 1027q91 321 244 422q192 170 408 174z" />
    <glyph glyph-name="ae" unicode="&#xe6;" horiz-adv-x="1259" 
d="M1015 931h49q171 -36 171 -52q-212 -942 -224 -980l-184 92q151 648 172 752h-5l-8 4q-55 0 -77 -40q-32 -87 -94 -408q-57 -200 -139 -276q-97 -92 -334 -92q-240 0 -432 128v4q88 94 114 120q174 -80 314 -80h29q167 0 220 120q42 98 126 456q57 171 122 212
q51 40 180 40z" />
    <glyph glyph-name="ccedilla" unicode="&#xe7;" horiz-adv-x="546" 
d="M1093 878h24q210 0 313 -184q40 -93 40 -177v-11q0 -190 -140 -369q-136 -123 -290 -123h-33q-123 0 -140 22q10 149 10 170h3q36 -54 140 -54q163 0 277 115q80 97 80 206v4q0 172 -144 213q-45 11 -83 11h-40q-265 0 -323 -224q-64 -208 -90 -278q-72 -199 -314 -199
h-30q-199 0 -353 116v3q84 100 93 105q153 -69 244 -69h43q164 0 210 195q86 340 230 430q127 98 273 98z" />
    <glyph glyph-name="asterisk" unicode="*" 
d="M-1038 1898q267 -75 453 -316q191 -300 191 -516q-4 -25 -13 -25q-135 212 -216 321q-153 178 -441 178h-17q-22 0 -72 -4l-4 9l115 353h4z" />
    <glyph glyph-name="bracketleft" unicode="[" horiz-adv-x="1782" 
d="M652 908q84 -22 126 -79v-3q-219 -460 -219 -570v-7q0 -83 156 -102q36 -3 59 -3h97q160 0 215 101q38 118 118 438q68 214 240 214q21 0 51 4q30 -4 76 -4h4q139 -39 160 -56q-211 -864 -219 -911h-4q-20 0 -186 90l173 704h-21q-76 0 -76 -48q-17 -38 -80 -330
q-59 -189 -118 -255q-94 -112 -346 -112h-8q-423 0 -501 191q-13 36 -13 67v15q0 153 177 457h-4q-62 0 -152 -78q-88 -120 -88 -158v-18l4 -19l-9 -4q-164 39 -164 113v7q0 111 181 251q141 105 371 105zM888 362q229 -53 236 -541q-1 -6 -140 22q-48 259 -104 327
q-55 69 -214 106l-11 2l-26 3q-4 11 -8 76q160 30 267 5z" />
    <glyph glyph-name="eight" unicode="8" horiz-adv-x="1533" 
d="M938 1307q77 0 313 -74q96 -44 125 -112q12 -46 12 -101v-11q215 -41 215 -157q0 -54 -94 -123q-19 0 -121 -11v4q52 87 58 126q-12 68 -78 68h-8q-138 -619 -215 -806q-54 -91 -129 -123q-114 -34 -262 -34h-20q-304 0 -403 190q-12 45 -12 71v4q0 178 168 474
q-133 -37 -133 -71q-89 -99 -97 -172v-11l3 -26q-55 0 -144 63q-16 27 -16 56q0 114 168 254q140 108 349 108q67 -21 113 -82q-203 -472 -203 -586q0 -75 105 -93q62 -15 106 -15h55q173 0 219 112q35 75 176 646q5 0 12 37q-227 46 -227 75q-51 35 -51 138v11q0 27 8 168z
M1035 1188v-41q0 -63 181 -101v4q0 95 -102 123q-68 15 -79 15z" />
    <glyph glyph-name="U" unicode="U" 
d="M-797 -1813h-5q-105 0 -150 122q-19 57 -19 115q0 236 259 881l-83 270q167 166 193 225h12q1 -7 43 -108q7 0 75 193q9 35 78 207q132 -103 136 -120q-168 -432 -168 -440q97 -94 188 -145v-4q-41 -112 -95 -112q-42 0 -157 101v-1q0 -9 -11 -28q38 -236 38 -497
q0 -392 -215 -615q-61 -42 -119 -44zM-748 -1473q40 1 85 258q10 66 10 216h-4q-96 -321 -96 -424v-30z" />
    <glyph glyph-name="circumflexmod" unicode="&#x2c6;" horiz-adv-x="1129" 
d="M760 104q-80 -37 -165.5 -44.5t-161.5 11.5t-137 64t-93 115q-32 68 -38 141.5t21 144.5t91 135t172 113q108 50 198.5 57t162 -18t124 -78t84.5 -123q29 -65 24 -140t-41 -146.5t-98 -133t-143 -98.5zM677 272q158 72 215 153.5t20 166.5q-18 40 -58.5 57.5t-94.5 18
t-117 -15.5t-124 -44q-62 -28 -113 -64t-84 -75.5t-46 -82t1 -84.5q16 -40 51.5 -62.5t87.5 -27.5t118.5 10t143.5 50z" />
    <glyph glyph-name="OE" unicode="&#x152;" horiz-adv-x="1889" 
d="M456 919q90 -20 148 -88v-4q-145 -368 -212 -593v-30q0 -69 144 -69q0 -4 4 -4q74 0 152 272q60 145 192 145q132 -9 132 -34l164 -379h8q72 225 72 390v31q0 121 -100 160q-36 0 -48 96q-6 12 -24 73l8 3h24q364 0 472 -103q152 -132 152 -279v-12q0 -133 -128 -600
l-8 -4q-156 82 -168 92v4q100 394 100 520q0 168 -160 168q56 -108 56 -206q0 -183 -104 -417q-62 -88 -116 -88q-1 -4 -132 -46q-72 146 -188 421l-24 23h-8q-25 -19 -112 -249q-61 -145 -188 -145h-32q-240 0 -304 202q-4 45 -4 65v12q0 178 152 474h-4
q-134 -53 -176 -126q-23 -69 -36 -69q-60 44 -60 134v11q0 120 172 218q107 31 184 31z" />
    <glyph glyph-name="plus" unicode="+" horiz-adv-x="1061" 
d="M635 373v-356h-91v356h-346v96h346v358h91v-358h350v-96h-350z" />
    <glyph glyph-name="slash" unicode="/" horiz-adv-x="572" 
d="M-86 1853h32q211 0 404 -198q160 -206 160 -518v-12q0 -325 -304 -1545q-160 -715 -160 -951v-59q0 -163 84 -265q0 -31 -148 -51h-12q-72 0 -120 185q-8 33 -12 135q0 356 316 1713q124 614 124 804q0 348 -216 451q-83 25 -132 25q-213 0 -280 -223q-8 -43 -8 -59
q0 -73 60 -244v-5l-132 -122h-4q-148 194 -148 392v12q0 326 288 484q107 51 208 51z" />
    <glyph glyph-name="Zcaron" unicode="&#x17d;" 
d="M-1177 -143q103 -50 134 -134v-11q-8 -41 -75 -254h4q142 10 142 19q125 373 496 373q284 0 354 -273q7 -37 7 -74q0 -124 -71 -410h4q63 -15 123 -19q132 0 176 138v4h11q0 -7 15 -30q-34 -171 -67 -224q-39 -63 -138 -63h-19q-133 0 -325 56q116 382 116 537v11
q0 145 -153 175h-30q-219 0 -305 -242q145 -48 145 -187q0 -172 -138 -309q-31 -30 -71 -34q-107 0 -149 187q-11 77 -11 156v4l4 19h-4q-93 -8 -213 -124q-141 -166 -141 -220q-4 0 -4 -3q-133 41 -187 130q-26 40 -26 49q48 89 187 209q12 0 41 104q78 206 78 227
q-101 -39 -145 -108q-64 -84 -64 -182l-15 -15h-3q-56 0 -116 97q-15 27 -15 59v4q0 131 201 287q137 71 247 71z" />
    <glyph glyph-name="tildemod" unicode="&#x2dc;" horiz-adv-x="10" 
d="M150 927l-67 -1zM-1279 -1096q-430 -189 -618 4t-128 598q33 227 114 478l21 -13q-49 -187 -74 -353q-60 -407 122 -544.5t592 30.5zM-393 20l163 -89q-168 -973 -343 -1239q-246 -413 -595 -433l-24 -1q-219 -13 -372 139q-90 110 -98 241l-1 16q-13 221 181 357
q91 46 186 51l14 1q224 13 346 -214q5 -22 5 -37l1 -4q3 -51 -16 -79q-179 179 -361 168q-160 -9 -199 -160q-8 -44 -7 -66l1 -12q9 -148 200 -178q37 -6 79 -4l48 3q336 20 556 452q83 155 165 615z" />
    <glyph glyph-name="euro" unicode="&#x20ac;" horiz-adv-x="1259" 
d="M881 0l-253 352l-263 -352h-178l353 472l-305 423h176l220 -301l226 301h171l-312 -421l342 -474h-177z" />
    <glyph glyph-name="two" unicode="2" horiz-adv-x="1866" 
d="M558 899q142 -52 163 -69l-53 -167q133 116 257 146q104 34 182 34q92 0 106 -107q0 -18 -7 -70q261 184 397 184q105 -43 163 -73q-231 -847 -352 -1264q227 -178 227 -382v-7q0 -221 -159 -444h-4q-22 10 -53 38q42 211 42 316q0 148 -136 236l-182 -562
q174 -134 174 -219v-18q0 -185 -61 -253q-20 -14 -34 -14h-22q-86 13 -186 80q-113 80 -113 212v100q-450 192 -584 483q-45 102 -45 198q0 234 193 368q119 73 284 73q177 0 470 -107v3q299 986 299 993h-4q-120 -19 -189 -73q-114 -91 -152 -180h-4q-163 71 -181 90v10
q0 9 91 188q0 3 7 31h-15q-144 -35 -220 -121q-15 -23 -15 -52v-21q0 -7 -7 -7q-73 0 -167 52q-27 26 -27 35h-7q-87 -282 -87 -351v-4q0 -69 166 -69h4q66 0 140 17v-3q-58 -153 -219 -153q-250 14 -299 135q-16 31 -16 66v39q0 113 125 430h-3q-75 0 -205 -166
q-13 -63 -19 -63q-121 63 -121 160v3q0 105 182 236q141 63 276 63zM513 -761q0 -214 443 -441q182 580 182 590q-209 101 -387 101q-195 0 -234 -212q-4 -31 -4 -38z" />
    <glyph glyph-name="zcaron" unicode="&#x17e;" horiz-adv-x="1537" 
d="M764 1225h7q78 -300 98 -389l-7 -3q-221 14 -264 20q166 364 166 372zM713 762h7q117 0 295 -176l-285 -176h-6q-244 183 -271 210q167 142 260 142zM111 698h8q237 -396 593 -396q303 0 517 216q0 4 31 27q10 0 177 -155v-4q-330 -274 -661 -274q-385 0 -593 267
q-83 128 -83 234v3q0 28 11 82z" />
    <glyph glyph-name="three" unicode="3" horiz-adv-x="1956" 
d="M637 926l161 -71l-54 -183q120 113 226 146q130 48 223 48q81 0 103 -108v-4q0 -19 -7 -78q264 198 402 198q107 -47 165 -79q-196 -779 -249 -970q-256 -119 -859 -344q-206 -85 -307 -183q-96 -110 -96 -224q0 -164 173 -358h4q138 409 421 563q118 53 215 53h35
q217 0 352 -142q73 -89 73 -224v-30q0 -342 -364 -657q-104 -75 -161 -75h-8q-28 0 -84 37v8q261 280 299 351q115 165 115 310v11q0 129 -192 157h-57q-308 0 -426 -530q-18 -86 -57 -105q-109 -97 -119 -97q-304 274 -334 336q-130 159 -130 347v8q0 431 529 661l801 265
q181 638 181 649h-4q-122 -21 -192 -78q-97 -79 -146 -176q-2 -18 -11 -18q-188 86 -188 104q83 172 104 239q-4 0 -4 4q-108 -21 -223 -116q-27 -38 -27 -63v-34q0 -7 -7 -7q-148 21 -173 63q-27 20 -27 34h-3q-89 -306 -89 -370v-19q0 -70 173 -70q70 0 138 18v-4
q-33 -100 -111 -145q-62 -19 -108 -19q-253 13 -306 150q-16 53 -16 93q0 116 127 478h-4q-59 0 -192 -157q-19 -37 -26 -90q-127 65 -127 161v15q0 126 203 265q142 56 265 56z" />
    <glyph glyph-name="ellipsis" unicode="&#x2026;" 
d="M-513 -178q17 -29 194 -42q144 0 144 -112v-6q0 -87 -150 -761q-4 0 -9 -34h-3q-3 0 -92 90q6 34 133 654q-100 20 -205 31q-21 16 -21 90q3 27 3 59v25q1 6 6 6zM-1287 -394q115 -49 122 -56q-41 -131 -41 -141q86 92 257 141q46 8 69 8h6q46 0 69 -59q3 -4 6 -39
l-6 -42h3q194 157 301 157q115 -51 115 -54q-112 -532 -141 -654h-6q-119 65 -127 76q29 122 86 435q-111 -27 -155 -87q-66 -71 -84 -123l-6 -3q-141 60 -141 70q0 9 63 157q0 2 9 28h-15q-173 -63 -173 -146v-22q-103 0 -156 62v8h-3q-63 -222 -63 -270v-11q0 -53 121 -53
h14q52 0 101 14v-3q-45 -124 -161 -124h-3q-159 0 -222 90q-24 43 -24 85q0 104 99 368h-3q-81 -27 -145 -118q-12 -14 -23 -68q-95 45 -95 132t144 194q113 48 208 48z" />
    <glyph glyph-name="four" unicode="4" horiz-adv-x="1138" 
d="M398 980q126 -67 165 -84v-4q-199 -176 -199 -218q-76 -129 -76 -272v-7q0 -256 198 -345q73 -31 131 -31q218 33 218 134q0 115 -299 211v4q50 168 58 168q192 -53 260 -53l4 7v4q0 79 -119 157q-38 15 -73 19q-39 -8 -80 -8q-11 41 -11 77q27 107 99 107h8
q139 0 271 -161q69 -95 69 -199v-7q0 -80 -130 -92h-38q184 -126 184 -230q0 -156 -215 -226q-53 -11 -115 -11q-239 0 -451 165q-157 141 -157 336v12q0 334 264 528q5 4 34 19z" />
    </font>
</defs>
</svg>
